<?xml version="1.0" encoding="utf-8"?>
<!-- Generator: Adobe Illustrator 16.0.0, SVG Export Plug-In . SVG Version: 6.00 Build 0)  -->
<!DOCTYPE svg PUBLIC "-//W3C//DTD SVG 1.1//EN" "http://www.w3.org/Graphics/SVG/1.1/DTD/svg11.dtd">
<svg version="1.1" xmlns="http://www.w3.org/2000/svg" xmlns:xlink="http://www.w3.org/1999/xlink" x="0px" y="0px"
	 width="228.00049px" height="75px" viewBox="0 0 228.00049 75" enable-background="new 0 0 228.00049 75" xml:space="preserve">
<g id="Cornell_University_and_logo">
	<path fill="#FFFFFF" d="M96.98535,57.18848c-1.00293,0.60547-2.71484,0.93262-3.76904,0.93262
		c-4.15137,0-6.95215-2.36914-6.95215-6.29395c0-1.9873,0.77783-3.5625,2.10938-4.65137
		c1.29736-1.07227,3.06055-1.66113,4.99756-1.66113c1.6084,0,3.16455,0.41602,3.99463,0.70996
		c-0.17236,0.8125-0.32812,1.72949-0.32812,2.62891h-0.53613v-1.24609c0-0.4834-0.69141-0.77734-1.4873-1.07129
		c-0.55371-0.19043-1.29736-0.29395-1.93701-0.29395c-3.25146,0-4.96338,2.36914-4.96338,5.30762
		c0,3.4248,2.26562,5.63867,5.68945,5.63867c1.24512,0,2.71582-0.44824,3.51074-1.03809l0.15625,0.17383L96.98535,57.18848z"/>
	<path fill="#FFFFFF" d="M98.09229,54.07617c0-2.59473,1.62549-4.41016,4.40918-4.41016c2.21387,0,3.92627,1.72852,3.92627,3.94238
		c0,2.64551-1.88525,4.5127-4.53076,4.5127C99.71777,58.19141,98.09229,56.46289,98.09229,54.07617z M99.70068,53.33203
		c0,1.81543,0.65723,4.21973,2.87012,4.21973c1.57422,0,2.24854-1.5752,2.24854-3.18262c0-2.22949-1.05518-4.13281-2.71533-4.13281
		C100.27051,50.23633,99.70068,51.72363,99.70068,53.33203z"/>
	<path fill="#FFFFFF" d="M108.17334,52.12012c0-0.55273-0.03418-0.93359-0.12061-1.07129
		c-0.10449-0.1377-0.27686-0.19043-0.64014-0.19043h-0.63965V50.375c1.02051-0.10352,2.05811-0.43164,2.69824-0.70898
		l0.15527,0.07031v1.74512h0.03467l0.93408-1.10645c0.41504-0.50195,1.00244-0.70898,1.45166-0.70898
		c0.29395,0,0.65723,0.08594,0.79639,0.19043l-0.15576,2.07422h-0.36377c-0.18945-0.41406-0.55322-0.7959-1.17529-0.7959
		c-0.76123,0-1.52197,0.7959-1.52197,1.90332v2.97363c0,0.46777,0.01758,0.81445,0.08691,1.00391
		c0.06836,0.15527,0.32812,0.22461,0.72607,0.24219l0.89893,0.05273v0.51855c-0.89893-0.01758-1.59082-0.05273-2.43848-0.05273
		c-0.84717,0-1.53955,0.03516-2.16162,0.05273v-0.51855l0.79492-0.05273c0.29492-0.01758,0.48486-0.08691,0.5542-0.24219
		c0.06885-0.18945,0.08594-0.53613,0.08594-1.00391V52.12012z"/>
	<path fill="#FFFFFF" d="M116.2666,56.01172c0,0.46777,0.01709,0.81445,0.08691,1.00391
		c0.06836,0.15527,0.25928,0.22461,0.55322,0.24219l0.77783,0.05273v0.51855c-0.60498-0.01758-1.29688-0.05273-2.14453-0.05273
		c-0.84668,0-1.53857,0.03516-2.14404,0.05273v-0.51855l0.77832-0.05273c0.29346-0.01758,0.48389-0.08691,0.55371-0.24219
		c0.06836-0.18945,0.08643-0.53613,0.08643-1.00391v-3.8916c0-0.55273-0.03516-0.93359-0.12109-1.07129
		c-0.104-0.1377-0.27734-0.19043-0.64014-0.19043h-0.63965V50.375c1.02002-0.10352,2.05713-0.43164,2.69678-0.70898l0.15625,0.07031
		v1.46875h0.03467l1.2793-1.10547c0.38086-0.33008,0.70947-0.43359,1.40088-0.43359c2.02344,0,2.85303,1.12402,2.85303,3.00977
		v3.33594c0,0.46777,0.01709,0.81445,0.08643,1.00391c0.06982,0.15527,0.25977,0.22461,0.55371,0.24219l0.70898,0.05273v0.51855
		c-0.43262-0.01758-0.93408-0.05273-1.41797-0.05273s-0.98584,0.03516-1.3833,0.05273v-4.91211
		c0-1.43555-0.8125-2.19531-1.98877-2.19531c-1.05469,0-2.12695,0.91504-2.12695,1.625V56.01172z"/>
	<path fill="#FFFFFF" d="M130.84424,52.83008c0,0.24316,0,0.48438-0.03467,0.72656c-1.0376,0.17285-2.09229,0.24219-3.13037,0.24219
		h-2.52393c0,2.02246,1.00244,3.40723,3.12939,3.40723c0.82959,0,1.4873-0.41504,2.14453-0.8125l0.22461,0.17188l-0.34619,0.58789
		c-0.12109,0.20898-1.59033,0.96777-2.7666,0.96777c-2.61133,0-3.99463-1.6582-3.99463-3.99316
		c0-1.67676,0.44971-2.68066,1.24512-3.30371c0.32861-0.25879,0.69189-0.51758,1.07324-0.69141
		c0.60352-0.27637,1.10645-0.4668,1.69434-0.4668C129.44336,49.66602,130.84424,50.87695,130.84424,52.83008z M125.18945,53.10742
		c1.41748,0.15625,2.87061,0.12109,4.11621,0.05176c0-1.60938-0.58838-2.92285-1.8335-2.92285
		C126.14014,50.23633,125.10303,51.22168,125.18945,53.10742z"/>
	<path fill="#FFFFFF" d="M132.57324,47.05469c0-0.39746-0.05176-0.70898-0.43164-0.70898h-0.96973v-0.48438
		c0.91797-0.1377,1.83398-0.29395,2.69873-0.64062l0.15479,0.13965v10.65137c0,0.46777,0.01709,0.81445,0.0874,1.00391
		c0.06885,0.15527,0.25879,0.22461,0.55273,0.24219l0.79639,0.05273v0.51855c-0.62354-0.01758-1.31494-0.05273-2.16211-0.05273
		c-0.84814,0-1.53955,0.03516-2.16211,0.05273v-0.51855l0.79639-0.05273c0.29297-0.01758,0.48389-0.08691,0.55225-0.24219
		c0.06934-0.18945,0.08691-0.53613,0.08691-1.00391V47.05469z"/>
	<path fill="#FFFFFF" d="M137.69189,47.05469c0-0.39746-0.05225-0.70898-0.43213-0.70898h-0.96973v-0.48438
		c0.91797-0.1377,1.83398-0.29395,2.69873-0.64062l0.15527,0.13965v10.65137c0,0.46777,0.01709,0.81445,0.08691,1.00391
		c0.06934,0.15527,0.25928,0.22461,0.55273,0.24219l0.79541,0.05273v0.51855c-0.62207-0.01758-1.31396-0.05273-2.16113-0.05273
		s-1.53955,0.03516-2.16064,0.05273v-0.51855l0.79443-0.05273c0.29395-0.01758,0.48438-0.08691,0.55322-0.24219
		c0.06885-0.18945,0.08691-0.53613,0.08691-1.00391V47.05469z"/>
	<path fill="#FFFFFF" d="M147.95801,47.93652c0-0.65723-0.03516-1.10645-0.15576-1.29785
		c-0.104-0.17188-0.3125-0.24023-0.72656-0.25879l-0.83008-0.05078v-0.51855c0.89844,0.03418,1.7124,0.05078,2.55859,0.05078
		c0.79639,0,1.60889-0.0166,2.50781-0.05078v0.51855l-0.83008,0.05078c-0.41504,0.01855-0.62256,0.08691-0.72705,0.25879
		c-0.12012,0.19141-0.1543,0.64062-0.1543,1.29785v5.94922c0,2.4541,1.27881,3.16406,3.56201,3.16406
		c1.86768,0,3.56152-0.70996,3.56152-3.5791v-5.53418c0-0.65723-0.03369-1.10645-0.15576-1.29785
		c-0.10254-0.17188-0.31006-0.22266-0.72656-0.25879l-0.75928-0.05078l-0.00098-0.51855
		c0.69141,0.0166,1.38428,0.05078,2.00635,0.05078c0.69141,0,1.31396-0.03418,2.07568-0.05078v0.51855l-0.76172,0.05078
		c-0.41406,0.03613-0.62256,0.08691-0.72559,0.25879c-0.12207,0.19141-0.15674,0.64062-0.15674,1.29785v4.99805
		c0,3.70117-1.39941,5.18652-4.89355,5.18652c-2.93896,0-4.66797-0.88086-4.66797-4.04492V47.93652z"/>
	<path fill="#FFFFFF" d="M161.42871,56.01172c0,0.46777,0.01758,0.81445,0.08643,1.00391
		c0.06885,0.15527,0.25977,0.22461,0.55273,0.24219l0.7793,0.05273v0.51855c-0.60596-0.01758-1.29736-0.05273-2.14502-0.05273
		c-0.84717,0-1.53857,0.03516-2.14453,0.05273v-0.51855l0.77832-0.05273c0.29395-0.01758,0.48486-0.08691,0.55371-0.24219
		c0.06885-0.18945,0.08643-0.53613,0.08643-1.00391v-3.8916c0-0.55273-0.03516-0.93359-0.12109-1.07129
		c-0.10352-0.1377-0.27637-0.19043-0.63916-0.19043h-0.64014V50.375c1.02051-0.10352,2.05664-0.43164,2.69727-0.70898
		l0.15576,0.07031v1.46875h0.03418l1.28076-1.10547c0.37939-0.33008,0.70752-0.43359,1.39941-0.43359
		c2.02344,0,2.854,1.12402,2.854,3.00977v3.33594c0,0.46777,0.01709,0.81445,0.08545,1.00391
		c0.06982,0.15527,0.26074,0.22461,0.55469,0.24219l0.7085,0.05273v0.51855c-0.43262-0.01758-0.93359-0.05273-1.41797-0.05273
		s-0.98584,0.03516-1.3833,0.05273v-4.91211c0-1.43555-0.8125-2.19531-1.98926-2.19531c-1.05518,0-2.12646,0.91504-2.12646,1.625
		V56.01172z"/>
	<path fill="#FFFFFF" d="M172.11523,56.01172c0,0.46777,0.0166,0.81445,0.08789,1.00391
		c0.06787,0.15527,0.25879,0.22461,0.55225,0.24219l0.79443,0.05273v0.51855c-0.62158-0.01758-1.31348-0.05273-2.16064-0.05273
		c-0.84766,0-1.53906,0.03516-2.16211,0.05273v-0.51855l0.79541-0.05273c0.29346-0.01758,0.48438-0.08691,0.55322-0.24219
		c0.06982-0.18945,0.08691-0.53613,0.08691-1.00391v-3.8916c0-0.55273-0.03516-0.93359-0.12109-1.07129
		c-0.10352-0.1377-0.27686-0.19043-0.63916-0.19043h-0.64014V50.375c1.02002-0.10352,2.05811-0.43164,2.69727-0.70898
		l0.15576,0.07031V56.01172z M172.271,46.86523c0,0.5-0.46729,0.94922-0.96826,0.94922c-0.50146,0-0.95117-0.44922-0.95117-0.94922
		c0-0.50195,0.44971-0.96875,0.95117-0.96875C171.80371,45.89648,172.271,46.36328,172.271,46.86523z"/>
	<path fill="#FFFFFF" d="M178.979,56.01172c-0.29297,0.6416-0.46582,1.29883-0.70703,1.88574h-0.86621l-2.97363-6.96973
		c-0.10254-0.24219-0.20752-0.55273-0.5376-0.56934l-0.58691-0.03613v-0.48242c0.6748,0.0166,1.3501,0.05176,2.02393,0.05176
		c0.6748,0,1.33008-0.03516,2.00684-0.05176v0.48242l-0.84668,0.03613c-0.45117,0.0166-0.57227,0.25977-0.27832,0.98438
		l2.05859,4.98145c0.3623-0.79688,0.74316-1.61035,1.07129-2.42188l0.72656-1.83301
		c0.46582-1.19238,0.43262-1.69434-0.08691-1.71094l-0.70898-0.03613v-0.48242c0.53711,0.0166,1.08887,0.05176,1.62598,0.05176
		c0.53418,0,1.08789-0.03516,1.625-0.05176v0.48242l-0.53711,0.03613c-0.43066,0.03418-0.72461,0.63965-0.96582,1.1582
		L178.979,56.01172z"/>
	<path fill="#FFFFFF" d="M189.68506,52.83008c0,0.24316,0,0.48438-0.03613,0.72656c-1.03516,0.17285-2.0918,0.24219-3.12988,0.24219
		h-2.52441c0,2.02246,1.00195,3.40723,3.12988,3.40723c0.83008,0,1.48926-0.41504,2.14453-0.8125l0.22461,0.17188l-0.3457,0.58789
		c-0.12012,0.20898-1.59082,0.96777-2.76562,0.96777c-2.6123,0-3.99609-1.6582-3.99609-3.99316
		c0-1.67676,0.44922-2.68066,1.24609-3.30371c0.32812-0.25879,0.69238-0.51758,1.07129-0.69141
		c0.60547-0.27637,1.1084-0.4668,1.69434-0.4668C188.28369,49.66602,189.68506,50.87695,189.68506,52.83008z M184.02881,53.10742
		c1.41895,0.15625,2.87305,0.12109,4.11719,0.05176c0-1.60938-0.58887-2.92285-1.83398-2.92285
		C184.97998,50.23633,183.94287,51.22168,184.02881,53.10742z"/>
	<path fill="#FFFFFF" d="M192.01904,52.12012c0-0.55273-0.03418-0.93359-0.12012-1.07129
		c-0.10547-0.1377-0.27832-0.19043-0.64062-0.19043h-0.63965V50.375c1.01953-0.10352,2.05762-0.43164,2.69824-0.70898
		l0.15527,0.07031v1.74512h0.03223l0.9375-1.10645c0.41406-0.50195,1-0.70898,1.45117-0.70898
		c0.29297,0,0.65527,0.08594,0.79492,0.19043l-0.15527,2.07422h-0.36426c-0.18945-0.41406-0.55371-0.7959-1.1748-0.7959
		c-0.7627,0-1.52148,0.7959-1.52148,1.90332v2.97363c0,0.46777,0.01562,0.81445,0.08594,1.00391
		c0.06934,0.15527,0.32812,0.22461,0.72656,0.24219l0.89844,0.05273v0.51855c-0.89844-0.01758-1.59277-0.05273-2.4375-0.05273
		c-0.84668,0-1.54102,0.03516-2.16211,0.05273v-0.51855l0.7959-0.05273c0.29297-0.01758,0.48438-0.08691,0.55176-0.24219
		c0.06934-0.18945,0.08789-0.53613,0.08789-1.00391V52.12012z"/>
	<path fill="#FFFFFF" d="M197.93213,55.30371v0.70801c0,1.07324,1.22852,1.4707,2.23047,1.4707
		c1.09082,0,2.02539-0.63965,2.02539-1.57422c0-0.55371-0.29492-1.00293-0.83105-1.1416
		c-0.76074-0.18945-1.71191-0.37988-2.54395-0.69043c-0.8291-0.31152-1.46777-0.83008-1.46777-1.88574
		c0-1.86816,1.625-2.52441,3.25098-2.52441c0.8125,0,1.55566,0.19043,2.23242,0.43359
		c-0.05371,0.62207-0.07324,1.26172-0.08789,1.95312h-0.48535V51.6543c0-0.89844-1.01953-1.41797-2.00488-1.41797
		c-1.46973,0-1.69434,0.8125-1.69434,1.40039c0,0.74414,0.56934,1.14258,1.88477,1.36719
		c2.05566,0.3457,3.02637,0.86426,3.02637,2.21289c0,1.90234-1.90332,2.9043-3.82227,2.9043
		c-0.83203,0-1.57324-0.12109-2.41992-0.41406c0.17188-0.76074,0.1875-1.59082,0.1875-2.40332H197.93213z"/>
	<path fill="#FFFFFF" d="M207.28857,56.01172c0,0.46777,0.0166,0.81445,0.08789,1.00391
		c0.06738,0.15527,0.25879,0.22461,0.55176,0.24219l0.79395,0.05273v0.51855c-0.62109-0.01758-1.31348-0.05273-2.1582-0.05273
		c-0.85059,0-1.54102,0.03516-2.16406,0.05273v-0.51855l0.7959-0.05273c0.29492-0.01758,0.48242-0.08691,0.55371-0.24219
		c0.06738-0.18945,0.08594-0.53613,0.08594-1.00391v-3.8916c0-0.55273-0.03613-0.93359-0.12207-1.07129
		c-0.10156-0.1377-0.27441-0.19043-0.64062-0.19043h-0.6377V50.375c1.01953-0.10352,2.05566-0.43164,2.69629-0.70898
		l0.15723,0.07031V56.01172z M207.44385,46.86523c0,0.5-0.46777,0.94922-0.96777,0.94922
		c-0.50293,0-0.95312-0.44922-0.95312-0.94922c0-0.50195,0.4502-0.96875,0.95312-0.96875
		C206.97607,45.89648,207.44385,46.36328,207.44385,46.86523z"/>
	<path fill="#FFFFFF" d="M209.10303,51.24023v-0.36328l1.34961-0.60547v-1.21094c0-0.44922-0.01953-0.89941-0.07129-1.36621
		c0.625-0.19043,1.17676-0.46582,1.47266-0.65723l0.20703,0.19141c-0.10156,0.75977-0.19238,1.72852-0.19238,2.45508v0.6582
		l2.36914-0.10547l-0.15527,0.93457h-2.21387v4.52832c0,0.79883,0.22656,1.19629,0.95312,1.19629
		c0.4502,0,0.77637-0.19043,1.01953-0.33008l0.22363,0.2959l-0.8291,0.91504c-0.15527,0.17188-0.75977,0.20801-1.12305,0.20801
		c-0.91895,0-1.69434-0.43262-1.69434-1.83398V51.1709L209.10303,51.24023z"/>
	<path fill="#FFFFFF" d="M221.8999,51.24023c0.25879-0.64062,0-0.83008-0.62305-0.88184l-0.44824-0.03613v-0.48242
		c0.55176,0.0166,1.08691,0.05176,1.64062,0.05176s1.09277-0.03516,1.64453-0.05176v0.48242l-0.48438,0.03613
		c-0.41406,0.03418-0.7959,0.56934-1.45312,2.09277l-3.51172,8.09277c-0.55176,1.26074-1.1748,2.12598-2.62695,2.12598
		c-0.29492,0-0.6748-0.13867-0.86426-0.25977l0.41406-1.2959h0.22559c0.20898,0.20801,0.64062,0.41406,0.88184,0.39746
		c1.00391-0.07031,1.55664-1.47168,1.88379-2.26562l0.39844-1.05469c-0.29297-0.81348-0.63965-1.66113-0.96973-2.45605
		l-1.88379-4.53027c-0.27539-0.65625-0.51758-0.8125-0.89844-0.84668l-0.31055-0.03613v-0.48242
		c0.67285,0.0166,1.33203,0.05176,2.00488,0.05176c0.67383,0,1.33203-0.03516,2.00586-0.05176v0.48242l-0.65918,0.03613
		c-0.48047,0.0166-0.77637,0.19043-0.41406,1.12305l1.10645,2.90527c0.24512,0.65723,0.52148,1.2793,0.88477,1.90234
		L221.8999,51.24023z"/>
	<g>
		<g>
			<path fill="#FFFFFF" d="M37.60254,73.38477c-19.57422,0-35.49902-15.92676-35.49902-35.50146
				c0-19.57422,15.9248-35.49854,35.49902-35.49854c19.5752,0,35.50098,15.92432,35.50098,35.49854
				C73.10352,57.45801,57.17773,73.38477,37.60254,73.38477z M37.60254,4.04248c-18.65967,0-33.84082,15.18066-33.84082,33.84082
				c0,18.66064,15.18115,33.84131,33.84082,33.84131c18.66064,0,33.84277-15.18066,33.84277-33.84131
				C71.44531,19.22314,56.26318,4.04248,37.60254,4.04248z"/>
		</g>
		<g>
			<path fill="#FFFFFF" d="M37.60254,64.54785c-14.70166,0-26.6626-11.96191-26.6626-26.66455
				c0-14.70166,11.96094-26.66211,26.6626-26.66211c14.70264,0,26.66455,11.96045,26.66455,26.66211
				C64.26709,52.58594,52.30518,64.54785,37.60254,64.54785z M37.60254,12.86816c-13.79346,0-25.01514,11.22168-25.01514,25.01514
				c0,13.79443,11.22168,25.01807,25.01514,25.01807c13.79443,0,25.01709-11.22363,25.01709-25.01807
				C62.61963,24.08984,51.39697,12.86816,37.60254,12.86816z"/>
		</g>
		<g>
			<path fill="#FFFFFF" d="M37.61328,62.78223L37.2832,62.6416c-0.6792-0.29199-16.63916-7.28516-16.63916-19.95801
				l0.00244-22.76562l33.88867-0.00342l0.00293,23.17139c0,12.15039-15.91797,19.25684-16.59521,19.55371L37.61328,62.78223z
				 M22.30469,21.57617l-0.00244,21.10742c0,10.62891,13.04688,17.22266,15.30518,18.2832
				c2.25439-1.0752,15.27295-7.72266,15.27295-17.88086l-0.00293-21.51367L22.30469,21.57617z"/>
		</g>
		<g>
			<path fill="#FFFFFF" d="M30.12695,33.24805l-0.40381-0.23633c-0.07324-0.04297-1.80664-1.05908-2.96924-1.83887
				c-0.98193-0.65576-1.48633-1.35254-1.54004-2.12695c-0.01172-0.1626-0.01123-3.25732-0.00928-5.82715l0.00098-0.82812h9.91992
				l0.00195,0.82715c0.0083,3.74072,0.00732,5.7002-0.00342,5.82422c-0.02246,0.79102-0.50146,1.48975-1.4624,2.13184
				c-1.17139,0.78564-3.04443,1.80713-3.12305,1.85059L30.12695,33.24805z M26.8623,24.04834
				c-0.00146,2.10205-0.00098,4.69189,0.00537,4.8877c0.01221,0.15869,0.22998,0.47314,0.80859,0.85938
				c0.79102,0.53027,1.89307,1.19629,2.47998,1.54541c0.61621-0.34375,1.79199-1.01465,2.58301-1.54443
				c0.2168-0.14502,0.71973-0.51221,0.729-0.80762l0.00342-0.08252c0.00586-0.18018,0.00293-2.7627-0.00098-4.85791H26.8623z"/>
		</g>
		<g>
			<path fill="#FFFFFF" d="M45.45312,33.20752l-0.40381-0.23584c-0.07275-0.04297-1.8042-1.05811-2.96533-1.8374
				c-0.98193-0.65723-1.48682-1.35352-1.54102-2.12646c-0.01074-0.12793-0.01367-2.0874-0.00879-5.82959l0.00098-0.82764h9.91797
				l0.00146,0.82715c0.00781,3.7417,0.00732,5.70166-0.00244,5.82617c-0.01758,0.7832-0.49561,1.48438-1.46094,2.13086
				c-1.17383,0.78662-3.04736,1.80664-3.12744,1.84961L45.45312,33.20752z M42.19092,24.00879
				c-0.00146,2.09619-0.00098,4.68213,0.00537,4.88574c0.0127,0.16113,0.23096,0.47461,0.81104,0.86328
				c0.79004,0.53027,1.88965,1.19434,2.47559,1.54297c0.61621-0.34326,1.79395-1.0127,2.58594-1.54297
				c0.21631-0.14551,0.71973-0.51318,0.72656-0.80469l0.00391-0.08496c0.00537-0.18066,0.00293-2.76367-0.00098-4.85938H42.19092z"
				/>
		</g>
		<g>
			<rect x="20.77393" y="33.83398" fill="#FFFFFF" width="33.16846" height="1.64062"/>
		</g>
		<g>
			<path fill="#FFFFFF" d="M37.55957,54.02246c-0.55908,0-0.87891-0.39355-1.04932-0.60547
				c-0.18799-0.23145-0.28125-0.29785-0.58447-0.30273c-0.90234,0-1.56543,0.06055-2.33105,0.12988
				c-0.74951,0.06836-1.6001,0.14551-2.80908,0.17188c-1.19775,0.02734-2.12598-0.02246-2.16504-0.02441l-0.7832-0.04492
				l0.00195-15.53467l0.81104-0.01855c0.24902-0.00586,0.53516-0.00586,0.87158-0.00488
				c0.47656,0.00098,1.0625,0.00146,1.79834-0.01611c0.56299-0.0127,1.22168-0.0835,1.98438-0.16406
				c0.44727-0.04785,0.92822-0.09912,1.4458-0.14551c1.06836-0.12061,2.03955,0.07764,2.08105,0.08545
				c0.2959,0.06982,0.54688,0.16504,0.75732,0.27148c0.20557-0.10449,0.45215-0.19775,0.74609-0.26709
				c0.06006-0.01172,1.03076-0.21191,2.11865-0.0874c0.50146,0.04395,0.98438,0.0957,1.43408,0.14355
				c0.75928,0.08057,1.41553,0.15088,1.97412,0.16357c0.73633,0.01807,1.32275,0.01855,1.7998,0.01611
				C46,37.78906,46.28418,37.7876,46.53418,37.79346l0.80957,0.01855l0.00244,15.53467l-0.78271,0.04492
				c-0.03906,0.00098-0.9668,0.05176-2.16504,0.02441c-1.20801-0.02637-2.05811-0.10352-2.80811-0.17188
				c-0.78027-0.07227-1.45215-0.12988-2.37842-0.12988c-0.32373,0-0.41406,0.10254-0.61133,0.33008
				C38.41211,53.66016,38.09766,54.02246,37.55957,54.02246z M35.92529,51.45508c0.01709,0,0.03516,0,0.05225,0
				c0.81738,0.00195,1.30273,0.35742,1.59521,0.6582c0.30664-0.30371,0.80029-0.65625,1.63574-0.6582
				c1.01953,0.0127,1.74561,0.06543,2.53125,0.13672c0.75928,0.06934,1.54443,0.14062,2.69678,0.16699
				c0.47607,0.01074,0.9082,0.00879,1.25146,0.00293l-0.00195-12.31445c-0.09961,0.00293-0.20752,0-0.31836,0
				c-0.43018,0-0.9375-0.00195-1.5459-0.01758c-0.62598-0.01465-1.31396-0.08789-2.11084-0.17188
				c-0.43945-0.04688-0.91357-0.09863-1.42383-0.14258c-0.8374-0.09766-1.58838,0.05469-1.59619,0.05762
				c-0.43164,0.10156-0.56592,0.27832-0.5708,0.28613l-0.46582-0.27344l-0.53174,0.30664
				c0.00049,0.00098,0.00049,0.00195,0.00049,0.00195c-0.00391,0-0.18164-0.2168-0.65088-0.32617l0,0
				c-0.00244,0.00098-0.74707-0.14551-1.55469-0.05566c-0.52783,0.04688-0.99854,0.09863-1.43701,0.14453
				c-0.79932,0.08496-1.48926,0.1582-2.12109,0.17285c-0.75293,0.01855-1.35059,0.01758-1.83984,0.01758
				c-0.00684,0-0.01465,0-0.02197,0l-0.00195,12.31445c0.34424,0.00586,0.77832,0.00781,1.25195-0.00293
				c1.15332-0.02637,1.93848-0.09766,2.69727-0.16699C34.21729,51.52246,34.94775,51.45508,35.92529,51.45508z"/>
		</g>
		<g>
			<rect x="26.0376" y="25.63086" fill="#FFFFFF" width="8.2002" height="1.37939"/>
		</g>
		<g>
			<rect x="26.0376" y="25.4917" fill="#FFFFFF" width="8.2002" height="1.65771"/>
		</g>
		<g>
			<rect x="36.84619" y="34.12793" fill="#FFFFFF" width="1.37988" height="27.89062"/>
		</g>
		<g>
			<rect x="36.91455" y="34.12793" fill="#FFFFFF" width="1.24316" height="27.89062"/>
		</g>
		<g>
			<polygon fill="#FFFFFF" points="48.98584,28.62451 45.34277,26.1958 42.00146,28.60986 41.19336,27.4917 45.31201,24.5166 
				49.75098,27.47705 			"/>
		</g>
		<g>
			<polygon fill="#FFFFFF" points="49.02393,28.74023 45.46094,26.36572 42.19971,28.72314 41.22852,27.37891 45.42334,24.34668 
				49.94336,27.36084 			"/>
		</g>
		<g>
			<path fill="#FFFFFF" d="M44.13086,41.94238c-0.23584-0.00586-0.91064-0.02441-1.5127-0.04102l-0.57617-0.0166
				c-0.33203-0.00781-0.71387-0.04785-1.1543-0.0957c-0.21924-0.02344-0.45264-0.04883-0.7041-0.07227
				c-0.13184-0.01367-0.25439-0.0166-0.36328-0.01074l-0.03564-0.87109c0.14795-0.00781,0.31396-0.00488,0.48584,0.01465
				c0.24951,0.02344,0.48779,0.04785,0.71045,0.07324c0.41309,0.04297,0.77051,0.08398,1.0835,0.09082l0.57812,0.01562
				c0.6001,0.01758,1.27246,0.03613,1.50732,0.04199L44.13086,41.94238z"/>
		</g>
		<g>
			<path fill="#FFFFFF" d="M44.13232,44.59863l-2.0874-0.05273c-0.32764-0.00781-0.70117-0.04688-1.13135-0.09082
				c-0.22559-0.02539-0.46826-0.05176-0.729-0.07422c-0.13623-0.01465-0.26025-0.01953-0.36914-0.01562l-0.02588-0.87109
				c0.14844-0.00781,0.3125,0,0.4834,0.01855c0.25586,0.02441,0.50293,0.0498,0.73291,0.07422
				c0.40283,0.04297,0.75244,0.08008,1.05859,0.08887l2.08447,0.05176L44.13232,44.59863z"/>
		</g>
		<g>
			<path fill="#FFFFFF" d="M44.13428,47.25977c-0.1709-0.00195-0.56982-0.0127-1.00537-0.02539l-1.08447-0.0293
				c-0.32422-0.00586-0.6958-0.04395-1.12256-0.09082c-0.22803-0.02344-0.47314-0.05078-0.73682-0.07324
				c-0.13281-0.0127-0.25781-0.0166-0.36719-0.01367l-0.03125-0.87207c0.14795-0.00586,0.31152,0,0.48193,0.01758
				c0.26318,0.02441,0.51318,0.0498,0.74561,0.0752c0.39844,0.04199,0.74463,0.08105,1.04785,0.08691l1.09131,0.02832
				c0.43115,0.01172,0.8252,0.02344,0.99365,0.02637L44.13428,47.25977z"/>
		</g>
		<g>
			<path fill="#FFFFFF" d="M44.13232,49.92188c-0.30176-0.00586-1.32373-0.0332-1.99023-0.05078l-0.09912-0.00293
				c-0.3252-0.00781-0.69629-0.04688-1.12305-0.09277c-0.22803-0.02344-0.47217-0.0498-0.73535-0.07422
				c-0.13477-0.01465-0.26025-0.01855-0.3667-0.01465l-0.03125-0.87109c0.14893-0.00684,0.31494,0,0.48633,0.01953
				c0.25781,0.02344,0.50684,0.04883,0.73877,0.07422c0.40088,0.04297,0.74805,0.08008,1.05322,0.08691l0.10059,0.00293
				c0.66455,0.01758,1.68213,0.04492,1.9834,0.05176L44.13232,49.92188z"/>
		</g>
		<g>
			<path fill="#FFFFFF" d="M31.0127,41.91895l-0.01904-0.87109c0.30762-0.00684,1.35986-0.03418,2.02246-0.05176
				c0.38623-0.00781,0.74951-0.04785,1.17188-0.09375c0.21582-0.02344,0.4458-0.04883,0.69238-0.07227
				c0.15186-0.01465,0.30664-0.02441,0.44434-0.01855l-0.01025,0.87109c-0.11182-0.00195-0.22754,0.00293-0.34814,0.01562
				c-0.24658,0.02344-0.47266,0.04785-0.68506,0.07031c-0.44678,0.04883-0.83252,0.09082-1.18164,0.09668
				C32.375,41.88477,31.32129,41.91309,31.0127,41.91895z"/>
		</g>
		<g>
			<path fill="#FFFFFF" d="M31.0127,44.58105l-0.01904-0.87207l2.08789-0.05371c0.31299-0.00879,0.67041-0.04688,1.08447-0.09277
				c0.22168-0.02246,0.45947-0.0498,0.71436-0.07422c0.16455-0.01172,0.31885-0.0166,0.45801-0.01074l-0.03711,0.87012
				c-0.10791-0.00488-0.22656,0.00098-0.34619,0.00977c-0.24365,0.02344-0.47705,0.04785-0.69482,0.07227
				c-0.44189,0.04785-0.82275,0.08887-1.15771,0.09668L31.0127,44.58105z"/>
		</g>
		<g>
			<path fill="#FFFFFF" d="M31.0083,47.2373l-0.01074-0.87207c0.31787-0.00391,1.42676-0.03516,2.08203-0.05371
				c0.30762-0.00488,0.66406-0.04199,1.07666-0.08691c0.2251-0.02246,0.46729-0.04883,0.72656-0.07227
				c0.14404-0.01758,0.2998-0.02148,0.44189-0.01758l-0.01025,0.87109c-0.10693,0-0.22266,0-0.34082,0.01367
				c-0.26855,0.02441-0.50439,0.04883-0.72559,0.07324c-0.43408,0.04492-0.80957,0.08496-1.15088,0.08887
				C32.44434,47.2002,31.32812,47.2334,31.0083,47.2373z"/>
		</g>
		<g>
			<path fill="#FFFFFF" d="M31.00928,49.90039l-0.01221-0.87012c0.29932-0.00391,1.30127-0.0332,1.96387-0.05078l0.11914-0.00293
				c0.31885-0.00781,0.68066-0.04883,1.1001-0.09277c0.21826-0.02441,0.45068-0.0498,0.69922-0.07324
				c0.14893-0.0166,0.30322-0.01953,0.44287-0.0166l-0.01025,0.87109c-0.10693,0-0.22412-0.00098-0.34277,0.0127
				c-0.25146,0.02344-0.48047,0.04883-0.69434,0.07227c-0.44824,0.04883-0.83496,0.08887-1.17285,0.09766l-0.1167,0.00391
				C32.31836,49.87012,31.31006,49.89648,31.00928,49.90039z"/>
		</g>
		<g>
			<g>
				<rect x="26.20996" y="40.02246" fill="#FFFFFF" width="1.80518" height="1.98145"/>
			</g>
			<g>
				<rect x="26.20996" y="44.60742" fill="#FFFFFF" width="1.90234" height="1.98535"/>
			</g>
			<g>
				<rect x="26.20996" y="48.70996" fill="#FFFFFF" width="1.80518" height="1.97656"/>
			</g>
			<g>
				<rect x="46.99365" y="40.41406" fill="#FFFFFF" width="1.80615" height="1.97852"/>
			</g>
			<g>
				<rect x="46.99365" y="44.99805" fill="#FFFFFF" width="1.90234" height="1.98242"/>
			</g>
			<g>
				<rect x="46.99365" y="49.09863" fill="#FFFFFF" width="1.80615" height="1.97949"/>
			</g>
			<g>
				<g>
					<g>
						<path fill="#FFFFFF" d="M9.73682,34.47168c0.06152,0.34961,0.10596,0.72412,0.08398,1.08203
							c-0.09619,1.52393-0.93555,2.5332-2.54883,2.43213c-1.63428-0.10254-2.48779-1.14551-2.38916-2.74121
							c0.021-0.31104,0.10791-0.71729,0.26514-1.05371l0.80322,0.11768c-0.22852,0.34619-0.29688,0.66504-0.31689,1.00244
							c-0.06104,0.97119,0.65234,1.62451,1.63135,1.68604c0.97168,0.06152,1.73779-0.48877,1.80127-1.49121
							c0.02441-0.36914-0.03174-0.81299-0.1333-1.04248L9.73682,34.47168z"/>
					</g>
				</g>
				<g>
					<g>
						<path fill="#FFFFFF" d="M6.00195,29.26221c0.40283-1.42383,1.60449-1.94434,2.99658-1.54834
							c1.39014,0.39258,2.1665,1.46729,1.75928,2.90088c-0.41309,1.45508-1.61182,1.94434-3.02344,1.54541
							C6.32373,31.75781,5.59082,30.70703,6.00195,29.26221z M10.03369,30.40869c0.26416-0.92822-0.4751-1.51172-1.30518-1.74707
							c-0.81152-0.23193-1.74658-0.09619-2.00439,0.80811c-0.25537,0.90186,0.46924,1.50879,1.28027,1.73828
							C8.83301,31.44482,9.76904,31.33838,10.03369,30.40869z"/>
					</g>
				</g>
				<g>
					<g>
						<path fill="#FFFFFF" d="M7.90186,24.31689l0.48047-0.89941c0.47461-0.89502,1.01172-1.979,2.18604-1.35352
							c0.49512,0.26367,0.73193,0.81201,0.52197,1.37842l0.01123,0.00977c0.13916-0.21924,0.43945-0.22705,0.67188-0.21045
							l2.00537,0.21045l-0.49463,0.93018l-1.58447-0.20166c-0.37891-0.04785-0.55664-0.00537-0.74414,0.34521l-0.14209,0.26904
							l1.75293,0.93457l-0.44482,0.83545L7.90186,24.31689z M10.14746,24.44141l0.14648-0.27441
							c0.22021-0.41064,0.41064-0.91504-0.11621-1.19385c-0.5083-0.27148-0.79785,0.17236-1.021,0.58887l-0.146,0.27441
							L10.14746,24.44141z"/>
					</g>
				</g>
				<g>
					<g>
						<path fill="#FFFFFF" d="M11.13281,18.85449l0.74316-0.89355l3.89844,0.89844l0.00977-0.01025l-2.75244-2.28174
							l0.57666-0.69775l3.68164,3.05273l-0.73779,0.88867l-3.9043-0.89404l-0.00732,0.01074l2.75146,2.28369l-0.57812,0.69531
							L11.13281,18.85449z"/>
					</g>
				</g>
				<g>
					<g>
						<path fill="#FFFFFF" d="M15.92383,13.66016l2.15625-1.75537l0.47656,0.5835l-1.42676,1.15918l0.74512,0.91455l1.30518-1.06299
							l0.47607,0.58301L18.35059,15.146l0.84814,1.04199l1.43506-1.16895l0.4751,0.58447l-2.16797,1.76562L15.92383,13.66016z"/>
					</g>
				</g>
				<g>
					<g>
						<path fill="#FFFFFF" d="M20.61475,10.21289l0.82568-0.4668l1.9751,3.51074l1.59424-0.89844l0.36963,0.6582l-2.4209,1.36035
							L20.61475,10.21289z"/>
					</g>
				</g>
				<g>
					<g>
						<path fill="#FFFFFF" d="M25.47021,7.77734l0.89062-0.32275l1.36963,3.78516l1.72021-0.62061l0.2583,0.70752l-2.61182,0.94531
							L25.47021,7.77734z"/>
					</g>
				</g>
				<g>
					<g>
						<path fill="#FFFFFF" d="M33.09277,5.7002l0.94385-0.0791l0.22656,2.75342c0.06689,0.81006,0.36768,1.32422,1.08984,1.26318
							c0.71875-0.05859,0.93066-0.61377,0.86279-1.42383l-0.229-2.75488l0.94434-0.07764l0.25195,3.04541
							c0.10693,1.27686-0.56396,1.86182-1.76953,1.96338c-1.20312,0.09912-1.96289-0.36768-2.06885-1.64453L33.09277,5.7002z"/>
					</g>
				</g>
				<g>
					<g>
						<path fill="#FFFFFF" d="M40.17725,5.45898l1.15137,0.15576l1.30273,3.78467l0.01416,0.00195l0.47705-3.54541L44.021,5.97852
							l-0.63965,4.73682l-1.14453-0.15332l-1.30957-3.78467l-0.01367-0.00098l-0.47607,3.54102l-0.89844-0.11963L40.17725,5.45898z"
							/>
					</g>
				</g>
				<g>
					<g>
						<path fill="#FFFFFF" d="M46.95459,6.75684l0.90186,0.2832l-1.43115,4.5625l-0.90283-0.28369L46.95459,6.75684z"/>
					</g>
				</g>
				<g>
					<g>
						<path fill="#FFFFFF" d="M50.31689,7.88867l0.90527,0.45898l-0.61475,3.89502l0.01221,0.00684l2.76172-2.80957l0.8374,0.42139
							l-3.57422,3.55127l-1.03711-0.52344L50.31689,7.88867z"/>
					</g>
				</g>
				<g>
					<g>
						<path fill="#FFFFFF" d="M56.51611,11.4165l2.19238,1.71631l-0.46289,0.59131l-1.44727-1.13135l-0.72607,0.9292
							l1.32422,1.03613l-0.46338,0.59473l-1.32471-1.0376l-0.82812,1.05859l1.45947,1.14111l-0.46338,0.59277l-2.20312-1.72266
							L56.51611,11.4165z"/>
					</g>
				</g>
				<g>
					<g>
						<path fill="#FFFFFF" d="M60.91846,15.2002l0.67236,0.76514c0.66846,0.7627,1.4917,1.64844,0.49316,2.52686
							c-0.42236,0.36963-1.01807,0.39697-1.47656,0.00146l-0.01123,0.00732c0.15576,0.20605,0.05859,0.49023-0.03906,0.69922
							l-0.90723,1.80273l-0.6958-0.7915l0.74756-1.4126c0.1792-0.33545,0.20312-0.5166-0.06104-0.81494l-0.19873-0.22949
							l-1.49463,1.30811l-0.62402-0.70996L60.91846,15.2002z M60.00732,17.25635l0.20508,0.23486
							c0.30566,0.34961,0.71094,0.70557,1.15869,0.31152c0.43311-0.37793,0.12109-0.80664-0.19141-1.16162l-0.20605-0.23389
							L60.00732,17.25635z"/>
					</g>
				</g>
				<g>
					<g>
						<path fill="#FFFFFF" d="M65.38135,22.78125c-0.04053-0.32227-0.14258-0.646-0.31152-0.93018
							c-0.16455-0.2793-0.50098-0.56494-0.94922-0.30176c-0.71582,0.42236,0.63916,2.02344-0.74023,2.83984
							c-0.90137,0.5332-1.66113,0.03174-2.14502-0.78711c-0.26221-0.44287-0.32031-0.6748-0.4585-1.13428l0.78857-0.36621
							c0.01318,0.37109,0.10254,0.75,0.28955,1.06885c0.18408,0.31055,0.58496,0.62842,0.95654,0.40625
							c0.78711-0.4624-0.5918-2.04883,0.771-2.85449c0.91943-0.54395,1.67236-0.03809,2.09473,0.67578
							c0.20557,0.34814,0.35156,0.70215,0.42676,1.05664L65.38135,22.78125z"/>
					</g>
				</g>
				<g>
					<g>
						<path fill="#FFFFFF" d="M67.47705,25.16064l0.35889,0.87695l-4.42969,1.80518l-0.35547-0.875L67.47705,25.16064z"/>
					</g>
				</g>
				<g>
					<g>
						<path fill="#FFFFFF" d="M68.2998,29.89453l-0.32422-1.3125l0.73291-0.17871l0.87256,3.54346l-0.73242,0.1792l-0.32275-1.31299
							l-3.91113,0.96338l-0.22607-0.91992L68.2998,29.89453z"/>
					</g>
				</g>
				<g>
					<g>
						<path fill="#FFFFFF" d="M67.15332,36.05469l2.79004-1.87891l0.06348,1.10449l-1.94434,1.22412l2.06836,1.02295
							l0.05469,0.99902L67.20605,37l-1.89014,0.10449l-0.05127-0.94531L67.15332,36.05469z"/>
					</g>
				</g>
				<g>
					<g>
						<path fill="#FFFFFF" d="M10.48047,44.32129l0.73291,2.54395l-0.72461,0.20996l-0.46973-1.62891l-1.13086,0.32812
							l0.4458,1.54688l-0.72314,0.20996l-0.44629-1.5498l-2.01514,0.58301L5.8833,45.64551L10.48047,44.32129z"/>
					</g>
				</g>
				<g>
					<g>
						<path fill="#FFFFFF" d="M12.7207,50.18457c0.66016,1.34277,0.12109,2.5459-1.1792,3.18164
							c-1.29541,0.6377-2.59375,0.35449-3.25977-1.00098c-0.67529-1.36914-0.11182-2.5459,1.20361-3.18945
							C10.80176,48.53027,12.05127,48.82715,12.7207,50.18457z M8.9585,52.0332c0.43018,0.87891,1.36865,0.82129,2.14404,0.43848
							c0.75732-0.37012,1.35938-1.10254,0.94043-1.95312c-0.41602-0.84961-1.36279-0.81738-2.11914-0.44727
							C9.14746,50.45117,8.52734,51.15723,8.9585,52.0332z"/>
					</g>
				</g>
				<g>
					<g>
						<path fill="#FFFFFF" d="M14.75439,53.94922l0.59521,0.74609l-2.15967,1.71582c-0.63965,0.50488-0.896,1.04297-0.44092,1.61426
							c0.45312,0.5752,1.0332,0.44531,1.67041-0.06348l2.16113-1.71777l0.59619,0.75l-2.39307,1.89941
							c-1.00146,0.79492-1.86523,0.55957-2.62695-0.39551c-0.75977-0.95898-0.79688-1.85645,0.20557-2.65234L14.75439,53.94922z"/>
					</g>
				</g>
				<g>
					<g>
						<path fill="#FFFFFF" d="M18.67725,58.52539l0.91113,0.74219l-0.85986,3.91699l0.01074,0.00586l2.26318-2.76367
							l0.70996,0.57715l-3.0293,3.70117l-0.9043-0.73926l0.85352-3.92383l-0.01221-0.00684l-2.26221,2.76465l-0.7085-0.57715
							L18.67725,58.52539z"/>
					</g>
				</g>
				<g>
					<g>
						<path fill="#FFFFFF" d="M23.52637,62.17969l1.16748,0.58496c1.30322,0.65625,2.23682,1.67578,1.3833,3.37305
							c-0.85107,1.69434-2.22754,1.55566-3.53174,0.89941l-1.16602-0.58301L23.52637,62.17969z M22.57178,66.21094l0.47656,0.23926
							c0.71387,0.35547,1.66943,0.16992,2.13818-0.76172c0.4668-0.92773,0.04785-1.80762-0.66699-2.16699l-0.47656-0.24023
							L22.57178,66.21094z"/>
					</g>
				</g>
				<g>
					<g>
						<path fill="#FFFFFF" d="M29.05615,64.63867l2.71826,0.72754l-0.19482,0.72559l-1.79443-0.47754l-0.30273,1.13672
							l1.64307,0.43848l-0.19385,0.72656l-1.64404-0.4375l-0.34521,1.29883l1.80811,0.48047l-0.19336,0.72852l-2.73193-0.72852
							L29.05615,64.63867z"/>
					</g>
				</g>
				<g>
					<g>
						<path fill="#FFFFFF" d="M33.87744,65.74023l1.30176,0.0752c1.45703,0.08105,2.71875,0.64746,2.61035,2.54004
							c-0.1084,1.89551-1.4248,2.31641-2.88281,2.23535l-1.30078-0.07422L33.87744,65.74023z M34.60059,69.81934l0.53271,0.02832
							c0.79834,0.0459,1.60156-0.50586,1.6626-1.54785c0.05713-1.03809-0.6792-1.67676-1.47607-1.72168l-0.52979-0.03027
							L34.60059,69.81934z"/>
					</g>
				</g>
				<g>
					<g>
						<path fill="#FFFFFF" d="M42.64844,65.39453l1.05371-0.22461l2.83447,4.2793l-1.03613,0.22363l-0.62842-0.9873
							l-1.89014,0.41016l-0.17773,1.15527l-0.96729,0.20801L42.64844,65.39453z M43.36328,66.22363l-0.01318,0.00195
							l-0.25977,2.07227l1.36182-0.29102L43.36328,66.22363z"/>
					</g>
				</g>
				<g>
					<g>
						<path fill="#FFFFFF" d="M47.60156,68.01172l0.89795-0.3252l0.32715,0.90039l-0.89746,0.32422L47.60156,68.01172z"/>
					</g>
				</g>
				<g>
					<g>
						<path fill="#FFFFFF" d="M48.81592,63.48242l1.146-0.62109c1.28564-0.7002,2.65479-0.87695,3.55957,0.79004
							c0.90332,1.66992,0.00342,2.7168-1.28076,3.41211l-1.14648,0.62109L48.81592,63.48242z M51.57715,66.56738l0.46777-0.25098
							c0.70215-0.38379,1.09473-1.27246,0.59961-2.19043c-0.49609-0.91699-1.45801-1.07227-2.16064-0.68848l-0.46826,0.25195
							L51.57715,66.56738z"/>
					</g>
				</g>
				<g>
					<g>
						<path fill="#FFFFFF" d="M54.90674,64.36816l0.78662-0.54785l0.54639,0.78809l-0.78467,0.54688L54.90674,64.36816z"/>
					</g>
				</g>
				<g>
					<g>
						<path fill="#FFFFFF" d="M56.87891,57.82715l0.60107-0.59473l3.35889,3.40625l-0.67969,0.67188l-2.59326-2.62793
							l-0.1123,1.03223l-0.77832-0.10742L56.87891,57.82715z"/>
					</g>
				</g>
				<g>
					<g>
						<path fill="#FFFFFF" d="M61.16064,56.45996c-0.45703,0.25586-0.96094,0.27441-1.36475-0.02148
							c-0.68652-0.51172-0.62695-1.27148-0.1123-1.96875c0.5-0.6748,1.22998-1.07617,1.87354-0.60156
							c0.34814,0.25879,0.59375,0.76953,0.4502,1.31836l0.00586,0.00488c0.60986-0.33008,1.1123-0.31641,1.55176,0.00879
							c0.77832,0.57324,0.70703,1.38574,0.14551,2.14355c-0.55273,0.74414-1.32373,1.11133-2.10352,0.5293
							c-0.43164-0.31543-0.54883-0.77832-0.43604-1.40527L61.16064,56.45996z M61.38721,55.54297
							c0.08154-0.27148-0.00391-0.66406-0.24072-0.83789c-0.28564-0.21289-0.61914-0.17773-0.8335,0.11133
							c-0.20605,0.28125-0.25879,0.67383,0.04785,0.90234C60.69336,55.96191,61.09424,55.73145,61.38721,55.54297z
							 M63.13623,56.91895c0.23047-0.30664,0.21387-0.68945-0.10547-0.92773c-0.37891-0.2793-0.80225-0.08984-1.14258,0.14941
							c-0.06934,0.37207-0.05127,0.71582,0.27246,0.95703C62.48291,57.33594,62.90967,57.22559,63.13623,56.91895z"/>
					</g>
				</g>
				<g>
					<g>
						<path fill="#FFFFFF" d="M63.71875,49.49805c-0.21045,0.17773-0.39893,0.36914-0.54346,0.6582
							c-0.3667,0.73535,0.19336,1.33105,0.81836,1.67676l0.01904-0.00977c-0.19482-0.34766-0.19678-0.67676-0.01758-1.03809
							c0.40234-0.80664,1.13672-0.98828,1.92773-0.5957c0.92627,0.46582,1.31201,1.2207,0.83154,2.18555
							c-0.59277,1.18555-1.71045,0.95703-2.71387,0.45508c-1.16211-0.58008-2.24902-1.58789-1.55908-2.96777
							c0.15283-0.31055,0.34961-0.58203,0.59863-0.82324L63.71875,49.49805z M65.06055,52.26953
							c0.40332,0.20215,0.84473,0.20801,1.05371-0.21484c0.19922-0.39355-0.10352-0.75195-0.48389-0.94141
							c-0.41797-0.20801-0.88721-0.23145-1.09326,0.17969C64.33008,51.70703,64.63037,52.05469,65.06055,52.26953z"/>
					</g>
				</g>
				<g>
					<g>
						<path fill="#FFFFFF" d="M65.31494,44.39941l-0.52246,1.76172l0.97119,0.3125c0.01074-0.1123,0.02686-0.25781,0.08057-0.43066
							c0.18994-0.64355,0.74023-1.38379,1.92725-1.02832c0.86035,0.25488,1.37744,1.06152,1.02539,2.24121
							c-0.10449,0.35449-0.28662,0.74805-0.44775,1.0293l-0.81592-0.2666c0.15918-0.19434,0.39062-0.4668,0.5083-0.86328
							c0.14258-0.48047,0.06836-1.04688-0.51611-1.21777c-0.59229-0.17676-0.94971,0.28516-1.10596,0.80859
							c-0.08447,0.2832-0.12402,0.5625-0.11914,0.85742l-2.44873-0.7793l0.78076-2.62598L65.31494,44.39941z"/>
					</g>
				</g>
			</g>
		</g>
	</g>
</g>
<g id="JOHNSON" display="none">
	
		<text transform="matrix(1 0 0 1 86.33398 40.02441)" display="inline" fill="#ED1C24" font-family="'MinionPro-Regular'" font-size="30">JOHNSON</text>
</g>
<g id="ILR">
	<text transform="matrix(1 0 0 1 85.26416 39.91211)" fill="#FFFFFF" font-family="'AGaramondPro-Regular'" font-size="30">ILR</text>
</g>
<g id="ILR_School" display="none">
	<g display="inline">
		<path fill="#231F20" d="M105.92236,41.92188l1.95312,0.0625c1.28125,0.04199,2.11963,0.0625,2.51562,0.0625
			c0.354,0,1.84863-0.04102,4.48438-0.125l0.125,0.10938v0.78125l-0.125,0.10938c-0.71875,0.02148-1.27344,0.05273-1.66406,0.09375
			c-0.39062,0.04199-0.6748,0.12012-0.85156,0.23438c-0.17725,0.11523-0.29443,0.38281-0.35156,0.80469
			c-0.05762,0.42188-0.08594,1.00781-0.08594,1.75781l-0.03125,3.59375v7.23438l0.01562,3.04688
			c0.01025,1.17773,0.0415,1.9375,0.09375,2.28125c0.05176,0.34375,0.12744,0.57324,0.22656,0.6875
			c0.09863,0.11523,0.28906,0.21094,0.57031,0.28906s0.97363,0.13867,2.07812,0.17969l0.125,0.09375V64l-0.125,0.125
			c-0.05225,0-0.96875-0.03125-2.75-0.09375C111.38574,64.00977,110.80762,64,110.39111,64c-0.32324,0-1.8125,0.04102-4.46875,0.125
			l-0.125-0.125v-0.78125l0.125-0.09375c0.96875-0.04102,1.61426-0.09375,1.9375-0.15625
			c0.32275-0.0625,0.53906-0.14258,0.64844-0.24219c0.10938-0.09863,0.19775-0.30957,0.26562-0.63281
			c0.06738-0.32227,0.10645-1.04102,0.11719-2.15625l0.01562-3.29688v-7.23438l-0.03125-3.04688
			c-0.01074-1.1875-0.03906-1.95312-0.08594-2.29688s-0.12012-0.57227-0.21875-0.6875
			c-0.09912-0.11426-0.28906-0.20801-0.57031-0.28125c-0.28125-0.07227-0.97412-0.12988-2.07812-0.17188l-0.125-0.10938v-0.78125
			L105.92236,41.92188z"/>
		<path fill="#231F20" d="M115.56006,42.03125l0.125-0.10938c2.58301,0.08398,4.07275,0.125,4.46875,0.125
			c0.354,0,1.84863-0.04102,4.48438-0.125l0.125,0.10938v0.78125l-0.125,0.10938c-0.71875,0.02148-1.27344,0.05273-1.66406,0.09375
			c-0.39062,0.04199-0.6748,0.12012-0.85156,0.23438c-0.17725,0.11523-0.29443,0.38281-0.35156,0.80469
			c-0.05762,0.42188-0.08594,1.00781-0.08594,1.75781l-0.03125,3.59375v6.90625c0,1.72949,0.01025,2.9375,0.03125,3.625
			l0.07812,2.70312h3.1875c2.5415,0,4.12744-0.03125,4.75781-0.09375c0.62988-0.0625,1.23682-0.21289,1.82031-0.45312
			c0.11426-0.25977,0.27832-0.85938,0.49219-1.79688c0.21338-0.9375,0.3252-1.47852,0.33594-1.625l0.14062-0.125h0.76562
			l0.10938,0.125c-0.0835,0.41699-0.16943,1.22461-0.25781,2.42188c-0.08887,1.19824-0.13281,2.16699-0.13281,2.90625l-0.125,0.125
			c-1.97949-0.0625-4.57812-0.09375-7.79688-0.09375L120.49756,64c-1.04199,0-2.10449,0.04102-3.1875,0.125l-0.125-0.125v-0.51562
			l0.125-0.15625c0.64551-0.33301,1-0.53613,1.0625-0.60938c0.0625-0.07227,0.12744-0.74414,0.19531-2.01562
			c0.06738-1.27051,0.10156-2.80176,0.10156-4.59375v-6.70312l-0.03125-3.04688c-0.01074-1.1875-0.03906-1.95312-0.08594-2.29688
			s-0.12012-0.57227-0.21875-0.6875c-0.09912-0.11426-0.28906-0.20801-0.57031-0.28125
			c-0.28125-0.07227-0.97412-0.12988-2.07812-0.17188l-0.125-0.10938V42.03125z"/>
		<path fill="#231F20" d="M134.38477,42.03125l0.125-0.10938c1.90625,0.08398,3.39062,0.125,4.45312,0.125
			c1.17725,0,2.76562-0.03613,4.76562-0.10938c0.73975-0.02051,1.27588-0.03125,1.60938-0.03125
			c2.63525,0,4.42188,0.47949,5.35938,1.4375c0.9375,0.95898,1.40625,2.09375,1.40625,3.40625c0,0.875-0.229,1.73438-0.6875,2.57812
			s-1.13525,1.56543-2.03125,2.16406c-0.896,0.59961-2.13037,1.0498-3.70312,1.35156
			c0.2915,0.40625,0.81787,1.10938,1.57812,2.10938l2.21875,2.9375c0.71875,0.96875,1.48975,1.99219,2.3125,3.07031
			s1.354,1.6875,1.59375,1.82812s0.44531,0.22656,0.61719,0.25781s0.44531,0.04688,0.82031,0.04688l0.125,0.125v0.73438
			l-0.14062,0.14062c-0.5-0.0625-1.09375-0.09375-1.78125-0.09375c-0.73975,0-1.54688,0.03125-2.42188,0.09375
			c-0.71875-0.875-1.84912-2.39062-3.39062-4.54688c-1.7915-2.5-3.625-4.81738-5.5-6.95312l0.15625-0.48438
			c0.5415,0.03125,0.96338,0.04688,1.26562,0.04688c1.80225,0,3.21338-0.43164,4.23438-1.29688
			c1.021-0.86426,1.53125-2.0625,1.53125-3.59375c0-1.375-0.4585-2.41406-1.375-3.11719s-2.15625-1.05469-3.71875-1.05469
			c-1.09375,0-2.125,0.15137-3.09375,0.45312c-0.15625,0.22949-0.23438,2.18262-0.23438,5.85938v7.23438l0.01562,3.04688
			c0.01025,1.17773,0.0415,1.9375,0.09375,2.28125s0.12744,0.57324,0.22656,0.6875c0.09912,0.11523,0.28906,0.21094,0.57031,0.28906
			s0.97412,0.13867,2.07812,0.17969l0.125,0.09375V64l-0.125,0.125c-0.05225,0-0.96875-0.03125-2.75-0.09375
			C139.97314,64.00977,139.39502,64,138.97852,64c-0.32275,0-1.8125,0.04102-4.46875,0.125l-0.125-0.125v-0.78125l0.125-0.09375
			c0.96875-0.04102,1.61475-0.09375,1.9375-0.15625s0.53906-0.14258,0.64844-0.24219
			c0.10938-0.09863,0.19775-0.30957,0.26562-0.63281c0.06787-0.32227,0.10693-1.04102,0.11719-2.15625l0.01562-3.29688v-7.23438
			l-0.03125-3.04688c-0.01025-1.1875-0.03906-1.95312-0.08594-2.29688s-0.11963-0.57227-0.21875-0.6875
			c-0.09912-0.11426-0.28906-0.20801-0.57031-0.28125c-0.28125-0.07227-0.97412-0.12988-2.07812-0.17188l-0.125-0.10938V42.03125z"
			/>
		<path fill="#231F20" d="M162.73779,58.625l0.125-0.125h0.76562l0.125,0.125c0.05176,1.33398,0.12207,2.14844,0.21094,2.44531
			c0.08838,0.29688,0.36963,0.60938,0.84375,0.9375c0.47363,0.32812,1.104,0.59668,1.89062,0.80469
			c0.78613,0.20898,1.58057,0.3125,2.38281,0.3125c1.104,0,2.09619-0.20312,2.97656-0.60938
			c0.87988-0.40625,1.56543-1.00195,2.05469-1.78906c0.48926-0.78613,0.73438-1.66895,0.73438-2.64844
			c0-0.6875-0.11719-1.28613-0.35156-1.79688c-0.23438-0.50977-0.5625-0.91895-0.98438-1.22656
			c-0.42188-0.30664-0.90381-0.53613-1.44531-0.6875c-0.54199-0.15039-1.34912-0.31445-2.42188-0.49219
			c-1.04199-0.16602-1.85693-0.31738-2.44531-0.45312c-0.58887-0.13477-1.1748-0.34375-1.75781-0.625
			c-0.5835-0.28125-1.07031-0.6377-1.46094-1.07031c-0.39062-0.43164-0.70312-0.96289-0.9375-1.59375
			c-0.23438-0.62988-0.35156-1.30469-0.35156-2.02344c0-1.94727,0.67676-3.54395,2.03125-4.78906
			c1.354-1.24414,3.17188-1.86719,5.45312-1.86719c0.90625,0,1.89307,0.1123,2.96094,0.33594
			c1.06738,0.22461,2.03906,0.55469,2.91406,0.99219l0.10938,0.1875c-0.22949,0.95898-0.37012,2.32324-0.42188,4.09375
			l-0.14062,0.125h-0.8125l-0.125-0.10938c-0.02051-1.25-0.05176-2.03613-0.09375-2.35938
			c-0.04199-0.32227-0.51562-0.72363-1.42188-1.20312c-0.90625-0.47852-1.89062-0.71875-2.95312-0.71875
			c-0.88574,0-1.71387,0.17773-2.48438,0.53125c-0.771,0.35449-1.35449,0.91211-1.75,1.67188
			c-0.396,0.76074-0.59375,1.53711-0.59375,2.32812c0,0.61523,0.11963,1.15918,0.35938,1.63281
			c0.23926,0.47461,0.54932,0.84961,0.92969,1.125c0.37988,0.27637,0.82275,0.48242,1.32812,0.61719
			c0.50488,0.13574,1.42969,0.30273,2.77344,0.5c1.84375,0.26074,3.18457,0.57617,4.02344,0.94531
			c0.83887,0.37012,1.51074,0.95605,2.01562,1.75781c0.50488,0.80273,0.75781,1.77148,0.75781,2.90625
			c0,2.21875-0.90332,4.06836-2.71094,5.54688c-1.80762,1.47949-3.99756,2.21875-6.57031,2.21875
			c-2.15625,0-4.04688-0.38574-5.67188-1.15625l-0.09375-0.20312C162.60742,62.5625,162.68555,61.03125,162.73779,58.625z"/>
		<path fill="#231F20" d="M191.06299,62.32812l-0.625,1.04688c-1.34375,0.73926-2.84375,1.10938-4.5,1.10938
			c-2.29199,0-4.0625-0.68164-5.3125-2.04688c-1.25-1.36426-1.875-3.125-1.875-5.28125c0-0.97852,0.10645-1.85156,0.32031-2.61719
			c0.21289-0.76562,0.48438-1.39844,0.8125-1.89844s0.68945-0.89551,1.08594-1.1875
			c0.39551-0.29102,1.06445-0.69727,2.00781-1.21875c0.94238-0.52051,1.65332-0.86133,2.13281-1.02344
			c0.47852-0.16113,1.14062-0.24219,1.98438-0.24219c1.61426,0,2.9375,0.30762,3.96875,0.92188
			c-0.19824,1.17773-0.34961,2.49023-0.45312,3.9375l-0.14062,0.125h-0.64062l-0.14062-0.14062
			c-0.04199-0.875-0.09961-1.46289-0.17188-1.76562c-0.07324-0.30176-0.4873-0.625-1.24219-0.96875
			c-0.75586-0.34375-1.56055-0.51562-2.41406-0.51562c-0.85449,0-1.61523,0.17969-2.28125,0.53906
			c-0.66699,0.35938-1.16992,0.94824-1.50781,1.76562c-0.33887,0.81836-0.50781,1.79492-0.50781,2.92969
			c0,0.95898,0.13477,1.89355,0.40625,2.80469c0.27051,0.91211,0.62695,1.66699,1.07031,2.26562
			c0.44238,0.59961,1.02832,1.08105,1.75781,1.44531c0.72852,0.36523,1.54102,0.54688,2.4375,0.54688
			c0.5625,0,1.11133-0.07227,1.64844-0.21875c0.53613-0.14551,1.15332-0.38477,1.85156-0.71875L191.06299,62.32812z"/>
		<path fill="#231F20" d="M196.21631,40.85938l0.29688,0.1875c-0.11426,1.19824-0.17188,3.59961-0.17188,7.20312v3.85938
			c0.875-0.71875,1.6875-1.43164,2.4375-2.14062c0.21875-0.19727,0.42676-0.34375,0.625-0.4375s0.51855-0.19238,0.96094-0.29688
			c0.44238-0.10352,0.89844-0.15625,1.36719-0.15625c0.79199,0,1.55957,0.16211,2.30469,0.48438
			c0.74512,0.32324,1.30762,0.70605,1.6875,1.14844c0.37988,0.44336,0.64355,0.9668,0.78906,1.57031
			c0.14551,0.60449,0.21875,1.34961,0.21875,2.23438v2.75c0,0.17773,0.02637,1.47461,0.07812,3.89062
			c0.03125,0.99023,0.14355,1.57812,0.33594,1.76562s0.83594,0.28125,1.92969,0.28125l0.125,0.125V64l-0.125,0.125
			c-1.32324-0.08398-2.21875-0.125-2.6875-0.125c-0.23926,0-1,0.04102-2.28125,0.125l-0.1875-0.17188
			c0.13574-1.35352,0.20312-3.11914,0.20312-5.29688v-2.04688c0-1.22852-0.02832-2.11426-0.08594-2.65625
			c-0.05762-0.54102-0.23145-1.0332-0.52344-1.47656c-0.29199-0.44238-0.67969-0.78613-1.16406-1.03125
			c-0.48438-0.24414-1.07031-0.36719-1.75781-0.36719c-0.70801,0-1.2998,0.09668-1.77344,0.28906
			c-0.47363,0.19336-0.95605,0.51855-1.44531,0.97656c-0.48926,0.45898-0.78418,0.8418-0.88281,1.14844
			c-0.09863,0.30762-0.14844,0.89844-0.14844,1.77344v2.78125c0,0.22949,0.02051,0.9668,0.0625,2.21094
			c0.04199,1.24512,0.08594,1.97168,0.13281,2.17969c0.04688,0.20898,0.11719,0.35938,0.21094,0.45312
			s0.20801,0.1543,0.34375,0.17969c0.13574,0.02637,0.69824,0.07031,1.6875,0.13281l0.14062,0.125v0.65625l-0.125,0.14062
			c-1.30176-0.08398-2.55762-0.125-3.76562-0.125c-1.19824,0-2.44824,0.04102-3.75,0.125l-0.14062-0.14062v-0.65625l0.14062-0.125
			c1.01074-0.0625,1.58105-0.10938,1.71094-0.14062s0.24512-0.0957,0.34375-0.19531c0.09863-0.09863,0.16699-0.25,0.20312-0.45312
			s0.07812-0.875,0.125-2.01562s0.07031-2.00195,0.07031-2.58594v-8.09375l-0.0625-3.3125
			C193.63818,45.25,193.604,44.44824,193.56787,44c-0.03613-0.44727-0.08594-0.71289-0.14844-0.79688
			c-0.0625-0.08301-0.17188-0.14551-0.32812-0.1875c-0.15625-0.04102-0.78613-0.0625-1.89062-0.0625l-0.14062-0.14062v-0.65625
			l0.125-0.14062C193.17432,41.78711,194.85205,41.40137,196.21631,40.85938z"/>
		<path fill="#231F20" d="M209.7915,56.84375c0-1.23926,0.25488-2.43457,0.76562-3.58594
			c0.50977-1.15039,1.39844-2.14551,2.66406-2.98438c1.26562-0.83789,2.76758-1.25781,4.50781-1.25781
			c2.1875,0,3.96875,0.69043,5.34375,2.07031c1.375,1.38086,2.0625,3.1543,2.0625,5.32031
			c0,2.38574-0.78906,4.34961-2.36719,5.89062c-1.57812,1.54199-3.48242,2.3125-5.71094,2.3125
			c-1.45898,0-2.76074-0.39355-3.90625-1.17969c-1.14648-0.78613-1.99219-1.74707-2.53906-2.88281
			C210.06494,59.41211,209.7915,58.17773,209.7915,56.84375z M212.74463,55.76562c0,1.45898,0.1875,2.76367,0.5625,3.91406
			c0.375,1.15137,0.96875,2.07617,1.78125,2.77344c0.8125,0.69824,1.73926,1.04688,2.78125,1.04688
			c1.22852,0,2.24414-0.48633,3.04688-1.46094c0.80176-0.97363,1.20312-2.43945,1.20312-4.39844
			c0-2.21875-0.43555-4.03613-1.30469-5.45312c-0.87012-1.41602-2.12305-2.125-3.75781-2.125
			c-1.35449,0-2.41211,0.49023-3.17188,1.46875C213.12451,52.51074,212.74463,53.92188,212.74463,55.76562z"/>
		<path fill="#231F20" d="M227.45947,56.84375c0-1.23926,0.25488-2.43457,0.76562-3.58594
			c0.50977-1.15039,1.39844-2.14551,2.66406-2.98438c1.26562-0.83789,2.76758-1.25781,4.50781-1.25781
			c2.1875,0,3.96875,0.69043,5.34375,2.07031c1.375,1.38086,2.0625,3.1543,2.0625,5.32031
			c0,2.38574-0.78906,4.34961-2.36719,5.89062c-1.57812,1.54199-3.48242,2.3125-5.71094,2.3125
			c-1.45898,0-2.76074-0.39355-3.90625-1.17969c-1.14648-0.78613-1.99219-1.74707-2.53906-2.88281
			C227.73291,59.41211,227.45947,58.17773,227.45947,56.84375z M230.4126,55.76562c0,1.45898,0.1875,2.76367,0.5625,3.91406
			c0.375,1.15137,0.96875,2.07617,1.78125,2.77344c0.8125,0.69824,1.73926,1.04688,2.78125,1.04688
			c1.22852,0,2.24414-0.48633,3.04688-1.46094c0.80176-0.97363,1.20312-2.43945,1.20312-4.39844
			c0-2.21875-0.43555-4.03613-1.30469-5.45312c-0.87012-1.41602-2.12305-2.125-3.75781-2.125
			c-1.35449,0-2.41211,0.49023-3.17188,1.46875C230.79248,52.51074,230.4126,53.92188,230.4126,55.76562z"/>
		<path fill="#231F20" d="M248.90967,40.85938l0.29688,0.1875c-0.11426,1.19824-0.17188,3.59961-0.17188,7.20312v9.79688
			c0,0.22949,0.02051,0.9668,0.0625,2.21094c0.04199,1.24512,0.08594,1.97168,0.13281,2.17969
			c0.04688,0.20898,0.11719,0.35938,0.21094,0.45312s0.20801,0.1543,0.34375,0.17969
			c0.13574,0.02637,0.69824,0.07031,1.6875,0.13281l0.14062,0.125v0.65625l-0.125,0.14062
			c-1.30176-0.08398-2.55762-0.125-3.76562-0.125c-1.19824,0-2.44824,0.04102-3.75,0.125l-0.14062-0.14062v-0.65625l0.14062-0.125
			c1.01074-0.0625,1.58105-0.10938,1.71094-0.14062s0.24512-0.0957,0.34375-0.19531c0.09863-0.09863,0.16699-0.25,0.20312-0.45312
			s0.07812-0.875,0.125-2.01562s0.07031-2.00195,0.07031-2.58594v-8.09375l-0.0625-3.3125
			C246.33154,45.25,246.29736,44.44824,246.26123,44c-0.03613-0.44727-0.08594-0.71289-0.14844-0.79688
			c-0.0625-0.08301-0.17188-0.14551-0.32812-0.1875c-0.15625-0.04102-0.78613-0.0625-1.89062-0.0625l-0.14062-0.14062v-0.65625
			l0.125-0.14062C245.86768,41.78711,247.54541,41.40137,248.90967,40.85938z"/>
	</g>
</g>
</svg>
