<?xml version="1.0" encoding="utf-8"?>
<!-- Generator: Adobe Illustrator 16.0.0, SVG Export Plug-In . SVG Version: 6.00 Build 0)  -->
<!DOCTYPE svg PUBLIC "-//W3C//DTD SVG 1.1//EN" "http://www.w3.org/Graphics/SVG/1.1/DTD/svg11.dtd">
<svg version="1.1" xmlns="http://www.w3.org/2000/svg" xmlns:xlink="http://www.w3.org/1999/xlink" x="0px" y="0px"
	 width="375.22852px" height="120px" viewBox="0 0 375.22852 120" enable-background="new 0 0 375.22852 120" xml:space="preserve">
<g id="Cornell_University_and_logo" display="none">
	<path display="inline" fill="#ED1C24" d="M158.87646,79.30371c-1.00293,0.60547-2.71484,0.93262-3.76904,0.93262
		c-4.15137,0-6.95215-2.36914-6.95215-6.29395c0-1.9873,0.77783-3.5625,2.10938-4.65137
		c1.29736-1.07227,3.06055-1.66113,4.99756-1.66113c1.6084,0,3.16455,0.41602,3.99463,0.70996
		c-0.17236,0.8125-0.32812,1.72949-0.32812,2.62891h-0.53613v-1.24609c0-0.4834-0.69141-0.77734-1.4873-1.07129
		c-0.55371-0.19043-1.29736-0.29395-1.93701-0.29395c-3.25146,0-4.96338,2.36914-4.96338,5.30762
		c0,3.4248,2.26562,5.63867,5.68945,5.63867c1.24512,0,2.71582-0.44824,3.51074-1.03809l0.15625,0.17383L158.87646,79.30371z"/>
	<path display="inline" fill="#ED1C24" d="M159.9834,76.19141c0-2.59473,1.62549-4.41016,4.40918-4.41016
		c2.21387,0,3.92627,1.72852,3.92627,3.94238c0,2.64551-1.88525,4.5127-4.53076,4.5127
		C161.60889,80.30664,159.9834,78.57812,159.9834,76.19141z M161.5918,75.44727c0,1.81543,0.65723,4.21973,2.87012,4.21973
		c1.57422,0,2.24854-1.5752,2.24854-3.18262c0-2.22949-1.05518-4.13281-2.71533-4.13281
		C162.16162,72.35156,161.5918,73.83887,161.5918,75.44727z"/>
	<path display="inline" fill="#ED1C24" d="M170.06445,74.23535c0-0.55273-0.03418-0.93359-0.12061-1.07129
		c-0.10449-0.1377-0.27686-0.19043-0.64014-0.19043h-0.63965v-0.4834c1.02051-0.10352,2.05811-0.43164,2.69824-0.70898
		l0.15527,0.07031v1.74512h0.03467l0.93408-1.10645c0.41504-0.50195,1.00244-0.70898,1.45166-0.70898
		c0.29395,0,0.65723,0.08594,0.79639,0.19043l-0.15576,2.07422h-0.36377c-0.18945-0.41406-0.55322-0.7959-1.17529-0.7959
		c-0.76123,0-1.52197,0.7959-1.52197,1.90332v2.97363c0,0.46777,0.01758,0.81445,0.08691,1.00391
		c0.06836,0.15527,0.32812,0.22461,0.72607,0.24219l0.89893,0.05273v0.51855c-0.89893-0.01758-1.59082-0.05273-2.43848-0.05273
		c-0.84717,0-1.53955,0.03516-2.16162,0.05273v-0.51855l0.79492-0.05273c0.29492-0.01758,0.48486-0.08691,0.5542-0.24219
		c0.06885-0.18945,0.08594-0.53613,0.08594-1.00391V74.23535z"/>
	<path display="inline" fill="#ED1C24" d="M178.15771,78.12695c0,0.46777,0.01709,0.81445,0.08691,1.00391
		c0.06836,0.15527,0.25928,0.22461,0.55322,0.24219l0.77783,0.05273v0.51855c-0.60498-0.01758-1.29688-0.05273-2.14453-0.05273
		c-0.84668,0-1.53857,0.03516-2.14404,0.05273v-0.51855l0.77832-0.05273c0.29346-0.01758,0.48389-0.08691,0.55371-0.24219
		c0.06836-0.18945,0.08643-0.53613,0.08643-1.00391v-3.8916c0-0.55273-0.03516-0.93359-0.12109-1.07129
		c-0.104-0.1377-0.27734-0.19043-0.64014-0.19043h-0.63965v-0.4834c1.02002-0.10352,2.05713-0.43164,2.69678-0.70898
		l0.15625,0.07031v1.46875h0.03467l1.2793-1.10547c0.38086-0.33008,0.70947-0.43359,1.40088-0.43359
		c2.02344,0,2.85303,1.12402,2.85303,3.00977v3.33594c0,0.46777,0.01709,0.81445,0.08643,1.00391
		c0.06982,0.15527,0.25977,0.22461,0.55371,0.24219l0.70898,0.05273v0.51855c-0.43262-0.01758-0.93408-0.05273-1.41797-0.05273
		s-0.98584,0.03516-1.3833,0.05273v-4.91211c0-1.43555-0.8125-2.19531-1.98877-2.19531c-1.05469,0-2.12695,0.91504-2.12695,1.625
		V78.12695z"/>
	<path display="inline" fill="#ED1C24" d="M192.73535,74.94531c0,0.24316,0,0.48438-0.03467,0.72656
		c-1.0376,0.17285-2.09229,0.24219-3.13037,0.24219h-2.52393c0,2.02246,1.00244,3.40723,3.12939,3.40723
		c0.82959,0,1.4873-0.41504,2.14453-0.8125l0.22461,0.17188l-0.34619,0.58789c-0.12109,0.20898-1.59033,0.96777-2.7666,0.96777
		c-2.61133,0-3.99463-1.6582-3.99463-3.99316c0-1.67676,0.44971-2.68066,1.24512-3.30371
		c0.32861-0.25879,0.69189-0.51758,1.07324-0.69141c0.60352-0.27637,1.10645-0.4668,1.69434-0.4668
		C191.33447,71.78125,192.73535,72.99219,192.73535,74.94531z M187.08057,75.22266c1.41748,0.15625,2.87061,0.12109,4.11621,0.05176
		c0-1.60938-0.58838-2.92285-1.8335-2.92285C188.03125,72.35156,186.99414,73.33691,187.08057,75.22266z"/>
	<path display="inline" fill="#ED1C24" d="M194.46436,69.16992c0-0.39746-0.05176-0.70898-0.43164-0.70898h-0.96973v-0.48438
		c0.91797-0.1377,1.83398-0.29395,2.69873-0.64062l0.15479,0.13965v10.65137c0,0.46777,0.01709,0.81445,0.0874,1.00391
		c0.06885,0.15527,0.25879,0.22461,0.55273,0.24219l0.79639,0.05273v0.51855c-0.62354-0.01758-1.31494-0.05273-2.16211-0.05273
		c-0.84814,0-1.53955,0.03516-2.16211,0.05273v-0.51855l0.79639-0.05273c0.29297-0.01758,0.48389-0.08691,0.55225-0.24219
		c0.06934-0.18945,0.08691-0.53613,0.08691-1.00391V69.16992z"/>
	<path display="inline" fill="#ED1C24" d="M199.58301,69.16992c0-0.39746-0.05225-0.70898-0.43213-0.70898h-0.96973v-0.48438
		c0.91797-0.1377,1.83398-0.29395,2.69873-0.64062l0.15527,0.13965v10.65137c0,0.46777,0.01709,0.81445,0.08691,1.00391
		c0.06934,0.15527,0.25928,0.22461,0.55273,0.24219l0.79541,0.05273v0.51855c-0.62207-0.01758-1.31396-0.05273-2.16113-0.05273
		s-1.53955,0.03516-2.16064,0.05273v-0.51855l0.79443-0.05273c0.29395-0.01758,0.48438-0.08691,0.55322-0.24219
		c0.06885-0.18945,0.08691-0.53613,0.08691-1.00391V69.16992z"/>
	<path display="inline" fill="#ED1C24" d="M209.84912,70.05176c0-0.65723-0.03516-1.10645-0.15576-1.29785
		c-0.104-0.17188-0.3125-0.24023-0.72656-0.25879l-0.83008-0.05078v-0.51855c0.89844,0.03418,1.7124,0.05078,2.55859,0.05078
		c0.79639,0,1.60889-0.0166,2.50781-0.05078v0.51855l-0.83008,0.05078c-0.41504,0.01855-0.62256,0.08691-0.72705,0.25879
		c-0.12012,0.19141-0.1543,0.64062-0.1543,1.29785v5.94922c0,2.4541,1.27881,3.16406,3.56201,3.16406
		c1.86768,0,3.56152-0.70996,3.56152-3.5791v-5.53418c0-0.65723-0.03369-1.10645-0.15576-1.29785
		c-0.10254-0.17188-0.31006-0.22266-0.72656-0.25879l-0.75928-0.05078l-0.00098-0.51855
		c0.69141,0.0166,1.38428,0.05078,2.00635,0.05078c0.69141,0,1.31396-0.03418,2.07568-0.05078v0.51855l-0.76172,0.05078
		c-0.41406,0.03613-0.62256,0.08691-0.72559,0.25879c-0.12207,0.19141-0.15674,0.64062-0.15674,1.29785v4.99805
		c0,3.70117-1.39941,5.18652-4.89355,5.18652c-2.93896,0-4.66797-0.88086-4.66797-4.04492V70.05176z"/>
	<path display="inline" fill="#ED1C24" d="M223.31982,78.12695c0,0.46777,0.01758,0.81445,0.08643,1.00391
		c0.06885,0.15527,0.25977,0.22461,0.55273,0.24219l0.7793,0.05273v0.51855c-0.60596-0.01758-1.29736-0.05273-2.14502-0.05273
		c-0.84717,0-1.53857,0.03516-2.14453,0.05273v-0.51855l0.77832-0.05273c0.29395-0.01758,0.48486-0.08691,0.55371-0.24219
		c0.06885-0.18945,0.08643-0.53613,0.08643-1.00391v-3.8916c0-0.55273-0.03516-0.93359-0.12109-1.07129
		c-0.10352-0.1377-0.27637-0.19043-0.63916-0.19043h-0.64014v-0.4834c1.02051-0.10352,2.05664-0.43164,2.69727-0.70898
		l0.15576,0.07031v1.46875h0.03418l1.28076-1.10547c0.37939-0.33008,0.70752-0.43359,1.39941-0.43359
		c2.02344,0,2.854,1.12402,2.854,3.00977v3.33594c0,0.46777,0.01709,0.81445,0.08545,1.00391
		c0.06982,0.15527,0.26074,0.22461,0.55469,0.24219l0.7085,0.05273v0.51855c-0.43262-0.01758-0.93359-0.05273-1.41797-0.05273
		s-0.98584,0.03516-1.3833,0.05273v-4.91211c0-1.43555-0.8125-2.19531-1.98926-2.19531c-1.05518,0-2.12646,0.91504-2.12646,1.625
		V78.12695z"/>
	<path display="inline" fill="#ED1C24" d="M234.00635,78.12695c0,0.46777,0.0166,0.81445,0.08789,1.00391
		c0.06787,0.15527,0.25879,0.22461,0.55225,0.24219l0.79443,0.05273v0.51855c-0.62158-0.01758-1.31348-0.05273-2.16064-0.05273
		c-0.84766,0-1.53906,0.03516-2.16211,0.05273v-0.51855l0.79541-0.05273c0.29346-0.01758,0.48438-0.08691,0.55322-0.24219
		c0.06982-0.18945,0.08691-0.53613,0.08691-1.00391v-3.8916c0-0.55273-0.03516-0.93359-0.12109-1.07129
		c-0.10352-0.1377-0.27686-0.19043-0.63916-0.19043h-0.64014v-0.4834c1.02002-0.10352,2.05811-0.43164,2.69727-0.70898
		l0.15576,0.07031V78.12695z M234.16211,68.98047c0,0.5-0.46729,0.94922-0.96826,0.94922
		c-0.50146,0-0.95117-0.44922-0.95117-0.94922c0-0.50195,0.44971-0.96875,0.95117-0.96875
		C233.69482,68.01172,234.16211,68.47852,234.16211,68.98047z"/>
	<path display="inline" fill="#ED1C24" d="M240.87012,78.12695c-0.29297,0.6416-0.46582,1.29883-0.70703,1.88574h-0.86621
		l-2.97363-6.96973c-0.10254-0.24219-0.20752-0.55273-0.5376-0.56934l-0.58691-0.03613v-0.48242
		c0.6748,0.0166,1.3501,0.05176,2.02393,0.05176c0.6748,0,1.33008-0.03516,2.00684-0.05176v0.48242l-0.84668,0.03613
		c-0.45117,0.0166-0.57227,0.25977-0.27832,0.98438l2.05859,4.98145c0.3623-0.79688,0.74316-1.61035,1.07129-2.42188
		l0.72656-1.83301c0.46582-1.19238,0.43262-1.69434-0.08691-1.71094l-0.70898-0.03613v-0.48242
		c0.53711,0.0166,1.08887,0.05176,1.62598,0.05176c0.53418,0,1.08789-0.03516,1.625-0.05176v0.48242l-0.53711,0.03613
		c-0.43066,0.03418-0.72461,0.63965-0.96582,1.1582L240.87012,78.12695z"/>
	<path display="inline" fill="#ED1C24" d="M251.57617,74.94531c0,0.24316,0,0.48438-0.03613,0.72656
		c-1.03516,0.17285-2.0918,0.24219-3.12988,0.24219h-2.52441c0,2.02246,1.00195,3.40723,3.12988,3.40723
		c0.83008,0,1.48926-0.41504,2.14453-0.8125l0.22461,0.17188l-0.3457,0.58789c-0.12012,0.20898-1.59082,0.96777-2.76562,0.96777
		c-2.6123,0-3.99609-1.6582-3.99609-3.99316c0-1.67676,0.44922-2.68066,1.24609-3.30371
		c0.32812-0.25879,0.69238-0.51758,1.07129-0.69141c0.60547-0.27637,1.1084-0.4668,1.69434-0.4668
		C250.1748,71.78125,251.57617,72.99219,251.57617,74.94531z M245.91992,75.22266c1.41895,0.15625,2.87305,0.12109,4.11719,0.05176
		c0-1.60938-0.58887-2.92285-1.83398-2.92285C246.87109,72.35156,245.83398,73.33691,245.91992,75.22266z"/>
	<path display="inline" fill="#ED1C24" d="M253.91016,74.23535c0-0.55273-0.03418-0.93359-0.12012-1.07129
		c-0.10547-0.1377-0.27832-0.19043-0.64062-0.19043h-0.63965v-0.4834c1.01953-0.10352,2.05762-0.43164,2.69824-0.70898
		l0.15527,0.07031v1.74512h0.03223l0.9375-1.10645c0.41406-0.50195,1-0.70898,1.45117-0.70898
		c0.29297,0,0.65527,0.08594,0.79492,0.19043l-0.15527,2.07422h-0.36426c-0.18945-0.41406-0.55371-0.7959-1.1748-0.7959
		c-0.7627,0-1.52148,0.7959-1.52148,1.90332v2.97363c0,0.46777,0.01562,0.81445,0.08594,1.00391
		c0.06934,0.15527,0.32812,0.22461,0.72656,0.24219l0.89844,0.05273v0.51855c-0.89844-0.01758-1.59277-0.05273-2.4375-0.05273
		c-0.84668,0-1.54102,0.03516-2.16211,0.05273v-0.51855l0.7959-0.05273c0.29297-0.01758,0.48438-0.08691,0.55176-0.24219
		c0.06934-0.18945,0.08789-0.53613,0.08789-1.00391V74.23535z"/>
	<path display="inline" fill="#ED1C24" d="M259.82324,77.41895v0.70801c0,1.07324,1.22852,1.4707,2.23047,1.4707
		c1.09082,0,2.02539-0.63965,2.02539-1.57422c0-0.55371-0.29492-1.00293-0.83105-1.1416
		c-0.76074-0.18945-1.71191-0.37988-2.54395-0.69043c-0.8291-0.31152-1.46777-0.83008-1.46777-1.88574
		c0-1.86816,1.625-2.52441,3.25098-2.52441c0.8125,0,1.55566,0.19043,2.23242,0.43359
		c-0.05371,0.62207-0.07324,1.26172-0.08789,1.95312h-0.48535v-0.39844c0-0.89844-1.01953-1.41797-2.00488-1.41797
		c-1.46973,0-1.69434,0.8125-1.69434,1.40039c0,0.74414,0.56934,1.14258,1.88477,1.36719
		c2.05566,0.3457,3.02637,0.86426,3.02637,2.21289c0,1.90234-1.90332,2.9043-3.82227,2.9043
		c-0.83203,0-1.57324-0.12109-2.41992-0.41406c0.17188-0.76074,0.1875-1.59082,0.1875-2.40332H259.82324z"/>
	<path display="inline" fill="#ED1C24" d="M269.17969,78.12695c0,0.46777,0.0166,0.81445,0.08789,1.00391
		c0.06738,0.15527,0.25879,0.22461,0.55176,0.24219l0.79395,0.05273v0.51855c-0.62109-0.01758-1.31348-0.05273-2.1582-0.05273
		c-0.85059,0-1.54102,0.03516-2.16406,0.05273v-0.51855l0.7959-0.05273c0.29492-0.01758,0.48242-0.08691,0.55371-0.24219
		c0.06738-0.18945,0.08594-0.53613,0.08594-1.00391v-3.8916c0-0.55273-0.03613-0.93359-0.12207-1.07129
		c-0.10156-0.1377-0.27441-0.19043-0.64062-0.19043h-0.6377v-0.4834c1.01953-0.10352,2.05566-0.43164,2.69629-0.70898
		l0.15723,0.07031V78.12695z M269.33496,68.98047c0,0.5-0.46777,0.94922-0.96777,0.94922
		c-0.50293,0-0.95312-0.44922-0.95312-0.94922c0-0.50195,0.4502-0.96875,0.95312-0.96875
		C268.86719,68.01172,269.33496,68.47852,269.33496,68.98047z"/>
	<path display="inline" fill="#ED1C24" d="M270.99414,73.35547v-0.36328l1.34961-0.60547v-1.21094
		c0-0.44922-0.01953-0.89941-0.07129-1.36621c0.625-0.19043,1.17676-0.46582,1.47266-0.65723l0.20703,0.19141
		c-0.10156,0.75977-0.19238,1.72852-0.19238,2.45508v0.6582l2.36914-0.10547l-0.15527,0.93457h-2.21387v4.52832
		c0,0.79883,0.22656,1.19629,0.95312,1.19629c0.4502,0,0.77637-0.19043,1.01953-0.33008l0.22363,0.2959l-0.8291,0.91504
		c-0.15527,0.17188-0.75977,0.20801-1.12305,0.20801c-0.91895,0-1.69434-0.43262-1.69434-1.83398v-4.97949L270.99414,73.35547z"/>
	<path display="inline" fill="#ED1C24" d="M283.79102,73.35547c0.25879-0.64062,0-0.83008-0.62305-0.88184l-0.44824-0.03613
		v-0.48242c0.55176,0.0166,1.08691,0.05176,1.64062,0.05176s1.09277-0.03516,1.64453-0.05176v0.48242l-0.48438,0.03613
		c-0.41406,0.03418-0.7959,0.56934-1.45312,2.09277l-3.51172,8.09277c-0.55176,1.26074-1.1748,2.12598-2.62695,2.12598
		c-0.29492,0-0.6748-0.13867-0.86426-0.25977l0.41406-1.2959h0.22559c0.20898,0.20801,0.64062,0.41406,0.88184,0.39746
		c1.00391-0.07031,1.55664-1.47168,1.88379-2.26562l0.39844-1.05469c-0.29297-0.81348-0.63965-1.66113-0.96973-2.45605
		l-1.88379-4.53027c-0.27539-0.65625-0.51758-0.8125-0.89844-0.84668l-0.31055-0.03613v-0.48242
		c0.67285,0.0166,1.33203,0.05176,2.00488,0.05176c0.67383,0,1.33203-0.03516,2.00586-0.05176v0.48242l-0.65918,0.03613
		c-0.48047,0.0166-0.77637,0.19043-0.41406,1.12305l1.10645,2.90527c0.24512,0.65723,0.52148,1.2793,0.88477,1.90234
		L283.79102,73.35547z"/>
	<g display="inline">
		<g>
			<path fill="#ED1C24" d="M99.49365,95.5c-19.57422,0-35.49902-15.92676-35.49902-35.50146
				c0-19.57422,15.9248-35.49854,35.49902-35.49854c19.5752,0,35.50098,15.92432,35.50098,35.49854
				C134.99463,79.57324,119.06885,95.5,99.49365,95.5z M99.49365,26.15771c-18.65967,0-33.84082,15.18066-33.84082,33.84082
				c0,18.66064,15.18115,33.84131,33.84082,33.84131c18.66064,0,33.84277-15.18066,33.84277-33.84131
				C133.33643,41.33838,118.1543,26.15771,99.49365,26.15771z"/>
		</g>
		<g>
			<path fill="#ED1C24" d="M99.49365,86.66309c-14.70166,0-26.6626-11.96191-26.6626-26.66455
				c0-14.70166,11.96094-26.66211,26.6626-26.66211c14.70264,0,26.66455,11.96045,26.66455,26.66211
				C126.1582,74.70117,114.19629,86.66309,99.49365,86.66309z M99.49365,34.9834c-13.79346,0-25.01514,11.22168-25.01514,25.01514
				c0,13.79443,11.22168,25.01807,25.01514,25.01807c13.79443,0,25.01709-11.22363,25.01709-25.01807
				C124.51074,46.20508,113.28809,34.9834,99.49365,34.9834z"/>
		</g>
		<g>
			<path fill="#ED1C24" d="M99.50439,84.89746l-0.33008-0.14062c-0.6792-0.29199-16.63916-7.28516-16.63916-19.95801
				L82.5376,42.0332l33.88867-0.00342l0.00293,23.17139c0,12.15039-15.91797,19.25684-16.59521,19.55371L99.50439,84.89746z
				 M84.1958,43.69141l-0.00244,21.10742c0,10.62891,13.04688,17.22266,15.30518,18.2832
				c2.25439-1.0752,15.27295-7.72266,15.27295-17.88086l-0.00293-21.51367L84.1958,43.69141z"/>
		</g>
		<g>
			<path fill="#ED1C24" d="M92.01807,55.36328l-0.40381-0.23633c-0.07324-0.04297-1.80664-1.05908-2.96924-1.83887
				c-0.98193-0.65576-1.48633-1.35254-1.54004-2.12695c-0.01172-0.1626-0.01123-3.25732-0.00928-5.82715l0.00098-0.82812h9.91992
				l0.00195,0.82715c0.0083,3.74072,0.00732,5.7002-0.00342,5.82422c-0.02246,0.79102-0.50146,1.48975-1.4624,2.13184
				c-1.17139,0.78564-3.04443,1.80713-3.12305,1.85059L92.01807,55.36328z M88.75342,46.16357
				c-0.00146,2.10205-0.00098,4.69189,0.00537,4.8877c0.01221,0.15869,0.22998,0.47314,0.80859,0.85938
				c0.79102,0.53027,1.89307,1.19629,2.47998,1.54541c0.61621-0.34375,1.79199-1.01465,2.58301-1.54443
				c0.2168-0.14502,0.71973-0.51221,0.729-0.80762l0.00342-0.08252c0.00586-0.18018,0.00293-2.7627-0.00098-4.85791H88.75342z"/>
		</g>
		<g>
			<path fill="#ED1C24" d="M107.34424,55.32275l-0.40381-0.23584c-0.07275-0.04297-1.8042-1.05811-2.96533-1.8374
				c-0.98193-0.65723-1.48682-1.35352-1.54102-2.12646c-0.01074-0.12793-0.01367-2.0874-0.00879-5.82959l0.00098-0.82764h9.91797
				l0.00146,0.82715c0.00781,3.7417,0.00732,5.70166-0.00244,5.82617c-0.01758,0.7832-0.49561,1.48438-1.46094,2.13086
				c-1.17383,0.78662-3.04736,1.80664-3.12744,1.84961L107.34424,55.32275z M104.08203,46.12402
				c-0.00146,2.09619-0.00098,4.68213,0.00537,4.88574c0.0127,0.16113,0.23096,0.47461,0.81104,0.86328
				c0.79004,0.53027,1.88965,1.19434,2.47559,1.54297c0.61621-0.34326,1.79395-1.0127,2.58594-1.54297
				c0.21631-0.14551,0.71973-0.51318,0.72656-0.80469l0.00391-0.08496c0.00537-0.18066,0.00293-2.76367-0.00098-4.85938H104.08203z"
				/>
		</g>
		<g>
			<rect x="82.66504" y="55.94922" fill="#ED1C24" width="33.16846" height="1.64062"/>
		</g>
		<g>
			<path fill="#ED1C24" d="M99.45068,76.1377c-0.55908,0-0.87891-0.39355-1.04932-0.60547
				c-0.18799-0.23145-0.28125-0.29785-0.58447-0.30273c-0.90234,0-1.56543,0.06055-2.33105,0.12988
				c-0.74951,0.06836-1.6001,0.14551-2.80908,0.17188c-1.19775,0.02734-2.12598-0.02246-2.16504-0.02441l-0.7832-0.04492
				l0.00195-15.53467l0.81104-0.01855c0.24902-0.00586,0.53516-0.00586,0.87158-0.00488
				c0.47656,0.00098,1.0625,0.00146,1.79834-0.01611c0.56299-0.0127,1.22168-0.0835,1.98438-0.16406
				c0.44727-0.04785,0.92822-0.09912,1.4458-0.14551c1.06836-0.12061,2.03955,0.07764,2.08105,0.08545
				c0.2959,0.06982,0.54688,0.16504,0.75732,0.27148c0.20557-0.10449,0.45215-0.19775,0.74609-0.26709
				c0.06006-0.01172,1.03076-0.21191,2.11865-0.0874c0.50146,0.04395,0.98438,0.0957,1.43408,0.14355
				c0.75928,0.08057,1.41553,0.15088,1.97412,0.16357c0.73633,0.01807,1.32275,0.01855,1.7998,0.01611
				c0.33838,0.00049,0.62256-0.00098,0.87256,0.00488l0.80957,0.01855l0.00244,15.53467l-0.78271,0.04492
				c-0.03906,0.00098-0.9668,0.05176-2.16504,0.02441c-1.20801-0.02637-2.05811-0.10352-2.80811-0.17188
				c-0.78027-0.07227-1.45215-0.12988-2.37842-0.12988c-0.32373,0-0.41406,0.10254-0.61133,0.33008
				C100.30322,75.77539,99.98877,76.1377,99.45068,76.1377z M97.81641,73.57031c0.01709,0,0.03516,0,0.05225,0
				c0.81738,0.00195,1.30273,0.35742,1.59521,0.6582c0.30664-0.30371,0.80029-0.65625,1.63574-0.6582
				c1.01953,0.0127,1.74561,0.06543,2.53125,0.13672c0.75928,0.06934,1.54443,0.14062,2.69678,0.16699
				c0.47607,0.01074,0.9082,0.00879,1.25146,0.00293l-0.00195-12.31445c-0.09961,0.00293-0.20752,0-0.31836,0
				c-0.43018,0-0.9375-0.00195-1.5459-0.01758c-0.62598-0.01465-1.31396-0.08789-2.11084-0.17188
				c-0.43945-0.04688-0.91357-0.09863-1.42383-0.14258c-0.8374-0.09766-1.58838,0.05469-1.59619,0.05762
				c-0.43164,0.10156-0.56592,0.27832-0.5708,0.28613l-0.46582-0.27344l-0.53174,0.30664
				c0.00049,0.00098,0.00049,0.00195,0.00049,0.00195c-0.00391,0-0.18164-0.2168-0.65088-0.32617l0,0
				c-0.00244,0.00098-0.74707-0.14551-1.55469-0.05566c-0.52783,0.04688-0.99854,0.09863-1.43701,0.14453
				c-0.79932,0.08496-1.48926,0.1582-2.12109,0.17285c-0.75293,0.01855-1.35059,0.01758-1.83984,0.01758
				c-0.00684,0-0.01465,0-0.02197,0l-0.00195,12.31445c0.34424,0.00586,0.77832,0.00781,1.25195-0.00293
				c1.15332-0.02637,1.93848-0.09766,2.69727-0.16699C96.1084,73.6377,96.83887,73.57031,97.81641,73.57031z"/>
		</g>
		<g>
			<rect x="87.92871" y="47.74609" fill="#ED1C24" width="8.2002" height="1.37939"/>
		</g>
		<g>
			<rect x="87.92871" y="47.60693" fill="#ED1C24" width="8.2002" height="1.65771"/>
		</g>
		<g>
			<rect x="98.7373" y="56.24316" fill="#ED1C24" width="1.37988" height="27.89062"/>
		</g>
		<g>
			<rect x="98.80566" y="56.24316" fill="#ED1C24" width="1.24316" height="27.89062"/>
		</g>
		<g>
			<polygon fill="#ED1C24" points="110.87695,50.73975 107.23389,48.31104 103.89258,50.7251 103.08447,49.60693 
				107.20312,46.63184 111.64209,49.59229 			"/>
		</g>
		<g>
			<polygon fill="#ED1C24" points="110.91504,50.85547 107.35205,48.48096 104.09082,50.83838 103.11963,49.49414 
				107.31445,46.46191 111.83447,49.47607 			"/>
		</g>
		<g>
			<path fill="#ED1C24" d="M106.02197,64.05762c-0.23584-0.00586-0.91064-0.02441-1.5127-0.04102L103.93311,64
				c-0.33203-0.00781-0.71387-0.04785-1.1543-0.0957c-0.21924-0.02344-0.45264-0.04883-0.7041-0.07227
				c-0.13184-0.01367-0.25439-0.0166-0.36328-0.01074l-0.03564-0.87109c0.14795-0.00781,0.31396-0.00488,0.48584,0.01465
				c0.24951,0.02344,0.48779,0.04785,0.71045,0.07324c0.41309,0.04297,0.77051,0.08398,1.0835,0.09082l0.57812,0.01562
				c0.6001,0.01758,1.27246,0.03613,1.50732,0.04199L106.02197,64.05762z"/>
		</g>
		<g>
			<path fill="#ED1C24" d="M106.02344,66.71387l-2.0874-0.05273c-0.32764-0.00781-0.70117-0.04688-1.13135-0.09082
				c-0.22559-0.02539-0.46826-0.05176-0.729-0.07422c-0.13623-0.01465-0.26025-0.01953-0.36914-0.01562l-0.02588-0.87109
				c0.14844-0.00781,0.3125,0,0.4834,0.01855c0.25586,0.02441,0.50293,0.0498,0.73291,0.07422
				c0.40283,0.04297,0.75244,0.08008,1.05859,0.08887l2.08447,0.05176L106.02344,66.71387z"/>
		</g>
		<g>
			<path fill="#ED1C24" d="M106.02539,69.375c-0.1709-0.00195-0.56982-0.0127-1.00537-0.02539l-1.08447-0.0293
				c-0.32422-0.00586-0.6958-0.04395-1.12256-0.09082c-0.22803-0.02344-0.47314-0.05078-0.73682-0.07324
				c-0.13281-0.0127-0.25781-0.0166-0.36719-0.01367l-0.03125-0.87207c0.14795-0.00586,0.31152,0,0.48193,0.01758
				c0.26318,0.02441,0.51318,0.0498,0.74561,0.0752c0.39844,0.04199,0.74463,0.08105,1.04785,0.08691l1.09131,0.02832
				c0.43115,0.01172,0.8252,0.02344,0.99365,0.02637L106.02539,69.375z"/>
		</g>
		<g>
			<path fill="#ED1C24" d="M106.02344,72.03711c-0.30176-0.00586-1.32373-0.0332-1.99023-0.05078l-0.09912-0.00293
				c-0.3252-0.00781-0.69629-0.04688-1.12305-0.09277c-0.22803-0.02344-0.47217-0.0498-0.73535-0.07422
				c-0.13477-0.01465-0.26025-0.01855-0.3667-0.01465l-0.03125-0.87109c0.14893-0.00684,0.31494,0,0.48633,0.01953
				c0.25781,0.02344,0.50684,0.04883,0.73877,0.07422c0.40088,0.04297,0.74805,0.08008,1.05322,0.08691l0.10059,0.00293
				c0.66455,0.01758,1.68213,0.04492,1.9834,0.05176L106.02344,72.03711z"/>
		</g>
		<g>
			<path fill="#ED1C24" d="M92.90381,64.03418l-0.01904-0.87109c0.30762-0.00684,1.35986-0.03418,2.02246-0.05176
				c0.38623-0.00781,0.74951-0.04785,1.17188-0.09375c0.21582-0.02344,0.4458-0.04883,0.69238-0.07227
				c0.15186-0.01465,0.30664-0.02441,0.44434-0.01855l-0.01025,0.87109c-0.11182-0.00195-0.22754,0.00293-0.34814,0.01562
				c-0.24658,0.02344-0.47266,0.04785-0.68506,0.07031c-0.44678,0.04883-0.83252,0.09082-1.18164,0.09668
				C94.26611,64,93.2124,64.02832,92.90381,64.03418z"/>
		</g>
		<g>
			<path fill="#ED1C24" d="M92.90381,66.69629l-0.01904-0.87207l2.08789-0.05371c0.31299-0.00879,0.67041-0.04688,1.08447-0.09277
				c0.22168-0.02246,0.45947-0.0498,0.71436-0.07422c0.16455-0.01172,0.31885-0.0166,0.45801-0.01074l-0.03711,0.87012
				c-0.10791-0.00488-0.22656,0.00098-0.34619,0.00977c-0.24365,0.02344-0.47705,0.04785-0.69482,0.07227
				c-0.44189,0.04785-0.82275,0.08887-1.15771,0.09668L92.90381,66.69629z"/>
		</g>
		<g>
			<path fill="#ED1C24" d="M92.89941,69.35254l-0.01074-0.87207c0.31787-0.00391,1.42676-0.03516,2.08203-0.05371
				c0.30762-0.00488,0.66406-0.04199,1.07666-0.08691c0.2251-0.02246,0.46729-0.04883,0.72656-0.07227
				c0.14404-0.01758,0.2998-0.02148,0.44189-0.01758l-0.01025,0.87109c-0.10693,0-0.22266,0-0.34082,0.01367
				c-0.26855,0.02441-0.50439,0.04883-0.72559,0.07324c-0.43408,0.04492-0.80957,0.08496-1.15088,0.08887
				C94.33545,69.31543,93.21924,69.34863,92.89941,69.35254z"/>
		</g>
		<g>
			<path fill="#ED1C24" d="M92.90039,72.01562l-0.01221-0.87012c0.29932-0.00391,1.30127-0.0332,1.96387-0.05078l0.11914-0.00293
				c0.31885-0.00781,0.68066-0.04883,1.1001-0.09277c0.21826-0.02441,0.45068-0.0498,0.69922-0.07324
				c0.14893-0.0166,0.30322-0.01953,0.44287-0.0166l-0.01025,0.87109c-0.10693,0-0.22412-0.00098-0.34277,0.0127
				c-0.25146,0.02344-0.48047,0.04883-0.69434,0.07227c-0.44824,0.04883-0.83496,0.08887-1.17285,0.09766l-0.1167,0.00391
				C94.20947,71.98535,93.20117,72.01172,92.90039,72.01562z"/>
		</g>
		<g>
			<g>
				<rect x="88.10107" y="62.1377" fill="#ED1C24" width="1.80518" height="1.98145"/>
			</g>
			<g>
				<rect x="88.10107" y="66.72266" fill="#ED1C24" width="1.90234" height="1.98535"/>
			</g>
			<g>
				<rect x="88.10107" y="70.8252" fill="#ED1C24" width="1.80518" height="1.97656"/>
			</g>
			<g>
				<rect x="108.88477" y="62.5293" fill="#ED1C24" width="1.80615" height="1.97852"/>
			</g>
			<g>
				<rect x="108.88477" y="67.11328" fill="#ED1C24" width="1.90234" height="1.98242"/>
			</g>
			<g>
				<rect x="108.88477" y="71.21387" fill="#ED1C24" width="1.80615" height="1.97949"/>
			</g>
			<g>
				<g>
					<g>
						<path fill="#ED1C24" d="M71.62793,56.58691c0.06152,0.34961,0.10596,0.72412,0.08398,1.08203
							c-0.09619,1.52393-0.93555,2.5332-2.54883,2.43213c-1.63428-0.10254-2.48779-1.14551-2.38916-2.74121
							c0.021-0.31104,0.10791-0.71729,0.26514-1.05371l0.80322,0.11768c-0.22852,0.34619-0.29688,0.66504-0.31689,1.00244
							c-0.06104,0.97119,0.65234,1.62451,1.63135,1.68604c0.97168,0.06152,1.73779-0.48877,1.80127-1.49121
							c0.02441-0.36914-0.03174-0.81299-0.1333-1.04248L71.62793,56.58691z"/>
					</g>
				</g>
				<g>
					<g>
						<path fill="#ED1C24" d="M67.89307,51.37744c0.40283-1.42383,1.60449-1.94434,2.99658-1.54834
							c1.39014,0.39258,2.1665,1.46729,1.75928,2.90088c-0.41309,1.45508-1.61182,1.94434-3.02344,1.54541
							C68.21484,53.87305,67.48193,52.82227,67.89307,51.37744z M71.9248,52.52393c0.26416-0.92822-0.4751-1.51172-1.30518-1.74707
							c-0.81152-0.23193-1.74658-0.09619-2.00439,0.80811c-0.25537,0.90186,0.46924,1.50879,1.28027,1.73828
							C70.72412,53.56006,71.66016,53.45361,71.9248,52.52393z"/>
					</g>
				</g>
				<g>
					<g>
						<path fill="#ED1C24" d="M69.79297,46.43213l0.48047-0.89941c0.47461-0.89502,1.01172-1.979,2.18604-1.35352
							c0.49512,0.26367,0.73193,0.81201,0.52197,1.37842l0.01123,0.00977c0.13916-0.21924,0.43945-0.22705,0.67188-0.21045
							l2.00537,0.21045l-0.49463,0.93018l-1.58447-0.20166c-0.37891-0.04785-0.55664-0.00537-0.74414,0.34521l-0.14209,0.26904
							l1.75293,0.93457l-0.44482,0.83545L69.79297,46.43213z M72.03857,46.55664l0.14648-0.27441
							c0.22021-0.41064,0.41064-0.91504-0.11621-1.19385c-0.5083-0.27148-0.79785,0.17236-1.021,0.58887l-0.146,0.27441
							L72.03857,46.55664z"/>
					</g>
				</g>
				<g>
					<g>
						<path fill="#ED1C24" d="M73.02393,40.96973l0.74316-0.89355l3.89844,0.89844l0.00977-0.01025l-2.75244-2.28174
							l0.57666-0.69775l3.68164,3.05273l-0.73779,0.88867l-3.9043-0.89404l-0.00732,0.01074l2.75146,2.28369l-0.57812,0.69531
							L73.02393,40.96973z"/>
					</g>
				</g>
				<g>
					<g>
						<path fill="#ED1C24" d="M77.81494,35.77539l2.15625-1.75537l0.47656,0.5835L79.021,35.7627l0.74512,0.91455l1.30518-1.06299
							l0.47607,0.58301l-1.30566,1.06396l0.84814,1.04199l1.43506-1.16895L83,37.71875l-2.16797,1.76562L77.81494,35.77539z"/>
					</g>
				</g>
				<g>
					<g>
						<path fill="#ED1C24" d="M82.50586,32.32812l0.82568-0.4668l1.9751,3.51074l1.59424-0.89844l0.36963,0.6582l-2.4209,1.36035
							L82.50586,32.32812z"/>
					</g>
				</g>
				<g>
					<g>
						<path fill="#ED1C24" d="M87.36133,29.89258l0.89062-0.32275l1.36963,3.78516l1.72021-0.62061l0.2583,0.70752l-2.61182,0.94531
							L87.36133,29.89258z"/>
					</g>
				</g>
				<g>
					<g>
						<path fill="#ED1C24" d="M94.98389,27.81543l0.94385-0.0791l0.22656,2.75342c0.06689,0.81006,0.36768,1.32422,1.08984,1.26318
							c0.71875-0.05859,0.93066-0.61377,0.86279-1.42383l-0.229-2.75488l0.94434-0.07764l0.25195,3.04541
							c0.10693,1.27686-0.56396,1.86182-1.76953,1.96338c-1.20312,0.09912-1.96289-0.36768-2.06885-1.64453L94.98389,27.81543z"/>
					</g>
				</g>
				<g>
					<g>
						<path fill="#ED1C24" d="M102.06836,27.57422l1.15137,0.15576l1.30273,3.78467l0.01416,0.00195l0.47705-3.54541
							l0.89844,0.12256l-0.63965,4.73682l-1.14453-0.15332l-1.30957-3.78467l-0.01367-0.00098l-0.47607,3.54102l-0.89844-0.11963
							L102.06836,27.57422z"/>
					</g>
				</g>
				<g>
					<g>
						<path fill="#ED1C24" d="M108.8457,28.87207l0.90186,0.2832l-1.43115,4.5625l-0.90283-0.28369L108.8457,28.87207z"/>
					</g>
				</g>
				<g>
					<g>
						<path fill="#ED1C24" d="M112.20801,30.00391l0.90527,0.45898l-0.61475,3.89502l0.01221,0.00684l2.76172-2.80957
							l0.8374,0.42139l-3.57422,3.55127l-1.03711-0.52344L112.20801,30.00391z"/>
					</g>
				</g>
				<g>
					<g>
						<path fill="#ED1C24" d="M118.40723,33.53174l2.19238,1.71631l-0.46289,0.59131l-1.44727-1.13135l-0.72607,0.9292
							l1.32422,1.03613l-0.46338,0.59473l-1.32471-1.0376l-0.82812,1.05859l1.45947,1.14111l-0.46338,0.59277l-2.20312-1.72266
							L118.40723,33.53174z"/>
					</g>
				</g>
				<g>
					<g>
						<path fill="#ED1C24" d="M122.80957,37.31543l0.67236,0.76514c0.66846,0.7627,1.4917,1.64844,0.49316,2.52686
							c-0.42236,0.36963-1.01807,0.39697-1.47656,0.00146l-0.01123,0.00732c0.15576,0.20605,0.05859,0.49023-0.03906,0.69922
							l-0.90723,1.80273l-0.6958-0.7915l0.74756-1.4126c0.1792-0.33545,0.20312-0.5166-0.06104-0.81494l-0.19873-0.22949
							l-1.49463,1.30811l-0.62402-0.70996L122.80957,37.31543z M121.89844,39.37158l0.20508,0.23486
							c0.30566,0.34961,0.71094,0.70557,1.15869,0.31152c0.43311-0.37793,0.12109-0.80664-0.19141-1.16162l-0.20605-0.23389
							L121.89844,39.37158z"/>
					</g>
				</g>
				<g>
					<g>
						<path fill="#ED1C24" d="M127.27246,44.89648c-0.04053-0.32227-0.14258-0.646-0.31152-0.93018
							c-0.16455-0.2793-0.50098-0.56494-0.94922-0.30176c-0.71582,0.42236,0.63916,2.02344-0.74023,2.83984
							c-0.90137,0.5332-1.66113,0.03174-2.14502-0.78711c-0.26221-0.44287-0.32031-0.6748-0.4585-1.13428l0.78857-0.36621
							c0.01318,0.37109,0.10254,0.75,0.28955,1.06885c0.18408,0.31055,0.58496,0.62842,0.95654,0.40625
							c0.78711-0.4624-0.5918-2.04883,0.771-2.85449c0.91943-0.54395,1.67236-0.03809,2.09473,0.67578
							c0.20557,0.34814,0.35156,0.70215,0.42676,1.05664L127.27246,44.89648z"/>
					</g>
				</g>
				<g>
					<g>
						<path fill="#ED1C24" d="M129.36816,47.27588l0.35889,0.87695l-4.42969,1.80518l-0.35547-0.875L129.36816,47.27588z"/>
					</g>
				</g>
				<g>
					<g>
						<path fill="#ED1C24" d="M130.19092,52.00977l-0.32422-1.3125l0.73291-0.17871l0.87256,3.54346l-0.73242,0.1792
							l-0.32275-1.31299l-3.91113,0.96338l-0.22607-0.91992L130.19092,52.00977z"/>
					</g>
				</g>
				<g>
					<g>
						<path fill="#ED1C24" d="M129.04443,58.16992l2.79004-1.87891l0.06348,1.10449l-1.94434,1.22412l2.06836,1.02295
							l0.05469,0.99902l-2.97949-1.52637l-1.89014,0.10449l-0.05127-0.94531L129.04443,58.16992z"/>
					</g>
				</g>
				<g>
					<g>
						<path fill="#ED1C24" d="M72.37158,66.43652l0.73291,2.54395l-0.72461,0.20996l-0.46973-1.62891l-1.13086,0.32812
							l0.4458,1.54688l-0.72314,0.20996l-0.44629-1.5498l-2.01514,0.58301l-0.26611-0.91895L72.37158,66.43652z"/>
					</g>
				</g>
				<g>
					<g>
						<path fill="#ED1C24" d="M74.61182,72.2998c0.66016,1.34277,0.12109,2.5459-1.1792,3.18164
							c-1.29541,0.6377-2.59375,0.35449-3.25977-1.00098c-0.67529-1.36914-0.11182-2.5459,1.20361-3.18945
							C72.69287,70.64551,73.94238,70.94238,74.61182,72.2998z M70.84961,74.14844c0.43018,0.87891,1.36865,0.82129,2.14404,0.43848
							c0.75732-0.37012,1.35938-1.10254,0.94043-1.95312c-0.41602-0.84961-1.36279-0.81738-2.11914-0.44727
							C71.03857,72.56641,70.41846,73.27246,70.84961,74.14844z"/>
					</g>
				</g>
				<g>
					<g>
						<path fill="#ED1C24" d="M76.64551,76.06445l0.59521,0.74609l-2.15967,1.71582c-0.63965,0.50488-0.896,1.04297-0.44092,1.61426
							c0.45312,0.5752,1.0332,0.44531,1.67041-0.06348l2.16113-1.71777l0.59619,0.75l-2.39307,1.89941
							c-1.00146,0.79492-1.86523,0.55957-2.62695-0.39551c-0.75977-0.95898-0.79688-1.85645,0.20557-2.65234L76.64551,76.06445z"/>
					</g>
				</g>
				<g>
					<g>
						<path fill="#ED1C24" d="M80.56836,80.64062l0.91113,0.74219l-0.85986,3.91699l0.01074,0.00586l2.26318-2.76367
							l0.70996,0.57715l-3.0293,3.70117l-0.9043-0.73926l0.85352-3.92383l-0.01221-0.00684l-2.26221,2.76465l-0.7085-0.57715
							L80.56836,80.64062z"/>
					</g>
				</g>
				<g>
					<g>
						<path fill="#ED1C24" d="M85.41748,84.29492l1.16748,0.58496c1.30322,0.65625,2.23682,1.67578,1.3833,3.37305
							c-0.85107,1.69434-2.22754,1.55566-3.53174,0.89941l-1.16602-0.58301L85.41748,84.29492z M84.46289,88.32617l0.47656,0.23926
							c0.71387,0.35547,1.66943,0.16992,2.13818-0.76172c0.4668-0.92773,0.04785-1.80762-0.66699-2.16699l-0.47656-0.24023
							L84.46289,88.32617z"/>
					</g>
				</g>
				<g>
					<g>
						<path fill="#ED1C24" d="M90.94727,86.75391l2.71826,0.72754l-0.19482,0.72559l-1.79443-0.47754l-0.30273,1.13672
							l1.64307,0.43848l-0.19385,0.72656l-1.64404-0.4375l-0.34521,1.29883l1.80811,0.48047l-0.19336,0.72852l-2.73193-0.72852
							L90.94727,86.75391z"/>
					</g>
				</g>
				<g>
					<g>
						<path fill="#ED1C24" d="M95.76855,87.85547l1.30176,0.0752c1.45703,0.08105,2.71875,0.64746,2.61035,2.54004
							c-0.1084,1.89551-1.4248,2.31641-2.88281,2.23535l-1.30078-0.07422L95.76855,87.85547z M96.4917,91.93457l0.53271,0.02832
							c0.79834,0.0459,1.60156-0.50586,1.6626-1.54785c0.05713-1.03809-0.6792-1.67676-1.47607-1.72168l-0.52979-0.03027
							L96.4917,91.93457z"/>
					</g>
				</g>
				<g>
					<g>
						<path fill="#ED1C24" d="M104.53955,87.50977l1.05371-0.22461l2.83447,4.2793l-1.03613,0.22363l-0.62842-0.9873
							l-1.89014,0.41016l-0.17773,1.15527l-0.96729,0.20801L104.53955,87.50977z M105.25439,88.33887l-0.01318,0.00195
							l-0.25977,2.07227l1.36182-0.29102L105.25439,88.33887z"/>
					</g>
				</g>
				<g>
					<g>
						<path fill="#ED1C24" d="M109.49268,90.12695l0.89795-0.3252l0.32715,0.90039l-0.89746,0.32422L109.49268,90.12695z"/>
					</g>
				</g>
				<g>
					<g>
						<path fill="#ED1C24" d="M110.70703,85.59766l1.146-0.62109c1.28564-0.7002,2.65479-0.87695,3.55957,0.79004
							c0.90332,1.66992,0.00342,2.7168-1.28076,3.41211l-1.14648,0.62109L110.70703,85.59766z M113.46826,88.68262l0.46777-0.25098
							c0.70215-0.38379,1.09473-1.27246,0.59961-2.19043c-0.49609-0.91699-1.45801-1.07227-2.16064-0.68848l-0.46826,0.25195
							L113.46826,88.68262z"/>
					</g>
				</g>
				<g>
					<g>
						<path fill="#ED1C24" d="M116.79785,86.4834l0.78662-0.54785l0.54639,0.78809l-0.78467,0.54688L116.79785,86.4834z"/>
					</g>
				</g>
				<g>
					<g>
						<path fill="#ED1C24" d="M118.77002,79.94238l0.60107-0.59473l3.35889,3.40625l-0.67969,0.67188l-2.59326-2.62793
							l-0.1123,1.03223l-0.77832-0.10742L118.77002,79.94238z"/>
					</g>
				</g>
				<g>
					<g>
						<path fill="#ED1C24" d="M123.05176,78.5752c-0.45703,0.25586-0.96094,0.27441-1.36475-0.02148
							c-0.68652-0.51172-0.62695-1.27148-0.1123-1.96875c0.5-0.6748,1.22998-1.07617,1.87354-0.60156
							c0.34814,0.25879,0.59375,0.76953,0.4502,1.31836l0.00586,0.00488c0.60986-0.33008,1.1123-0.31641,1.55176,0.00879
							c0.77832,0.57324,0.70703,1.38574,0.14551,2.14355c-0.55273,0.74414-1.32373,1.11133-2.10352,0.5293
							c-0.43164-0.31543-0.54883-0.77832-0.43604-1.40527L123.05176,78.5752z M123.27832,77.6582
							c0.08154-0.27148-0.00391-0.66406-0.24072-0.83789c-0.28564-0.21289-0.61914-0.17773-0.8335,0.11133
							c-0.20605,0.28125-0.25879,0.67383,0.04785,0.90234C122.58447,78.07715,122.98535,77.84668,123.27832,77.6582z
							 M125.02734,79.03418c0.23047-0.30664,0.21387-0.68945-0.10547-0.92773c-0.37891-0.2793-0.80225-0.08984-1.14258,0.14941
							c-0.06934,0.37207-0.05127,0.71582,0.27246,0.95703C124.37402,79.45117,124.80078,79.34082,125.02734,79.03418z"/>
					</g>
				</g>
				<g>
					<g>
						<path fill="#ED1C24" d="M125.60986,71.61328c-0.21045,0.17773-0.39893,0.36914-0.54346,0.6582
							c-0.3667,0.73535,0.19336,1.33105,0.81836,1.67676l0.01904-0.00977c-0.19482-0.34766-0.19678-0.67676-0.01758-1.03809
							c0.40234-0.80664,1.13672-0.98828,1.92773-0.5957c0.92627,0.46582,1.31201,1.2207,0.83154,2.18555
							c-0.59277,1.18555-1.71045,0.95703-2.71387,0.45508c-1.16211-0.58008-2.24902-1.58789-1.55908-2.96777
							c0.15283-0.31055,0.34961-0.58203,0.59863-0.82324L125.60986,71.61328z M126.95166,74.38477
							c0.40332,0.20215,0.84473,0.20801,1.05371-0.21484c0.19922-0.39355-0.10352-0.75195-0.48389-0.94141
							c-0.41797-0.20801-0.88721-0.23145-1.09326,0.17969C126.22119,73.82227,126.52148,74.16992,126.95166,74.38477z"/>
					</g>
				</g>
				<g>
					<g>
						<path fill="#ED1C24" d="M127.20605,66.51465l-0.52246,1.76172l0.97119,0.3125c0.01074-0.1123,0.02686-0.25781,0.08057-0.43066
							c0.18994-0.64355,0.74023-1.38379,1.92725-1.02832c0.86035,0.25488,1.37744,1.06152,1.02539,2.24121
							c-0.10449,0.35449-0.28662,0.74805-0.44775,1.0293l-0.81592-0.2666c0.15918-0.19434,0.39062-0.4668,0.5083-0.86328
							c0.14258-0.48047,0.06836-1.04688-0.51611-1.21777c-0.59229-0.17676-0.94971,0.28516-1.10596,0.80859
							c-0.08447,0.2832-0.12402,0.5625-0.11914,0.85742l-2.44873-0.7793l0.78076-2.62598L127.20605,66.51465z"/>
					</g>
				</g>
			</g>
		</g>
	</g>
</g>
<g id="Cornell_seal" display="none">
	<g display="inline">
		<g>
			<path fill="#ED1C24" d="M59.99854,120C26.91504,120,0,93.08105,0,59.99658C0,26.91455,26.91504,0,59.99854,0
				C93.08301,0,120,26.91455,120,59.99658C120,93.08105,93.08301,120,59.99854,120z M59.99854,2.80176
				c-31.5376,0-57.1958,25.65723-57.1958,57.19482c0,31.54053,25.6582,57.19775,57.1958,57.19775
				c31.53906,0,57.19873-25.65723,57.19873-57.19775C117.19727,28.45898,91.5376,2.80176,59.99854,2.80176z"/>
		</g>
		<g>
			<path fill="#ED1C24" d="M59.99854,105.06445c-24.84814,0-45.06396-20.21777-45.06396-45.06787
				c0-24.84717,20.21582-45.06201,45.06396-45.06201c24.84912,0,45.06689,20.21484,45.06689,45.06201
				C105.06543,84.84668,84.84766,105.06445,59.99854,105.06445z M59.99854,17.71826c-23.31299,0-42.2793,18.96631-42.2793,42.27832
				c0,23.31592,18.96631,42.28467,42.2793,42.28467c23.31445,0,42.28223-18.96875,42.28223-42.28467
				C102.28076,36.68457,83.31299,17.71826,59.99854,17.71826z"/>
		</g>
		<g>
			<path fill="#ED1C24" d="M60.0166,102.08008l-0.55811-0.2373c-1.14795-0.49414-28.12256-12.31348-28.12256-33.73242
				l0.00439-38.47656l57.27637-0.00586l0.00488,39.16309c0,20.53516-26.90332,32.54688-28.04785,33.04785L60.0166,102.08008z
				 M34.14307,32.43604l-0.00439,35.67432c0,17.96484,22.05127,29.10938,25.86816,30.90137
				c3.81006-1.81738,25.81299-13.05176,25.81299-30.2207l-0.00488-36.36133L34.14307,32.43604z"/>
		</g>
		<g>
			<path fill="#ED1C24" d="M47.36377,52.16309l-0.68262-0.39941c-0.12402-0.07227-3.05371-1.79004-5.01855-3.10791
				c-1.65967-1.1084-2.51221-2.28564-2.60303-3.59473c-0.01953-0.2749-0.01904-5.50537-0.01562-9.84863l0.00195-1.3999h16.76611
				l0.00293,1.39844c0.01416,6.32227,0.0127,9.63379-0.00586,9.84375c-0.0376,1.33691-0.84717,2.51758-2.47168,3.60303
				c-1.97949,1.32764-5.14551,3.0542-5.27832,3.12744L47.36377,52.16309z M41.8457,36.61426
				c-0.00244,3.55322-0.00146,7.93018,0.00928,8.26123c0.02051,0.26807,0.38867,0.7998,1.3667,1.45215
				c1.33691,0.89648,3.19922,2.02197,4.19141,2.6123c1.0415-0.58105,3.02881-1.71484,4.36572-2.61035
				c0.36621-0.24512,1.21631-0.86572,1.23193-1.36523l0.00586-0.13916c0.00977-0.30469,0.00488-4.66943-0.00146-8.21094H41.8457z"/>
		</g>
		<g>
			<path fill="#ED1C24" d="M73.26709,52.09473l-0.68262-0.39844c-0.12305-0.07275-3.04932-1.78857-5.01172-3.10547
				c-1.65967-1.11084-2.51318-2.2876-2.60449-3.59424c-0.01855-0.21631-0.02344-3.52783-0.01514-9.85254l0.00195-1.39893h16.7627
				l0.00244,1.39795c0.01318,6.32373,0.01221,9.63672-0.00439,9.84717c-0.0293,1.32373-0.8374,2.50879-2.46924,3.60107
				c-1.98389,1.32959-5.15039,3.05371-5.28564,3.12646L73.26709,52.09473z M67.75342,36.54785
				c-0.00244,3.54248-0.00195,7.91309,0.00879,8.25732c0.02148,0.27246,0.39062,0.80225,1.37109,1.45898
				c1.33496,0.89648,3.19385,2.01855,4.18408,2.60791c1.0415-0.58008,3.03174-1.71143,4.37061-2.60791
				c0.36572-0.24561,1.21631-0.86719,1.22803-1.35986l0.00635-0.14355c0.00928-0.30566,0.00488-4.6709-0.00146-8.21289H67.75342z"/>
		</g>
		<g>
			<rect x="31.55566" y="53.15381" fill="#ED1C24" width="56.05908" height="2.77246"/>
		</g>
		<g>
			<path fill="#ED1C24" d="M59.92578,87.27539c-0.94482,0-1.48535-0.66602-1.77344-1.02344
				c-0.31787-0.3916-0.47559-0.50391-0.98779-0.51172c-1.52539,0-2.646,0.10254-3.93994,0.21973
				c-1.2666,0.11523-2.70459,0.24512-4.74756,0.29004c-2.02441,0.0459-3.59326-0.03809-3.65967-0.04102l-1.32373-0.07617
				l0.00342-26.25488l1.37109-0.0332c0.4209-0.00977,0.9043-0.00977,1.47266-0.00635c0.80566,0,1.7959,0.00146,3.03955-0.02832
				c0.95166-0.02148,2.06494-0.14014,3.354-0.27734c0.75586-0.08057,1.56885-0.1665,2.44385-0.24561
				c1.80566-0.20459,3.44678,0.13184,3.51709,0.14502c0.5,0.11719,0.92432,0.27734,1.27979,0.45898
				c0.34766-0.17822,0.76416-0.33496,1.26123-0.45215c0.10156-0.02002,1.74219-0.3584,3.58057-0.14893
				c0.84766,0.07617,1.66406,0.16211,2.42383,0.24463c1.2832,0.13525,2.39258,0.25391,3.33691,0.27539
				c1.24414,0.03125,2.23535,0.03125,3.0415,0.02832c0.57227,0,1.05225-0.00342,1.4751,0.00635l1.36816,0.0332l0.00391,26.25488
				l-1.32275,0.07617c-0.06592,0.00098-1.63379,0.08691-3.65918,0.04102c-2.0415-0.04492-3.47852-0.1748-4.74609-0.29004
				c-1.31885-0.12305-2.4541-0.21973-4.02002-0.21973c-0.54688,0-0.69971,0.17285-1.0332,0.55762
				C61.3667,86.66309,60.83496,87.27539,59.92578,87.27539z M57.16357,82.93555c0.02881,0,0.05957,0,0.08838,0
				c1.38135,0.00391,2.20166,0.60449,2.69629,1.1123c0.51807-0.5127,1.35254-1.1084,2.76416-1.1123
				c1.72363,0.02148,2.95068,0.11035,4.27832,0.23145c1.2832,0.11719,2.61035,0.2373,4.55811,0.28223
				c0.80469,0.01758,1.53467,0.01465,2.11523,0.00488l-0.00342-20.81348c-0.16846,0.00488-0.35059,0-0.53809,0
				c-0.72705,0-1.58447-0.00293-2.61279-0.0293c-1.05811-0.02539-2.2207-0.14844-3.56787-0.29102
				c-0.74268-0.0791-1.54395-0.16602-2.40625-0.24023c-1.41553-0.16504-2.68457,0.0918-2.69775,0.09668
				c-0.72949,0.17188-0.95654,0.4707-0.96484,0.48438l-0.78711-0.46289l-0.89893,0.51855
				c0.00098,0.00195,0.00098,0.00293,0.00098,0.00293c-0.00684,0-0.30713-0.36621-1.1001-0.55078l0,0
				c-0.00439,0.00195-1.2627-0.24609-2.62744-0.09375c-0.89258,0.0791-1.68799,0.16602-2.4292,0.24414
				c-1.35059,0.14355-2.5166,0.2666-3.58496,0.29199c-1.27246,0.03125-2.28223,0.0293-3.10938,0.0293c-0.01172,0-0.0249,0-0.03711,0
				L46.29639,83.4541c0.58203,0.00977,1.31543,0.0127,2.11621-0.00488c1.94922-0.04492,3.27637-0.16504,4.55859-0.28223
				C54.27686,83.0498,55.51123,82.93555,57.16357,82.93555z"/>
		</g>
		<g>
			<rect x="40.45215" y="39.28906" fill="#ED1C24" width="13.85938" height="2.33154"/>
		</g>
		<g>
			<rect x="40.45215" y="39.0542" fill="#ED1C24" width="13.85938" height="2.80176"/>
		</g>
		<g>
			<rect x="58.72021" y="53.65039" fill="#ED1C24" width="2.33203" height="47.13867"/>
		</g>
		<g>
			<rect x="58.83545" y="53.65039" fill="#ED1C24" width="2.10107" height="47.13867"/>
		</g>
		<g>
			<polygon fill="#ED1C24" points="79.23779,44.34863 73.08057,40.24414 67.43311,44.32422 66.06738,42.43408 73.02832,37.40576 
				80.53076,42.40967 			"/>
		</g>
		<g>
			<polygon fill="#ED1C24" points="79.30225,44.54443 73.28027,40.53125 67.76807,44.51562 66.12695,42.24365 73.2168,37.11865 
				80.85596,42.21289 			"/>
		</g>
		<g>
			<path fill="#ED1C24" d="M71.03223,66.8584c-0.39893-0.01074-1.53906-0.04199-2.55664-0.06934l-0.97412-0.02832
				c-0.56104-0.01367-1.20654-0.08105-1.95068-0.16211c-0.37061-0.03906-0.76514-0.08203-1.18994-0.12207
				c-0.22314-0.02344-0.43018-0.02832-0.61426-0.01758l-0.06006-1.47266c0.25-0.01367,0.53076-0.00879,0.82129,0.02441
				c0.42139,0.04004,0.82422,0.08105,1.20068,0.12402c0.69824,0.07227,1.30225,0.1416,1.83105,0.15332l0.97705,0.02637
				c1.01416,0.03027,2.15088,0.06152,2.54785,0.07129L71.03223,66.8584z"/>
		</g>
		<g>
			<path fill="#ED1C24" d="M71.03467,71.34766l-3.52783-0.08984c-0.5542-0.0127-1.18555-0.0791-1.9126-0.15332
				c-0.38086-0.04297-0.79102-0.08691-1.23193-0.125c-0.22998-0.02539-0.43994-0.0332-0.62402-0.02637l-0.04346-1.47266
				c0.25098-0.0127,0.52783,0,0.81689,0.03125c0.43262,0.04199,0.8501,0.08398,1.23877,0.12598
				c0.68066,0.07227,1.27148,0.13477,1.78906,0.15039L71.0625,69.875L71.03467,71.34766z"/>
		</g>
		<g>
			<path fill="#ED1C24" d="M71.03809,75.84473c-0.28906-0.00293-0.96338-0.02148-1.69922-0.04297l-1.83301-0.04883
				c-0.54785-0.00977-1.17627-0.07422-1.89746-0.15332c-0.38525-0.04004-0.7998-0.08594-1.24512-0.12402
				c-0.22461-0.02148-0.43604-0.02832-0.62061-0.02344l-0.05273-1.47363c0.25-0.00977,0.52637,0,0.81445,0.0293
				c0.44482,0.04102,0.86719,0.08398,1.26025,0.12695c0.67334,0.07129,1.2583,0.1377,1.771,0.14746l1.84424,0.04785
				c0.729,0.01953,1.39453,0.03906,1.67969,0.04395L71.03809,75.84473z"/>
		</g>
		<g>
			<path fill="#ED1C24" d="M71.03467,80.34473c-0.51025-0.00977-2.2373-0.05664-3.36377-0.08594l-0.16748-0.00488
				c-0.5498-0.01367-1.17676-0.0791-1.89844-0.15723c-0.38525-0.03906-0.79785-0.08398-1.24268-0.125
				c-0.22754-0.02539-0.43994-0.03125-0.61963-0.02539l-0.05273-1.47168c0.25146-0.01172,0.53223,0,0.82178,0.0332
				c0.43555,0.03906,0.85645,0.08203,1.24854,0.125c0.67773,0.07227,1.26416,0.13574,1.78027,0.14648l0.16992,0.00488
				c1.12305,0.03027,2.84326,0.07617,3.35205,0.08789L71.03467,80.34473z"/>
		</g>
		<g>
			<path fill="#ED1C24" d="M48.86035,66.81836l-0.03174-1.47266c0.51953-0.01074,2.29834-0.05762,3.41797-0.08691
				c0.65283-0.01367,1.2666-0.08105,1.98047-0.1582c0.36523-0.04004,0.75391-0.08301,1.17041-0.12305
				c0.25684-0.02441,0.51807-0.04102,0.75098-0.03125l-0.01709,1.47266c-0.18896-0.00293-0.38477,0.00488-0.58838,0.02637
				c-0.41699,0.04004-0.79932,0.08105-1.1582,0.11914c-0.75488,0.08203-1.40674,0.15332-1.99707,0.16309
				C51.16309,66.76074,49.38232,66.80859,48.86035,66.81836z"/>
		</g>
		<g>
			<path fill="#ED1C24" d="M48.86035,71.31738l-0.03174-1.47363l3.52881-0.09082c0.52881-0.01465,1.13281-0.0791,1.83252-0.15723
				c0.375-0.03711,0.77686-0.08398,1.20752-0.125c0.27832-0.01953,0.53906-0.02832,0.77393-0.01855l-0.0625,1.4707
				c-0.18262-0.00781-0.38281,0.00195-0.58496,0.0166c-0.41211,0.04004-0.80664,0.08105-1.17432,0.12207
				c-0.74707,0.08105-1.39062,0.15039-1.95703,0.16406L48.86035,71.31738z"/>
		</g>
		<g>
			<path fill="#ED1C24" d="M48.85303,75.80664l-0.01807-1.47363c0.53711-0.00684,2.41162-0.05957,3.51904-0.09082
				c0.52002-0.00781,1.12207-0.07031,1.81982-0.14648c0.38037-0.03809,0.78955-0.08301,1.22803-0.12207
				c0.24316-0.03027,0.50635-0.03613,0.74658-0.03027l-0.01709,1.47266c-0.18115,0-0.37646,0-0.57617,0.02344
				c-0.4541,0.04102-0.85254,0.08203-1.22656,0.12305c-0.7334,0.07617-1.36816,0.14355-1.94482,0.15039
				C51.28027,75.74414,49.39355,75.80078,48.85303,75.80664z"/>
		</g>
		<g>
			<path fill="#ED1C24" d="M48.85498,80.30762l-0.021-1.46973c0.50586-0.00684,2.19971-0.05664,3.31934-0.08594l0.20166-0.00488
				c0.53857-0.01367,1.15039-0.08301,1.85889-0.15723c0.36914-0.04102,0.76172-0.08398,1.18213-0.12402
				c0.25146-0.02734,0.51221-0.0332,0.74854-0.02734l-0.01758,1.47168c-0.18066,0-0.37891-0.00195-0.5791,0.02148
				c-0.42529,0.04004-0.81201,0.08301-1.17383,0.12207c-0.75732,0.08301-1.41113,0.15039-1.98193,0.16504l-0.19727,0.00684
				C51.06738,80.25684,49.36328,80.30176,48.85498,80.30762z"/>
		</g>
		<g>
			<g>
				<rect x="40.74316" y="63.61328" fill="#ED1C24" width="3.05127" height="3.34863"/>
			</g>
			<g>
				<rect x="40.74316" y="71.3623" fill="#ED1C24" width="3.21533" height="3.35547"/>
			</g>
			<g>
				<rect x="40.74316" y="78.2959" fill="#ED1C24" width="3.05127" height="3.34082"/>
			</g>
			<g>
				<rect x="75.87061" y="64.27441" fill="#ED1C24" width="3.05273" height="3.34473"/>
			</g>
			<g>
				<rect x="75.87061" y="72.02246" fill="#ED1C24" width="3.21533" height="3.35059"/>
			</g>
			<g>
				<rect x="75.87061" y="78.95312" fill="#ED1C24" width="3.05273" height="3.3457"/>
			</g>
			<g>
				<g>
					<g>
						<path fill="#ED1C24" d="M12.90137,54.23145c0.104,0.59082,0.1792,1.22314,0.14209,1.82861
							c-0.1626,2.57666-1.58154,4.28174-4.30811,4.11182c-2.76221-0.17529-4.20459-1.93799-4.03809-4.63477
							c0.03564-0.5249,0.18262-1.21143,0.44824-1.78027l1.35742,0.19873c-0.38623,0.58545-0.50146,1.12402-0.53564,1.69385
							c-0.10303,1.64209,1.10254,2.74609,2.75732,2.8501c1.64258,0.104,2.93701-0.82666,3.04443-2.52002
							c0.0415-0.62402-0.05371-1.37402-0.2251-1.76221L12.90137,54.23145z"/>
					</g>
				</g>
				<g>
					<g>
						<path fill="#ED1C24" d="M6.58887,45.42676c0.68066-2.40674,2.71191-3.28613,5.06445-2.61719
							c2.34961,0.66357,3.66211,2.47998,2.97363,4.90283c-0.69824,2.45947-2.72412,3.28662-5.10986,2.6123
							C7.13281,49.64453,5.89404,47.86865,6.58887,45.42676z M13.40332,47.36426c0.44629-1.56885-0.80322-2.55469-2.20605-2.95264
							c-1.37158-0.39209-2.95215-0.1626-3.3877,1.36572c-0.43164,1.52441,0.79297,2.55029,2.16357,2.93799
							C11.37402,49.11572,12.95605,48.93555,13.40332,47.36426z"/>
					</g>
				</g>
				<g>
					<g>
						<path fill="#ED1C24" d="M9.7998,37.06836l0.8125-1.52002c0.80176-1.5127,1.70947-3.34473,3.69434-2.2876
							c0.83691,0.44531,1.2373,1.37207,0.88232,2.32959l0.01904,0.0166c0.23535-0.37061,0.74268-0.38379,1.13574-0.35596
							l3.38916,0.35596l-0.83594,1.57227l-2.67822-0.34131c-0.64014-0.08057-0.94043-0.00879-1.25732,0.5835l-0.24023,0.45508
							l2.9624,1.57959l-0.75146,1.41162L9.7998,37.06836z M13.59521,37.27881l0.24756-0.46387
							c0.37256-0.69385,0.69434-1.54639-0.19629-2.01758c-0.85889-0.45898-1.34863,0.29102-1.72559,0.99512l-0.24658,0.46387
							L13.59521,37.27881z"/>
					</g>
				</g>
				<g>
					<g>
						<path fill="#ED1C24" d="M15.26074,27.83594l1.25586-1.51025l6.58936,1.51855l0.01611-0.01709l-4.65186-3.85645l0.97461-1.1792
							l6.22266,5.15918l-1.24707,1.50195l-6.59863-1.51074l-0.0127,0.01807l4.65039,3.85986l-0.97705,1.17529L15.26074,27.83594z"/>
					</g>
				</g>
				<g>
					<g>
						<path fill="#ED1C24" d="M23.3584,19.05713l3.64404-2.9668l0.80566,0.98584l-2.41162,1.95947l1.25977,1.54541l2.20557-1.79639
							l0.80469,0.98535l-2.20654,1.79834l1.43359,1.76123l2.42529-1.97607l0.80273,0.98779l-3.66406,2.98438L23.3584,19.05713z"/>
					</g>
				</g>
				<g>
					<g>
						<path fill="#ED1C24" d="M31.28662,13.23047l1.39551-0.78857l3.33838,5.93359l2.69434-1.51855l0.62451,1.1123l-4.09131,2.29932
							L31.28662,13.23047z"/>
					</g>
				</g>
				<g>
					<g>
						<path fill="#ED1C24" d="M39.49316,9.11426l1.50537-0.54541l2.31445,6.39746l2.90771-1.04883l0.43652,1.1958l-4.41455,1.59766
							L39.49316,9.11426z"/>
					</g>
				</g>
				<g>
					<g>
						<path fill="#ED1C24" d="M52.37598,5.60352l1.5957-0.13379l0.38281,4.65381c0.11279,1.36914,0.62109,2.23828,1.8418,2.13477
							c1.21484-0.09863,1.57324-1.03711,1.4585-2.40625L57.26758,5.1958l1.59619-0.13135l0.42578,5.14746
							c0.18066,2.1582-0.95312,3.14648-2.99072,3.31836c-2.03369,0.16748-3.31787-0.62158-3.49658-2.77979L52.37598,5.60352z"/>
					</g>
				</g>
				<g>
					<g>
						<path fill="#ED1C24" d="M64.3501,5.1958l1.9458,0.26318l2.20166,6.39697l0.02393,0.00293l0.80664-5.99219l1.51855,0.20703
							l-1.08154,8.00586l-1.93408-0.25879l-2.21338-6.39697l-0.02344-0.00146l-0.8042,5.98486l-1.51855-0.20215L64.3501,5.1958z"/>
					</g>
				</g>
				<g>
					<g>
						<path fill="#ED1C24" d="M75.80469,7.38965l1.52441,0.47852l-2.41895,7.71094l-1.52588-0.47949L75.80469,7.38965z"/>
					</g>
				</g>
				<g>
					<g>
						<path fill="#ED1C24" d="M81.4873,9.30225l1.53027,0.77588l-1.03906,6.58301l0.02051,0.01172l4.66797-4.74854l1.41504,0.71191
							l-6.04102,6.00244l-1.75293-0.88477L81.4873,9.30225z"/>
					</g>
				</g>
				<g>
					<g>
						<path fill="#ED1C24" d="M91.96484,15.26514l3.70557,2.90039l-0.78223,0.99951l-2.44629-1.91211l-1.22705,1.57031
							l2.23828,1.75146l-0.7832,1.00488l-2.23926-1.75342l-1.39941,1.78906l2.4668,1.92871l-0.7832,1.00195l-3.72363-2.91162
							L91.96484,15.26514z"/>
					</g>
				</g>
				<g>
					<g>
						<path fill="#ED1C24" d="M99.40576,21.65967l1.13623,1.29346c1.12988,1.28906,2.521,2.78613,0.8335,4.27051
							c-0.71387,0.625-1.7207,0.6709-2.49561,0.00244l-0.01904,0.0127c0.26318,0.34814,0.09912,0.82861-0.06592,1.18164
							l-1.5332,3.04688l-1.17627-1.33789l1.26367-2.38721c0.30273-0.56689,0.34326-0.87305-0.10352-1.37744l-0.33545-0.3877
							l-2.52637,2.21045l-1.05469-1.19971L99.40576,21.65967z M97.86572,25.13525l0.34668,0.39697
							c0.5166,0.59082,1.20117,1.19238,1.95801,0.52637c0.73193-0.63867,0.20459-1.36328-0.32324-1.96338l-0.34814-0.39551
							L97.86572,25.13525z"/>
					</g>
				</g>
				<g>
					<g>
						<path fill="#ED1C24" d="M106.94824,34.47314c-0.06836-0.54492-0.24072-1.09229-0.52637-1.57227
							c-0.27783-0.47217-0.84668-0.95508-1.60449-0.51025c-1.20947,0.71387,1.08057,3.41992-1.25098,4.7998
							c-1.52344,0.90137-2.80762,0.05371-3.62549-1.33008c-0.44287-0.74854-0.54102-1.14062-0.7749-1.91748l1.33301-0.61865
							c0.02246,0.62695,0.17334,1.26758,0.48926,1.80664c0.31104,0.5249,0.98877,1.06201,1.6167,0.68652
							c1.33057-0.78174-1-3.46289,1.30322-4.82471c1.55371-0.91943,2.82666-0.06445,3.54053,1.14209
							c0.34717,0.58838,0.59424,1.18701,0.72119,1.78613L106.94824,34.47314z"/>
					</g>
				</g>
				<g>
					<g>
						<path fill="#ED1C24" d="M110.49072,38.49463l0.60645,1.48193l-7.48682,3.05127l-0.60107-1.479L110.49072,38.49463z"/>
					</g>
				</g>
				<g>
					<g>
						<path fill="#ED1C24" d="M111.88086,46.49561l-0.54785-2.21875l1.23877-0.30176l1.47461,5.98877l-1.23779,0.30273
							l-0.54541-2.21875l-6.61035,1.62793l-0.38232-1.55469L111.88086,46.49561z"/>
					</g>
				</g>
				<g>
					<g>
						<path fill="#ED1C24" d="M109.94336,56.90674l4.71533-3.17529l0.10742,1.8667l-3.28613,2.06787l3.49561,1.72998
							l0.09277,1.68799l-5.03613-2.57959l-3.19434,0.17676l-0.08691-1.59766L109.94336,56.90674z"/>
					</g>
				</g>
				<g>
					<g>
						<path fill="#ED1C24" d="M14.1582,70.87891l1.23877,4.2998l-1.22461,0.35449l-0.79395-2.75293l-1.91113,0.55469
							l0.75342,2.61426l-1.22217,0.35449l-0.75439-2.61914l-3.40576,0.98535l-0.4502-1.55273L14.1582,70.87891z"/>
					</g>
				</g>
				<g>
					<g>
						<path fill="#ED1C24" d="M17.94434,80.78809c1.11572,2.26953,0.20508,4.30371-1.99268,5.37793
							c-2.18945,1.07715-4.38379,0.59863-5.50977-1.69238c-1.14111-2.31348-0.18896-4.30273,2.03467-5.39062
							C14.70117,77.99219,16.81299,78.49414,17.94434,80.78809z M11.58594,83.91309c0.72705,1.48535,2.31299,1.3877,3.62354,0.74121
							c1.28027-0.62598,2.29785-1.86426,1.58984-3.30176c-0.70312-1.43555-2.30371-1.38086-3.58203-0.75586
							C11.90527,81.23926,10.85693,82.43262,11.58594,83.91309z"/>
					</g>
				</g>
				<g>
					<g>
						<path fill="#ED1C24" d="M21.38184,87.15137l1.00586,1.26074l-3.6499,2.90039c-1.08105,0.85254-1.51465,1.7627-0.74561,2.72754
							c0.76611,0.97266,1.74658,0.75293,2.82324-0.10645l3.65283-2.90332l1.00781,1.26758l-4.04492,3.20996
							c-1.69238,1.34375-3.15234,0.94531-4.43994-0.66895c-1.28418-1.62012-1.34668-3.13672,0.34766-4.48242L21.38184,87.15137z"/>
					</g>
				</g>
				<g>
					<g>
						<path fill="#ED1C24" d="M28.01172,94.88574l1.54004,1.25391l-1.45312,6.62012l0.01807,0.01074l3.8252-4.6709l1.19971,0.97461
							l-5.11963,6.25586l-1.52832-1.24902l1.44238-6.63184l-0.02051-0.01172l-3.82373,4.67285l-1.19727-0.97559L28.01172,94.88574z"
							/>
					</g>
				</g>
				<g>
					<g>
						<path fill="#ED1C24" d="M36.20752,101.06152l1.97314,0.98926c2.20264,1.1084,3.78076,2.83203,2.33838,5.7002
							c-1.43848,2.86426-3.76514,2.62988-5.96924,1.52051l-1.9707-0.98535L36.20752,101.06152z M34.59424,107.875l0.80566,0.4043
							c1.20654,0.60156,2.82129,0.28711,3.61377-1.28711c0.78857-1.56836,0.08057-3.05469-1.12744-3.66211l-0.80566-0.40625
							L34.59424,107.875z"/>
					</g>
				</g>
				<g>
					<g>
						<path fill="#ED1C24" d="M45.55371,105.21777l4.59424,1.22949l-0.3291,1.22656l-3.0332-0.80664l-0.51123,1.9209
							l2.77686,0.74121l-0.32764,1.22754l-2.77881-0.73926l-0.5835,2.19531l3.05615,0.81152l-0.32666,1.23145l-4.61768-1.23145
							L45.55371,105.21777z"/>
					</g>
				</g>
				<g>
					<g>
						<path fill="#ED1C24" d="M53.70264,107.08008l2.19971,0.12695c2.46289,0.13672,4.59521,1.09375,4.41211,4.29297
							c-0.18311,3.20312-2.4082,3.91504-4.87256,3.77832l-2.19824-0.12598L53.70264,107.08008z M54.9248,113.97363l0.90039,0.04785
							c1.34912,0.07812,2.70654-0.85449,2.81006-2.61621c0.09619-1.75391-1.14795-2.83398-2.49512-2.90918l-0.89551-0.05176
							L54.9248,113.97363z"/>
					</g>
				</g>
				<g>
					<g>
						<path fill="#ED1C24" d="M68.52686,106.49512l1.78076-0.37891l4.79053,7.23242l-1.75098,0.37793l-1.0625-1.66895
							l-3.19434,0.69336l-0.30029,1.95215l-1.63477,0.35156L68.52686,106.49512z M69.73486,107.89648l-0.02246,0.00391
							l-0.43896,3.50195l2.30176-0.49219L69.73486,107.89648z"/>
					</g>
				</g>
				<g>
					<g>
						<path fill="#ED1C24" d="M76.89795,110.91895l1.51758-0.5498l0.55322,1.52148l-1.51709,0.54785L76.89795,110.91895z"/>
					</g>
				</g>
				<g>
					<g>
						<path fill="#ED1C24" d="M78.95068,103.26367l1.93652-1.0498c2.17334-1.18359,4.4873-1.48242,6.0166,1.33496
							c1.52637,2.82324,0.00537,4.5918-2.16504,5.76758l-1.9375,1.0498L78.95068,103.26367z M83.61719,108.47754l0.79102-0.42383
							c1.18652-0.64844,1.8501-2.15039,1.01318-3.70215c-0.83838-1.5498-2.46436-1.8125-3.65186-1.16406l-0.7915,0.42578
							L83.61719,108.47754z"/>
					</g>
				</g>
				<g>
					<g>
						<path fill="#ED1C24" d="M89.24512,104.76074l1.3291-0.92578l0.92383,1.33203l-1.32617,0.92383L89.24512,104.76074z"/>
					</g>
				</g>
				<g>
					<g>
						<path fill="#ED1C24" d="M92.57812,93.70508l1.01611-1.00488l5.67676,5.75684l-1.14893,1.13574l-4.38281-4.44141
							l-0.18994,1.74414l-1.31543-0.18164L92.57812,93.70508z"/>
					</g>
				</g>
				<g>
					<g>
						<path fill="#ED1C24" d="M99.81494,91.39453c-0.77246,0.43262-1.62402,0.46387-2.30664-0.03613
							c-1.16016-0.86523-1.05957-2.14941-0.18994-3.32715c0.84521-1.14062,2.0791-1.81934,3.1665-1.0166
							c0.58838,0.43652,1.00342,1.2998,0.76123,2.22754l0.00977,0.00879c1.03076-0.55859,1.87988-0.53516,2.62256,0.01465
							c1.31543,0.96875,1.19482,2.3418,0.24609,3.62305c-0.93408,1.25781-2.2373,1.87793-3.55518,0.89453
							c-0.72949-0.5332-0.92773-1.31543-0.7373-2.375L99.81494,91.39453z M100.19775,89.84473
							c0.1377-0.45898-0.00635-1.12207-0.40674-1.41602c-0.48291-0.35938-1.04639-0.30078-1.40869,0.18848
							c-0.34814,0.47461-0.4375,1.13867,0.08057,1.52441C99.0249,90.55273,99.70264,90.16309,100.19775,89.84473z
							 M103.15381,92.1709c0.38965-0.51855,0.36133-1.16602-0.17822-1.56836c-0.64014-0.47168-1.35596-0.15234-1.93115,0.25195
							c-0.11719,0.62891-0.08643,1.20996,0.46045,1.61816C102.0498,92.875,102.771,92.68848,103.15381,92.1709z"/>
					</g>
				</g>
				<g>
					<g>
						<path fill="#ED1C24" d="M104.13818,79.62793c-0.35547,0.30078-0.67383,0.62402-0.91846,1.1123
							c-0.61963,1.24316,0.32715,2.25,1.3833,2.83398l0.03223-0.0166c-0.3291-0.58691-0.33252-1.14355-0.02979-1.75391
							c0.68018-1.36328,1.92139-1.6709,3.2583-1.00684c1.56543,0.78711,2.21729,2.0625,1.40527,3.69336
							c-1.00195,2.00391-2.89062,1.61816-4.58691,0.76953c-1.96387-0.98047-3.80078-2.68359-2.63477-5.01562
							c0.2583-0.52539,0.59082-0.98438,1.01172-1.3916L104.13818,79.62793z M106.40625,84.3125
							c0.68164,0.3418,1.42773,0.35156,1.78076-0.36328c0.33691-0.66504-0.1748-1.27051-0.81787-1.59082
							c-0.70605-0.35156-1.49951-0.3916-1.84766,0.30371C105.17188,83.36133,105.6792,83.94922,106.40625,84.3125z"/>
					</g>
				</g>
				<g>
					<g>
						<path fill="#ED1C24" d="M106.83643,71.01074l-0.8833,2.97754l1.6416,0.52832c0.01807-0.19043,0.04541-0.43555,0.13623-0.72852
							c0.3208-1.08691,1.25098-2.33789,3.25732-1.7373c1.4541,0.43066,2.32812,1.79395,1.73291,3.78809
							c-0.17676,0.59863-0.48438,1.26367-0.75684,1.73926l-1.37891-0.4502c0.26904-0.3291,0.66016-0.78906,0.85889-1.45898
							c0.24121-0.8125,0.11572-1.76953-0.87207-2.05859c-1.00098-0.29883-1.60498,0.48145-1.86914,1.36621
							c-0.14307,0.47852-0.20996,0.95117-0.20166,1.44922l-4.13867-1.31641l1.31982-4.43848L106.83643,71.01074z"/>
					</g>
				</g>
			</g>
		</g>
	</g>
</g>
<g id="ILR" display="none">
	
		<text transform="matrix(1 0 0 1 147.15527 62.02734)" display="inline" fill="#ED1C24" font-family="'AGaramondPro-Regular'" font-size="30">ILR</text>
</g>
<g id="group">
	<g>
		<path fill="#FFFFFF" d="M160.36328,92.62598c-1.69482,1.02344-4.58838,1.57617-6.37012,1.57617
			c-7.0166,0-11.75-4.00391-11.75-10.6377c0-3.3584,1.31445-6.02051,3.56494-7.86133
			c2.19287-1.8125,5.17285-2.80762,8.44678-2.80762c2.71826,0,5.34863,0.70312,6.75146,1.2002
			c-0.2915,1.37305-0.55469,2.92285-0.55469,4.44238h-0.90576v-2.10547c0-0.81641-1.16895-1.31348-2.51416-1.81055
			c-0.93604-0.32227-2.19238-0.49707-3.27393-0.49707c-5.49512,0-8.38867,4.00391-8.38867,8.9707
			c0,5.78809,3.8291,9.53027,9.61572,9.53027c2.10449,0,4.59033-0.75781,5.93408-1.75488l0.26416,0.29492L160.36328,92.62598z"/>
		<path fill="#FFFFFF" d="M162.23438,87.36621c0-4.38574,2.74756-7.4541,7.45215-7.4541c3.7417,0,6.63574,2.9209,6.63574,6.66309
			c0,4.47168-3.18604,7.62695-7.65771,7.62695C164.98193,94.32129,162.23438,91.39941,162.23438,87.36621z M164.95264,86.10742
			c0,3.06934,1.11084,7.13281,4.85107,7.13281c2.66064,0,3.80029-2.66211,3.80029-5.37891
			c0-3.76855-1.78369-6.98633-4.58936-6.98633C165.91602,80.875,164.95264,83.38965,164.95264,86.10742z"/>
		<path fill="#FFFFFF" d="M179.27295,84.05957c0-0.93359-0.05811-1.57812-0.20459-1.80957
			c-0.17627-0.2334-0.46777-0.32324-1.08154-0.32324h-1.08105v-0.81641c1.72461-0.17578,3.47852-0.72949,4.56055-1.19824
			l0.26221,0.11816v2.9502h0.05859l1.57861-1.87012c0.70166-0.84863,1.69434-1.19824,2.4541-1.19824
			c0.49658,0,1.11035,0.14453,1.3457,0.32227l-0.26318,3.50488h-0.61475c-0.32031-0.69922-0.93506-1.34473-1.98682-1.34473
			c-1.28613,0-2.57227,1.34473-2.57227,3.2168v5.02637c0,0.79004,0.02979,1.37598,0.14746,1.69629
			c0.11523,0.26172,0.5542,0.37891,1.22656,0.40918l1.51953,0.08887v0.87695c-1.51953-0.03027-2.68896-0.08984-4.12158-0.08984
			c-1.43213,0-2.60205,0.05957-3.65332,0.08984v-0.87695l1.34326-0.08887c0.49854-0.03027,0.81982-0.14746,0.93701-0.40918
			c0.1167-0.32031,0.14551-0.90625,0.14551-1.69629V84.05957z"/>
		<path fill="#FFFFFF" d="M192.95117,90.6377c0,0.79004,0.0293,1.37598,0.14746,1.69629
			c0.11523,0.26172,0.43799,0.37891,0.93506,0.40918l1.31445,0.08887v0.87695c-1.02295-0.03027-2.19238-0.08984-3.625-0.08984
			c-1.43066,0-2.6001,0.05957-3.62354,0.08984v-0.87695l1.31543-0.08887c0.49609-0.03027,0.81787-0.14746,0.93604-0.40918
			c0.11572-0.32031,0.146-0.90625,0.146-1.69629v-6.57812c0-0.93359-0.05957-1.57812-0.20459-1.80957
			c-0.17578-0.2334-0.46875-0.32324-1.08203-0.32324h-1.08105v-0.81641c1.72363-0.17578,3.47705-0.72949,4.55762-1.19824
			l0.26416,0.11816v2.4834h0.05908l2.16211-1.86914c0.64355-0.55762,1.19922-0.73242,2.36768-0.73242
			c3.41992,0,4.82178,1.89941,4.82178,5.08691v5.63867c0,0.79004,0.02881,1.37598,0.146,1.69629
			c0.11816,0.26172,0.43945,0.37891,0.93555,0.40918l1.19873,0.08887v0.87695c-0.73145-0.03027-1.57861-0.08984-2.39648-0.08984
			s-1.66602,0.05957-2.33789,0.08984v-8.30273c0-2.42578-1.37354-3.70996-3.36133-3.70996
			c-1.78271,0-3.59521,1.5459-3.59521,2.74609V90.6377z"/>
		<path fill="#FFFFFF" d="M217.58984,85.25977c0,0.41113,0,0.81836-0.05908,1.22754
			c-1.75342,0.29297-3.53613,0.41016-5.29053,0.41016h-4.26562c0,3.41797,1.69434,5.75781,5.28906,5.75781
			c1.40234,0,2.51367-0.70117,3.62451-1.37305l0.37939,0.29102l-0.58496,0.99414c-0.20459,0.35254-2.68799,1.63477-4.67578,1.63477
			c-4.41357,0-6.75146-2.80273-6.75146-6.74902c0-2.83398,0.76025-4.53027,2.10449-5.58398
			c0.55518-0.4375,1.16943-0.875,1.81396-1.16797c1.02002-0.4668,1.86963-0.78906,2.86377-0.78906
			C215.22168,79.91211,217.58984,81.95801,217.58984,85.25977z M208.03223,85.72852c2.396,0.26465,4.85156,0.20508,6.95703,0.08789
			c0-2.7207-0.99463-4.94141-3.09912-4.94141C209.63916,80.875,207.88672,82.54102,208.03223,85.72852z"/>
		<path fill="#FFFFFF" d="M220.51221,75.49902c0-0.67285-0.08789-1.19922-0.72949-1.19922h-1.63916v-0.81836
			c1.55127-0.23242,3.09961-0.49707,4.56104-1.08203l0.26172,0.23535V90.6377c0,0.79004,0.02881,1.37598,0.14795,1.69629
			c0.11621,0.26172,0.4375,0.37891,0.93408,0.40918l1.3457,0.08887v0.87695c-1.05371-0.03027-2.22217-0.08984-3.6543-0.08984
			c-1.43311,0-2.60205,0.05957-3.6543,0.08984v-0.87695l1.34619-0.08887c0.49512-0.03027,0.81787-0.14746,0.93311-0.40918
			c0.11768-0.32031,0.14746-0.90625,0.14746-1.69629V75.49902z"/>
		<path fill="#FFFFFF" d="M229.16309,75.49902c0-0.67285-0.08838-1.19922-0.72998-1.19922h-1.63916v-0.81836
			c1.55127-0.23242,3.09961-0.49707,4.56104-1.08203l0.26221,0.23535V90.6377c0,0.79004,0.0293,1.37598,0.14746,1.69629
			c0.1167,0.26172,0.43799,0.37891,0.93408,0.40918l1.34424,0.08887v0.87695c-1.05176-0.03027-2.22119-0.08984-3.65234-0.08984
			c-1.43213,0-2.60205,0.05957-3.65186,0.08984v-0.87695l1.34229-0.08887c0.49707-0.03027,0.81885-0.14746,0.93506-0.40918
			c0.1167-0.32031,0.14697-0.90625,0.14697-1.69629V75.49902z"/>
		<path fill="#FFFFFF" d="M246.51465,76.98926c0-1.11133-0.05957-1.87012-0.26367-2.19434
			c-0.1748-0.29004-0.52832-0.40625-1.22754-0.4375l-1.40332-0.08496v-0.87695c1.51855,0.05762,2.89453,0.08594,4.3252,0.08594
			c1.3457,0,2.71875-0.02832,4.2373-0.08594v0.87695l-1.40234,0.08496c-0.70117,0.03125-1.05176,0.14746-1.22949,0.4375
			c-0.20215,0.32422-0.25977,1.08301-0.25977,2.19434v10.05469c0,4.14746,2.16113,5.34766,6.01953,5.34766
			c3.15723,0,6.01953-1.2002,6.01953-6.04883v-9.35352c0-1.11133-0.05664-1.87012-0.2627-2.19434
			c-0.17383-0.29004-0.52441-0.37598-1.22754-0.4375l-1.28418-0.08496l-0.00098-0.87695
			c1.16797,0.02832,2.33887,0.08594,3.39062,0.08594c1.16797,0,2.2207-0.05762,3.50781-0.08594v0.87695l-1.28711,0.08496
			c-0.7002,0.06152-1.05273,0.14746-1.22656,0.4375c-0.20605,0.32422-0.26465,1.08301-0.26465,2.19434v8.44727
			c0,6.25488-2.36523,8.76562-8.27051,8.76562c-4.96777,0-7.88965-1.48926-7.88965-6.83594V76.98926z"/>
		<path fill="#FFFFFF" d="M269.28125,90.6377c0,0.79004,0.0293,1.37598,0.14648,1.69629
			c0.11621,0.26172,0.43945,0.37891,0.93359,0.40918l1.31836,0.08887v0.87695c-1.02441-0.03027-2.19336-0.08984-3.62598-0.08984
			c-1.43164,0-2.60059,0.05957-3.62402,0.08984v-0.87695l1.31445-0.08887c0.49805-0.03027,0.82031-0.14746,0.93652-0.40918
			c0.11621-0.32031,0.14551-0.90625,0.14551-1.69629v-6.57812c0-0.93359-0.05859-1.57812-0.2041-1.80957
			c-0.1748-0.2334-0.46777-0.32324-1.08008-0.32324h-1.08301v-0.81641c1.72559-0.17578,3.47656-0.72949,4.55957-1.19824
			l0.2627,0.11816v2.4834h0.05859l2.16406-1.86914c0.64062-0.55762,1.19629-0.73242,2.36523-0.73242
			c3.41992,0,4.82422,1.89941,4.82422,5.08691v5.63867c0,0.79004,0.02832,1.37598,0.14453,1.69629
			c0.11719,0.26172,0.44043,0.37891,0.9375,0.40918l1.19727,0.08887v0.87695c-0.73145-0.03027-1.57812-0.08984-2.39648-0.08984
			c-0.81934,0-1.66602,0.05957-2.33789,0.08984v-8.30273c0-2.42578-1.37305-3.70996-3.36328-3.70996
			c-1.7832,0-3.59375,1.5459-3.59375,2.74609V90.6377z"/>
		<path fill="#FFFFFF" d="M287.34375,90.6377c0,0.79004,0.02734,1.37598,0.14844,1.69629
			c0.11426,0.26172,0.4375,0.37891,0.93359,0.40918l1.3418,0.08887v0.87695c-1.05078-0.03027-2.21875-0.08984-3.65137-0.08984
			s-2.60059,0.05957-3.6543,0.08984v-0.87695l1.34473-0.08887c0.49609-0.03027,0.81836-0.14746,0.93555-0.40918
			c0.11719-0.32031,0.14648-0.90625,0.14648-1.69629v-6.57812c0-0.93359-0.06055-1.57812-0.20508-1.80957
			c-0.1748-0.2334-0.46777-0.32324-1.08008-0.32324h-1.08203v-0.81641c1.72461-0.17578,3.47852-0.72949,4.55859-1.19824
			l0.26367,0.11816V90.6377z M287.60645,75.17871c0,0.84473-0.79004,1.60352-1.63574,1.60352
			c-0.84766,0-1.6084-0.75879-1.6084-1.60352c0-0.84961,0.76074-1.6377,1.6084-1.6377
			C286.81641,73.54102,287.60645,74.3291,287.60645,75.17871z"/>
		<path fill="#FFFFFF" d="M298.94336,90.6377c-0.49414,1.08301-0.78711,2.19434-1.19434,3.18652h-1.46387l-5.02539-11.7793
			c-0.17383-0.41016-0.35059-0.93457-0.90918-0.96289l-0.99219-0.06152v-0.81445c1.1416,0.02832,2.28223,0.08789,3.42188,0.08789
			s2.24707-0.05957,3.39062-0.08789v0.81445l-1.43066,0.06152c-0.7627,0.02832-0.9668,0.43945-0.4707,1.66309l3.47949,8.4209
			c0.6123-1.34766,1.25586-2.72266,1.81055-4.09473l1.22852-3.09766c0.78711-2.01562,0.73047-2.86328-0.14746-2.8916
			l-1.19824-0.06152v-0.81445c0.90723,0.02832,1.84082,0.08789,2.74902,0.08789c0.90234,0,1.83887-0.05957,2.74609-0.08789v0.81445
			l-0.90723,0.06152c-0.72852,0.05762-1.22559,1.08105-1.63281,1.95801L298.94336,90.6377z"/>
		<path fill="#FFFFFF" d="M317.03906,85.25977c0,0.41113,0,0.81836-0.06152,1.22754
			c-1.74902,0.29297-3.53418,0.41016-5.29004,0.41016h-4.2666c0,3.41797,1.69434,5.75781,5.29004,5.75781
			c1.40332,0,2.51758-0.70117,3.62402-1.37305l0.38086,0.29102l-0.58496,0.99414c-0.20312,0.35254-2.6875,1.63477-4.67383,1.63477
			c-4.41602,0-6.75391-2.80273-6.75391-6.74902c0-2.83398,0.75977-4.53027,2.10645-5.58398
			c0.55469-0.4375,1.16895-0.875,1.81055-1.16797c1.02344-0.4668,1.87305-0.78906,2.86328-0.78906
			C314.6709,79.91211,317.03906,81.95801,317.03906,85.25977z M307.47852,85.72852c2.39844,0.26465,4.85645,0.20508,6.95898,0.08789
			c0-2.7207-0.99414-4.94141-3.09961-4.94141C309.08691,80.875,307.33398,82.54102,307.47852,85.72852z"/>
		<path fill="#FFFFFF" d="M320.9834,84.05957c0-0.93359-0.05664-1.57812-0.20215-1.80957
			c-0.17871-0.2334-0.4707-0.32324-1.08398-0.32324h-1.08008v-0.81641c1.72266-0.17578,3.47754-0.72949,4.56055-1.19824
			l0.26172,0.11816v2.9502h0.05469l1.58496-1.87012c0.69922-0.84863,1.68945-1.19824,2.45215-1.19824
			c0.49512,0,1.10742,0.14453,1.34375,0.32227l-0.2627,3.50488h-0.61523c-0.32031-0.69922-0.93652-1.34473-1.98535-1.34473
			c-1.28906,0-2.57227,1.34473-2.57227,3.2168v5.02637c0,0.79004,0.02637,1.37598,0.14551,1.69629
			c0.11719,0.26172,0.55469,0.37891,1.22754,0.40918l1.51855,0.08887v0.87695c-1.51855-0.03027-2.69141-0.08984-4.11914-0.08984
			c-1.43066,0-2.60547,0.05957-3.6543,0.08984v-0.87695l1.34473-0.08887c0.49609-0.03027,0.81934-0.14746,0.93262-0.40918
			c0.11816-0.32031,0.14844-0.90625,0.14844-1.69629V84.05957z"/>
		<path fill="#FFFFFF" d="M330.97754,89.44043v1.19727c0,1.81348,2.07715,2.48438,3.76953,2.48438
			c1.84375,0,3.42383-1.08008,3.42383-2.66016c0-0.93555-0.49902-1.69434-1.4043-1.92969
			c-1.28613-0.31934-2.89355-0.6416-4.2998-1.16602c-1.40137-0.52637-2.48145-1.40332-2.48145-3.18848
			c0-3.15723,2.74609-4.26562,5.49512-4.26562c1.37305,0,2.62891,0.32227,3.77344,0.73242
			c-0.09082,1.05176-0.12402,2.13184-0.14844,3.30176h-0.82031v-0.67383c0-1.51855-1.72363-2.39746-3.38867-2.39746
			c-2.48438,0-2.86426,1.375-2.86426,2.36719c0,1.25879,0.96289,1.93164,3.18555,2.31055
			c3.47461,0.58496,5.11523,1.46094,5.11523,3.74121c0,3.21484-3.2168,4.9082-6.45996,4.9082
			c-1.40625,0-2.65918-0.20508-4.08984-0.69922c0.29004-1.28613,0.31641-2.68945,0.31641-4.0625H330.97754z"/>
		<path fill="#FFFFFF" d="M346.79102,90.6377c0,0.79004,0.02832,1.37598,0.14844,1.69629
			c0.11426,0.26172,0.4375,0.37891,0.93262,0.40918l1.3418,0.08887v0.87695c-1.0498-0.03027-2.21973-0.08984-3.64746-0.08984
			c-1.4375,0-2.60352,0.05957-3.65723,0.08984v-0.87695l1.34473-0.08887c0.49902-0.03027,0.81543-0.14746,0.93652-0.40918
			c0.11426-0.32031,0.14551-0.90625,0.14551-1.69629v-6.57812c0-0.93359-0.06152-1.57812-0.20703-1.80957
			c-0.17188-0.2334-0.46387-0.32324-1.08301-0.32324h-1.07715v-0.81641c1.72266-0.17578,3.47363-0.72949,4.55664-1.19824
			l0.26562,0.11816V90.6377z M347.05371,75.17871c0,0.84473-0.79004,1.60352-1.63574,1.60352
			c-0.84961,0-1.61035-0.75879-1.61035-1.60352c0-0.84961,0.76074-1.6377,1.61035-1.6377
			C346.26367,73.54102,347.05371,74.3291,347.05371,75.17871z"/>
		<path fill="#FFFFFF" d="M349.8584,82.57227v-0.61426l2.28027-1.02344v-2.0459c0-0.75977-0.03223-1.52051-0.12012-2.30859
			c1.05664-0.32227,1.98926-0.78809,2.48926-1.11133l0.34961,0.32324c-0.1709,1.28516-0.3252,2.92188-0.3252,4.14941v1.1123
			l4.00391-0.17871l-0.26172,1.58008h-3.74219v7.6543c0,1.34961,0.38281,2.02051,1.61035,2.02051
			c0.76172,0,1.31348-0.32129,1.72363-0.55664l0.37793,0.5l-1.40137,1.5459c-0.26172,0.29102-1.2832,0.35254-1.89746,0.35254
			c-1.55371,0-2.86426-0.73145-2.86426-3.10059v-8.41602L349.8584,82.57227z"/>
		<path fill="#FFFFFF" d="M371.48633,82.57227c0.4375-1.08301,0-1.40234-1.05273-1.49023l-0.75684-0.06152v-0.81445
			c0.93164,0.02832,1.83691,0.08789,2.77246,0.08789s1.84668-0.05957,2.7793-0.08789v0.81445l-0.81836,0.06152
			c-0.7002,0.05762-1.3457,0.96289-2.45605,3.53711l-5.93652,13.67773c-0.93262,2.13184-1.98438,3.59375-4.43945,3.59375
			c-0.49805,0-1.14062-0.23438-1.45996-0.43848l0.7002-2.19141h0.38086c0.35254,0.35156,1.08203,0.7002,1.49023,0.67188
			c1.69629-0.11914,2.63086-2.4873,3.18359-3.8291l0.67285-1.78223c-0.49512-1.375-1.08008-2.80762-1.6377-4.15137l-3.18457-7.65625
			c-0.46484-1.11035-0.875-1.37402-1.51855-1.43164l-0.52441-0.06152v-0.81445c1.1377,0.02832,2.25098,0.08789,3.38867,0.08789
			s2.25098-0.05957,3.38965-0.08789v0.81445l-1.11426,0.06152c-0.81152,0.02832-1.31152,0.32129-0.7002,1.89844l1.87012,4.91016
			c0.41406,1.11035,0.88184,2.16211,1.49609,3.21582L371.48633,82.57227z"/>
		<g>
			<g>
				<path fill="#FFFFFF" d="M59.99854,120C26.91504,120,0,93.08105,0,59.99658C0,26.91406,26.91504,0,59.99854,0
					C93.08252,0,120,26.91406,120,59.99658C120,93.08105,93.08252,120,59.99854,120z M59.99854,2.80176
					c-31.53809,0-57.1958,25.65771-57.1958,57.19482c0,31.54053,25.65771,57.19775,57.1958,57.19775
					c31.53857,0,57.19824-25.65723,57.19824-57.19775C117.19678,28.45947,91.53711,2.80176,59.99854,2.80176z"/>
			</g>
			<g>
				<path fill="#FFFFFF" d="M59.99854,105.06445c-24.84814,0-45.06396-20.21777-45.06396-45.06787
					c0-24.84717,20.21582-45.06201,45.06396-45.06201c24.84863,0,45.06641,20.21484,45.06641,45.06201
					C105.06494,84.84668,84.84717,105.06445,59.99854,105.06445z M59.99854,17.71826c-23.31348,0-42.2793,18.96631-42.2793,42.27832
					c0,23.31494,18.96582,42.28467,42.2793,42.28467c23.31396,0,42.28174-18.96973,42.28174-42.28467
					C102.28027,36.68457,83.3125,17.71826,59.99854,17.71826z"/>
			</g>
			<g>
				<path fill="#FFFFFF" d="M60.01611,102.08008l-0.55762-0.2373c-1.14795-0.49316-28.12256-12.31348-28.12256-33.73145
					l0.00439-38.47754l57.27588-0.00586l0.00537,39.16211c0,20.53613-26.90381,32.54785-28.04834,33.0498L60.01611,102.08008z
					 M34.14258,32.43652l-0.00391,35.6748c0,17.96289,22.05078,29.1084,25.86768,30.90039
					c3.81006-1.81641,25.81348-13.05176,25.81348-30.22168l-0.00537-36.36035L34.14258,32.43652z"/>
			</g>
			<g>
				<path fill="#FFFFFF" d="M47.36328,52.16309l-0.68262-0.39941c-0.12354-0.07275-3.05371-1.78955-5.01807-3.10791
					c-1.65967-1.1084-2.5127-2.28564-2.60303-3.59473c-0.02002-0.2749-0.01904-5.50537-0.01562-9.84863l0.00146-1.39941h16.76611
					l0.00293,1.39795c0.01416,6.32227,0.0127,9.63428-0.00537,9.84375c-0.0376,1.33691-0.84766,2.51758-2.47168,3.60254
					c-1.97998,1.32812-5.14551,3.0542-5.27881,3.12793L47.36328,52.16309z M41.8457,36.61475
					c-0.00244,3.55273-0.00195,7.92969,0.00879,8.26074c0.021,0.26807,0.38867,0.79932,1.3667,1.45215
					c1.33691,0.89648,3.19971,2.02246,4.19141,2.6123c1.04199-0.58105,3.02881-1.71484,4.36621-2.61084
					c0.36621-0.24463,1.21582-0.86523,1.23145-1.36475l0.00586-0.13916c0.01025-0.30469,0.00488-4.66943-0.00146-8.21045H41.8457z"
					/>
			</g>
			<g>
				<path fill="#FFFFFF" d="M73.2666,52.09473l-0.68213-0.39893c-0.12354-0.07227-3.04932-1.78809-5.01221-3.10498
					c-1.65967-1.11084-2.5127-2.28809-2.60449-3.59424c-0.01807-0.21582-0.02344-3.52783-0.01514-9.85254l0.00195-1.39893h16.7627
					l0.00244,1.39795c0.01367,6.32373,0.0127,9.63672-0.00391,9.84717c-0.02979,1.32324-0.83789,2.5083-2.46924,3.60156
					c-1.98389,1.3291-5.15088,3.05322-5.28564,3.12549L73.2666,52.09473z M67.75293,36.54785
					c-0.00244,3.54248-0.00146,7.91309,0.00928,8.25732c0.02148,0.27246,0.39062,0.80176,1.37109,1.45947
					c1.33496,0.896,3.19336,2.01807,4.18408,2.60742c1.04102-0.58008,3.03174-1.71143,4.37012-2.60742
					c0.36572-0.24609,1.2168-0.86768,1.22803-1.36035l0.00684-0.14355c0.00928-0.30566,0.00488-4.6709-0.00146-8.21289H67.75293z"/>
			</g>
			<g>
				<rect x="31.55566" y="53.15332" fill="#FFFFFF" width="56.05908" height="2.77295"/>
			</g>
			<g>
				<path fill="#FFFFFF" d="M59.92578,87.27539c-0.94531,0-1.48584-0.66602-1.77393-1.02344
					c-0.31738-0.3916-0.47559-0.50391-0.9873-0.51172c-1.52539,0-2.646,0.10254-3.94043,0.21973
					c-1.2666,0.11426-2.7041,0.24512-4.74756,0.29004c-2.02441,0.0459-3.59326-0.03809-3.65918-0.04102l-1.32373-0.07617
					l0.00342-26.25488l1.37061-0.03271c0.4209-0.01025,0.9043-0.01025,1.47314-0.00684c0.80518,0,1.7959,0.00146,3.03955-0.02832
					c0.95166-0.02148,2.06445-0.14062,3.35352-0.27734c0.75586-0.08105,1.56934-0.1665,2.44385-0.24561
					c1.80566-0.20459,3.44678,0.13184,3.51709,0.14502c0.50049,0.11719,0.92432,0.27734,1.28027,0.4585
					c0.34717-0.17773,0.76416-0.33447,1.26074-0.45215c0.10156-0.01953,1.74219-0.35791,3.58105-0.14844
					c0.84717,0.07617,1.66357,0.16162,2.42383,0.24463c1.2832,0.13477,2.39209,0.25391,3.33643,0.27539
					c1.24463,0.03174,2.23584,0.03174,3.04199,0.02832c0.57178,0,1.05225-0.00342,1.47461,0.00684l1.36816,0.03271l0.00439,26.25488
					l-1.32275,0.07617c-0.06641,0.00098-1.63428,0.08691-3.65967,0.04102c-2.0415-0.04492-3.47852-0.17578-4.74561-0.29004
					c-1.31934-0.12207-2.45459-0.21973-4.02002-0.21973c-0.54736,0-0.69971,0.17285-1.03369,0.55762
					C61.3667,86.66211,60.83496,87.27539,59.92578,87.27539z M57.16357,82.93555c0.02832,0,0.05908,0,0.08789,0
					c1.38135,0.00293,2.20215,0.60449,2.69629,1.11328c0.51855-0.51367,1.35254-1.11035,2.76465-1.11328
					c1.72314,0.02148,2.9502,0.11133,4.27832,0.23145c1.2832,0.11621,2.61035,0.2373,4.55762,0.28223
					c0.80469,0.01758,1.53516,0.01465,2.11523,0.00488l-0.00342-20.81348c-0.16797,0.00488-0.35059,0-0.5376,0
					c-0.72705,0-1.58496-0.00391-2.61279-0.03027c-1.05859-0.02441-2.22119-0.14746-3.56787-0.29004
					c-0.74268-0.0791-1.54443-0.16699-2.40674-0.24023c-1.41504-0.16504-2.68408,0.0918-2.69727,0.09668
					c-0.72949,0.17188-0.95654,0.4707-0.96484,0.4834l-0.7876-0.46191l-0.89844,0.51855
					c0.00049,0.00098,0.00049,0.00293,0.00049,0.00293c-0.00635,0-0.30713-0.36621-1.09961-0.55176l0,0
					c-0.00439,0.00195-1.26318-0.24512-2.62793-0.09277c-0.89209,0.07812-1.6875,0.16602-2.42871,0.24414
					c-1.35107,0.14355-2.51709,0.2666-3.58496,0.29102c-1.27246,0.03223-2.28271,0.03027-3.10938,0.03027
					c-0.01172,0-0.0249,0-0.03711,0L46.29639,83.4541c0.58154,0.00977,1.31494,0.0127,2.11572-0.00488
					c1.94971-0.04492,3.27637-0.16602,4.55859-0.28223C54.27637,83.0498,55.51123,82.93555,57.16357,82.93555z"/>
			</g>
			<g>
				<rect x="40.45166" y="39.28906" fill="#FFFFFF" width="13.85986" height="2.33105"/>
			</g>
			<g>
				<rect x="40.45166" y="39.05371" fill="#FFFFFF" width="13.85986" height="2.80176"/>
			</g>
			<g>
				<rect x="58.71973" y="53.65039" fill="#FFFFFF" width="2.33203" height="47.13867"/>
			</g>
			<g>
				<rect x="58.83496" y="53.65039" fill="#FFFFFF" width="2.10156" height="47.13867"/>
			</g>
			<g>
				<polygon fill="#FFFFFF" points="79.2373,44.34912 73.08057,40.24365 67.43311,44.32422 66.06738,42.43408 73.02832,37.40576 
					80.53076,42.40967 				"/>
			</g>
			<g>
				<polygon fill="#FFFFFF" points="79.30176,44.54443 73.27979,40.53125 67.76758,44.51562 66.12646,42.24365 73.21631,37.11914 
					80.85596,42.21289 				"/>
			</g>
			<g>
				<path fill="#FFFFFF" d="M71.03174,66.85742c-0.39844-0.00977-1.53906-0.04102-2.55664-0.06836l-0.97412-0.02832
					c-0.56055-0.0127-1.20605-0.08105-1.9502-0.16211c-0.37109-0.03906-0.76514-0.08203-1.19043-0.12207
					c-0.22266-0.02344-0.42969-0.02832-0.61377-0.01855l-0.06006-1.47168c0.25-0.01367,0.53076-0.00879,0.8208,0.02441
					c0.42139,0.04004,0.82471,0.08105,1.20068,0.12402c0.69824,0.07324,1.30273,0.14258,1.83105,0.15332l0.97754,0.02734
					c1.01416,0.0293,2.15039,0.06055,2.54736,0.07031L71.03174,66.85742z"/>
			</g>
			<g>
				<path fill="#FFFFFF" d="M71.03418,71.34766l-3.52783-0.08984c-0.55371-0.0127-1.18506-0.0791-1.91211-0.15332
					c-0.38135-0.04297-0.7915-0.08691-1.23193-0.125c-0.23047-0.02441-0.43994-0.0332-0.62402-0.02637l-0.04346-1.47266
					c0.25049-0.0127,0.52734,0,0.81641,0.03223c0.43262,0.04102,0.85059,0.08398,1.23877,0.12402
					c0.68115,0.07324,1.27197,0.13574,1.78906,0.15039L71.0625,69.875L71.03418,71.34766z"/>
			</g>
			<g>
				<path fill="#FFFFFF" d="M71.0376,75.84473c-0.28857-0.00293-0.96289-0.02148-1.69922-0.04297l-1.83301-0.0498
					c-0.54785-0.00977-1.17627-0.07324-1.89697-0.15234c-0.38574-0.04004-0.7998-0.08594-1.24561-0.12402
					c-0.22412-0.02148-0.43555-0.02832-0.62012-0.02344l-0.05322-1.47363c0.25049-0.01074,0.52686,0,0.81445,0.0293
					c0.44482,0.04102,0.86768,0.08398,1.26025,0.12695c0.67334,0.07129,1.25879,0.1377,1.771,0.14746l1.84424,0.04688
					c0.729,0.02051,1.39502,0.04004,1.67969,0.04492L71.0376,75.84473z"/>
			</g>
			<g>
				<path fill="#FFFFFF" d="M71.03418,80.34473c-0.50977-0.00977-2.2373-0.05664-3.36328-0.08594l-0.16797-0.00488
					c-0.54932-0.01367-1.17627-0.0791-1.89795-0.15723c-0.38574-0.04004-0.79785-0.08398-1.24268-0.12598
					c-0.22803-0.02441-0.43994-0.03125-0.61963-0.02441l-0.05322-1.47168c0.25195-0.01172,0.53223,0,0.82178,0.0332
					c0.43555,0.03906,0.85693,0.08203,1.24902,0.125c0.67725,0.07227,1.26416,0.13574,1.77979,0.14648l0.17041,0.00586
					c1.12305,0.0293,2.84277,0.0752,3.35205,0.08691L71.03418,80.34473z"/>
			</g>
			<g>
				<path fill="#FFFFFF" d="M48.86035,66.81738l-0.03223-1.4707c0.52002-0.01172,2.29834-0.05859,3.41846-0.08789
					c0.65283-0.01367,1.2666-0.08105,1.98047-0.15918c0.36475-0.03906,0.75342-0.08203,1.16992-0.12207
					c0.25684-0.02441,0.51855-0.04102,0.75146-0.03125l-0.01758,1.47266c-0.18896-0.00391-0.38428,0.00488-0.58789,0.02637
					c-0.41748,0.03906-0.79932,0.08105-1.15869,0.11914c-0.75439,0.08203-1.40674,0.15332-1.99658,0.16309
					C51.1626,66.76074,49.38184,66.80762,48.86035,66.81738z"/>
			</g>
			<g>
				<path fill="#FFFFFF" d="M48.86035,71.31738l-0.03223-1.47363l3.52881-0.09082c0.5293-0.01465,1.13281-0.0791,1.83301-0.15625
					c0.375-0.03809,0.77637-0.08398,1.20703-0.12598c0.27832-0.01953,0.53906-0.02832,0.77441-0.01758l-0.06299,1.4707
					c-0.18213-0.00879-0.38232,0.00098-0.58447,0.0166c-0.4126,0.03906-0.80664,0.08008-1.1748,0.12109
					c-0.74658,0.08105-1.39014,0.15039-1.95654,0.16406L48.86035,71.31738z"/>
			</g>
			<g>
				<path fill="#FFFFFF" d="M48.85303,75.80664l-0.01855-1.47363c0.5376-0.00684,2.41162-0.05859,3.51904-0.08984
					c0.52002-0.00879,1.12256-0.07129,1.81982-0.14746c0.38086-0.03809,0.79004-0.08301,1.22803-0.12207
					c0.24365-0.03027,0.50684-0.03711,0.74707-0.03027l-0.01758,1.47266c-0.18066,0-0.37598,0-0.57617,0.02246
					c-0.4541,0.04199-0.85254,0.08301-1.22607,0.125c-0.73389,0.0752-1.36816,0.14258-1.94531,0.14941
					C51.28027,75.74414,49.39355,75.7998,48.85303,75.80664z"/>
			</g>
			<g>
				<path fill="#FFFFFF" d="M48.85449,80.30859l-0.02051-1.4707c0.50586-0.00684,2.19922-0.05664,3.31934-0.08594l0.20117-0.00488
					c0.53906-0.01367,1.15039-0.08301,1.85938-0.15723c0.36914-0.04199,0.76172-0.08398,1.18164-0.12305
					c0.25195-0.02832,0.5127-0.0332,0.74854-0.02832l-0.01709,1.47266c-0.18066,0-0.37891-0.00195-0.57959,0.02051
					c-0.42529,0.03906-0.81201,0.08203-1.17334,0.12207c-0.75732,0.08301-1.41113,0.15039-1.98242,0.16504l-0.19727,0.00684
					C51.06738,80.25684,49.36279,80.30176,48.85449,80.30859z"/>
			</g>
			<g>
				<g>
					<rect x="40.74316" y="63.6123" fill="#FFFFFF" width="3.05127" height="3.34961"/>
				</g>
				<g>
					<rect x="40.74316" y="71.3623" fill="#FFFFFF" width="3.21533" height="3.35547"/>
				</g>
				<g>
					<rect x="40.74316" y="78.2959" fill="#FFFFFF" width="3.05127" height="3.34082"/>
				</g>
				<g>
					<rect x="75.87061" y="64.27539" fill="#FFFFFF" width="3.05273" height="3.34375"/>
				</g>
				<g>
					<rect x="75.87061" y="72.02246" fill="#FFFFFF" width="3.21484" height="3.35059"/>
				</g>
				<g>
					<rect x="75.87061" y="78.95312" fill="#FFFFFF" width="3.05273" height="3.34473"/>
				</g>
				<g>
					<g>
						<g>
							<path fill="#FFFFFF" d="M12.90088,54.23145c0.104,0.59082,0.17969,1.22363,0.14209,1.82861
								c-0.16211,2.57666-1.58105,4.28174-4.30811,4.11182c-2.76172-0.17529-4.20459-1.93701-4.03809-4.63428
								c0.03564-0.52539,0.18311-1.2124,0.44873-1.78076l1.35742,0.19922c-0.38672,0.58447-0.50195,1.12354-0.53564,1.69434
								C5.86377,57.2915,7.06982,58.396,8.72412,58.49951c1.64258,0.104,2.9375-0.82568,3.04443-2.52051
								c0.0415-0.62354-0.05322-1.37402-0.2251-1.76172L12.90088,54.23145z"/>
						</g>
					</g>
					<g>
						<g>
							<path fill="#FFFFFF" d="M6.58838,45.42676c0.68066-2.40674,2.7124-3.28613,5.06494-2.61719
								c2.34961,0.66406,3.66162,2.47998,2.97314,4.90283c-0.69775,2.45947-2.72363,3.28613-5.10986,2.6123
								C7.13232,49.64453,5.89355,47.86865,6.58838,45.42676z M13.40283,47.36426c0.44629-1.56836-0.80273-2.55469-2.20557-2.95264
								c-1.37158-0.39209-2.95264-0.1626-3.38818,1.36572c-0.43164,1.52441,0.79346,2.55029,2.16406,2.93799
								C11.37354,49.11523,12.95557,48.93555,13.40283,47.36426z"/>
						</g>
					</g>
					<g>
						<g>
							<path fill="#FFFFFF" d="M9.7998,37.06836l0.81201-1.52051c0.80225-1.51221,1.70996-3.34424,3.69434-2.28711
								c0.8374,0.44531,1.2373,1.37207,0.88281,2.32959l0.01904,0.0166c0.23486-0.37061,0.74219-0.38379,1.13525-0.35547
								l3.38916,0.35547l-0.83594,1.57178l-2.67773-0.34033c-0.64062-0.08105-0.94092-0.00928-1.25781,0.58301l-0.23975,0.45459
								l2.9624,1.58008l-0.75195,1.41211L9.7998,37.06836z M13.59473,37.27881l0.24756-0.46387
								c0.37256-0.69385,0.69434-1.54639-0.19629-2.01758c-0.85889-0.45898-1.34814,0.29102-1.7251,0.99512l-0.24658,0.46387
								L13.59473,37.27881z"/>
						</g>
					</g>
					<g>
						<g>
							<path fill="#FFFFFF" d="M15.26025,27.83594l1.25635-1.50977l6.58887,1.51807l0.0166-0.01709l-4.65186-3.85645l0.97461-1.1792
								l6.22217,5.15967l-1.24707,1.50146l-6.59863-1.51074l-0.01221,0.01807l4.65039,3.85938l-0.97705,1.17529L15.26025,27.83594z"
								/>
						</g>
					</g>
					<g>
						<g>
							<path fill="#FFFFFF" d="M23.35791,19.05713l3.64453-2.96729l0.80566,0.98633l-2.41162,1.95947l1.25928,1.54541
								l2.20557-1.79639l0.80518,0.98535l-2.20703,1.79834l1.43359,1.76074l2.42529-1.9751l0.80273,0.98779l-3.66357,2.98389
								L23.35791,19.05713z"/>
						</g>
					</g>
					<g>
						<g>
							<path fill="#FFFFFF" d="M31.28613,13.23096l1.39551-0.78906l3.33838,5.93359l2.69434-1.51855l0.625,1.1123l-4.0918,2.29932
								L31.28613,13.23096z"/>
						</g>
					</g>
					<g>
						<g>
							<path fill="#FFFFFF" d="M39.49268,9.11426l1.50537-0.5459l2.31494,6.39746l2.90723-1.04834l0.43652,1.1958l-4.41455,1.59766
								L39.49268,9.11426z"/>
						</g>
					</g>
					<g>
						<g>
							<path fill="#FFFFFF" d="M52.37598,5.60352l1.59521-0.1333l0.3833,4.65332c0.11279,1.36914,0.62109,2.23779,1.8418,2.13525
								c1.21484-0.09961,1.57275-1.0376,1.4585-2.40674l-0.3877-4.65625l1.59619-0.13135l0.42627,5.14697
								c0.18066,2.1582-0.95312,3.14697-2.99121,3.31885c-2.0332,0.16748-3.31787-0.62158-3.49658-2.77979L52.37598,5.60352z"/>
						</g>
					</g>
					<g>
						<g>
							<path fill="#FFFFFF" d="M64.34961,5.1958l1.94629,0.26367l2.20166,6.396l0.02393,0.00342l0.80615-5.99219l1.51855,0.20703
								l-1.08105,8.00635l-1.93457-0.25928l-2.21289-6.39697l-0.02344-0.00146l-0.80469,5.98486l-1.51807-0.20215L64.34961,5.1958z"
								/>
						</g>
					</g>
					<g>
						<g>
							<path fill="#FFFFFF" d="M75.8042,7.38916l1.52441,0.47852l-2.41895,7.71191l-1.52588-0.47949L75.8042,7.38916z"/>
						</g>
					</g>
					<g>
						<g>
							<path fill="#FFFFFF" d="M81.4873,9.30225l1.52979,0.77588l-1.03857,6.58301l0.02051,0.01172l4.66748-4.74854l1.41553,0.71191
								l-6.0415,6.00195l-1.75244-0.88428L81.4873,9.30225z"/>
						</g>
					</g>
					<g>
						<g>
							<path fill="#FFFFFF" d="M91.96484,15.26514l3.70508,2.90039l-0.78174,0.99951l-2.44629-1.91211l-1.22754,1.5708
								l2.23828,1.75098l-0.7832,1.00537l-2.23877-1.75439l-1.39941,1.78955l2.46631,1.92871l-0.7832,1.00195l-3.72363-2.91162
								L91.96484,15.26514z"/>
						</g>
					</g>
					<g>
						<g>
							<path fill="#FFFFFF" d="M99.40527,21.66016l1.13672,1.29297c1.12939,1.28906,2.521,2.78613,0.83301,4.27051
								c-0.71387,0.625-1.7207,0.67139-2.49512,0.00293l-0.01904,0.01221c0.26318,0.34814,0.09863,0.82861-0.06641,1.18164
								l-1.53271,3.04688l-1.17627-1.33789l1.26318-2.38721c0.30322-0.56689,0.34375-0.87354-0.10303-1.37744l-0.33594-0.38818
								l-2.52588,2.21143l-1.05518-1.2002L99.40527,21.66016z M97.86523,25.13525l0.34668,0.39648
								c0.5166,0.59131,1.20166,1.19287,1.9585,0.52686c0.73193-0.63867,0.20459-1.36328-0.32373-1.96338l-0.34814-0.39502
								L97.86523,25.13525z"/>
						</g>
					</g>
					<g>
						<g>
							<path fill="#FFFFFF" d="M106.94824,34.47314c-0.06885-0.54492-0.24121-1.0918-0.52686-1.57227
								c-0.27783-0.47217-0.84668-0.95459-1.604-0.51025c-1.20996,0.71436,1.08057,3.41992-1.25098,4.7998
								c-1.52344,0.90088-2.80762,0.05371-3.62549-1.33008c-0.44336-0.74902-0.5415-1.14062-0.77539-1.91748l1.3335-0.61865
								c0.02246,0.62695,0.17285,1.26758,0.48926,1.80664c0.31104,0.5249,0.98828,1.06201,1.6167,0.68652
								c1.33008-0.78125-1.00049-3.46289,1.30273-4.82422c1.5542-0.91943,2.82666-0.06494,3.54053,1.14209
								c0.34766,0.58789,0.59473,1.18652,0.72119,1.78564L106.94824,34.47314z"/>
						</g>
					</g>
					<g>
						<g>
							<path fill="#FFFFFF" d="M110.49023,38.49463l0.60645,1.48193l-7.48682,3.05078l-0.60059-1.47852L110.49023,38.49463z"/>
						</g>
					</g>
					<g>
						<g>
							<path fill="#FFFFFF" d="M111.88086,46.49561l-0.54834-2.21875l1.23877-0.30225l1.4751,5.98926l-1.23828,0.30322
								l-0.54492-2.21924l-6.61035,1.62793l-0.38281-1.55469L111.88086,46.49561z"/>
						</g>
					</g>
					<g>
						<g>
							<path fill="#FFFFFF" d="M109.94287,56.90674l4.71582-3.17529l0.10742,1.8667l-3.28613,2.06885l3.49561,1.729l0.09277,1.68896
								l-5.03613-2.58057l-3.19434,0.17725l-0.08691-1.59814L109.94287,56.90674z"/>
						</g>
					</g>
					<g>
						<g>
							<path fill="#FFFFFF" d="M14.15771,70.87891l1.23926,4.2998l-1.2251,0.35449l-0.79395-2.75293l-1.91113,0.55469
								l0.75342,2.61426l-1.22217,0.35449l-0.75439-2.61914l-3.40576,0.98535l-0.44971-1.55273L14.15771,70.87891z"/>
						</g>
					</g>
					<g>
						<g>
							<path fill="#FFFFFF" d="M17.94434,80.78906c1.11572,2.26855,0.20459,4.30176-1.99316,5.37695
								c-2.18896,1.07812-4.38379,0.59863-5.50928-1.69141c-1.14111-2.31445-0.18896-4.30371,2.03418-5.3916
								C14.70117,77.99316,16.81299,78.49512,17.94434,80.78906z M11.58545,83.91309
								c0.72705,1.48535,2.31348,1.3877,3.62402,0.74023c1.27979-0.625,2.29736-1.86328,1.58936-3.30078
								c-0.70312-1.43555-2.30322-1.38184-3.58154-0.75586C11.90527,81.23926,10.85693,82.43262,11.58545,83.91309z"/>
						</g>
					</g>
					<g>
						<g>
							<path fill="#FFFFFF" d="M21.38135,87.15137l1.00635,1.26074l-3.6499,2.89941
								c-1.08154,0.85352-1.51465,1.7627-0.74561,2.72852c0.76562,0.97266,1.74609,0.75293,2.82324-0.10645l3.65234-2.90332
								l1.00781,1.26758l-4.04443,3.20996c-1.69287,1.34277-3.15234,0.94531-4.43994-0.66797
								c-1.28467-1.62109-1.34668-3.13867,0.34766-4.4834L21.38135,87.15137z"/>
						</g>
					</g>
					<g>
						<g>
							<path fill="#FFFFFF" d="M28.01172,94.88574l1.53955,1.25391l-1.45264,6.62109l0.01807,0.00977l3.82471-4.6709l1.2002,0.97559
								l-5.12012,6.25488l-1.52832-1.24902l1.44238-6.63184l-0.02051-0.01172l-3.82324,4.67188l-1.19727-0.97559L28.01172,94.88574z
								"/>
						</g>
					</g>
					<g>
						<g>
							<path fill="#FFFFFF" d="M36.20752,101.06152l1.97314,0.98828c2.20264,1.11035,3.78027,2.83301,2.33789,5.70117
								c-1.43848,2.86426-3.76465,2.62988-5.96924,1.52051l-1.9707-0.98535L36.20752,101.06152z M34.59424,107.875l0.80518,0.4043
								c1.20654,0.60156,2.82129,0.28711,3.61377-1.28711c0.78906-1.56836,0.08105-3.05566-1.12695-3.66211l-0.80566-0.40723
								L34.59424,107.875z"/>
						</g>
					</g>
					<g>
						<g>
							<path fill="#FFFFFF" d="M45.55322,105.21875l4.59473,1.22852l-0.32959,1.22656l-3.03271-0.80664l-0.51172,1.9209
								l2.77686,0.74023l-0.32715,1.22949l-2.7793-0.74023l-0.58301,2.19531l3.05566,0.8125l-0.32666,1.23047l-4.61719-1.23047
								L45.55322,105.21875z"/>
						</g>
					</g>
					<g>
						<g>
							<path fill="#FFFFFF" d="M53.70215,107.08008l2.2002,0.12598c2.4624,0.1377,4.59473,1.09473,4.41162,4.29395
								c-0.18311,3.20312-2.4082,3.91504-4.87207,3.77734l-2.19873-0.125L53.70215,107.08008z M54.92432,113.97363l0.90039,0.04883
								c1.34961,0.07715,2.70703-0.85547,2.81006-2.61719c0.09668-1.75391-1.14795-2.83398-2.49463-2.90918l-0.89551-0.05078
								L54.92432,113.97363z"/>
						</g>
					</g>
					<g>
						<g>
							<path fill="#FFFFFF" d="M68.52637,106.49512l1.78125-0.37891l4.79053,7.23145l-1.75098,0.37793l-1.0625-1.66797
								L69.09033,112.75l-0.30078,1.95312l-1.63477,0.35254L68.52637,106.49512z M69.73438,107.89648l-0.02197,0.00391
								l-0.43896,3.50195l2.30127-0.49219L69.73438,107.89648z"/>
						</g>
					</g>
					<g>
						<g>
							<path fill="#FFFFFF" d="M76.89746,110.91797l1.51807-0.54883l0.55322,1.52148l-1.51709,0.54785L76.89746,110.91797z"/>
						</g>
					</g>
					<g>
						<g>
							<path fill="#FFFFFF" d="M78.95068,103.26367l1.93652-1.0498c2.17285-1.18359,4.48682-1.48242,6.01611,1.33496
								c1.52686,2.82227,0.00586,4.5918-2.16455,5.76758l-1.93799,1.0498L78.95068,103.26367z M83.61719,108.47754l0.79053-0.4248
								c1.18652-0.64746,1.8501-2.15039,1.01367-3.70215c-0.83838-1.54883-2.46436-1.81152-3.65186-1.16309l-0.7915,0.42578
								L83.61719,108.47754z"/>
						</g>
					</g>
					<g>
						<g>
							<path fill="#FFFFFF" d="M89.24463,104.76074l1.32959-0.92676l0.92334,1.33301l-1.32617,0.9248L89.24463,104.76074z"/>
						</g>
					</g>
					<g>
						<g>
							<path fill="#FFFFFF" d="M92.57812,93.70508l1.01562-1.00488l5.67725,5.75684l-1.14893,1.13672l-4.38281-4.44238
								l-0.19043,1.74414l-1.31494-0.18066L92.57812,93.70508z"/>
						</g>
					</g>
					<g>
						<g>
							<path fill="#FFFFFF" d="M99.81494,91.39453c-0.77295,0.43262-1.62402,0.46387-2.30713-0.03613
								c-1.16016-0.86523-1.05957-2.14844-0.18994-3.32812c0.8457-1.13965,2.0791-1.81836,3.16699-1.0166
								c0.58838,0.4375,1.00293,1.30176,0.76074,2.22949l0.00977,0.00781c1.03076-0.55762,1.87988-0.53516,2.62256,0.01465
								c1.31592,0.96875,1.19531,2.34277,0.24609,3.62305c-0.93408,1.25684-2.2373,1.87793-3.55518,0.89453
								c-0.72949-0.5332-0.92773-1.31543-0.73682-2.375L99.81494,91.39453z M100.19775,89.84473
								c0.13721-0.45898-0.00684-1.12207-0.40674-1.41602c-0.48291-0.36035-1.04688-0.30078-1.40869,0.18848
								c-0.34863,0.47461-0.4375,1.13867,0.08057,1.52539C99.0249,90.55273,99.70215,90.16406,100.19775,89.84473z
								 M103.15332,92.16992c0.39014-0.51855,0.36182-1.16504-0.17822-1.56738c-0.64014-0.47168-1.35547-0.15234-1.93115,0.25195
								c-0.1167,0.62988-0.08643,1.21094,0.46045,1.61816C102.04932,92.875,102.77051,92.68848,103.15332,92.16992z"/>
						</g>
					</g>
					<g>
						<g>
							<path fill="#FFFFFF" d="M104.13818,79.62793c-0.35547,0.2998-0.67432,0.62402-0.91846,1.11328
								c-0.61963,1.24219,0.32666,2.24902,1.38281,2.83398l0.03223-0.0166c-0.3291-0.58789-0.33252-1.14453-0.02979-1.75586
								c0.68018-1.36328,1.92139-1.66992,3.2583-1.00586c1.56592,0.78711,2.21777,2.0625,1.40527,3.69434
								c-1.00146,2.00293-2.89062,1.61621-4.58643,0.76855c-1.96436-0.98047-3.80127-2.68359-2.63525-5.01562
								c0.2583-0.52539,0.59131-0.98438,1.01221-1.3916L104.13818,79.62793z M106.40576,84.3125
								c0.68213,0.34082,1.42773,0.35059,1.78125-0.36328c0.33643-0.66602-0.1748-1.27051-0.81787-1.5918
								c-0.70654-0.35059-1.49951-0.39062-1.84814,0.30469C105.17139,83.36133,105.6792,83.94922,106.40576,84.3125z"/>
						</g>
					</g>
					<g>
						<g>
							<path fill="#FFFFFF" d="M106.83594,71.01074l-0.8833,2.97754l1.6416,0.52832
								c0.01807-0.19043,0.04541-0.43555,0.13623-0.72754c0.3208-1.08789,1.25146-2.33887,3.25732-1.73926
								c1.4541,0.43066,2.32812,1.79395,1.7334,3.78809c-0.17725,0.59961-0.48438,1.26562-0.75684,1.74023l-1.37891-0.45117
								c0.26904-0.32812,0.66016-0.78809,0.85889-1.45801c0.24072-0.8125,0.11572-1.77051-0.87207-2.05859
								c-1.00146-0.29883-1.60547,0.48145-1.86963,1.36621c-0.14307,0.47852-0.20947,0.95117-0.20117,1.44922l-4.13867-1.31641
								l1.31982-4.43848L106.83594,71.01074z"/>
						</g>
					</g>
				</g>
			</g>
		</g>
		<text transform="matrix(1 0 0 1 140.55322 63.42676)" fill="#FFFFFF" font-family="'AGaramondPro-Regular'" font-size="50.70422">ILR</text>
	</g>
</g>
</svg>
