<?xml version="1.0" encoding="utf-8"?>
<!-- Generator: Adobe Illustrator 16.0.0, SVG Export Plug-In . SVG Version: 6.00 Build 0)  -->
<!DOCTYPE svg PUBLIC "-//W3C//DTD SVG 1.1//EN" "http://www.w3.org/Graphics/SVG/1.1/DTD/svg11.dtd">
<svg version="1.1" id="Cornell_seal" xmlns="http://www.w3.org/2000/svg" xmlns:xlink="http://www.w3.org/1999/xlink" x="0px"
	 y="0px" width="120px" height="120px" viewBox="0 0 120 120" enable-background="new 0 0 120 120" xml:space="preserve">
<g>
	<g>
		<path fill="#FFFFFF" d="M59.99854,119.5C27.19092,119.5,0.5,92.80566,0.5,59.99658C0.5,27.19043,27.19092,0.5,59.99854,0.5
			C92.80713,0.5,119.5,27.19043,119.5,59.99658C119.5,92.80566,92.80713,119.5,59.99854,119.5z M59.99854,3.27832
			c-31.2749,0-56.71924,25.44336-56.71924,56.71826c0,31.27783,25.44434,56.72119,56.71924,56.72119
			c31.27637,0,56.72217-25.44336,56.72217-56.72119C116.7207,28.72168,91.2749,3.27832,59.99854,3.27832z"/>
	</g>
	<g>
		<path fill="#FFFFFF" d="M59.99854,104.68848c-24.64111,0-44.68848-20.04883-44.68848-44.69189
			c0-24.64014,20.04736-44.68652,44.68848-44.68652c24.64209,0,44.69141,20.04639,44.69141,44.68652
			C104.68994,84.63965,84.64062,104.68848,59.99854,104.68848z M59.99854,18.0708c-23.11865,0-41.92676,18.80811-41.92676,41.92578
			c0,23.12158,18.80811,41.93213,41.92676,41.93213c23.12012,0,41.92969-18.81055,41.92969-41.93213
			C101.92822,36.87891,83.11865,18.0708,59.99854,18.0708z"/>
	</g>
	<g>
		<path fill="#FFFFFF" d="M60.0166,101.72949l-0.55371-0.23535c-1.13818-0.49023-27.88818-12.21094-27.88818-33.45117
			l0.00439-38.15625l56.79932-0.00586l0.00488,38.83691c0,20.36426-26.6792,32.27539-27.81445,32.77246L60.0166,101.72949z
			 M34.3584,32.66553L34.354,68.04297c0,17.81445,21.86768,28.86621,25.65283,30.64355
			c3.77832-1.80176,25.59766-12.94336,25.59766-29.96875l-0.00488-36.05811L34.3584,32.66553z"/>
	</g>
	<g>
		<path fill="#FFFFFF" d="M47.46924,52.22852l-0.67725-0.396c-0.12305-0.07178-3.02832-1.77539-4.97656-3.08203
			c-1.646-1.09912-2.49121-2.2666-2.58154-3.56494c-0.01904-0.27246-0.01855-5.45947-0.01514-9.7666l0.00195-1.38818h16.62598
			l0.00293,1.38672c0.01416,6.26953,0.0127,9.55371-0.00537,9.76172c-0.0376,1.32568-0.84033,2.49658-2.45117,3.57324
			c-1.96338,1.31641-5.10254,3.02832-5.23438,3.10107L47.46924,52.22852z M41.99707,36.80908
			c-0.00244,3.52344-0.00146,7.86426,0.00928,8.19238c0.02002,0.26611,0.38525,0.79297,1.35498,1.43994
			c1.32617,0.88916,3.17285,2.00537,4.15674,2.59082c1.03271-0.57617,3.00342-1.70068,4.3291-2.58887
			c0.36328-0.24316,1.20654-0.8584,1.22168-1.35352l0.00586-0.13818c0.00977-0.30225,0.00488-4.63037-0.00146-8.14258H41.99707z"/>
	</g>
	<g>
		<path fill="#FFFFFF" d="M73.15674,52.16064l-0.67725-0.39502c-0.12207-0.07227-3.02393-1.77393-4.96973-3.07959
			c-1.646-1.10156-2.49219-2.26855-2.58301-3.56445c-0.01807-0.21436-0.02295-3.49854-0.01514-9.77051l0.00195-1.38721h16.62305
			l0.00244,1.38623c0.01318,6.271,0.01221,9.55664-0.00439,9.76514c-0.02881,1.31299-0.83008,2.48779-2.44824,3.57129
			c-1.96777,1.31836-5.10791,3.02832-5.2417,3.1001L73.15674,52.16064z M67.68896,36.74316
			c-0.00244,3.51318-0.00195,7.84717,0.00879,8.18848c0.021,0.27051,0.38721,0.7959,1.35938,1.44678
			c1.32373,0.88916,3.16748,2.00195,4.14941,2.58643c1.03271-0.5752,3.00635-1.69727,4.33398-2.58643
			c0.36279-0.24316,1.20605-0.85986,1.21777-1.34814l0.00635-0.14258c0.00928-0.30322,0.00488-4.63184-0.00146-8.14453H67.68896z"/>
	</g>
	<g>
		<rect x="31.79248" y="53.21094" fill="#FFFFFF" width="55.59229" height="2.74951"/>
	</g>
	<g>
		<path fill="#FFFFFF" d="M59.92627,87.04785c-0.93701,0-1.47266-0.66016-1.7583-1.01465
			c-0.31543-0.38867-0.47168-0.5-0.97998-0.50781c-1.5127,0-2.62354,0.10156-3.90674,0.21777
			c-1.25635,0.11426-2.68213,0.24316-4.70801,0.28809c-2.00781,0.0459-3.56348-0.03809-3.62939-0.04102l-1.3125-0.0752
			l0.00342-26.03613l1.35938-0.03271c0.41748-0.00977,0.89697-0.00977,1.46045-0.00635c0.79883,0,1.78076,0.00146,3.01416-0.02832
			c0.94385-0.021,2.04785-0.13867,3.32617-0.2749c0.74951-0.08008,1.55566-0.16504,2.42334-0.24365
			c1.79053-0.20264,3.41797,0.13086,3.48779,0.14404c0.49609,0.11621,0.9165,0.2749,1.26904,0.45508
			c0.34473-0.17676,0.75781-0.33203,1.25098-0.44824c0.10059-0.02002,1.72754-0.35547,3.55078-0.14795
			c0.84033,0.07568,1.6499,0.16064,2.40332,0.24268c1.27295,0.13428,2.37305,0.25195,3.30908,0.27295
			c1.23389,0.03125,2.2168,0.03125,3.0166,0.02832c0.56738,0,1.04346-0.00342,1.4624,0.00635l1.35693,0.03271l0.00391,26.03613
			l-1.31152,0.0752c-0.06543,0.00098-1.62061,0.08691-3.62891,0.04102c-2.02441-0.04492-3.44971-0.17383-4.70654-0.28809
			c-1.30762-0.12109-2.43359-0.21777-3.98633-0.21777c-0.54248,0-0.69385,0.17188-1.0249,0.55371
			C61.35547,86.44043,60.82812,87.04785,59.92627,87.04785z M57.18701,82.74414c0.02881,0,0.05908,0,0.08789,0
			c1.36963,0.00391,2.18311,0.59961,2.67383,1.10352c0.51367-0.50879,1.34131-1.09961,2.74121-1.10352
			c1.70898,0.02148,2.92578,0.10938,4.24268,0.22949c1.27246,0.11621,2.58838,0.23535,4.52002,0.28027
			c0.79785,0.01758,1.52197,0.01465,2.09766,0.00488l-0.00342-20.64062c-0.16699,0.00488-0.34766,0-0.53369,0
			c-0.72119,0-1.57129-0.00293-2.59082-0.02832c-1.04932-0.02539-2.20215-0.14746-3.53809-0.28906
			c-0.73682-0.07812-1.53125-0.16406-2.38623-0.23828c-1.40381-0.16309-2.6626,0.09082-2.67529,0.0957
			c-0.72363,0.1709-0.94873,0.4668-0.95703,0.48047l-0.78027-0.45898l-0.8916,0.51465
			c0.00098,0.00195,0.00098,0.00293,0.00098,0.00293c-0.00684,0-0.30469-0.36328-1.09082-0.54688l0,0
			c-0.00439,0.00195-1.25244-0.24316-2.60596-0.09277c-0.88477,0.0791-1.67383,0.16504-2.40869,0.24219
			c-1.33936,0.14258-2.49561,0.26465-3.55518,0.29004c-1.26172,0.03027-2.26318,0.02832-3.0835,0.02832
			c-0.01172,0-0.02441,0-0.03662,0l-0.00342,20.64062c0.57715,0.00977,1.3042,0.0127,2.09863-0.00488
			c1.93262-0.04492,3.24902-0.16406,4.52051-0.28027C54.32471,82.85742,55.54883,82.74414,57.18701,82.74414z"/>
	</g>
	<g>
		<rect x="40.61523" y="39.46143" fill="#FFFFFF" width="13.74365" height="2.3125"/>
	</g>
	<g>
		<rect x="40.61523" y="39.22852" fill="#FFFFFF" width="13.74365" height="2.77881"/>
	</g>
	<g>
		<rect x="58.73096" y="53.70312" fill="#FFFFFF" width="2.3125" height="46.74609"/>
	</g>
	<g>
		<rect x="58.84521" y="53.70312" fill="#FFFFFF" width="2.0835" height="46.74609"/>
	</g>
	<g>
		<polygon fill="#FFFFFF" points="79.07764,44.479 72.97168,40.40869 67.37109,44.45508 66.0166,42.58057 72.91992,37.59424 
			80.35986,42.55615 		"/>
	</g>
	<g>
		<polygon fill="#FFFFFF" points="79.1416,44.67334 73.16943,40.69336 67.70312,44.64453 66.07568,42.3916 73.10645,37.30957 
			80.68213,42.36133 		"/>
	</g>
	<g>
		<path fill="#FFFFFF" d="M70.94043,66.80078c-0.39551-0.00977-1.52637-0.04102-2.53564-0.06836l-0.96582-0.02832
			c-0.55615-0.01367-1.19629-0.08008-1.93457-0.16016c-0.36719-0.03906-0.75879-0.08203-1.17969-0.12109
			c-0.22168-0.02344-0.42676-0.02832-0.60938-0.01758l-0.05957-1.46094c0.24805-0.0127,0.52637-0.00781,0.81445,0.02441
			c0.41797,0.04004,0.81738,0.08105,1.19092,0.12305c0.69238,0.07227,1.29102,0.14062,1.81543,0.15234l0.96924,0.02637
			c1.00537,0.0293,2.13281,0.06055,2.52637,0.07031L70.94043,66.80078z"/>
	</g>
	<g>
		<path fill="#FFFFFF" d="M70.94287,71.25293l-3.49854-0.08887c-0.5498-0.0127-1.17578-0.07812-1.89648-0.15234
			c-0.37793-0.04199-0.78467-0.08594-1.22168-0.12402c-0.22852-0.02441-0.43652-0.03223-0.61914-0.02539l-0.04297-1.46094
			c0.24902-0.0127,0.52344,0,0.81006,0.03125c0.4292,0.04102,0.84326,0.08301,1.22852,0.125
			c0.6748,0.07129,1.26074,0.13379,1.77393,0.14844l3.49365,0.08691L70.94287,71.25293z"/>
	</g>
	<g>
		<path fill="#FFFFFF" d="M70.94629,75.71289c-0.28662-0.00293-0.95557-0.02148-1.68506-0.04297l-1.81787-0.04785
			c-0.54346-0.00977-1.1665-0.07422-1.88184-0.15234c-0.38184-0.04004-0.79297-0.08496-1.23438-0.12305
			c-0.22314-0.02148-0.43262-0.02832-0.61572-0.02344l-0.05225-1.46094c0.24805-0.00977,0.52197,0,0.80762,0.02832
			c0.44141,0.04102,0.85986,0.08398,1.25,0.12598c0.66748,0.07129,1.24756,0.13672,1.75586,0.14648l1.8291,0.04785
			c0.72266,0.01953,1.38281,0.03809,1.66553,0.04297L70.94629,75.71289z"/>
	</g>
	<g>
		<path fill="#FFFFFF" d="M70.94287,80.1748c-0.50635-0.00977-2.21875-0.05566-3.33594-0.08496l-0.16602-0.00488
			c-0.54541-0.01367-1.16699-0.07812-1.88281-0.15527c-0.38184-0.03906-0.79102-0.08398-1.23193-0.12402
			c-0.22607-0.02539-0.43652-0.03125-0.61475-0.02539l-0.05225-1.45996c0.24951-0.01172,0.52783,0,0.81494,0.0332
			c0.43213,0.03906,0.84912,0.08105,1.23828,0.12402c0.67188,0.07129,1.25342,0.13477,1.76514,0.14551l0.16846,0.00488
			c1.11377,0.0293,2.81982,0.0752,3.32422,0.08691L70.94287,80.1748z"/>
	</g>
	<g>
		<path fill="#FFFFFF" d="M48.95312,66.76172l-0.03125-1.46094c0.51514-0.01074,2.27881-0.05664,3.38916-0.08594
			c0.64746-0.01367,1.25635-0.08008,1.96436-0.15723c0.36182-0.03906,0.74756-0.08203,1.16064-0.12109
			c0.25439-0.02441,0.51367-0.04102,0.74463-0.03125l-0.01709,1.45996c-0.1875-0.00293-0.38135,0.00488-0.5835,0.02637
			c-0.41357,0.04004-0.79248,0.08008-1.14844,0.11816c-0.74854,0.08105-1.39502,0.15234-1.98047,0.16211
			C51.23682,66.7041,49.4707,66.75195,48.95312,66.76172z"/>
	</g>
	<g>
		<path fill="#FFFFFF" d="M48.95312,71.22266l-0.03125-1.46094l3.49902-0.08984c0.52441-0.01465,1.12354-0.0791,1.81738-0.15625
			c0.37207-0.03711,0.77051-0.08301,1.19775-0.12402c0.27588-0.01953,0.53418-0.02832,0.76709-0.01855l-0.06201,1.45898
			c-0.18066-0.00781-0.37939,0.00195-0.58008,0.0166c-0.40869,0.03906-0.7998,0.08008-1.16455,0.12109
			c-0.74072,0.08008-1.37891,0.14844-1.94043,0.16211L48.95312,71.22266z"/>
	</g>
	<g>
		<path fill="#FFFFFF" d="M48.9458,75.6748l-0.01758-1.46094c0.53223-0.00684,2.39111-0.05957,3.48926-0.09082
			c0.51611-0.00684,1.11279-0.06934,1.80469-0.14453c0.37744-0.03809,0.7832-0.08301,1.21777-0.12109
			c0.24121-0.03027,0.50244-0.03613,0.74072-0.03027l-0.01709,1.45996c-0.17969,0-0.37354,0-0.57129,0.02344
			c-0.4502,0.04102-0.8457,0.08203-1.21631,0.12207c-0.72754,0.07617-1.35693,0.14258-1.92871,0.14941
			C51.35303,75.61328,49.48193,75.66895,48.9458,75.6748z"/>
	</g>
	<g>
		<path fill="#FFFFFF" d="M48.94775,80.13867l-0.02051-1.45801c0.50146-0.00684,2.18115-0.05566,3.2915-0.08496l0.19971-0.00488
			c0.53418-0.01367,1.14111-0.08203,1.84375-0.15625c0.36572-0.04004,0.75537-0.08301,1.17236-0.12305
			c0.24902-0.02637,0.50781-0.03223,0.74219-0.02637l-0.01758,1.45898c-0.1792,0-0.37549-0.00195-0.57422,0.02148
			c-0.42188,0.04004-0.80518,0.08203-1.16406,0.12109c-0.75098,0.08203-1.39941,0.14941-1.96533,0.16309l-0.1958,0.00684
			C51.1416,80.08789,49.45215,80.13281,48.94775,80.13867z"/>
	</g>
	<g>
		<g>
			<rect x="40.90381" y="63.58301" fill="#FFFFFF" width="3.02588" height="3.32129"/>
		</g>
		<g>
			<rect x="40.90381" y="71.26758" fill="#FFFFFF" width="3.18848" height="3.32715"/>
		</g>
		<g>
			<rect x="40.90381" y="78.14355" fill="#FFFFFF" width="3.02588" height="3.3125"/>
		</g>
		<g>
			<rect x="75.73828" y="64.23926" fill="#FFFFFF" width="3.02734" height="3.31641"/>
		</g>
		<g>
			<rect x="75.73828" y="71.92188" fill="#FFFFFF" width="3.18848" height="3.32324"/>
		</g>
		<g>
			<rect x="75.73828" y="78.79492" fill="#FFFFFF" width="3.02734" height="3.31836"/>
		</g>
		<g>
			<g>
				<g>
					<path fill="#FFFFFF" d="M13.29395,54.2793c0.10303,0.58594,0.17773,1.21338,0.14062,1.81348
						c-0.16113,2.55518-1.56836,4.24609-4.27197,4.07812c-2.73926-0.17432-4.16943-1.92236-4.00439-4.59668
						c0.03516-0.52051,0.18115-1.20117,0.44434-1.76514l1.34619,0.19678c-0.38281,0.58057-0.49707,1.11475-0.53125,1.67969
						c-0.10205,1.62842,1.09326,2.72314,2.73438,2.82666c1.62891,0.10303,2.9126-0.81982,3.01904-2.49902
						c0.04102-0.61914-0.05322-1.36279-0.22314-1.74756L13.29395,54.2793z"/>
				</g>
			</g>
			<g>
				<g>
					<path fill="#FFFFFF" d="M7.03418,45.54834c0.6748-2.38672,2.68896-3.25879,5.02197-2.5957
						c2.33008,0.6582,3.63184,2.45947,2.94873,4.8623c-0.69238,2.43896-2.70117,3.25928-5.06689,2.59033
						C7.57324,49.73096,6.34473,47.96973,7.03418,45.54834z M13.7915,47.46973c0.44287-1.55615-0.79639-2.53369-2.1875-2.92822
						c-1.36035-0.38867-2.92773-0.16113-3.35938,1.35449c-0.42822,1.51172,0.78613,2.52881,2.14551,2.91357
						C11.7793,49.20654,13.34814,49.02783,13.7915,47.46973z"/>
				</g>
			</g>
			<g>
				<g>
					<path fill="#FFFFFF" d="M10.21826,37.25928l0.80566-1.50732c0.79492-1.5,1.69531-3.31689,3.66357-2.26855
						c0.83008,0.44189,1.22705,1.36084,0.875,2.31055l0.01855,0.01611c0.2334-0.36719,0.73682-0.38037,1.12646-0.35303
						l3.36084,0.35303l-0.8291,1.55908l-2.65576-0.33838c-0.63477-0.07959-0.93262-0.00879-1.24658,0.57861l-0.23828,0.45166
						l2.9375,1.56641l-0.74512,1.3999L10.21826,37.25928z M13.98193,37.46826l0.24561-0.45996
						c0.36914-0.68799,0.68848-1.53369-0.19482-2.00098c-0.85156-0.45508-1.3374,0.28857-1.71094,0.98682l-0.24463,0.45996
						L13.98193,37.46826z"/>
				</g>
			</g>
			<g>
				<g>
					<path fill="#FFFFFF" d="M15.63379,28.104l1.24512-1.49756l6.53467,1.50586l0.01562-0.01709L18.81641,24.271l0.96631-1.16943
						l6.1709,5.11621l-1.23682,1.48926l-6.54346-1.49805l-0.0127,0.01807l4.61182,3.82764l-0.96924,1.16553L15.63379,28.104z"/>
				</g>
			</g>
			<g>
				<g>
					<path fill="#FFFFFF" d="M23.66357,19.39844l3.61377-2.94238l0.79883,0.97803l-2.39111,1.94287l1.24902,1.53271l2.18701-1.78174
						l0.79834,0.97754l-2.18848,1.7832l1.42188,1.74658l2.40479-1.95947l0.79639,0.97949l-3.63379,2.95947L23.66357,19.39844z"/>
				</g>
			</g>
			<g>
				<g>
					<path fill="#FFFFFF" d="M31.52588,13.62012l1.38379-0.78174l3.31055,5.88379l2.67188-1.50586l0.61963,1.10303l-4.05762,2.28027
						L31.52588,13.62012z"/>
				</g>
			</g>
			<g>
				<g>
					<path fill="#FFFFFF" d="M39.66406,9.53809l1.49268-0.54053l2.29541,6.34424l2.8833-1.04053l0.43311,1.18604l-4.37793,1.58447
						L39.66406,9.53809z"/>
				</g>
			</g>
			<g>
				<g>
					<path fill="#FFFFFF" d="M52.43945,6.05664l1.58252-0.13232l0.37939,4.61475c0.11182,1.35791,0.61621,2.21973,1.82666,2.11719
						c1.20459-0.09814,1.56006-1.02881,1.44629-2.38623l-0.38379-4.61768l1.58252-0.12988l0.42236,5.10449
						c0.1792,2.14014-0.94531,3.12012-2.96582,3.29053c-2.0166,0.16602-3.29004-0.61621-3.46729-2.75635L52.43945,6.05664z"/>
				</g>
			</g>
			<g>
				<g>
					<path fill="#FFFFFF" d="M64.31396,5.65234l1.92969,0.26123l2.18311,6.34375l0.02393,0.00293l0.7998-5.94238l1.50586,0.20508
						l-1.07275,7.93945l-1.91797-0.25684L65.5708,7.86182l-0.02295-0.00146L64.75,13.79541l-1.50586-0.2002L64.31396,5.65234z"/>
				</g>
			</g>
			<g>
				<g>
					<path fill="#FFFFFF" d="M75.67285,7.82812l1.51172,0.47461l-2.39844,7.64648l-1.51318-0.47559L75.67285,7.82812z"/>
				</g>
			</g>
			<g>
				<g>
					<path fill="#FFFFFF" d="M81.30811,9.72461l1.51758,0.76953l-1.03027,6.52832l0.02051,0.01123l4.62891-4.70898l1.40332,0.70605
						l-5.99072,5.95264l-1.73828-0.87744L81.30811,9.72461z"/>
				</g>
			</g>
			<g>
				<g>
					<path fill="#FFFFFF" d="M91.69824,15.6377l3.6748,2.87646l-0.77539,0.99121l-2.42627-1.896l-1.2168,1.55713l2.21973,1.73682
						l-0.77686,0.99658l-2.22021-1.73877l-1.3877,1.77393l2.4458,1.9126l-0.77637,0.99365l-3.69287-2.88721L91.69824,15.6377z"/>
				</g>
			</g>
			<g>
				<g>
					<path fill="#FFFFFF" d="M99.07715,21.979l1.12695,1.28271c1.12061,1.27832,2.5,2.76318,0.82666,4.23486
						c-0.70801,0.62012-1.70654,0.66553-2.4751,0.00244l-0.01855,0.0127c0.26074,0.34521,0.09814,0.82178-0.06543,1.17188
						l-1.52051,3.02148l-1.1665-1.32666l1.25342-2.36719c0.2998-0.5625,0.34033-0.86621-0.10303-1.36621l-0.33252-0.38428
						l-2.50537,2.19189l-1.0459-1.18994L99.07715,21.979z M97.55029,25.42578l0.34375,0.39355
						c0.51221,0.58594,1.19092,1.18262,1.94141,0.52197c0.72607-0.6333,0.20312-1.35156-0.32031-1.94678l-0.34521-0.39209
						L97.55029,25.42578z"/>
				</g>
			</g>
			<g>
				<g>
					<path fill="#FFFFFF" d="M106.55713,34.68604c-0.06787-0.54053-0.23877-1.0835-0.52197-1.55957
						c-0.27588-0.46777-0.83984-0.94678-1.59131-0.50586c-1.19922,0.70801,1.07178,3.3916-1.24072,4.75977
						c-1.51074,0.89404-2.78418,0.05322-3.59521-1.31885c-0.43896-0.74219-0.53613-1.13135-0.76807-1.90137l1.32178-0.61377
						c0.02197,0.62207,0.17188,1.25732,0.48486,1.7915c0.30859,0.52051,0.98096,1.05322,1.60352,0.68115
						c1.31934-0.77539-0.9917-3.43408,1.29248-4.78467c1.54053-0.91162,2.80273-0.06396,3.51074,1.13281
						c0.34424,0.5835,0.58936,1.17676,0.71533,1.771L106.55713,34.68604z"/>
				</g>
			</g>
			<g>
				<g>
					<path fill="#FFFFFF" d="M110.06982,38.67383l0.60156,1.46973l-7.42432,3.02588l-0.59619-1.4668L110.06982,38.67383z"/>
				</g>
			</g>
			<g>
				<g>
					<path fill="#FFFFFF" d="M111.44873,46.60791l-0.54346-2.2002l1.22852-0.29932l1.4624,5.93896l-1.22754,0.30029l-0.54102-2.2002
						l-6.55518,1.61426l-0.37939-1.5415L111.44873,46.60791z"/>
				</g>
			</g>
			<g>
				<g>
					<path fill="#FFFFFF" d="M109.52734,56.93262l4.67578-3.14893l0.10645,1.85107l-3.25879,2.05078l3.4668,1.71533l0.0918,1.67432
						l-4.99414-2.55811l-3.16748,0.17529l-0.08643-1.58447L109.52734,56.93262z"/>
				</g>
			</g>
			<g>
				<g>
					<path fill="#FFFFFF" d="M14.54004,70.78809l1.22852,4.26367l-1.21436,0.35156l-0.78711-2.72949l-1.89551,0.5498
						l0.74707,2.59277l-1.21191,0.35156l-0.74805-2.59766l-3.37744,0.97754l-0.44629-1.54004L14.54004,70.78809z"/>
				</g>
			</g>
			<g>
				<g>
					<path fill="#FFFFFF" d="M18.29492,80.61523c1.10645,2.25,0.20312,4.26758-1.97607,5.33301
						c-2.17139,1.06836-4.34717,0.59375-5.46387-1.67871c-1.13184-2.29395-0.1875-4.2666,2.01758-5.3457
						C15.07861,77.8418,17.17285,78.33984,18.29492,80.61523z M11.98926,83.71387c0.72119,1.47266,2.29395,1.37598,3.59326,0.73535
						c1.27002-0.62109,2.27881-1.84863,1.57666-3.27441c-0.69727-1.42383-2.28418-1.36914-3.55225-0.75
						C12.30615,81.0625,11.2666,82.24609,11.98926,83.71387z"/>
				</g>
			</g>
			<g>
				<g>
					<path fill="#FFFFFF" d="M21.70361,86.9248l0.99756,1.25098l-3.61963,2.87598c-1.07178,0.8457-1.50195,1.74805-0.73926,2.70508
						c0.75977,0.96387,1.73193,0.74609,2.7998-0.10645l3.62207-2.87891l0.99951,1.25684l-4.01123,3.18359
						c-1.67822,1.33301-3.12598,0.9375-4.40283-0.66309c-1.27344-1.60645-1.33545-3.11133,0.34473-4.44531L21.70361,86.9248z"/>
				</g>
			</g>
			<g>
				<g>
					<path fill="#FFFFFF" d="M28.27832,94.59473l1.52734,1.24414l-1.44141,6.56445l0.01807,0.01074l3.79346-4.63184l1.18945,0.9668
						l-5.07666,6.20312l-1.51562-1.23828l1.43018-6.57715l-0.02002-0.01074l-3.79199,4.63379l-1.1875-0.96777L28.27832,94.59473z"/>
				</g>
			</g>
			<g>
				<g>
					<path fill="#FFFFFF" d="M36.40576,100.71973l1.95654,0.98047c2.18457,1.09961,3.74951,2.80859,2.31885,5.65332
						c-1.42627,2.83984-3.7334,2.60742-5.91943,1.50781l-1.9541-0.97754L36.40576,100.71973z M34.80615,107.47559l0.79883,0.40137
						c1.19629,0.59668,2.79785,0.28516,3.5835-1.27637c0.78223-1.55566,0.08008-3.0293-1.11816-3.63184l-0.79883-0.40234
						L34.80615,107.47559z"/>
				</g>
			</g>
			<g>
				<g>
					<path fill="#FFFFFF" d="M45.67432,104.84082l4.55566,1.21973l-0.32617,1.21582l-3.00781-0.7998l-0.50732,1.90527
						l2.75391,0.73438l-0.3252,1.21777l-2.75537-0.7334l-0.57861,2.17676l3.03076,0.80566l-0.32422,1.2207l-4.5791-1.2207
						L45.67432,104.84082z"/>
				</g>
			</g>
			<g>
				<g>
					<path fill="#FFFFFF" d="M53.75488,106.6875l2.18164,0.12598c2.44238,0.13574,4.55713,1.08496,4.37549,4.25781
						c-0.18164,3.17578-2.38818,3.88184-4.83203,3.74609l-2.18018-0.125L53.75488,106.6875z M54.96729,113.52344l0.89258,0.04785
						c1.33789,0.07715,2.68408-0.84766,2.78662-2.59473c0.0957-1.73926-1.13818-2.80957-2.47412-2.88477l-0.88818-0.05078
						L54.96729,113.52344z"/>
				</g>
			</g>
			<g>
				<g>
					<path fill="#FFFFFF" d="M68.45557,106.10742l1.76611-0.37598l4.75049,7.17285l-1.73633,0.375l-1.05371-1.65527l-3.16748,0.6875
						l-0.29785,1.93555l-1.62109,0.34863L68.45557,106.10742z M69.65381,107.49707l-0.02246,0.00391l-0.43506,3.47266
						l2.28223-0.4873L69.65381,107.49707z"/>
				</g>
			</g>
			<g>
				<g>
					<path fill="#FFFFFF" d="M76.75732,110.49414l1.50488-0.54492l0.54834,1.50879l-1.50439,0.54395L76.75732,110.49414z"/>
				</g>
			</g>
			<g>
				<g>
					<path fill="#FFFFFF" d="M78.79297,102.90332l1.92041-1.04102c2.15479-1.17383,4.44971-1.4707,5.96631,1.32324
						c1.51367,2.7998,0.00537,4.55371-2.14697,5.71973l-1.92139,1.04102L78.79297,102.90332z M83.42041,108.07324l0.78418-0.41992
						c1.17676-0.64355,1.83496-2.13281,1.00488-3.6709c-0.83154-1.53711-2.44385-1.79785-3.62158-1.15527L80.80322,103.25
						L83.42041,108.07324z"/>
				</g>
			</g>
			<g>
				<g>
					<path fill="#FFFFFF" d="M89.00146,104.3877l1.31787-0.91797l0.91602,1.32129l-1.31494,0.91602L89.00146,104.3877z"/>
				</g>
			</g>
			<g>
				<g>
					<path fill="#FFFFFF" d="M92.30664,93.42383l1.00781-0.99609l5.62939,5.70898L97.8042,99.2627l-4.34619-4.4043l-0.18848,1.72949
						l-1.3042-0.17969L92.30664,93.42383z"/>
				</g>
			</g>
			<g>
				<g>
					<path fill="#FFFFFF" d="M99.4834,91.13281c-0.76611,0.42871-1.61084,0.45996-2.2876-0.03613
						c-1.15039-0.85742-1.05078-2.13086-0.18848-3.29883c0.83838-1.13086,2.06201-1.80469,3.14014-1.00879
						c0.5835,0.43359,0.99512,1.28906,0.75488,2.20898l0.00977,0.00879c1.02197-0.55371,1.86426-0.53027,2.60059,0.01465
						c1.30469,0.96094,1.18506,2.32227,0.24414,3.59277c-0.92627,1.24805-2.21875,1.8623-3.52539,0.8877
						c-0.72363-0.5293-0.92041-1.30469-0.73145-2.35547L99.4834,91.13281z M99.86279,89.5957
						c0.13672-0.45508-0.00635-1.1123-0.40332-1.4043c-0.479-0.35645-1.0376-0.29785-1.39697,0.1875
						c-0.34521,0.4707-0.43408,1.12891,0.08008,1.51172C98.69971,90.29785,99.37158,89.91211,99.86279,89.5957z M102.79443,91.90234
						c0.38623-0.51367,0.35791-1.15625-0.17676-1.55469c-0.63525-0.46777-1.34473-0.15137-1.91504,0.25
						c-0.11621,0.62305-0.08594,1.19922,0.45654,1.60449C101.69922,92.60059,102.41455,92.41602,102.79443,91.90234z"/>
				</g>
			</g>
			<g>
				<g>
					<path fill="#FFFFFF" d="M103.77051,79.46484c-0.35254,0.29785-0.66846,0.61816-0.91113,1.10254
						c-0.61426,1.23242,0.32471,2.23145,1.37207,2.81055l0.03174-0.0166c-0.32617-0.58203-0.32959-1.13379-0.0293-1.73926
						c0.67432-1.35156,1.90527-1.65723,3.23096-0.99805c1.55225,0.78027,2.19873,2.04492,1.39355,3.66211
						c-0.99365,1.9873-2.8667,1.60449-4.54883,0.7627c-1.94727-0.97168-3.76904-2.66113-2.61279-4.97363
						c0.25635-0.52051,0.58594-0.97559,1.00342-1.37988L103.77051,79.46484z M106.01953,84.11035
						c0.67578,0.33887,1.41602,0.34863,1.76611-0.36035c0.33398-0.66016-0.17334-1.26074-0.81104-1.57812
						c-0.7002-0.34863-1.4873-0.3877-1.83252,0.30176C104.79541,83.16699,105.29834,83.75,106.01953,84.11035z"/>
				</g>
			</g>
			<g>
				<g>
					<path fill="#FFFFFF" d="M106.44629,70.91895l-0.87598,2.95312l1.62793,0.52344
						c0.01758-0.18848,0.04492-0.43164,0.13477-0.72266c0.31836-1.07715,1.24072-2.31836,3.23047-1.72266
						c1.44189,0.42676,2.30859,1.7793,1.71826,3.75684c-0.17529,0.59375-0.47998,1.25293-0.75049,1.72461l-1.36719-0.44629
						c0.2666-0.32617,0.6543-0.78223,0.85156-1.44727c0.23926-0.80566,0.11475-1.75488-0.86475-2.04102
						c-0.99268-0.29688-1.5918,0.47754-1.85352,1.35449c-0.14209,0.47461-0.2085,0.94336-0.2002,1.4375l-4.104-1.30566
						l1.30859-4.40137L106.44629,70.91895z"/>
				</g>
			</g>
		</g>
	</g>
</g>
</svg>
