<?xml version="1.0" encoding="utf-8"?>
<!-- Generator: Adobe Illustrator 16.0.0, SVG Export Plug-In . SVG Version: 6.00 Build 0)  -->
<!DOCTYPE svg PUBLIC "-//W3C//DTD SVG 1.1//EN" "http://www.w3.org/Graphics/SVG/1.1/DTD/svg11.dtd">
<svg version="1.1" xmlns="http://www.w3.org/2000/svg" xmlns:xlink="http://www.w3.org/1999/xlink" x="0px" y="0px" width="172px"
	 height="75px" viewBox="0 0 172 75" enable-background="new 0 0 172 75" xml:space="preserve">
<g id="Cornell_seal">
	<g>
		<g>
			<path fill="#FFFFFF" d="M36.30322,72.88477C16.729,72.88477,0.8042,56.95801,0.8042,37.3833
				c0-19.57422,15.9248-35.49854,35.49902-35.49854c19.5752,0,35.50098,15.92432,35.50098,35.49854
				C71.8042,56.95801,55.87842,72.88477,36.30322,72.88477z M36.30322,3.54248c-18.65967,0-33.84082,15.18066-33.84082,33.84082
				c0,18.66064,15.18115,33.84131,33.84082,33.84131c18.66064,0,33.84277-15.18066,33.84277-33.84131
				C70.146,18.72314,54.96387,3.54248,36.30322,3.54248z"/>
		</g>
		<g>
			<path fill="#FFFFFF" d="M36.30322,64.04785c-14.70166,0-26.6626-11.96191-26.6626-26.66455
				c0-14.70166,11.96094-26.66211,26.6626-26.66211c14.70264,0,26.66455,11.96045,26.66455,26.66211
				C62.96777,52.08594,51.00586,64.04785,36.30322,64.04785z M36.30322,12.36816c-13.79346,0-25.01514,11.22168-25.01514,25.01514
				c0,13.79443,11.22168,25.01807,25.01514,25.01807c13.79443,0,25.01709-11.22363,25.01709-25.01807
				C61.32031,23.58984,50.09766,12.36816,36.30322,12.36816z"/>
		</g>
		<g>
			<path fill="#FFFFFF" d="M36.31396,62.28223l-0.33008-0.14062c-0.6792-0.29199-16.63916-7.28516-16.63916-19.95801
				l0.00244-22.76562l33.88867-0.00342l0.00293,23.17139c0,12.15039-15.91797,19.25684-16.59521,19.55371L36.31396,62.28223z
				 M21.00537,21.07617l-0.00244,21.10742c0,10.62891,13.04688,17.22266,15.30518,18.2832
				c2.25439-1.0752,15.27295-7.72266,15.27295-17.88086l-0.00293-21.51367L21.00537,21.07617z"/>
		</g>
		<g>
			<path fill="#FFFFFF" d="M28.82764,32.74805l-0.40381-0.23633c-0.07324-0.04297-1.80664-1.05908-2.96924-1.83887
				c-0.98193-0.65576-1.48633-1.35254-1.54004-2.12695c-0.01172-0.1626-0.01123-3.25732-0.00928-5.82715l0.00098-0.82812h9.91992
				l0.00195,0.82715c0.0083,3.74072,0.00732,5.7002-0.00342,5.82422c-0.02246,0.79102-0.50146,1.48975-1.4624,2.13184
				c-1.17139,0.78564-3.04443,1.80713-3.12305,1.85059L28.82764,32.74805z M25.56299,23.54834
				c-0.00146,2.10205-0.00098,4.69189,0.00537,4.8877c0.01221,0.15869,0.22998,0.47314,0.80859,0.85938
				c0.79102,0.53027,1.89307,1.19629,2.47998,1.54541c0.61621-0.34375,1.79199-1.01465,2.58301-1.54443
				c0.2168-0.14502,0.71973-0.51221,0.729-0.80762l0.00342-0.08252c0.00586-0.18018,0.00293-2.7627-0.00098-4.85791H25.56299z"/>
		</g>
		<g>
			<path fill="#FFFFFF" d="M44.15381,32.70752L43.75,32.47168c-0.07275-0.04297-1.8042-1.05811-2.96533-1.8374
				c-0.98193-0.65723-1.48682-1.35352-1.54102-2.12646c-0.01074-0.12793-0.01367-2.0874-0.00879-5.82959l0.00098-0.82764h9.91797
				l0.00146,0.82715c0.00781,3.7417,0.00732,5.70166-0.00244,5.82617c-0.01758,0.7832-0.49561,1.48438-1.46094,2.13086
				c-1.17383,0.78662-3.04736,1.80664-3.12744,1.84961L44.15381,32.70752z M40.8916,23.50879
				c-0.00146,2.09619-0.00098,4.68213,0.00537,4.88574c0.0127,0.16113,0.23096,0.47461,0.81104,0.86328
				c0.79004,0.53027,1.88965,1.19434,2.47559,1.54297c0.61621-0.34326,1.79395-1.0127,2.58594-1.54297
				c0.21631-0.14551,0.71973-0.51318,0.72656-0.80469L47.5,28.36816c0.00537-0.18066,0.00293-2.76367-0.00098-4.85938H40.8916z"/>
		</g>
		<g>
			<rect x="19.47461" y="33.33398" fill="#FFFFFF" width="33.16846" height="1.64062"/>
		</g>
		<g>
			<path fill="#FFFFFF" d="M36.26025,53.52246c-0.55908,0-0.87891-0.39355-1.04932-0.60547
				c-0.18799-0.23145-0.28125-0.29785-0.58447-0.30273c-0.90234,0-1.56543,0.06055-2.33105,0.12988
				c-0.74951,0.06836-1.6001,0.14551-2.80908,0.17188c-1.19775,0.02734-2.12598-0.02246-2.16504-0.02441l-0.7832-0.04492
				l0.00195-15.53467l0.81104-0.01855c0.24902-0.00586,0.53516-0.00586,0.87158-0.00488
				c0.47656,0.00098,1.0625,0.00146,1.79834-0.01611c0.56299-0.0127,1.22168-0.0835,1.98438-0.16406
				c0.44727-0.04785,0.92822-0.09912,1.4458-0.14551c1.06836-0.12061,2.03955,0.07764,2.08105,0.08545
				c0.2959,0.06982,0.54688,0.16504,0.75732,0.27148c0.20557-0.10449,0.45215-0.19775,0.74609-0.26709
				c0.06006-0.01172,1.03076-0.21191,2.11865-0.0874c0.50146,0.04395,0.98438,0.0957,1.43408,0.14355
				c0.75928,0.08057,1.41553,0.15088,1.97412,0.16357c0.73633,0.01807,1.32275,0.01855,1.7998,0.01611
				c0.33838,0.00049,0.62256-0.00098,0.87256,0.00488l0.80957,0.01855l0.00244,15.53467l-0.78271,0.04492
				c-0.03906,0.00098-0.9668,0.05176-2.16504,0.02441c-1.20801-0.02637-2.05811-0.10352-2.80811-0.17188
				c-0.78027-0.07227-1.45215-0.12988-2.37842-0.12988c-0.32373,0-0.41406,0.10254-0.61133,0.33008
				C37.11279,53.16016,36.79834,53.52246,36.26025,53.52246z M34.62598,50.95508c0.01709,0,0.03516,0,0.05225,0
				c0.81738,0.00195,1.30273,0.35742,1.59521,0.6582c0.30664-0.30371,0.80029-0.65625,1.63574-0.6582
				c1.01953,0.0127,1.74561,0.06543,2.53125,0.13672c0.75928,0.06934,1.54443,0.14062,2.69678,0.16699
				c0.47607,0.01074,0.9082,0.00879,1.25146,0.00293l-0.00195-12.31445c-0.09961,0.00293-0.20752,0-0.31836,0
				c-0.43018,0-0.9375-0.00195-1.5459-0.01758c-0.62598-0.01465-1.31396-0.08789-2.11084-0.17188
				c-0.43945-0.04688-0.91357-0.09863-1.42383-0.14258c-0.8374-0.09766-1.58838,0.05469-1.59619,0.05762
				c-0.43164,0.10156-0.56592,0.27832-0.5708,0.28613l-0.46582-0.27344l-0.53174,0.30664
				c0.00049,0.00098,0.00049,0.00195,0.00049,0.00195c-0.00391,0-0.18164-0.2168-0.65088-0.32617l0,0
				c-0.00244,0.00098-0.74707-0.14551-1.55469-0.05566c-0.52783,0.04688-0.99854,0.09863-1.43701,0.14453
				c-0.79932,0.08496-1.48926,0.1582-2.12109,0.17285c-0.75293,0.01855-1.35059,0.01758-1.83984,0.01758
				c-0.00684,0-0.01465,0-0.02197,0l-0.00195,12.31445c0.34424,0.00586,0.77832,0.00781,1.25195-0.00293
				c1.15332-0.02637,1.93848-0.09766,2.69727-0.16699C32.91797,51.02246,33.64844,50.95508,34.62598,50.95508z"/>
		</g>
		<g>
			<rect x="24.73828" y="25.13086" fill="#FFFFFF" width="8.2002" height="1.37939"/>
		</g>
		<g>
			<rect x="24.73828" y="24.9917" fill="#FFFFFF" width="8.2002" height="1.65771"/>
		</g>
		<g>
			<rect x="35.54688" y="33.62793" fill="#FFFFFF" width="1.37988" height="27.89062"/>
		</g>
		<g>
			<rect x="35.61523" y="33.62793" fill="#FFFFFF" width="1.24316" height="27.89062"/>
		</g>
		<g>
			<polygon fill="#FFFFFF" points="47.68652,28.12451 44.04346,25.6958 40.70215,28.10986 39.89404,26.9917 44.0127,24.0166 
				48.45166,26.97705 			"/>
		</g>
		<g>
			<polygon fill="#FFFFFF" points="47.72461,28.24023 44.16162,25.86572 40.90039,28.22314 39.9292,26.87891 44.12402,23.84668 
				48.64404,26.86084 			"/>
		</g>
		<g>
			<path fill="#FFFFFF" d="M42.83154,41.44238c-0.23584-0.00586-0.91064-0.02441-1.5127-0.04102l-0.57617-0.0166
				c-0.33203-0.00781-0.71387-0.04785-1.1543-0.0957c-0.21924-0.02344-0.45264-0.04883-0.7041-0.07227
				c-0.13184-0.01367-0.25439-0.0166-0.36328-0.01074l-0.03564-0.87109c0.14795-0.00781,0.31396-0.00488,0.48584,0.01465
				c0.24951,0.02344,0.48779,0.04785,0.71045,0.07324c0.41309,0.04297,0.77051,0.08398,1.0835,0.09082l0.57812,0.01562
				c0.6001,0.01758,1.27246,0.03613,1.50732,0.04199L42.83154,41.44238z"/>
		</g>
		<g>
			<path fill="#FFFFFF" d="M42.83301,44.09863l-2.0874-0.05273c-0.32764-0.00781-0.70117-0.04688-1.13135-0.09082
				c-0.22559-0.02539-0.46826-0.05176-0.729-0.07422c-0.13623-0.01465-0.26025-0.01953-0.36914-0.01562l-0.02588-0.87109
				c0.14844-0.00781,0.3125,0,0.4834,0.01855c0.25586,0.02441,0.50293,0.0498,0.73291,0.07422
				c0.40283,0.04297,0.75244,0.08008,1.05859,0.08887l2.08447,0.05176L42.83301,44.09863z"/>
		</g>
		<g>
			<path fill="#FFFFFF" d="M42.83496,46.75977c-0.1709-0.00195-0.56982-0.0127-1.00537-0.02539l-1.08447-0.0293
				c-0.32422-0.00586-0.6958-0.04395-1.12256-0.09082c-0.22803-0.02344-0.47314-0.05078-0.73682-0.07324
				c-0.13281-0.0127-0.25781-0.0166-0.36719-0.01367l-0.03125-0.87207c0.14795-0.00586,0.31152,0,0.48193,0.01758
				c0.26318,0.02441,0.51318,0.0498,0.74561,0.0752c0.39844,0.04199,0.74463,0.08105,1.04785,0.08691l1.09131,0.02832
				c0.43115,0.01172,0.8252,0.02344,0.99365,0.02637L42.83496,46.75977z"/>
		</g>
		<g>
			<path fill="#FFFFFF" d="M42.83301,49.42188c-0.30176-0.00586-1.32373-0.0332-1.99023-0.05078l-0.09912-0.00293
				c-0.3252-0.00781-0.69629-0.04688-1.12305-0.09277c-0.22803-0.02344-0.47217-0.0498-0.73535-0.07422
				c-0.13477-0.01465-0.26025-0.01855-0.3667-0.01465l-0.03125-0.87109c0.14893-0.00684,0.31494,0,0.48633,0.01953
				c0.25781,0.02344,0.50684,0.04883,0.73877,0.07422c0.40088,0.04297,0.74805,0.08008,1.05322,0.08691l0.10059,0.00293
				c0.66455,0.01758,1.68213,0.04492,1.9834,0.05176L42.83301,49.42188z"/>
		</g>
		<g>
			<path fill="#FFFFFF" d="M29.71338,41.41895l-0.01904-0.87109c0.30762-0.00684,1.35986-0.03418,2.02246-0.05176
				c0.38623-0.00781,0.74951-0.04785,1.17188-0.09375c0.21582-0.02344,0.4458-0.04883,0.69238-0.07227
				c0.15186-0.01465,0.30664-0.02441,0.44434-0.01855l-0.01025,0.87109c-0.11182-0.00195-0.22754,0.00293-0.34814,0.01562
				c-0.24658,0.02344-0.47266,0.04785-0.68506,0.07031c-0.44678,0.04883-0.83252,0.09082-1.18164,0.09668
				C31.07568,41.38477,30.02197,41.41309,29.71338,41.41895z"/>
		</g>
		<g>
			<path fill="#FFFFFF" d="M29.71338,44.08105l-0.01904-0.87207l2.08789-0.05371c0.31299-0.00879,0.67041-0.04688,1.08447-0.09277
				c0.22168-0.02246,0.45947-0.0498,0.71436-0.07422c0.16455-0.01172,0.31885-0.0166,0.45801-0.01074l-0.03711,0.87012
				c-0.10791-0.00488-0.22656,0.00098-0.34619,0.00977c-0.24365,0.02344-0.47705,0.04785-0.69482,0.07227
				c-0.44189,0.04785-0.82275,0.08887-1.15771,0.09668L29.71338,44.08105z"/>
		</g>
		<g>
			<path fill="#FFFFFF" d="M29.70898,46.7373l-0.01074-0.87207c0.31787-0.00391,1.42676-0.03516,2.08203-0.05371
				c0.30762-0.00488,0.66406-0.04199,1.07666-0.08691c0.2251-0.02246,0.46729-0.04883,0.72656-0.07227
				c0.14404-0.01758,0.2998-0.02148,0.44189-0.01758l-0.01025,0.87109c-0.10693,0-0.22266,0-0.34082,0.01367
				c-0.26855,0.02441-0.50439,0.04883-0.72559,0.07324c-0.43408,0.04492-0.80957,0.08496-1.15088,0.08887
				C31.14502,46.7002,30.02881,46.7334,29.70898,46.7373z"/>
		</g>
		<g>
			<path fill="#FFFFFF" d="M29.70996,49.40039l-0.01221-0.87012c0.29932-0.00391,1.30127-0.0332,1.96387-0.05078l0.11914-0.00293
				c0.31885-0.00781,0.68066-0.04883,1.1001-0.09277c0.21826-0.02441,0.45068-0.0498,0.69922-0.07324
				c0.14893-0.0166,0.30322-0.01953,0.44287-0.0166l-0.01025,0.87109c-0.10693,0-0.22412-0.00098-0.34277,0.0127
				c-0.25146,0.02344-0.48047,0.04883-0.69434,0.07227c-0.44824,0.04883-0.83496,0.08887-1.17285,0.09766l-0.1167,0.00391
				C31.01904,49.37012,30.01074,49.39648,29.70996,49.40039z"/>
		</g>
		<g>
			<g>
				<rect x="24.91064" y="39.52246" fill="#FFFFFF" width="1.80518" height="1.98145"/>
			</g>
			<g>
				<rect x="24.91064" y="44.10742" fill="#FFFFFF" width="1.90234" height="1.98535"/>
			</g>
			<g>
				<rect x="24.91064" y="48.20996" fill="#FFFFFF" width="1.80518" height="1.97656"/>
			</g>
			<g>
				<rect x="45.69434" y="39.91406" fill="#FFFFFF" width="1.80615" height="1.97852"/>
			</g>
			<g>
				<rect x="45.69434" y="44.49805" fill="#FFFFFF" width="1.90234" height="1.98242"/>
			</g>
			<g>
				<rect x="45.69434" y="48.59863" fill="#FFFFFF" width="1.80615" height="1.97949"/>
			</g>
			<g>
				<g>
					<g>
						<path fill="#FFFFFF" d="M8.4375,33.97168c0.06152,0.34961,0.10596,0.72412,0.08398,1.08203
							c-0.09619,1.52393-0.93555,2.5332-2.54883,2.43213c-1.63428-0.10254-2.48779-1.14551-2.38916-2.74121
							c0.021-0.31104,0.10791-0.71729,0.26514-1.05371l0.80322,0.11768c-0.22852,0.34619-0.29688,0.66504-0.31689,1.00244
							c-0.06104,0.97119,0.65234,1.62451,1.63135,1.68604c0.97168,0.06152,1.73779-0.48877,1.80127-1.49121
							c0.02441-0.36914-0.03174-0.81299-0.1333-1.04248L8.4375,33.97168z"/>
					</g>
				</g>
				<g>
					<g>
						<path fill="#FFFFFF" d="M4.70264,28.76221c0.40283-1.42383,1.60449-1.94434,2.99658-1.54834
							c1.39014,0.39258,2.1665,1.46729,1.75928,2.90088c-0.41309,1.45508-1.61182,1.94434-3.02344,1.54541
							C5.02441,31.25781,4.2915,30.20703,4.70264,28.76221z M8.73438,29.90869c0.26416-0.92822-0.4751-1.51172-1.30518-1.74707
							c-0.81152-0.23193-1.74658-0.09619-2.00439,0.80811c-0.25537,0.90186,0.46924,1.50879,1.28027,1.73828
							C7.53369,30.94482,8.46973,30.83838,8.73438,29.90869z"/>
					</g>
				</g>
				<g>
					<g>
						<path fill="#FFFFFF" d="M6.60254,23.81689l0.48047-0.89941c0.47461-0.89502,1.01172-1.979,2.18604-1.35352
							c0.49512,0.26367,0.73193,0.81201,0.52197,1.37842l0.01123,0.00977c0.13916-0.21924,0.43945-0.22705,0.67188-0.21045
							l2.00537,0.21045l-0.49463,0.93018l-1.58447-0.20166c-0.37891-0.04785-0.55664-0.00537-0.74414,0.34521l-0.14209,0.26904
							l1.75293,0.93457l-0.44482,0.83545L6.60254,23.81689z M8.84814,23.94141l0.14648-0.27441
							c0.22021-0.41064,0.41064-0.91504-0.11621-1.19385c-0.5083-0.27148-0.79785,0.17236-1.021,0.58887l-0.146,0.27441
							L8.84814,23.94141z"/>
					</g>
				</g>
				<g>
					<g>
						<path fill="#FFFFFF" d="M9.8335,18.35449l0.74316-0.89355l3.89844,0.89844l0.00977-0.01025l-2.75244-2.28174l0.57666-0.69775
							l3.68164,3.05273l-0.73779,0.88867l-3.9043-0.89404l-0.00732,0.01074l2.75146,2.28369l-0.57812,0.69531L9.8335,18.35449z"/>
					</g>
				</g>
				<g>
					<g>
						<path fill="#FFFFFF" d="M14.62451,13.16016l2.15625-1.75537l0.47656,0.5835l-1.42676,1.15918l0.74512,0.91455l1.30518-1.06299
							l0.47607,0.58301L17.05127,14.646l0.84814,1.04199l1.43506-1.16895l0.4751,0.58447l-2.16797,1.76562L14.62451,13.16016z"/>
					</g>
				</g>
				<g>
					<g>
						<path fill="#FFFFFF" d="M19.31543,9.71289l0.82568-0.4668l1.9751,3.51074l1.59424-0.89844l0.36963,0.6582l-2.4209,1.36035
							L19.31543,9.71289z"/>
					</g>
				</g>
				<g>
					<g>
						<path fill="#FFFFFF" d="M24.1709,7.27734l0.89062-0.32275l1.36963,3.78516l1.72021-0.62061l0.2583,0.70752l-2.61182,0.94531
							L24.1709,7.27734z"/>
					</g>
				</g>
				<g>
					<g>
						<path fill="#FFFFFF" d="M31.79346,5.2002l0.94385-0.0791l0.22656,2.75342c0.06689,0.81006,0.36768,1.32422,1.08984,1.26318
							c0.71875-0.05859,0.93066-0.61377,0.86279-1.42383l-0.229-2.75488l0.94434-0.07764l0.25195,3.04541
							c0.10693,1.27686-0.56396,1.86182-1.76953,1.96338c-1.20312,0.09912-1.96289-0.36768-2.06885-1.64453L31.79346,5.2002z"/>
					</g>
				</g>
				<g>
					<g>
						<path fill="#FFFFFF" d="M38.87793,4.95898l1.15137,0.15576l1.30273,3.78467l0.01416,0.00195l0.47705-3.54541l0.89844,0.12256
							l-0.63965,4.73682l-1.14453-0.15332l-1.30957-3.78467l-0.01367-0.00098l-0.47607,3.54102l-0.89844-0.11963L38.87793,4.95898z"
							/>
					</g>
				</g>
				<g>
					<g>
						<path fill="#FFFFFF" d="M45.65527,6.25684l0.90186,0.2832l-1.43115,4.5625l-0.90283-0.28369L45.65527,6.25684z"/>
					</g>
				</g>
				<g>
					<g>
						<path fill="#FFFFFF" d="M49.01758,7.38867l0.90527,0.45898l-0.61475,3.89502l0.01221,0.00684l2.76172-2.80957l0.8374,0.42139
							l-3.57422,3.55127l-1.03711-0.52344L49.01758,7.38867z"/>
					</g>
				</g>
				<g>
					<g>
						<path fill="#FFFFFF" d="M55.2168,10.9165l2.19238,1.71631l-0.46289,0.59131l-1.44727-1.13135l-0.72607,0.9292l1.32422,1.03613
							l-0.46338,0.59473l-1.32471-1.0376l-0.82812,1.05859l1.45947,1.14111l-0.46338,0.59277l-2.20312-1.72266L55.2168,10.9165z"/>
					</g>
				</g>
				<g>
					<g>
						<path fill="#FFFFFF" d="M59.61914,14.7002l0.67236,0.76514c0.66846,0.7627,1.4917,1.64844,0.49316,2.52686
							c-0.42236,0.36963-1.01807,0.39697-1.47656,0.00146l-0.01123,0.00732c0.15576,0.20605,0.05859,0.49023-0.03906,0.69922
							l-0.90723,1.80273l-0.6958-0.7915l0.74756-1.4126c0.1792-0.33545,0.20312-0.5166-0.06104-0.81494l-0.19873-0.22949
							l-1.49463,1.30811l-0.62402-0.70996L59.61914,14.7002z M58.70801,16.75635l0.20508,0.23486
							c0.30566,0.34961,0.71094,0.70557,1.15869,0.31152c0.43311-0.37793,0.12109-0.80664-0.19141-1.16162l-0.20605-0.23389
							L58.70801,16.75635z"/>
					</g>
				</g>
				<g>
					<g>
						<path fill="#FFFFFF" d="M64.08203,22.28125c-0.04053-0.32227-0.14258-0.646-0.31152-0.93018
							c-0.16455-0.2793-0.50098-0.56494-0.94922-0.30176c-0.71582,0.42236,0.63916,2.02344-0.74023,2.83984
							c-0.90137,0.5332-1.66113,0.03174-2.14502-0.78711c-0.26221-0.44287-0.32031-0.6748-0.4585-1.13428l0.78857-0.36621
							c0.01318,0.37109,0.10254,0.75,0.28955,1.06885c0.18408,0.31055,0.58496,0.62842,0.95654,0.40625
							c0.78711-0.4624-0.5918-2.04883,0.771-2.85449c0.91943-0.54395,1.67236-0.03809,2.09473,0.67578
							c0.20557,0.34814,0.35156,0.70215,0.42676,1.05664L64.08203,22.28125z"/>
					</g>
				</g>
				<g>
					<g>
						<path fill="#FFFFFF" d="M66.17773,24.66064l0.35889,0.87695l-4.42969,1.80518l-0.35547-0.875L66.17773,24.66064z"/>
					</g>
				</g>
				<g>
					<g>
						<path fill="#FFFFFF" d="M67.00049,29.39453l-0.32422-1.3125l0.73291-0.17871l0.87256,3.54346l-0.73242,0.1792
							l-0.32275-1.31299l-3.91113,0.96338l-0.22607-0.91992L67.00049,29.39453z"/>
					</g>
				</g>
				<g>
					<g>
						<path fill="#FFFFFF" d="M65.854,35.55469l2.79004-1.87891l0.06348,1.10449l-1.94434,1.22412l2.06836,1.02295l0.05469,0.99902
							L65.90674,36.5l-1.89014,0.10449l-0.05127-0.94531L65.854,35.55469z"/>
					</g>
				</g>
				<g>
					<g>
						<path fill="#FFFFFF" d="M9.18115,43.82129l0.73291,2.54395L9.18945,46.5752l-0.46973-1.62891l-1.13086,0.32812l0.4458,1.54688
							l-0.72314,0.20996l-0.44629-1.5498L4.8501,46.06445l-0.26611-0.91895L9.18115,43.82129z"/>
					</g>
				</g>
				<g>
					<g>
						<path fill="#FFFFFF" d="M11.42139,49.68457c0.66016,1.34277,0.12109,2.5459-1.1792,3.18164
							c-1.29541,0.6377-2.59375,0.35449-3.25977-1.00098c-0.67529-1.36914-0.11182-2.5459,1.20361-3.18945
							C9.50244,48.03027,10.75195,48.32715,11.42139,49.68457z M7.65918,51.5332c0.43018,0.87891,1.36865,0.82129,2.14404,0.43848
							c0.75732-0.37012,1.35938-1.10254,0.94043-1.95312c-0.41602-0.84961-1.36279-0.81738-2.11914-0.44727
							C7.84814,49.95117,7.22803,50.65723,7.65918,51.5332z"/>
					</g>
				</g>
				<g>
					<g>
						<path fill="#FFFFFF" d="M13.45508,53.44922l0.59521,0.74609l-2.15967,1.71582c-0.63965,0.50488-0.896,1.04297-0.44092,1.61426
							c0.45312,0.5752,1.0332,0.44531,1.67041-0.06348l2.16113-1.71777l0.59619,0.75l-2.39307,1.89941
							c-1.00146,0.79492-1.86523,0.55957-2.62695-0.39551c-0.75977-0.95898-0.79688-1.85645,0.20557-2.65234L13.45508,53.44922z"/>
					</g>
				</g>
				<g>
					<g>
						<path fill="#FFFFFF" d="M17.37793,58.02539l0.91113,0.74219l-0.85986,3.91699l0.01074,0.00586l2.26318-2.76367
							l0.70996,0.57715l-3.0293,3.70117l-0.9043-0.73926l0.85352-3.92383l-0.01221-0.00684l-2.26221,2.76465l-0.7085-0.57715
							L17.37793,58.02539z"/>
					</g>
				</g>
				<g>
					<g>
						<path fill="#FFFFFF" d="M22.22705,61.67969l1.16748,0.58496c1.30322,0.65625,2.23682,1.67578,1.3833,3.37305
							c-0.85107,1.69434-2.22754,1.55566-3.53174,0.89941l-1.16602-0.58301L22.22705,61.67969z M21.27246,65.71094l0.47656,0.23926
							c0.71387,0.35547,1.66943,0.16992,2.13818-0.76172c0.4668-0.92773,0.04785-1.80762-0.66699-2.16699l-0.47656-0.24023
							L21.27246,65.71094z"/>
					</g>
				</g>
				<g>
					<g>
						<path fill="#FFFFFF" d="M27.75684,64.13867l2.71826,0.72754l-0.19482,0.72559l-1.79443-0.47754l-0.30273,1.13672
							l1.64307,0.43848l-0.19385,0.72656l-1.64404-0.4375l-0.34521,1.29883l1.80811,0.48047l-0.19336,0.72852l-2.73193-0.72852
							L27.75684,64.13867z"/>
					</g>
				</g>
				<g>
					<g>
						<path fill="#FFFFFF" d="M32.57812,65.24023l1.30176,0.0752c1.45703,0.08105,2.71875,0.64746,2.61035,2.54004
							c-0.1084,1.89551-1.4248,2.31641-2.88281,2.23535l-1.30078-0.07422L32.57812,65.24023z M33.30127,69.31934l0.53271,0.02832
							c0.79834,0.0459,1.60156-0.50586,1.6626-1.54785c0.05713-1.03809-0.6792-1.67676-1.47607-1.72168l-0.52979-0.03027
							L33.30127,69.31934z"/>
					</g>
				</g>
				<g>
					<g>
						<path fill="#FFFFFF" d="M41.34912,64.89453l1.05371-0.22461l2.83447,4.2793l-1.03613,0.22363l-0.62842-0.9873
							l-1.89014,0.41016l-0.17773,1.15527l-0.96729,0.20801L41.34912,64.89453z M42.06396,65.72363l-0.01318,0.00195
							l-0.25977,2.07227l1.36182-0.29102L42.06396,65.72363z"/>
					</g>
				</g>
				<g>
					<g>
						<path fill="#FFFFFF" d="M46.30225,67.51172l0.89795-0.3252l0.32715,0.90039l-0.89746,0.32422L46.30225,67.51172z"/>
					</g>
				</g>
				<g>
					<g>
						<path fill="#FFFFFF" d="M47.5166,62.98242l1.146-0.62109c1.28564-0.7002,2.65479-0.87695,3.55957,0.79004
							c0.90332,1.66992,0.00342,2.7168-1.28076,3.41211l-1.14648,0.62109L47.5166,62.98242z M50.27783,66.06738l0.46777-0.25098
							c0.70215-0.38379,1.09473-1.27246,0.59961-2.19043c-0.49609-0.91699-1.45801-1.07227-2.16064-0.68848l-0.46826,0.25195
							L50.27783,66.06738z"/>
					</g>
				</g>
				<g>
					<g>
						<path fill="#FFFFFF" d="M53.60742,63.86816l0.78662-0.54785l0.54639,0.78809l-0.78467,0.54688L53.60742,63.86816z"/>
					</g>
				</g>
				<g>
					<g>
						<path fill="#FFFFFF" d="M55.57959,57.32715l0.60107-0.59473l3.35889,3.40625l-0.67969,0.67188l-2.59326-2.62793
							l-0.1123,1.03223l-0.77832-0.10742L55.57959,57.32715z"/>
					</g>
				</g>
				<g>
					<g>
						<path fill="#FFFFFF" d="M59.86133,55.95996c-0.45703,0.25586-0.96094,0.27441-1.36475-0.02148
							c-0.68652-0.51172-0.62695-1.27148-0.1123-1.96875c0.5-0.6748,1.22998-1.07617,1.87354-0.60156
							c0.34814,0.25879,0.59375,0.76953,0.4502,1.31836l0.00586,0.00488c0.60986-0.33008,1.1123-0.31641,1.55176,0.00879
							c0.77832,0.57324,0.70703,1.38574,0.14551,2.14355c-0.55273,0.74414-1.32373,1.11133-2.10352,0.5293
							c-0.43164-0.31543-0.54883-0.77832-0.43604-1.40527L59.86133,55.95996z M60.08789,55.04297
							c0.08154-0.27148-0.00391-0.66406-0.24072-0.83789c-0.28564-0.21289-0.61914-0.17773-0.8335,0.11133
							c-0.20605,0.28125-0.25879,0.67383,0.04785,0.90234C59.39404,55.46191,59.79492,55.23145,60.08789,55.04297z
							 M61.83691,56.41895c0.23047-0.30664,0.21387-0.68945-0.10547-0.92773c-0.37891-0.2793-0.80225-0.08984-1.14258,0.14941
							c-0.06934,0.37207-0.05127,0.71582,0.27246,0.95703C61.18359,56.83594,61.61035,56.72559,61.83691,56.41895z"/>
					</g>
				</g>
				<g>
					<g>
						<path fill="#FFFFFF" d="M62.41943,48.99805c-0.21045,0.17773-0.39893,0.36914-0.54346,0.6582
							c-0.3667,0.73535,0.19336,1.33105,0.81836,1.67676l0.01904-0.00977c-0.19482-0.34766-0.19678-0.67676-0.01758-1.03809
							c0.40234-0.80664,1.13672-0.98828,1.92773-0.5957c0.92627,0.46582,1.31201,1.2207,0.83154,2.18555
							c-0.59277,1.18555-1.71045,0.95703-2.71387,0.45508c-1.16211-0.58008-2.24902-1.58789-1.55908-2.96777
							c0.15283-0.31055,0.34961-0.58203,0.59863-0.82324L62.41943,48.99805z M63.76123,51.76953
							c0.40332,0.20215,0.84473,0.20801,1.05371-0.21484c0.19922-0.39355-0.10352-0.75195-0.48389-0.94141
							c-0.41797-0.20801-0.88721-0.23145-1.09326,0.17969C63.03076,51.20703,63.33105,51.55469,63.76123,51.76953z"/>
					</g>
				</g>
				<g>
					<g>
						<path fill="#FFFFFF" d="M64.01562,43.89941l-0.52246,1.76172l0.97119,0.3125c0.01074-0.1123,0.02686-0.25781,0.08057-0.43066
							c0.18994-0.64355,0.74023-1.38379,1.92725-1.02832c0.86035,0.25488,1.37744,1.06152,1.02539,2.24121
							c-0.10449,0.35449-0.28662,0.74805-0.44775,1.0293l-0.81592-0.2666c0.15918-0.19434,0.39062-0.4668,0.5083-0.86328
							c0.14258-0.48047,0.06836-1.04688-0.51611-1.21777c-0.59229-0.17676-0.94971,0.28516-1.10596,0.80859
							c-0.08447,0.2832-0.12402,0.5625-0.11914,0.85742l-2.44873-0.7793l0.78076-2.62598L64.01562,43.89941z"/>
					</g>
				</g>
			</g>
		</g>
	</g>
</g>
<g id="Cornell_ILR">
	<text transform="matrix(1 0 0 1 84.24072 41.2793)" fill="#FFFFFF" font-family="'Palatino-Roman'" font-size="17">Cornell ILR</text>
</g>
</svg>
