<?xml version="1.0" encoding="utf-8"?>
<!-- Generator: Adobe Illustrator 16.0.0, SVG Export Plug-In . SVG Version: 6.00 Build 0)  -->
<!DOCTYPE svg PUBLIC "-//W3C//DTD SVG 1.1//EN" "http://www.w3.org/Graphics/SVG/1.1/DTD/svg11.dtd">
<svg version="1.1" xmlns="http://www.w3.org/2000/svg" xmlns:xlink="http://www.w3.org/1999/xlink" x="0px" y="0px" width="366px"
	 height="115px" viewBox="0 0 366 115" enable-background="new 0 0 366 115" xml:space="preserve">
<g id="Layer_1">
	<g id="red_box" display="none">
		<rect x="-15.902" display="inline" fill="#B31B1B" width="400" height="115"/>
	</g>
	<g>
		<path fill="#FFFFFF" d="M133.324,49.665c-1.854,1.119-5.019,1.726-6.968,1.726c-7.673,0-12.852-4.381-12.852-11.637
			c0-3.675,1.438-6.586,3.9-8.599c2.397-1.981,5.658-3.069,9.239-3.069c2.974,0,5.851,0.769,7.384,1.312
			c-0.319,1.502-0.606,3.195-0.606,4.859h-0.991v-2.303c0-0.895-1.279-1.438-2.749-1.981c-1.023-0.351-2.398-0.543-3.581-0.543
			c-6.01,0-9.175,4.379-9.175,9.813c0,6.33,4.188,10.422,10.518,10.422c2.302,0,5.02-0.83,6.49-1.917l0.288,0.319L133.324,49.665z"
			/>
		<path fill="#FFFFFF" d="M135.37,43.911c0-4.796,3.005-8.152,8.151-8.152c4.093,0,7.257,3.196,7.257,7.288
			c0,4.89-3.484,8.344-8.375,8.344C138.375,51.52,135.37,48.323,135.37,43.911z M138.343,42.536c0,3.355,1.215,7.801,5.307,7.801
			c2.909,0,4.157-2.911,4.157-5.883c0-4.124-1.951-7.64-5.02-7.64C139.397,36.814,138.343,39.562,138.343,42.536z"/>
		<path fill="#FFFFFF" d="M154.007,40.297c0-1.023-0.064-1.726-0.224-1.981c-0.192-0.256-0.512-0.352-1.183-0.352h-1.182V37.07
			c1.886-0.192,3.804-0.799,4.988-1.311l0.287,0.128v3.228h0.064l1.727-2.045c0.767-0.927,1.853-1.311,2.684-1.311
			c0.544,0,1.216,0.16,1.471,0.352l-0.287,3.834h-0.672c-0.352-0.767-1.023-1.47-2.173-1.47c-1.408,0-2.814,1.47-2.814,3.518v5.496
			c0,0.866,0.033,1.505,0.161,1.857c0.127,0.286,0.607,0.415,1.342,0.446l1.662,0.097v0.959c-1.662-0.032-2.941-0.097-4.508-0.097
			c-1.566,0-2.845,0.064-3.995,0.097V49.89l1.47-0.097c0.544-0.031,0.896-0.16,1.023-0.446c0.128-0.353,0.16-0.991,0.16-1.857
			L154.007,40.297L154.007,40.297z"/>
		<path fill="#FFFFFF" d="M168.968,47.489c0,0.866,0.032,1.505,0.16,1.857c0.128,0.286,0.479,0.415,1.023,0.446l1.438,0.097v0.959
			c-1.118-0.032-2.397-0.097-3.964-0.097s-2.845,0.064-3.964,0.097V49.89l1.438-0.097c0.543-0.031,0.895-0.16,1.023-0.446
			c0.126-0.353,0.159-0.991,0.159-1.857v-7.192c0-1.023-0.064-1.726-0.224-1.981c-0.192-0.256-0.512-0.352-1.184-0.352h-1.182V37.07
			c1.886-0.192,3.804-0.799,4.986-1.311l0.288,0.128v2.716h0.063l2.366-2.045c0.704-0.608,1.311-0.799,2.59-0.799
			c3.741,0,5.274,2.077,5.274,5.563v6.167c0,0.866,0.032,1.505,0.16,1.857c0.128,0.286,0.48,0.415,1.023,0.446l1.311,0.097v0.959
			c-0.799-0.032-1.726-0.097-2.621-0.097c-0.896,0-1.823,0.064-2.558,0.097V41.77c0-2.655-1.502-4.061-3.676-4.061
			c-1.95,0-3.932,1.694-3.932,3.004v6.776H168.968z"/>
		<path fill="#FFFFFF" d="M195.917,41.609c0,0.447,0,0.894-0.063,1.342c-1.918,0.32-3.867,0.447-5.787,0.447H185.4
			c0,3.739,1.854,6.299,5.785,6.299c1.533,0,2.75-0.768,3.965-1.502l0.414,0.319l-0.64,1.086c-0.224,0.385-2.938,1.79-5.114,1.79
			c-4.826,0-7.384-3.067-7.384-7.384c0-3.101,0.831-4.956,2.302-6.106c0.606-0.479,1.278-0.959,1.982-1.279
			c1.117-0.511,2.045-0.863,3.132-0.863C193.328,35.759,195.917,37.997,195.917,41.609z M185.463,42.12
			c2.621,0.289,5.307,0.225,7.609,0.097c0-2.974-1.088-5.402-3.391-5.402C187.221,36.814,185.303,38.635,185.463,42.12z"/>
		<path fill="#FFFFFF" d="M199.113,30.932c0-0.735-0.096-1.311-0.799-1.311h-1.791v-0.895c1.695-0.255,3.391-0.543,4.988-1.184
			l0.286,0.256v19.691c0,0.866,0.032,1.505,0.161,1.857c0.128,0.286,0.479,0.415,1.021,0.446l1.473,0.097v0.959
			c-1.152-0.032-2.432-0.097-3.997-0.097c-1.567,0-2.847,0.064-3.997,0.097V49.89l1.473-0.097c0.543-0.031,0.896-0.16,1.021-0.446
			c0.129-0.353,0.161-0.991,0.161-1.857L199.113,30.932L199.113,30.932z"/>
		<path fill="#FFFFFF" d="M208.576,30.932c0-0.735-0.096-1.311-0.799-1.311h-1.791v-0.895c1.695-0.255,3.39-0.543,4.988-1.184
			l0.287,0.256v19.691c0,0.866,0.03,1.505,0.159,1.857c0.128,0.286,0.479,0.415,1.022,0.446l1.47,0.097v0.959
			c-1.149-0.032-2.429-0.097-3.995-0.097c-1.564,0-2.846,0.064-3.995,0.097V49.89l1.47-0.097c0.543-0.031,0.896-0.16,1.022-0.446
			c0.128-0.353,0.16-0.991,0.16-1.857L208.576,30.932L208.576,30.932z"/>
		<path fill="#FFFFFF" d="M223.857,32.561c0-1.214-0.064-2.046-0.289-2.397c-0.19-0.319-0.575-0.447-1.342-0.479l-1.535-0.096V28.63
			c1.662,0.064,3.166,0.096,4.729,0.096c1.474,0,2.976-0.032,4.638-0.096v0.959l-1.535,0.096c-0.768,0.032-1.149,0.16-1.344,0.479
			c-0.223,0.351-0.285,1.183-0.285,2.397V43.56c0,4.537,2.363,5.851,6.584,5.851c3.453,0,6.586-1.313,6.586-6.618V32.561
			c0-1.214-0.063-2.046-0.289-2.397c-0.19-0.319-0.573-0.416-1.342-0.479l-1.406-0.096V28.63c1.277,0.032,2.558,0.096,3.709,0.096
			c1.277,0,2.429-0.064,3.837-0.096v0.959l-1.408,0.096c-0.767,0.063-1.149,0.16-1.342,0.479c-0.226,0.351-0.289,1.183-0.289,2.397
			v9.241c0,6.841-2.589,9.589-9.048,9.589c-5.434,0-8.629-1.629-8.629-7.479V32.561L223.857,32.561z"/>
		<path fill="#FFFFFF" d="M248.762,47.489c0,0.866,0.03,1.505,0.158,1.857c0.127,0.286,0.479,0.415,1.021,0.446l1.438,0.097v0.959
			c-1.118-0.032-2.397-0.097-3.963-0.097c-1.567,0-2.847,0.064-3.965,0.097V49.89l1.438-0.097c0.543-0.031,0.896-0.16,1.022-0.446
			c0.128-0.353,0.16-0.991,0.16-1.857v-7.192c0-1.023-0.064-1.726-0.224-1.981c-0.191-0.256-0.512-0.352-1.184-0.352h-1.184V37.07
			c1.888-0.192,3.805-0.799,4.986-1.311l0.289,0.128v2.716h0.062l2.367-2.045c0.701-0.608,1.31-0.799,2.588-0.799
			c3.74,0,5.274,2.077,5.274,5.563v6.167c0,0.866,0.032,1.505,0.159,1.857c0.128,0.286,0.48,0.415,1.023,0.446l1.311,0.097v0.959
			c-0.801-0.032-1.727-0.097-2.621-0.097s-1.822,0.064-2.559,0.097V41.77c0-2.655-1.502-4.061-3.676-4.061
			c-1.951,0-3.932,1.694-3.932,3.004v6.776H248.762z"/>
		<path fill="#FFFFFF" d="M268.516,47.489c0,0.866,0.031,1.505,0.161,1.857c0.128,0.286,0.479,0.415,1.022,0.446l1.47,0.097v0.959
			c-1.151-0.032-2.429-0.097-3.996-0.097c-1.565,0-2.845,0.064-3.996,0.097V49.89l1.472-0.097c0.543-0.031,0.896-0.16,1.021-0.446
			c0.129-0.353,0.16-0.991,0.16-1.857v-7.192c0-1.023-0.062-1.726-0.225-1.981c-0.19-0.256-0.512-0.352-1.182-0.352h-1.184V37.07
			c1.886-0.192,3.805-0.799,4.984-1.311l0.289,0.128v11.602H268.516z M268.805,30.58c0,0.926-0.863,1.757-1.791,1.757
			s-1.759-0.832-1.759-1.757c0-0.927,0.831-1.79,1.759-1.79C267.941,28.791,268.805,29.653,268.805,30.58z"/>
		<path fill="#FFFFFF" d="M281.208,47.489c-0.544,1.186-0.862,2.4-1.312,3.486h-1.599l-5.499-12.883
			c-0.191-0.448-0.384-1.023-0.992-1.055l-1.086-0.064v-0.895c1.247,0.032,2.494,0.096,3.74,0.096c1.247,0,2.462-0.063,3.709-0.096
			v0.895l-1.564,0.064c-0.834,0.032-1.057,0.479-0.514,1.822l3.805,9.208c0.672-1.473,1.375-2.975,1.981-4.477l1.343-3.389
			c0.862-2.205,0.801-3.132-0.16-3.164l-1.311-0.064v-0.895c0.991,0.032,2.014,0.096,3.005,0.096c0.99,0,2.015-0.063,3.005-0.096
			v0.895l-0.99,0.064c-0.799,0.064-1.343,1.183-1.789,2.141L281.208,47.489z"/>
		<path fill="#FFFFFF" d="M300.996,41.609c0,0.447,0,0.894-0.064,1.342c-1.918,0.32-3.867,0.447-5.785,0.447h-4.666
			c0,3.739,1.853,6.299,5.785,6.299c1.533,0,2.748-0.768,3.965-1.502l0.414,0.319l-0.639,1.086c-0.225,0.385-2.941,1.79-5.115,1.79
			c-4.828,0-7.386-3.067-7.386-7.384c0-3.101,0.832-4.956,2.304-6.106c0.605-0.479,1.277-0.959,1.98-1.279
			c1.119-0.511,2.046-0.863,3.133-0.863C298.407,35.759,300.996,37.997,300.996,41.609z M290.541,42.12
			c2.623,0.289,5.311,0.225,7.609,0.097c0-2.974-1.088-5.402-3.389-5.402C292.3,36.814,290.381,38.635,290.541,42.12z"/>
		<path fill="#FFFFFF" d="M305.311,40.297c0-1.023-0.062-1.726-0.224-1.981c-0.192-0.256-0.512-0.352-1.183-0.352h-1.184V37.07
			c1.887-0.192,3.805-0.799,4.986-1.311l0.288,0.128v3.228h0.062l1.729-2.045c0.767-0.927,1.854-1.311,2.684-1.311
			c0.544,0,1.216,0.16,1.472,0.352l-0.288,3.834h-0.671c-0.353-0.767-1.022-1.47-2.174-1.47c-1.406,0-2.812,1.47-2.812,3.518v5.496
			c0,0.866,0.03,1.505,0.16,1.857c0.127,0.286,0.605,0.415,1.344,0.446l1.661,0.097v0.959c-1.661-0.032-2.942-0.097-4.508-0.097
			c-1.566,0-2.847,0.064-3.996,0.097V49.89l1.471-0.097c0.544-0.031,0.896-0.16,1.022-0.446c0.127-0.353,0.16-0.991,0.16-1.857
			V40.297L305.311,40.297z"/>
		<path fill="#FFFFFF" d="M316.244,46.18v1.31c0,1.984,2.271,2.72,4.123,2.72c2.014,0,3.743-1.183,3.743-2.911
			c0-1.023-0.546-1.854-1.537-2.109c-1.406-0.352-3.164-0.704-4.697-1.277c-1.537-0.575-2.719-1.534-2.719-3.486
			c0-3.452,3.006-4.666,6.01-4.666c1.503,0,2.877,0.352,4.126,0.799c-0.098,1.15-0.13,2.333-0.16,3.61h-0.896v-0.734
			c0-1.662-1.887-2.62-3.708-2.62c-2.716,0-3.133,1.501-3.133,2.588c0,1.375,1.054,2.111,3.482,2.527
			c3.807,0.639,5.596,1.597,5.596,4.09c0,3.519-3.516,5.371-7.064,5.371c-1.533,0-2.909-0.224-4.478-0.767
			c0.32-1.406,0.352-2.942,0.352-4.444L316.244,46.18L316.244,46.18z"/>
		<path fill="#FFFFFF" d="M333.54,47.489c0,0.866,0.032,1.505,0.16,1.857c0.127,0.286,0.479,0.415,1.021,0.446l1.472,0.097v0.959
			c-1.15-0.032-2.43-0.097-3.994-0.097c-1.569,0-2.849,0.064-3.998,0.097V49.89l1.47-0.097c0.544-0.031,0.896-0.16,1.024-0.446
			c0.126-0.353,0.157-0.991,0.157-1.857v-7.192c0-1.023-0.062-1.726-0.224-1.981c-0.189-0.256-0.51-0.352-1.183-0.352h-1.183V37.07
			c1.886-0.192,3.804-0.799,4.986-1.311l0.289,0.128v11.602H333.54z M333.827,30.58c0,0.926-0.864,1.757-1.791,1.757
			s-1.759-0.832-1.759-1.757c0-0.927,0.832-1.79,1.759-1.79S333.827,29.653,333.827,30.58z"/>
		<path fill="#FFFFFF" d="M336.895,38.667v-0.671l2.493-1.119v-2.239c0-0.831-0.032-1.663-0.129-2.525
			c1.152-0.352,2.174-0.863,2.72-1.214l0.384,0.352c-0.19,1.406-0.354,3.197-0.354,4.541v1.214l4.381-0.191l-0.288,1.725h-4.093
			v8.374c0,1.475,0.418,2.209,1.76,2.209c0.832,0,1.438-0.352,1.887-0.607l0.415,0.544l-1.534,1.693
			c-0.287,0.319-1.406,0.383-2.077,0.383c-1.694,0-3.134-0.798-3.134-3.387V38.54L336.895,38.667z"/>
		<path fill="#FFFFFF" d="M360.551,38.667c0.479-1.183,0-1.534-1.149-1.63l-0.832-0.064v-0.895c1.022,0.032,2.013,0.096,3.036,0.096
			s2.017-0.063,3.037-0.096v0.895l-0.896,0.064c-0.767,0.064-1.471,1.055-2.687,3.869l-6.488,14.962
			c-1.023,2.332-2.174,3.931-4.857,3.931c-0.545,0-1.249-0.257-1.6-0.48l0.767-2.396h0.417c0.384,0.384,1.184,0.767,1.63,0.734
			c1.854-0.129,2.876-2.72,3.483-4.189l0.734-1.948c-0.543-1.504-1.183-3.072-1.789-4.542l-3.483-8.374
			c-0.512-1.214-0.961-1.501-1.663-1.566l-0.575-0.064v-0.895c1.246,0.032,2.463,0.096,3.708,0.096c1.247,0,2.461-0.063,3.708-0.096
			v0.895l-1.215,0.064c-0.895,0.032-1.438,0.352-0.768,2.077l2.045,5.37c0.449,1.216,0.963,2.366,1.633,3.517L360.551,38.667z"/>
	</g>
	<g id="ILR_School">
		<g>
			<path fill="#FFFFFF" d="M115.02,63.422l1.953,0.062c1.281,0.041,2.12,0.062,2.516,0.062c0.354,0,1.849-0.041,4.484-0.125
				l0.125,0.109v0.78l-0.125,0.109c-0.719,0.021-1.273,0.053-1.664,0.094c-0.391,0.043-0.675,0.12-0.852,0.234
				c-0.177,0.115-0.294,0.383-0.352,0.805s-0.086,1.008-0.086,1.758l-0.031,3.595v7.233l0.016,3.047
				c0.01,1.179,0.042,1.938,0.094,2.281c0.052,0.344,0.127,0.573,0.227,0.688c0.099,0.114,0.289,0.211,0.57,0.288
				c0.281,0.078,0.974,0.14,2.078,0.181l0.125,0.094V85.5l-0.125,0.125c-0.052,0-0.969-0.031-2.75-0.094
				c-0.74-0.021-1.318-0.031-1.734-0.031c-0.323,0-1.812,0.041-4.469,0.125l-0.125-0.125v-0.781l0.125-0.094
				c0.969-0.041,1.614-0.094,1.938-0.156c0.323-0.062,0.539-0.143,0.648-0.242c0.109-0.099,0.198-0.31,0.266-0.633
				c0.067-0.322,0.106-1.041,0.117-2.156l0.016-3.297v-7.233l-0.031-3.048c-0.011-1.188-0.039-1.952-0.086-2.297
				c-0.047-0.344-0.12-0.571-0.219-0.688c-0.099-0.114-0.289-0.208-0.57-0.281c-0.281-0.072-0.974-0.13-2.078-0.172l-0.125-0.109
				v-0.78L115.02,63.422z"/>
			<path fill="#FFFFFF" d="M124.658,63.531l0.125-0.109c2.583,0.084,4.073,0.125,4.469,0.125c0.354,0,1.849-0.041,4.484-0.125
				l0.125,0.109v0.781l-0.125,0.108c-0.719,0.021-1.273,0.054-1.664,0.095c-0.391,0.041-0.675,0.119-0.852,0.233
				c-0.177,0.115-0.294,0.383-0.352,0.806c-0.058,0.422-0.086,1.008-0.086,1.758l-0.031,3.594v6.906c0,1.729,0.01,2.938,0.031,3.625
				l0.078,2.703h3.188c2.542,0,4.127-0.031,4.758-0.095c0.63-0.062,1.237-0.213,1.82-0.453c0.114-0.26,0.278-0.858,0.492-1.797
				c0.213-0.938,0.325-1.479,0.336-1.625l0.141-0.125h0.766l0.109,0.125c-0.083,0.417-0.169,1.226-0.258,2.422
				c-0.089,1.198-0.133,2.167-0.133,2.906l-0.125,0.125c-1.979-0.062-4.578-0.094-7.797-0.094l-4.562-0.031
				c-1.042,0-2.104,0.041-3.188,0.125l-0.125-0.125v-0.517l0.125-0.155c0.646-0.333,1-0.536,1.062-0.609
				c0.062-0.071,0.127-0.743,0.195-2.016c0.067-1.271,0.102-2.802,0.102-4.595v-6.702l-0.031-3.048
				c-0.011-1.188-0.039-1.952-0.086-2.297c-0.047-0.344-0.12-0.571-0.219-0.688c-0.099-0.114-0.289-0.208-0.57-0.281
				c-0.281-0.072-0.974-0.13-2.078-0.172l-0.125-0.109L124.658,63.531L124.658,63.531z"/>
			<path fill="#FFFFFF" d="M143.482,63.531l0.125-0.109c1.906,0.084,3.391,0.125,4.453,0.125c1.177,0,2.766-0.036,4.766-0.109
				c0.74-0.021,1.276-0.03,1.609-0.03c2.635,0,4.422,0.479,5.359,1.438c0.938,0.96,1.406,2.095,1.406,3.406
				c0,0.875-0.229,1.733-0.688,2.578c-0.459,0.844-1.135,1.565-2.031,2.164c-0.896,0.6-2.13,1.05-3.703,1.352
				c0.292,0.406,0.818,1.109,1.578,2.109l2.219,2.938c0.719,0.969,1.49,1.991,2.312,3.069c0.822,1.078,1.354,1.688,1.594,1.828
				c0.24,0.14,0.445,0.228,0.617,0.258c0.172,0.031,0.445,0.048,0.82,0.048l0.125,0.125v0.733l-0.141,0.142
				c-0.5-0.062-1.094-0.095-1.781-0.095c-0.74,0-1.547,0.031-2.422,0.095c-0.719-0.875-1.849-2.392-3.391-4.548
				c-1.792-2.5-3.625-4.817-5.5-6.952l0.156-0.484c0.542,0.031,0.963,0.047,1.266,0.047c1.802,0,3.213-0.432,4.234-1.297
				c1.021-0.864,1.531-2.062,1.531-3.594c0-1.375-0.458-2.414-1.375-3.117s-2.156-1.055-3.719-1.055
				c-1.094,0-2.125,0.15-3.094,0.452c-0.156,0.229-0.234,2.183-0.234,5.859v7.233l0.016,3.047c0.01,1.179,0.042,1.938,0.094,2.281
				c0.052,0.344,0.127,0.573,0.227,0.688c0.099,0.114,0.289,0.211,0.57,0.289c0.281,0.077,0.974,0.139,2.078,0.18l0.125,0.095V85.5
				l-0.125,0.125c-0.052,0-0.969-0.031-2.75-0.094c-0.74-0.021-1.318-0.031-1.734-0.031c-0.323,0-1.812,0.041-4.469,0.125
				L143.48,85.5v-0.781l0.125-0.094c0.969-0.041,1.615-0.094,1.938-0.156c0.323-0.062,0.539-0.143,0.648-0.242
				c0.109-0.099,0.198-0.31,0.266-0.633c0.068-0.322,0.107-1.041,0.117-2.156l0.016-3.297v-7.233l-0.031-3.048
				c-0.01-1.188-0.039-1.952-0.086-2.297c-0.047-0.344-0.12-0.571-0.219-0.688c-0.099-0.114-0.289-0.208-0.57-0.281
				c-0.281-0.072-0.974-0.13-2.078-0.172l-0.125-0.109L143.482,63.531L143.482,63.531z"/>
			<path fill="#FFFFFF" d="M171.835,80.125L171.96,80h0.766l0.125,0.125c0.052,1.334,0.122,2.148,0.211,2.445
				c0.088,0.297,0.37,0.609,0.844,0.938c0.474,0.328,1.104,0.598,1.891,0.805c0.786,0.209,1.581,0.312,2.383,0.312
				c1.104,0,2.096-0.203,2.977-0.609c0.88-0.406,1.565-1.002,2.055-1.789c0.489-0.785,0.733-1.668,0.733-2.647
				c0-0.688-0.116-1.286-0.352-1.797c-0.234-0.511-0.562-0.919-0.984-1.228c-0.422-0.307-0.904-0.535-1.445-0.688
				c-0.542-0.15-1.349-0.314-2.422-0.492c-1.042-0.166-1.857-0.316-2.445-0.453c-0.589-0.135-1.175-0.344-1.758-0.625
				s-1.07-0.638-1.461-1.07c-0.391-0.432-0.703-0.963-0.938-1.594c-0.234-0.63-0.352-1.305-0.352-2.023
				c0-1.946,0.677-3.543,2.031-4.789c1.354-1.243,3.172-1.866,5.453-1.866c0.906,0,1.893,0.112,2.961,0.336
				c1.067,0.226,2.04,0.555,2.915,0.992l0.108,0.188c-0.229,0.96-0.37,2.323-0.422,4.095l-0.142,0.125h-0.812l-0.125-0.109
				c-0.021-1.25-0.052-2.036-0.094-2.359c-0.042-0.322-0.516-0.724-1.422-1.203c-0.906-0.479-1.891-0.719-2.953-0.719
				c-0.886,0-1.714,0.178-2.484,0.531c-0.771,0.354-1.354,0.912-1.75,1.672c-0.396,0.762-0.594,1.537-0.594,2.328
				c0,0.615,0.12,1.159,0.359,1.633c0.239,0.475,0.549,0.85,0.93,1.125c0.38,0.276,0.823,0.482,1.328,0.617
				c0.505,0.136,1.43,0.303,2.773,0.5c1.844,0.261,3.185,0.576,4.023,0.945c0.839,0.369,1.511,0.955,2.016,1.758
				c0.506,0.803,0.758,1.771,0.758,2.906c0,2.219-0.902,4.067-2.711,5.547c-1.808,1.479-3.998,2.219-6.569,2.219
				c-2.156,0-4.047-0.387-5.672-1.156l-0.094-0.203C171.705,84.062,171.783,82.531,171.835,80.125z"/>
			<path fill="#FFFFFF" d="M200.161,83.828l-0.625,1.047c-1.345,0.739-2.845,1.109-4.5,1.109c-2.292,0-4.062-0.683-5.312-2.047
				s-1.875-3.125-1.875-5.281c0-0.979,0.105-1.852,0.319-2.617c0.213-0.766,0.483-1.398,0.812-1.898s0.689-0.896,1.086-1.188
				c0.396-0.291,1.064-0.697,2.009-1.219c0.942-0.521,1.653-0.861,2.133-1.023c0.479-0.161,1.142-0.242,1.983-0.242
				c1.615,0,2.938,0.309,3.97,0.922c-0.198,1.178-0.351,2.49-0.453,3.938l-0.142,0.125h-0.641l-0.141-0.142
				c-0.042-0.875-0.1-1.463-0.172-1.766c-0.073-0.302-0.487-0.625-1.242-0.969c-0.756-0.344-1.561-0.516-2.414-0.516
				s-1.615,0.18-2.281,0.539c-0.667,0.358-1.17,0.947-1.508,1.766c-0.339,0.818-0.508,1.795-0.508,2.93
				c0,0.959,0.135,1.895,0.406,2.805c0.271,0.912,0.627,1.668,1.069,2.267c0.442,0.6,1.028,1.081,1.759,1.444
				c0.729,0.365,1.541,0.547,2.438,0.547c0.562,0,1.111-0.071,1.648-0.219c0.535-0.146,1.152-0.385,1.852-0.719L200.161,83.828z"/>
			<path fill="#FFFFFF" d="M205.314,62.359l0.297,0.188c-0.114,1.198-0.172,3.6-0.172,7.203v3.859
				c0.875-0.719,1.688-1.433,2.438-2.142c0.219-0.196,0.428-0.344,0.625-0.438c0.198-0.095,0.52-0.192,0.961-0.298
				c0.441-0.104,0.898-0.155,1.367-0.155c0.792,0,1.561,0.162,2.305,0.483c0.745,0.323,1.309,0.707,1.688,1.148
				c0.38,0.443,0.644,0.967,0.788,1.57c0.146,0.604,0.22,1.35,0.22,2.234v2.75c0,0.178,0.026,1.475,0.078,3.891
				c0.03,0.99,0.144,1.578,0.336,1.766s0.836,0.281,1.93,0.281l0.125,0.125V85.5l-0.125,0.125c-1.323-0.084-2.219-0.125-2.688-0.125
				c-0.238,0-1,0.041-2.28,0.125l-0.188-0.172c0.137-1.354,0.203-3.119,0.203-5.297v-2.047c0-1.229-0.027-2.114-0.086-2.656
				c-0.058-0.541-0.23-1.033-0.523-1.477c-0.291-0.442-0.68-0.787-1.164-1.031c-0.483-0.244-1.069-0.367-1.758-0.367
				c-0.707,0-1.299,0.097-1.772,0.289c-0.474,0.193-0.956,0.519-1.444,0.977c-0.49,0.459-0.785,0.842-0.884,1.148
				c-0.099,0.308-0.147,0.898-0.147,1.773v2.78c0,0.229,0.021,0.968,0.062,2.211c0.042,1.245,0.086,1.972,0.133,2.181
				c0.048,0.209,0.117,0.358,0.212,0.453c0.094,0.094,0.207,0.153,0.344,0.18c0.136,0.025,0.697,0.07,1.688,0.133l0.141,0.125v0.656
				l-0.125,0.141c-1.302-0.084-2.558-0.125-3.766-0.125c-1.197,0-2.447,0.041-3.75,0.125l-0.141-0.141v-0.656l0.141-0.125
				c1.012-0.062,1.581-0.109,1.711-0.141c0.131-0.032,0.245-0.097,0.344-0.195c0.1-0.1,0.168-0.25,0.203-0.453
				c0.036-0.203,0.078-0.875,0.125-2.016c0.047-1.142,0.07-2.002,0.07-2.586v-8.095l-0.062-3.312
				c-0.031-1.156-0.064-1.958-0.102-2.406c-0.036-0.447-0.086-0.713-0.148-0.797c-0.062-0.083-0.172-0.146-0.328-0.188
				c-0.155-0.041-0.785-0.062-1.891-0.062l-0.141-0.141v-0.656l0.125-0.141C202.271,63.287,203.95,62.9,205.314,62.359z"/>
			<path fill="#FFFFFF" d="M218.889,78.344c0-1.238,0.256-2.435,0.766-3.586c0.511-1.15,1.398-2.146,2.664-2.984
				c1.267-0.838,2.769-1.258,4.509-1.258c2.188,0,3.969,0.69,5.344,2.07c1.375,1.381,2.062,3.154,2.062,5.32
				c0,2.386-0.789,4.35-2.366,5.891c-1.578,1.542-3.482,2.312-5.712,2.312c-1.459,0-2.76-0.395-3.905-1.18
				c-1.146-0.787-1.992-1.748-2.539-2.884C219.163,80.912,218.889,79.678,218.889,78.344z M221.842,77.266
				c0,1.459,0.188,2.765,0.562,3.914c0.375,1.151,0.969,2.076,1.781,2.773c0.812,0.697,1.738,1.047,2.78,1.047
				c1.229,0,2.244-0.486,3.048-1.461c0.801-0.975,1.202-2.439,1.202-4.398c0-2.219-0.437-4.035-1.305-5.453
				c-0.87-1.416-2.123-2.125-3.759-2.125c-1.354,0-2.411,0.49-3.172,1.47C222.223,74.011,221.842,75.422,221.842,77.266z"/>
			<path fill="#FFFFFF" d="M236.557,78.344c0-1.238,0.256-2.435,0.767-3.586c0.51-1.15,1.397-2.146,2.663-2.984
				c1.267-0.838,2.769-1.258,4.509-1.258c2.188,0,3.969,0.69,5.344,2.07c1.375,1.381,2.062,3.154,2.062,5.32
				c0,2.386-0.789,4.35-2.366,5.891c-1.578,1.542-3.482,2.312-5.711,2.312c-1.46,0-2.761-0.395-3.906-1.18
				c-1.146-0.787-1.992-1.748-2.539-2.884C236.831,80.912,236.557,79.678,236.557,78.344z M239.51,77.266
				c0,1.459,0.188,2.765,0.562,3.914c0.375,1.151,0.969,2.076,1.781,2.773c0.812,0.697,1.738,1.047,2.78,1.047
				c1.229,0,2.244-0.486,3.048-1.461c0.801-0.975,1.202-2.439,1.202-4.398c0-2.219-0.436-4.035-1.305-5.453
				c-0.87-1.416-2.123-2.125-3.759-2.125c-1.354,0-2.411,0.49-3.172,1.47C239.891,74.011,239.51,75.422,239.51,77.266z"/>
			<path fill="#FFFFFF" d="M258.007,62.359l0.298,0.188c-0.115,1.198-0.173,3.6-0.173,7.203v9.797c0,0.229,0.021,0.967,0.062,2.211
				c0.043,1.245,0.086,1.973,0.134,2.18c0.047,0.209,0.116,0.359,0.211,0.453c0.094,0.094,0.208,0.154,0.344,0.18
				c0.136,0.027,0.698,0.07,1.688,0.134l0.141,0.125v0.655l-0.125,0.142c-1.302-0.084-2.559-0.125-3.766-0.125
				c-1.198,0-2.448,0.041-3.75,0.125l-0.141-0.142v-0.655l0.141-0.125c1.011-0.062,1.58-0.109,1.711-0.142
				c0.13-0.031,0.244-0.096,0.344-0.194s0.167-0.25,0.203-0.453c0.035-0.203,0.078-0.875,0.125-2.017
				c0.047-1.141,0.07-2.002,0.07-2.586v-8.094l-0.062-3.312c-0.031-1.156-0.064-1.958-0.102-2.406
				c-0.037-0.446-0.086-0.713-0.148-0.797c-0.062-0.083-0.172-0.146-0.328-0.188c-0.156-0.041-0.785-0.062-1.891-0.062l-0.141-0.142
				v-0.655l0.125-0.142C254.965,63.287,256.643,62.9,258.007,62.359z"/>
		</g>
	</g>
</g>
<g id="Layer_2">
	<g>
		<path fill="#FFFFFF" d="M35.936,82.297c5.205,4.104,10.332,6.273,10.549,6.361l0.396,0.168l0.397-0.17
			c0.217-0.096,5.327-2.295,10.515-6.354c6.987-5.465,10.68-11.688,10.68-17.998l-0.006-28.854l-43.225,0.003l-0.001,28.353
			C25.241,70.379,28.938,76.771,35.936,82.297z M45.897,73.453c-0.222-0.078-0.468-0.135-0.774-0.135c-0.017,0-0.033,0-0.049,0
			c-1.052,0-1.838,0.072-2.673,0.146c-0.824,0.076-1.678,0.154-2.931,0.182c-0.575,0.012-1.092,0.008-1.483,0V60.078
			c0.059,0,0.118,0,0.179,0c0.521,0.004,1.161,0,1.961-0.016c0.679-0.018,1.424-0.098,2.287-0.189
			c0.475-0.053,0.98-0.104,1.545-0.154c0.898-0.098,1.725,0.062,1.725,0.062c0.084,0.02,0.144,0.047,0.213,0.068V73.453z
			 M66.424,64.305c0,11.811-14.504,19.818-18.776,21.918V75.477c0.081-0.076,0.154-0.154,0.214-0.223
			c0.213-0.25,0.348-0.398,0.757-0.4c0.987,0.014,1.73,0.064,2.578,0.141c0.81,0.072,1.724,0.158,3.028,0.188
			c1.287,0.031,2.289-0.025,2.33-0.029l0.727-0.039l0-4.014h1.7v-2.141h-1.701l0-3.887h1.702v-2.139H57.28l-0.001-4.365
			l-0.748-0.018c-0.275-0.008-0.589-0.008-0.962-0.006c-0.521-0.006-1.14,0-1.925-0.02c-0.611-0.014-1.33-0.09-2.158-0.18
			c-0.481-0.051-1.001-0.104-1.541-0.153c-1.161-0.134-2.186,0.077-2.248,0.093c-0.018,0.005-0.031,0.011-0.049,0.016v-4.124h18.774
			L66.424,64.305z M47.648,73.52V59.918c0.099-0.049,0.217-0.094,0.379-0.133c0.01-0.002,0.842-0.172,1.764-0.064
			c0.549,0.049,1.058,0.1,1.533,0.156c0.862,0.088,1.606,0.168,2.283,0.186c0.683,0.016,1.25,0.016,1.727,0.016
			c0.143,0,0.282,0,0.411,0l0.001,13.568c-0.39,0.008-0.906,0.014-1.483,0c-1.251-0.027-2.104-0.105-2.928-0.18
			c-0.844-0.078-1.601-0.15-2.719-0.148C48.219,73.318,47.911,73.404,47.648,73.52z M27.288,37.502l39.133-0.005l0.001,14.631
			H27.287L27.288,37.502z M27.287,54.177h18.61v4.083c-0.304-0.054-1.156-0.178-2.092-0.069c-0.553,0.051-1.069,0.104-1.551,0.155
			c-0.832,0.09-1.546,0.166-2.163,0.18c-0.785,0.02-1.409,0.02-1.925,0.02c-0.371,0-0.688,0-0.965,0.006l-0.75,0.018v3.941h-1.838
			v2.143h1.838v3.941h-1.838v2.137h1.838v4.383l0.724,0.039c0.043,0.004,1.041,0.055,2.333,0.029
			c1.304-0.029,2.22-0.115,3.029-0.188c0.833-0.074,1.554-0.141,2.537-0.141c0.386-0.004,0.515,0.115,0.724,0.379
			c0.027,0.035,0.066,0.074,0.1,0.113v10.783c-4.514-2.221-18.611-10.133-18.611-22.322L27.287,54.177z"/>
		<path fill="#FFFFFF" d="M43.626,38.967H32.705v0.765c-0.004,2.386-0.007,6.419,0.009,6.604c0.051,0.827,0.599,1.575,1.669,2.289
			c1.319,0.884,3.285,2.035,3.367,2.084l0.375,0.22l0.377-0.208c0.09-0.049,2.211-1.205,3.536-2.096
			c1.55-1.033,1.576-1.975,1.587-2.289c0.013-0.17,0.009-3.685,0.002-6.604V38.967z M34.24,40.499h7.854
			c0,0.639,0.001,1.323,0.001,1.989h-7.857C34.239,41.822,34.24,41.138,34.24,40.499z M42.091,46.292
			c-0.01,0.382-0.5,0.786-0.906,1.056c-0.942,0.634-2.361,1.439-3.034,1.816c-0.641-0.384-1.969-1.183-2.912-1.817
			c-0.614-0.407-0.978-0.813-0.998-1.112c-0.003-0.111-0.004-1.022-0.004-2.211h7.859C42.097,45.22,42.095,46.147,42.091,46.292z"/>
		<path fill="#FFFFFF" d="M62.212,38.642H51.046v0.767c-0.002,2.998-0.002,6.602,0.008,6.788c0.062,0.832,0.62,1.597,1.71,2.322
			c1.349,0.906,3.362,2.087,3.448,2.138l0.374,0.219l0.38-0.21c0.091-0.045,2.269-1.229,3.629-2.146
			c1.589-1.059,1.611-2.021,1.617-2.339c0.012-0.17,0.008-3.777,0.001-6.772L62.212,38.642z M60.677,46.147
			c-0.009,0.396-0.512,0.813-0.934,1.1c-0.974,0.648-2.444,1.479-3.129,1.863c-0.653-0.388-2.022-1.215-2.994-1.863
			c-0.299-0.201-1-0.717-1.033-1.166c-0.001-0.041-0.002-0.184-0.003-0.402l3.87-2.795l4.229,2.818
			C60.681,45.937,60.68,46.094,60.677,46.147z M56.419,41.013l-3.84,2.774c-0.001-1.103-0.001-2.433,0-3.61h8.098
			c0.004,1.2,0.008,2.562,0.008,3.684L56.419,41.013z"/>
		<path fill="#FFFFFF" d="M49.641,62.955l0.73,0.074c0.497,0.059,0.926,0.1,1.299,0.107l2.258,0.066l0.035-1.539l-2.255-0.062
			c-0.338-0.006-0.724-0.047-1.173-0.096L49.79,61.43c-0.2-0.021-0.391-0.025-0.566-0.018l0.067,1.531
			C49.396,62.938,49.513,62.943,49.641,62.955z"/>
		<path fill="#FFFFFF" d="M51.72,65.857c-0.321-0.01-0.691-0.051-1.112-0.096c-0.254-0.029-0.523-0.057-0.798-0.082
			c-0.196-0.021-0.38-0.023-0.552-0.021l0.025,1.537c0.108-0.004,0.231,0,0.374,0.014c0.283,0.025,0.544,0.053,0.79,0.08
			c0.47,0.049,0.881,0.092,1.24,0.102c0.47,0.006,1.157,0.027,1.667,0.037l0.589,0.018l0.036-1.531l-0.588-0.02
			C52.88,65.883,52.189,65.863,51.72,65.857z"/>
		<path fill="#FFFFFF" d="M51.721,70.104c-0.328-0.01-0.701-0.049-1.132-0.098c-0.251-0.027-0.513-0.055-0.777-0.08
			c-0.204-0.021-0.391-0.027-0.565-0.021l0.046,1.533c0.105,0,0.223,0,0.362,0.016c0.271,0.025,0.529,0.057,0.766,0.076
			c0.479,0.055,0.896,0.098,1.261,0.107l0.636,0.016c0.65,0.018,1.373,0.035,1.625,0.041l0.031-1.537
			c-0.253-0.006-0.973-0.02-1.613-0.039L51.721,70.104z"/>
		<path fill="#FFFFFF" d="M42.016,63.119c0.375-0.006,0.803-0.053,1.3-0.107c0.229-0.023,0.474-0.049,0.734-0.078
			c0.12-0.008,0.241-0.016,0.348-0.012l0.024-1.537c-0.158,0-0.334,0.008-0.514,0.023c-0.271,0.023-0.524,0.053-0.758,0.08
			c-0.445,0.045-0.826,0.092-1.168,0.096l-2.255,0.057l0.036,1.539L42.016,63.119z"/>
		<path fill="#FFFFFF" d="M43.163,65.732c-0.445,0.049-0.832,0.092-1.169,0.1l-2.256,0.059l0.036,1.537l2.255-0.059
			c0.377-0.01,0.805-0.059,1.3-0.109l0.721-0.076c0.116-0.008,0.23-0.014,0.335-0.01l0.07-1.533c-0.159-0.008-0.343,0-0.539,0.016
			L43.163,65.732z"/>
		<path fill="#FFFFFF" d="M43.165,69.979c-0.447,0.049-0.832,0.094-1.245,0.1c-0.714,0.02-1.845,0.055-2.178,0.062l0.028,1.535
			c0.335-0.01,1.475-0.041,2.261-0.061c0.374-0.01,0.803-0.059,1.3-0.111l0.746-0.074c0.113-0.014,0.227-0.016,0.331-0.014
			l0.023-1.531c-0.163-0.006-0.342,0-0.512,0.016L43.165,69.979z"/>
		<path fill="#FFFFFF" d="M7.925,58.244c1.919,0,3.095-1.228,3.238-3.36c0.021-0.42-0.01-0.883-0.114-1.453l-0.036-0.188
			l-1.584-0.015l0.148,0.325c0.114,0.254,0.182,0.79,0.155,1.238C9.66,55.9,8.825,56.58,7.65,56.499
			c-1.196-0.075-1.956-0.852-1.892-1.934c0.023-0.352,0.084-0.741,0.375-1.175l0.198-0.307l-1.563-0.229l-0.073,0.156
			c-0.198,0.423-0.333,0.963-0.362,1.438c-0.137,2.23,1.093,3.647,3.297,3.786C7.729,58.241,7.828,58.244,7.925,58.244z"/>
		<path fill="#FFFFFF" d="M8.176,50.711c0.424,0.118,0.839,0.181,1.229,0.181c1.457,0,2.535-0.851,2.958-2.334
			c0.251-0.886,0.18-1.725-0.208-2.418c-0.424-0.769-1.194-1.318-2.22-1.608c-0.41-0.117-0.808-0.175-1.185-0.175
			c-1.467,0-2.548,0.851-2.967,2.332C5.239,48.594,6.158,50.134,8.176,50.711z M7.161,47.078c0.231-0.827,0.934-1.001,1.484-1.001
			c0.259,0,0.541,0.042,0.818,0.119c0.671,0.193,1.194,0.543,1.43,0.966c0.166,0.298,0.196,0.633,0.093,1.004
			c-0.238,0.829-0.928,1.003-1.467,1.003c-0.273,0-0.565-0.045-0.873-0.131C7.775,48.789,6.861,48.128,7.161,47.078z"/>
		<path fill="#FFFFFF" d="M14.786,42.099l-2.26-1.209l0.073-0.14c0.212-0.404,0.376-0.369,0.726-0.327l2.206,0.281l0.871-1.645
			l-2.931-0.306c-0.195-0.015-0.409-0.008-0.573,0.031c0.024-0.624-0.299-1.211-0.893-1.526c-0.332-0.176-0.651-0.265-0.949-0.265
			c-1.071,0-1.64,1.08-2.143,2.034l-0.767,1.439l5.852,3.117L14.786,42.099z M11.342,40.07l-0.085,0.149l-1.061-0.567l0.08-0.148
			c0.268-0.494,0.555-0.903,1.008-0.664c0.161,0.088,0.255,0.188,0.295,0.313C11.662,39.422,11.48,39.805,11.342,40.07z"/>
		<polygon fill="#FFFFFF" points="18.442,36.333 15.436,33.84 19.701,34.811 20.889,33.379 15.787,29.145 14.749,30.402 
			17.755,32.896 13.496,31.912 12.301,33.354 17.403,37.584 		"/>
		<polygon fill="#FFFFFF" points="25.816,29.167 24.914,28.054 23.063,29.561 22.259,28.571 23.948,27.202 23.036,26.092 
			21.355,27.462 20.688,26.639 22.524,25.146 21.62,24.033 18.481,26.59 22.663,31.732 		"/>
		<polygon fill="#FFFFFF" points="31.319,25.882 30.612,24.628 28.559,25.784 26.01,21.258 24.542,22.088 27.79,27.86 		"/>
		<polygon fill="#FFFFFF" points="36.885,23.75 36.393,22.402 34.176,23.206 32.408,18.323 30.826,18.897 33.079,25.126 		"/>
		<path fill="#FFFFFF" d="M43.557,22.652c0.132,0,0.268-0.008,0.405-0.021c0.917-0.078,1.591-0.365,2.008-0.854
			c0.392-0.469,0.557-1.117,0.488-1.924l-0.343-4.159l-1.676,0.136l0.313,3.783c0.111,1.335-0.425,1.55-0.903,1.595
			c-0.042,0-0.083,0.005-0.122,0.005c-0.393,0-0.93-0.148-1.037-1.43l-0.31-3.78l-1.673,0.139l0.343,4.16
			C41.178,21.838,42.041,22.652,43.557,22.652z"/>
		<polygon fill="#FFFFFF" points="51.145,18.695 52.577,22.835 54.421,23.084 55.312,16.514 53.699,16.296 53.176,20.171 
			51.746,16.033 49.898,15.782 49.01,22.354 50.623,22.572 		"/>
		<polygon fill="#FFFFFF" points="60.287,17.934 58.686,17.426 56.699,23.755 58.303,24.256 		"/>
		<polygon fill="#FFFFFF" points="68.596,21.657 67.082,20.896 63.884,24.149 64.594,19.643 62.992,18.825 62.007,25.76 
			63.639,26.581 		"/>
		<polygon fill="#FFFFFF" points="70.255,31.134 71.139,30.01 69.254,28.537 70.04,27.531 71.747,28.871 72.629,27.742 
			70.918,26.402 71.572,25.569 73.439,27.027 74.324,25.903 71.133,23.405 67.052,28.628 		"/>
		<path fill="#FFFFFF" d="M72.998,33.914l1.924-1.688l0.108,0.124c0.247,0.282,0.255,0.402,0.051,0.796l-1.042,1.962l1.229,1.397
			l1.326-2.642c0.045-0.096,0.141-0.302,0.171-0.539c0.568,0.249,1.251,0.137,1.746-0.295c1.426-1.255,0.285-2.557-0.547-3.506
			l-1.089-1.241l-4.986,4.373L72.998,33.914z M76.899,30.491l0.114,0.13c0.237,0.274,0.482,0.582,0.46,0.837
			c-0.003,0.116-0.067,0.226-0.194,0.338c-0.125,0.107-0.245,0.163-0.367,0.163c-0.282,0-0.577-0.291-0.8-0.545l-0.112-0.129
			L76.899,30.491z"/>
		<path fill="#FFFFFF" d="M79.175,39.218c-0.325,0.192-0.732-0.133-0.918-0.444c-0.205-0.353-0.325-0.793-0.338-1.27l-0.014-0.347
			l-1.516,0.701l0.106,0.339c0.15,0.513,0.243,0.822,0.563,1.366c0.54,0.912,1.257,1.415,2.019,1.415
			c0.354,0,0.711-0.105,1.065-0.319c1.175-0.692,0.989-1.795,0.857-2.6c-0.093-0.569-0.138-0.923,0.099-1.062
			c0.118-0.067,0.228-0.101,0.333-0.101c0.304,0,0.505,0.288,0.58,0.41c0.192,0.326,0.318,0.713,0.372,1.111l0.041,0.309l1.38-0.625
			l-0.038-0.182c-0.097-0.47-0.286-0.939-0.577-1.435c-0.722-1.214-1.909-1.606-3.016-0.951c-1.134,0.669-0.971,1.747-0.848,2.53
			C79.424,38.687,79.466,39.049,79.175,39.218z"/>
		
			<rect x="79.371" y="42.349" transform="matrix(-0.9259 0.3777 -0.3777 -0.9259 175.5594 51.9462)" fill="#FFFFFF" width="6.629" height="1.682"/>
		<polygon fill="#FFFFFF" points="86.095,47.397 81.049,48.637 81.45,50.274 86.497,49.028 86.918,50.725 88.305,50.383 
			87.069,45.363 85.674,45.704 		"/>
		<polygon fill="#FFFFFF" points="82.215,55.431 82.308,57.109 84.91,56.964 89.056,59.092 88.958,57.266 86.539,56.066 
			88.81,54.64 88.702,52.669 84.816,55.286 		"/>
		<polygon fill="#FFFFFF" points="9.216,70.604 10.589,70.205 10.014,68.209 11.027,67.914 11.637,70.018 13.013,69.615 
			11.938,65.891 5.563,67.729 6.039,69.352 8.638,68.6 		"/>
		<path fill="#FFFFFF" d="M15.12,76.1c0.258-0.766,0.177-1.615-0.244-2.459c-0.585-1.197-1.558-1.854-2.725-1.854
			c-0.562,0-1.153,0.148-1.754,0.445c-0.969,0.475-1.627,1.156-1.901,1.967c-0.261,0.758-0.173,1.609,0.246,2.457
			c0.584,1.188,1.559,1.84,2.753,1.84c0.569,0,1.164-0.15,1.759-0.443C14.195,77.588,14.84,76.914,15.12,76.1z M12.483,76.484
			c-0.421,0.207-0.838,0.318-1.208,0.318c-0.576,0-0.993-0.264-1.25-0.779c-0.172-0.352-0.204-0.695-0.092-1.02
			c0.155-0.457,0.605-0.895,1.235-1.203c0.39-0.191,0.793-0.295,1.16-0.295c0.588,0,1.017,0.258,1.263,0.768
			c0.171,0.348,0.199,0.691,0.086,1.023C13.518,75.758,13.082,76.195,12.483,76.484z"/>
		<path fill="#FFFFFF" d="M19.688,81.234l-2.969,2.363c-0.8,0.639-1.372,0.697-1.833,0.115c-0.189-0.238-0.268-0.467-0.239-0.695
			c0.039-0.33,0.299-0.684,0.776-1.064l2.965-2.357l-1.056-1.324l-3.265,2.592c-0.679,0.541-1.042,1.148-1.07,1.805
			c-0.03,0.607,0.23,1.264,0.772,1.939c0.643,0.811,1.333,1.217,2.058,1.217c0.537,0,1.09-0.223,1.648-0.666l3.268-2.596
			L19.688,81.234z"/>
		<polygon fill="#FFFFFF" points="25.325,86.629 22.847,89.654 23.791,85.369 22.326,84.176 18.125,89.307 19.398,90.338 
			21.878,87.309 20.945,91.609 22.392,92.797 26.594,87.666 		"/>
		<path fill="#FFFFFF" d="M30.221,89.766l-1.708-0.859l-2.98,5.928l1.708,0.854c0.821,0.414,1.539,0.611,2.195,0.611
			c1.148,0,2.048-0.627,2.674-1.871C33.097,92.463,32.463,90.895,30.221,89.766z M30.547,93.639
			c-0.342,0.686-0.937,1.074-1.629,1.074c-0.282,0-0.564-0.068-0.817-0.197l-0.41-0.199l1.693-3.371l0.407,0.207
			c0.426,0.215,0.755,0.588,0.901,1.031C30.841,92.645,30.792,93.148,30.547,93.639z"/>
		<polygon fill="#FFFFFF" points="33.878,98.514 37.845,99.568 38.214,98.189 35.882,97.562 36.207,96.336 38.326,96.9 
			38.699,95.52 36.578,94.953 36.848,93.928 39.161,94.543 39.536,93.162 35.584,92.104 		"/>
		<path fill="#FFFFFF" d="M43.657,93.676l-1.914-0.111l-0.371,6.621l1.906,0.109c0.147,0.01,0.292,0.012,0.436,0.012
			c2.222,0,3.41-1.045,3.527-3.107c0.055-1.021-0.176-1.832-0.697-2.416C45.945,94.113,44.999,93.75,43.657,93.676z M43.598,98.877
			l-0.456-0.023l0.217-3.756l0.45,0.023c0.892,0.047,1.759,0.746,1.691,1.975C45.425,98.373,44.462,98.924,43.598,98.877z"/>
		<path fill="#FFFFFF" d="M53.078,93.176l-1.127,7.018l1.735-0.375l0.229-1.486l2.128-0.467l0.81,1.279l1.817-0.396l-3.924-5.93
			L53.078,93.176z M54.122,96.818l0.212-1.73l0.905,1.492L54.122,96.818z"/>
		<polygon fill="#FFFFFF" points="59.377,96.6 59.952,98.193 61.546,97.619 60.966,96.021 		"/>
		<path fill="#FFFFFF" d="M62.606,89.893l-1.683,0.906l3.163,5.832l1.678-0.912c2.204-1.189,2.791-2.779,1.743-4.711
			C66.471,89.086,64.808,88.693,62.606,89.893z M65.292,94.348l-0.398,0.217l-1.795-3.307l0.402-0.217
			c0.265-0.146,0.566-0.227,0.868-0.227c0.668,0,1.255,0.377,1.605,1.02C66.56,92.918,66.075,93.922,65.292,94.348z"/>
		<polygon fill="#FFFFFF" points="68.771,91.982 69.745,93.377 71.137,92.408 70.168,91.012 		"/>
		<polygon fill="#FFFFFF" points="71.419,83.494 71.125,86.096 72.581,86.295 72.7,85.211 75.864,88.42 77.072,87.229 
			72.416,82.508 		"/>
		<path fill="#FFFFFF" d="M80.402,80.023c-0.553-0.406-1.173-0.473-1.861-0.207c0.011-0.65-0.328-1.211-0.732-1.512
			c-0.826-0.605-1.928-0.264-2.736,0.828c-0.802,1.082-0.728,2.178,0.192,2.863c0.458,0.338,1.056,0.416,1.63,0.211
			c-0.041,0.723,0.192,1.264,0.704,1.641c0.373,0.275,0.76,0.414,1.157,0.414c0.665,0,1.331-0.408,1.883-1.146
			c0.461-0.631,0.667-1.266,0.58-1.834C81.144,80.791,80.871,80.373,80.402,80.023z M77.25,80.508
			c-0.237,0.148-0.482,0.275-0.701,0.275c-0.105,0-0.195-0.025-0.277-0.086c-0.327-0.244-0.165-0.646-0.018-0.84
			c0.111-0.154,0.249-0.23,0.403-0.23c0.111,0,0.234,0.043,0.352,0.129C77.208,79.908,77.295,80.252,77.25,80.508z M79.526,82.295
			c-0.225,0.303-0.647,0.393-0.935,0.18c-0.262-0.195-0.347-0.463-0.277-0.916c0.476-0.312,0.824-0.363,1.122-0.139
			c0.139,0.102,0.216,0.229,0.241,0.377C79.7,81.953,79.646,82.133,79.526,82.295z"/>
		<path fill="#FFFFFF" d="M83.409,73.541c-1.149-0.574-2.241-0.232-2.794,0.871c-0.156,0.312-0.219,0.613-0.189,0.912
			c-0.412-0.34-0.785-0.865-0.461-1.514c0.163-0.33,0.38-0.549,0.644-0.781l0.224-0.191l-1.218-0.875l-0.138,0.135
			c-0.339,0.33-0.607,0.699-0.816,1.119c-0.327,0.66-0.39,1.299-0.183,1.916c0.356,1.07,1.449,1.803,2.297,2.223
			c0.74,0.375,1.372,0.557,1.925,0.557c0.84,0,1.473-0.42,1.888-1.244C85.227,75.383,84.796,74.242,83.409,73.541z M83.348,76.051
			c-0.103,0.217-0.271,0.324-0.508,0.324c-0.16,0-0.348-0.051-0.541-0.15c-0.326-0.162-0.547-0.365-0.613-0.57
			c-0.04-0.123-0.027-0.244,0.038-0.381c0.101-0.197,0.261-0.293,0.499-0.293c0.18,0,0.388,0.055,0.604,0.162
			c0.283,0.145,0.489,0.342,0.555,0.545C83.423,75.809,83.409,75.93,83.348,76.051z"/>
		<path fill="#FFFFFF" d="M85.755,66.85c-1.324-0.398-2.393,0.199-2.767,1.477c-0.038,0.117-0.064,0.227-0.078,0.322l-0.777-0.246
			l0.676-2.281l-1.323-0.389l-1.135,3.826l3.675,1.168l-0.001-0.32c-0.003-0.357,0.043-0.693,0.146-1.037
			c0.094-0.314,0.433-1.098,1.143-0.889c0.753,0.229,0.58,1.039,0.511,1.283c-0.133,0.449-0.397,0.771-0.616,1.037l-0.211,0.26
			l1.546,0.51l0.094-0.168c0.253-0.447,0.478-0.965,0.598-1.375c0.232-0.775,0.201-1.488-0.087-2.062
			C86.875,67.428,86.383,67.035,85.755,66.85z"/>
		<path fill="#FFFFFF" d="M13.285,57.998c0,18.424,14.982,33.412,33.403,33.412c18.422,0,33.406-14.988,33.406-33.412
			c0-18.42-14.984-33.405-33.406-33.405C28.267,24.593,13.285,39.578,13.285,57.998z M46.688,25.75
			c17.783,0,32.252,14.47,32.252,32.248c0,17.783-14.469,32.252-32.252,32.252c-17.784,0-32.25-14.469-32.25-32.252
			C14.438,40.22,28.904,25.75,46.688,25.75z"/>
		<path fill="#FFFFFF" d="M46.688,12.311C21.495,12.311,1,32.807,1,58.002c0,25.188,20.495,45.688,45.688,45.688
			c25.195,0,45.689-20.5,45.689-45.688C92.377,32.807,71.883,12.311,46.688,12.311z M46.688,102.498
			c-24.535,0-44.494-19.959-44.494-44.496c0-24.534,19.959-44.497,44.494-44.497c24.536,0,44.497,19.963,44.497,44.497
			C91.185,82.539,71.224,102.498,46.688,102.498z"/>
	</g>
</g>
</svg>
