<?xml version="1.0" encoding="utf-8"?>
<!-- Generator: Adobe Illustrator 16.0.0, SVG Export Plug-In . SVG Version: 6.00 Build 0)  -->
<!DOCTYPE svg PUBLIC "-//W3C//DTD SVG 1.1//EN" "http://www.w3.org/Graphics/SVG/1.1/DTD/svg11.dtd">
<svg version="1.1" xmlns="http://www.w3.org/2000/svg" xmlns:xlink="http://www.w3.org/1999/xlink" x="0px" y="0px" width="399px"
	 height="115px" viewBox="0 0 399 115" enable-background="new 0 0 399 115" xml:space="preserve">
<g id="Cornell_University_and_logo">
	<g>
		<path fill="#FFFFFF" d="M149.22559,49.66504c-1.85449,1.11914-5.01855,1.72559-6.96826,1.72559
			c-7.67334,0-12.85205-4.38086-12.85205-11.63672c0-3.6748,1.43848-6.58594,3.8999-8.59912
			c2.39746-1.98096,5.65771-3.06934,9.23877-3.06934c2.97363,0,5.85059,0.76904,7.38428,1.31201
			c-0.31934,1.50195-0.60645,3.19531-0.60645,4.85889h-0.99121v-2.30273c0-0.89453-1.27881-1.43848-2.74902-1.98145
			c-1.02344-0.35107-2.39795-0.54297-3.58105-0.54297c-6.00977,0-9.17529,4.37939-9.17529,9.81348
			c0,6.32959,4.18799,10.42236,10.51807,10.42236c2.30176,0,5.01953-0.83008,6.49023-1.91699l0.2876,0.31934L149.22559,49.66504z"/>
		<path fill="#FFFFFF" d="M151.27148,43.91113c0-4.79639,3.00537-8.15186,8.15137-8.15186c4.09277,0,7.25732,3.1958,7.25732,7.2876
			c0,4.88965-3.48438,8.34375-8.37549,8.34375C154.27686,51.51953,151.27148,48.32324,151.27148,43.91113z M154.24463,42.53613
			c0,3.35547,1.21533,7.80078,5.30664,7.80078c2.90918,0,4.15674-2.91113,4.15674-5.88281
			c0-4.12354-1.95068-7.63965-5.02002-7.63965C155.29932,36.81445,154.24463,39.5625,154.24463,42.53613z"/>
		<path fill="#FFFFFF" d="M169.90918,40.29736c0-1.02295-0.06445-1.72607-0.22412-1.98145
			c-0.19189-0.25586-0.51221-0.35156-1.18311-0.35156h-1.18213v-0.89453c1.88623-0.19189,3.80371-0.79932,4.98779-1.31055
			l0.28662,0.12793v3.22754h0.06445l1.72656-2.04492c0.7666-0.92676,1.85303-1.31055,2.68408-1.31055
			c0.54395,0,1.21582,0.16016,1.47119,0.35205l-0.28711,3.83447h-0.67188c-0.35156-0.76709-1.02344-1.47021-2.17334-1.47021
			c-1.40771,0-2.81396,1.47021-2.81396,3.51758v5.49609c0,0.86621,0.03271,1.50488,0.16064,1.85742
			c0.12695,0.28613,0.60693,0.41504,1.34229,0.44629l1.66211,0.09668v0.95898c-1.66211-0.03223-2.94092-0.09668-4.5083-0.09668
			c-1.56592,0-2.84473,0.06445-3.99512,0.09668v-0.95898l1.46973-0.09668c0.54443-0.03125,0.896-0.16016,1.02344-0.44629
			c0.12793-0.35254,0.16016-0.99121,0.16016-1.85742V40.29736z"/>
		<path fill="#FFFFFF" d="M184.87012,47.48926c0,0.86621,0.03223,1.50488,0.15967,1.85742
			c0.12793,0.28613,0.47949,0.41504,1.02344,0.44629l1.43799,0.09668v0.95898c-1.11816-0.03223-2.39746-0.09668-3.96387-0.09668
			s-2.84521,0.06445-3.96387,0.09668v-0.95898l1.43848-0.09668c0.54297-0.03125,0.89453-0.16016,1.02344-0.44629
			c0.12646-0.35254,0.15918-0.99121,0.15918-1.85742v-7.19189c0-1.02295-0.06396-1.72607-0.22363-1.98145
			c-0.19189-0.25586-0.51172-0.35156-1.18359-0.35156h-1.18164v-0.89453c1.88574-0.19189,3.80371-0.79932,4.98633-1.31055
			l0.28809,0.12793v2.71631h0.06348l2.36572-2.04492c0.70361-0.60791,1.31104-0.79932,2.58984-0.79932
			c3.74072,0,5.27441,2.07715,5.27441,5.56299v6.16699c0,0.86621,0.03174,1.50488,0.15967,1.85742
			c0.12842,0.28613,0.47998,0.41504,1.02344,0.44629l1.31055,0.09668v0.95898c-0.79932-0.03223-1.72607-0.09668-2.62109-0.09668
			c-0.89551,0-1.82324,0.06445-2.55762,0.09668v-9.0791c0-2.65479-1.50244-4.06104-3.67627-4.06104
			c-1.9502,0-3.93213,1.69385-3.93213,3.00439V47.48926z"/>
		<path fill="#FFFFFF" d="M211.81934,41.60938c0,0.44727,0,0.89355-0.06445,1.3418
			c-1.91797,0.32031-3.86719,0.44727-5.78613,0.44727h-4.66699c0,3.73926,1.85352,6.29883,5.78613,6.29883
			c1.5332,0,2.74902-0.76758,3.96387-1.50195l0.41504,0.31934l-0.63965,1.08594c-0.22363,0.38477-2.93945,1.79004-5.11426,1.79004
			c-4.82715,0-7.38428-3.06738-7.38428-7.38379c0-3.10059,0.83057-4.95605,2.30127-6.10596
			c0.60742-0.47949,1.2793-0.95947,1.9834-1.27881c1.11719-0.51074,2.04492-0.86279,3.13184-0.86279
			C209.22949,35.75928,211.81934,37.99658,211.81934,41.60938z M201.36523,42.12012
			c2.62109,0.28906,5.30664,0.22461,7.60938,0.09668c0-2.97412-1.08691-5.40234-3.38965-5.40234
			C203.12305,36.81445,201.20508,38.63525,201.36523,42.12012z"/>
		<path fill="#FFFFFF" d="M215.01562,30.93164c0-0.73535-0.0957-1.31055-0.79883-1.31055h-1.79102v-0.89502
			c1.69531-0.25537,3.38965-0.54297,4.98828-1.18359l0.28613,0.25586v19.69092c0,0.86621,0.03223,1.50488,0.16113,1.85742
			c0.12793,0.28613,0.47852,0.41504,1.02246,0.44629l1.47168,0.09668v0.95898c-1.15234-0.03223-2.43066-0.09668-3.99707-0.09668
			c-1.56738,0-2.8457,0.06445-3.99707,0.09668v-0.95898l1.47266-0.09668c0.54199-0.03125,0.89453-0.16016,1.02051-0.44629
			c0.12891-0.35254,0.16113-0.99121,0.16113-1.85742V30.93164z"/>
		<path fill="#FFFFFF" d="M224.47754,30.93164c0-0.73535-0.0957-1.31055-0.79883-1.31055h-1.79102v-0.89502
			c1.69531-0.25537,3.38965-0.54297,4.98828-1.18359l0.28711,0.25586v19.69092c0,0.86621,0.03125,1.50488,0.16016,1.85742
			c0.12793,0.28613,0.47949,0.41504,1.02246,0.44629l1.46973,0.09668v0.95898c-1.14941-0.03223-2.42871-0.09668-3.99512-0.09668
			c-1.56543,0-2.8457,0.06445-3.99512,0.09668v-0.95898l1.46973-0.09668c0.54297-0.03125,0.89551-0.16016,1.02246-0.44629
			c0.12793-0.35254,0.16016-0.99121,0.16016-1.85742V30.93164z"/>
		<path fill="#FFFFFF" d="M239.75879,32.56104c0-1.21436-0.06445-2.0459-0.28809-2.39697
			c-0.19141-0.31885-0.57617-0.44727-1.3418-0.479l-1.53516-0.0957v-0.95898c1.66113,0.06396,3.16504,0.0957,4.72949,0.0957
			c1.47266,0,2.97461-0.03174,4.63672-0.0957v0.95898l-1.53418,0.0957c-0.76758,0.03174-1.15039,0.16016-1.34375,0.479
			c-0.22266,0.35107-0.28613,1.18262-0.28613,2.39697v10.99854c0,4.53711,2.36426,5.85059,6.58496,5.85059
			c3.45215,0,6.58496-1.31348,6.58496-6.61816V32.56104c0-1.21436-0.06348-2.0459-0.28809-2.39697
			c-0.19141-0.31885-0.57422-0.41553-1.34277-0.479l-1.40527-0.0957l-0.00098-0.95898
			c1.27832,0.03174,2.55762,0.0957,3.70898,0.0957c1.27832,0,2.42871-0.06396,3.83691-0.0957v0.95898l-1.4082,0.0957
			c-0.7666,0.06348-1.15039,0.16016-1.3418,0.479c-0.22461,0.35107-0.28906,1.18262-0.28906,2.39697v9.24072
			c0,6.84082-2.58789,9.58887-9.04688,9.58887c-5.43359,0-8.62988-1.62891-8.62988-7.47949V32.56104z"/>
		<path fill="#FFFFFF" d="M264.66309,47.48926c0,0.86621,0.03125,1.50488,0.15918,1.85742
			c0.12695,0.28613,0.47949,0.41504,1.02246,0.44629l1.43848,0.09668v0.95898c-1.11914-0.03223-2.39746-0.09668-3.96289-0.09668
			c-1.56738,0-2.8457,0.06445-3.96484,0.09668v-0.95898l1.4375-0.09668c0.54395-0.03125,0.89648-0.16016,1.02344-0.44629
			c0.12793-0.35254,0.16016-0.99121,0.16016-1.85742v-7.19189c0-1.02295-0.06445-1.72607-0.22363-1.98145
			c-0.19141-0.25586-0.51074-0.35156-1.18262-0.35156h-1.18262v-0.89453c1.88672-0.19189,3.80371-0.79932,4.98633-1.31055
			l0.28906,0.12793v2.71631h0.0625l2.36719-2.04492c0.70117-0.60791,1.30957-0.79932,2.58789-0.79932
			c3.74023,0,5.27539,2.07715,5.27539,5.56299v6.16699c0,0.86621,0.03223,1.50488,0.15918,1.85742
			c0.12793,0.28613,0.48047,0.41504,1.02441,0.44629l1.30957,0.09668v0.95898c-0.80078-0.03223-1.72656-0.09668-2.62109-0.09668
			s-1.82227,0.06445-2.55762,0.09668v-9.0791c0-2.65479-1.50195-4.06104-3.67676-4.06104c-1.9502,0-3.93066,1.69385-3.93066,3.00439
			V47.48926z"/>
		<path fill="#FFFFFF" d="M284.41797,47.48926c0,0.86621,0.03125,1.50488,0.16113,1.85742
			c0.12695,0.28613,0.47852,0.41504,1.02246,0.44629l1.46973,0.09668v0.95898c-1.15137-0.03223-2.42871-0.09668-3.99609-0.09668
			c-1.56641,0-2.84473,0.06445-3.99609,0.09668v-0.95898l1.4707-0.09668c0.54297-0.03125,0.89551-0.16016,1.02246-0.44629
			c0.12891-0.35254,0.16016-0.99121,0.16016-1.85742v-7.19189c0-1.02295-0.06348-1.72607-0.22363-1.98145
			c-0.19141-0.25586-0.51172-0.35156-1.18164-0.35156h-1.18359v-0.89453c1.88574-0.19189,3.80469-0.79932,4.98535-1.31055
			l0.28906,0.12793V47.48926z M284.70605,30.58008c0,0.92578-0.86328,1.75732-1.79004,1.75732
			c-0.92773,0-1.75879-0.83154-1.75879-1.75732c0-0.92725,0.83105-1.78955,1.75879-1.78955
			C283.84277,28.79053,284.70605,29.65283,284.70605,30.58008z"/>
		<path fill="#FFFFFF" d="M297.10938,47.48926c-0.54395,1.18555-0.86328,2.40039-1.31152,3.48633h-1.59766l-5.49902-12.88281
			c-0.19141-0.44824-0.38379-1.02295-0.99219-1.05518l-1.08594-0.06396V36.0791c1.24707,0.03223,2.49414,0.0957,3.74023,0.0957
			c1.24707,0,2.46191-0.06348,3.70898-0.0957v0.89453l-1.56543,0.06396c-0.83301,0.03223-1.05566,0.47949-0.5127,1.82178
			l3.80371,9.20801c0.67188-1.47266,1.375-2.97461,1.98242-4.47656l1.34277-3.38916c0.8623-2.20508,0.7998-3.13184-0.16016-3.16406
			l-1.31055-0.06396V36.0791c0.99121,0.03223,2.01367,0.0957,3.00488,0.0957c0.99023,0,2.01465-0.06348,3.00488-0.0957v0.89453
			l-0.99023,0.06396c-0.7998,0.06445-1.34277,1.18262-1.79004,2.14111L297.10938,47.48926z"/>
		<path fill="#FFFFFF" d="M316.89746,41.60938c0,0.44727,0,0.89355-0.06445,1.3418
			c-1.91797,0.32031-3.86816,0.44727-5.78516,0.44727h-4.66699c0,3.73926,1.85254,6.29883,5.78613,6.29883
			c1.5332,0,2.74805-0.76758,3.96387-1.50195l0.41504,0.31934l-0.63867,1.08594c-0.22461,0.38477-2.94238,1.79004-5.11621,1.79004
			c-4.82715,0-7.38477-3.06738-7.38477-7.38379c0-3.10059,0.83203-4.95605,2.30273-6.10596
			c0.60645-0.47949,1.27832-0.95947,1.98145-1.27881c1.11914-0.51074,2.0459-0.86279,3.13281-0.86279
			C314.30859,35.75928,316.89746,37.99658,316.89746,41.60938z M306.44238,42.12012
			c2.62305,0.28906,5.30957,0.22461,7.60938,0.09668c0-2.97412-1.08691-5.40234-3.3877-5.40234
			C308.20215,36.81445,306.2832,38.63525,306.44238,42.12012z"/>
		<path fill="#FFFFFF" d="M321.21289,40.29736c0-1.02295-0.06348-1.72607-0.22363-1.98145
			c-0.19238-0.25586-0.51172-0.35156-1.18262-0.35156h-1.18359v-0.89453c1.88672-0.19189,3.80469-0.79932,4.9873-1.31055
			l0.28809,0.12793v3.22754h0.06348l1.72754-2.04492c0.7666-0.92676,1.85352-1.31055,2.68359-1.31055
			c0.54395,0,1.21582,0.16016,1.4707,0.35205l-0.28809,3.83447h-0.6709c-0.35156-0.76709-1.02246-1.47021-2.17285-1.47021
			c-1.40723,0-2.81348,1.47021-2.81348,3.51758v5.49609c0,0.86621,0.03027,1.50488,0.16016,1.85742
			c0.12695,0.28613,0.60645,0.41504,1.34375,0.44629l1.66113,0.09668v0.95898c-1.66113-0.03223-2.94238-0.09668-4.50781-0.09668
			c-1.56641,0-2.84668,0.06445-3.99609,0.09668v-0.95898l1.4707-0.09668c0.54395-0.03125,0.89453-0.16016,1.02246-0.44629
			c0.12793-0.35254,0.16016-0.99121,0.16016-1.85742V40.29736z"/>
		<path fill="#FFFFFF" d="M332.14551,46.17969v1.30957c0,1.98438,2.27051,2.71973,4.12305,2.71973
			c2.01367,0,3.74316-1.18262,3.74316-2.91113c0-1.02344-0.5459-1.85352-1.53711-2.10938
			c-1.40625-0.35156-3.16406-0.7041-4.69727-1.27734c-1.53711-0.5752-2.71875-1.53418-2.71875-3.48584
			c0-3.45166,3.00586-4.66602,6.00977-4.66602c1.50293,0,2.87695,0.35205,4.12598,0.79932
			c-0.09766,1.1499-0.12988,2.33301-0.16016,3.61035h-0.89648v-0.73438c0-1.66162-1.88574-2.62012-3.70801-2.62012
			c-2.71582,0-3.13281,1.50146-3.13281,2.58789c0,1.375,1.05371,2.11133,3.4834,2.52734
			c3.80664,0.63867,5.5957,1.59668,5.5957,4.08984c0,3.51855-3.51562,5.37109-7.06543,5.37109
			c-1.5332,0-2.90918-0.22363-4.47656-0.7666c0.32031-1.40625,0.35059-2.94238,0.35059-4.44434H332.14551z"/>
		<path fill="#FFFFFF" d="M349.44141,47.48926c0,0.86621,0.03223,1.50488,0.16016,1.85742
			c0.12695,0.28613,0.47852,0.41504,1.02148,0.44629l1.4707,0.09668v0.95898c-1.15039-0.03223-2.42871-0.09668-3.99414-0.09668
			c-1.56934,0-2.84766,0.06445-3.99805,0.09668v-0.95898l1.46973-0.09668c0.54395-0.03125,0.89551-0.16016,1.02441-0.44629
			c0.12598-0.35254,0.1582-0.99121,0.1582-1.85742v-7.19189c0-1.02295-0.0625-1.72607-0.22363-1.98145
			c-0.19043-0.25586-0.50977-0.35156-1.18262-0.35156h-1.18164v-0.89453c1.88477-0.19189,3.80273-0.79932,4.98633-1.31055
			l0.28906,0.12793V47.48926z M349.72852,30.58008c0,0.92578-0.86426,1.75732-1.79102,1.75732s-1.75879-0.83154-1.75879-1.75732
			c0-0.92725,0.83203-1.78955,1.75879-1.78955S349.72852,29.65283,349.72852,30.58008z"/>
		<path fill="#FFFFFF" d="M352.79688,38.66748v-0.6709l2.49316-1.11865v-2.23877c0-0.83057-0.0332-1.6626-0.12891-2.52539
			c1.15234-0.35156,2.17383-0.86279,2.71973-1.21436l0.38281,0.35156c-0.19043,1.40625-0.35352,3.19678-0.35352,4.54053v1.21436
			l4.38086-0.19141l-0.28809,1.7251h-4.09277v8.37354c0,1.47461,0.41797,2.20898,1.75977,2.20898
			c0.83203,0,1.4375-0.35156,1.88574-0.60742l0.41504,0.54395l-1.53418,1.69336c-0.28711,0.31934-1.40625,0.38281-2.07715,0.38281
			c-1.69434,0-3.13379-0.79785-3.13379-3.38672v-9.2085L352.79688,38.66748z"/>
		<path fill="#FFFFFF" d="M376.45312,38.66748c0.47852-1.18262,0-1.53369-1.15039-1.62988l-0.83203-0.06396V36.0791
			c1.02344,0.03223,2.0127,0.0957,3.03613,0.0957c1.02441,0,2.0166-0.06348,3.03809-0.0957v0.89453l-0.89551,0.06396
			c-0.7666,0.06445-1.4707,1.05518-2.68555,3.86865l-6.48926,14.96191c-1.02344,2.33203-2.17383,3.93066-4.85742,3.93066
			c-0.54492,0-1.24902-0.25684-1.59961-0.48047l0.7666-2.39551h0.41699c0.38379,0.38379,1.18262,0.7666,1.62988,0.73438
			c1.85352-0.12891,2.87598-2.71973,3.4834-4.18945l0.73438-1.94824c-0.54199-1.50391-1.18164-3.07227-1.78906-4.54199
			l-3.4834-8.37402c-0.51172-1.21436-0.96094-1.50146-1.66309-1.56592l-0.5752-0.06396V36.0791
			c1.24609,0.03223,2.46289,0.0957,3.70801,0.0957c1.24707,0,2.46094-0.06348,3.70801-0.0957v0.89453l-1.21484,0.06396
			c-0.89453,0.03223-1.43848,0.35156-0.76758,2.07715l2.04492,5.36963c0.44922,1.21582,0.96289,2.36621,1.63281,3.5166
			L376.45312,38.66748z"/>
	</g>
	<g>
		<g>
			<path fill="#FFFFFF" d="M62.60156,104.07324c-25.19189,0-45.68701-20.49707-45.68701-45.69043
				c0-25.19238,20.49512-45.6875,45.68701-45.6875c25.19336,0,45.68994,20.49512,45.68994,45.6875
				C108.2915,83.57617,87.79492,104.07324,62.60156,104.07324z M62.60156,14.8291c-24.01514,0-43.55322,19.53809-43.55322,43.55371
				c0,24.0166,19.53809,43.55566,43.55322,43.55566c24.01709,0,43.55615-19.53906,43.55615-43.55566
				C106.15771,34.36719,86.61865,14.8291,62.60156,14.8291z"/>
		</g>
		<g>
			<path fill="#FFFFFF" d="M62.60156,92.7002c-18.9209,0-34.31445-15.39453-34.31445-34.31738
				c0-18.92139,15.39355-34.31494,34.31445-34.31494c18.92236,0,34.31689,15.39355,34.31689,34.31494
				C96.91846,77.30566,81.52393,92.7002,62.60156,92.7002z M62.60156,26.18799c-17.75195,0-32.19434,14.44238-32.19434,32.19482
				c0,17.75391,14.44238,32.19824,32.19434,32.19824c17.75342,0,32.19678-14.44434,32.19678-32.19824
				C94.79834,40.63037,80.35498,26.18799,62.60156,26.18799z"/>
		</g>
		<g>
			<path fill="#FFFFFF" d="M62.61572,90.42969l-0.42529-0.18262c-0.87402-0.375-21.41406-9.37598-21.41406-25.68555
				l0.00293-29.30029l43.61475-0.00439l0.00391,29.82227c0,15.6377-20.48682,24.7832-21.35889,25.16504L62.61572,90.42969z
				 M42.91309,37.39502l-0.00293,27.1665c0,13.67871,16.79102,22.16504,19.69775,23.53027
				c2.90186-1.38281,19.65625-9.94043,19.65625-23.0127l-0.00391-27.68848L42.91309,37.39502z"/>
		</g>
		<g>
			<path fill="#FFFFFF" d="M52.98096,52.41748l-0.52002-0.3042c-0.09424-0.05518-2.3252-1.36279-3.82178-2.36621
				c-1.26367-0.84473-1.91211-1.74072-1.98145-2.73779c-0.01514-0.20947-0.01465-4.19238-0.01123-7.5l0.00098-1.06592h12.76611
				l0.00244,1.06445c0.01074,4.81494,0.00977,7.33691-0.00342,7.49658c-0.02979,1.01758-0.646,1.91699-1.88281,2.74365
				c-1.50781,1.01123-3.91748,2.32568-4.01953,2.38135L52.98096,52.41748z M48.7793,40.57715
				c-0.00146,2.70508-0.00098,6.03906,0.00732,6.29053c0.01465,0.20508,0.29541,0.6084,1.04004,1.10596
				c1.01807,0.68262,2.43652,1.53955,3.19141,1.98926c0.79297-0.44287,2.30664-1.30566,3.32471-1.98828
				c0.2793-0.18652,0.92627-0.65918,0.9375-1.03906l0.00537-0.10596c0.00732-0.23242,0.00391-3.55566-0.00146-6.25244H48.7793z"/>
		</g>
		<g>
			<path fill="#FFFFFF" d="M72.70557,52.36572l-0.51953-0.3042c-0.09424-0.05518-2.32227-1.36133-3.81641-2.36426
				c-1.26416-0.84619-1.91357-1.74219-1.9834-2.7373c-0.01367-0.16455-0.01758-2.68701-0.01172-7.50244l0.00098-1.06543h12.76416
				l0.00244,1.06445c0.01074,4.81543,0.00977,7.33838-0.00342,7.49854c-0.02197,1.0083-0.63721,1.91064-1.87939,2.74268
				c-1.51123,1.01221-3.92285,2.32471-4.0249,2.38037L72.70557,52.36572z M68.50732,40.52588
				c-0.00244,2.69824-0.00195,6.02637,0.00732,6.28809c0.01514,0.20752,0.29688,0.61133,1.04346,1.11084
				c1.01611,0.68262,2.43164,1.5376,3.18555,1.98682c0.79346-0.44238,2.30859-1.3042,3.32812-1.98682
				c0.27832-0.18604,0.92627-0.66016,0.93506-1.03467l0.00488-0.10986c0.00732-0.23242,0.00391-3.55713-0.00146-6.25439H68.50732z"
				/>
		</g>
		<g>
			<rect x="40.94336" y="53.17139" fill="#FFFFFF" width="42.68799" height="2.1123"/>
		</g>
		<g>
			<path fill="#FFFFFF" d="M62.54639,79.1543c-0.72021,0-1.13037-0.50684-1.35059-0.7793
				c-0.24219-0.29883-0.36133-0.38379-0.75244-0.38965c-1.16113,0-2.01416,0.07715-2.99951,0.16602
				c-0.96484,0.08789-2.05908,0.1875-3.61475,0.22266c-1.54199,0.03516-2.73682-0.0293-2.78711-0.03223l-1.00732-0.05664
				l0.00244-19.99365l1.04297-0.02393c0.3208-0.00781,0.68896-0.00732,1.12207-0.00635
				c0.61279,0.00146,1.3667,0.00195,2.31396-0.02051c0.72559-0.0166,1.57275-0.10742,2.5542-0.21191
				c0.57568-0.06152,1.19434-0.12744,1.86084-0.18701c1.375-0.15527,2.62451,0.1001,2.67773,0.11084
				c0.38135,0.08936,0.7041,0.21191,0.97559,0.34863c0.26416-0.13428,0.58105-0.25439,0.95996-0.34326
				c0.07715-0.01562,1.32617-0.27295,2.72705-0.11328c0.64453,0.05664,1.26611,0.12305,1.84473,0.18457
				c0.97803,0.10449,1.82275,0.19482,2.54102,0.21143c0.94775,0.02295,1.70264,0.02344,2.31689,0.02051
				c0.43555,0.00049,0.80127-0.00098,1.12207,0.00635l1.04248,0.02393l0.00342,19.99365l-1.00781,0.05664
				c-0.05029,0.00195-1.24414,0.06738-2.78613,0.03223c-1.55518-0.03516-2.64893-0.13477-3.61426-0.22266
				c-1.00342-0.09082-1.86865-0.16699-3.06055-0.16602c-0.41699,0-0.53271,0.13281-0.78711,0.4248
				C63.64404,78.68848,63.23877,79.1543,62.54639,79.1543z M60.44287,75.85059c0.02246,0,0.04492,0,0.06738,0
				c1.05176,0.00195,1.67676,0.45898,2.05322,0.84766c0.39502-0.39258,1.03027-0.8457,2.10596-0.84766
				c1.31104,0.0166,2.24512,0.08398,3.25732,0.17578c0.97705,0.08887,1.9873,0.18066,3.4707,0.21484
				c0.61182,0.01367,1.16895,0.01074,1.60986,0.00293l-0.00244-15.84863c-0.12793,0.00391-0.2666,0-0.40967,0
				c-0.55371,0-1.20605-0.00293-1.98877-0.02148c-0.80615-0.01855-1.69141-0.11328-2.7168-0.22266
				c-0.56641-0.06055-1.17578-0.12598-1.83252-0.18359c-1.07812-0.12402-2.04492,0.07129-2.0542,0.07422
				c-0.55615,0.13086-0.72852,0.3584-0.73535,0.36816l-0.59863-0.35156l-0.68506,0.39551
				c0.00049,0.00098,0.00098,0.00195,0.00098,0.00195c-0.00537,0-0.23389-0.27832-0.83789-0.41992l0,0
				c-0.00293,0.00098-0.96191-0.18555-2.00146-0.07129c-0.67871,0.06055-1.28467,0.12598-1.84863,0.18555
				c-1.02881,0.11035-1.91699,0.20508-2.73047,0.22363c-0.96875,0.02246-1.73779,0.02051-2.36719,0.02148
				c-0.00928,0-0.01904,0-0.02832,0l-0.00244,15.84863c0.44287,0.00781,1.00146,0.01074,1.61133-0.00293
				c1.48389-0.03418,2.49414-0.12598,3.47119-0.21484C58.24512,75.93652,59.18555,75.85059,60.44287,75.85059z"/>
		</g>
		<g>
			<rect x="47.71777" y="42.61377" fill="#FFFFFF" width="10.55322" height="1.77539"/>
		</g>
		<g>
			<rect x="47.71777" y="42.43457" fill="#FFFFFF" width="10.55322" height="2.13379"/>
		</g>
		<g>
			<rect x="61.62842" y="53.54932" fill="#FFFFFF" width="1.77539" height="35.89697"/>
		</g>
		<g>
			<rect x="61.71631" y="53.54932" fill="#FFFFFF" width="1.59961" height="35.89697"/>
		</g>
		<g>
			<polygon fill="#FFFFFF" points="77.25195,46.4668 72.56396,43.34082 68.26318,46.44824 67.22314,45.00879 72.52393,41.17969 
				78.2373,44.99023 			"/>
		</g>
		<g>
			<polygon fill="#FFFFFF" points="77.30127,46.61621 72.71533,43.55908 68.51807,46.59326 67.26807,44.86377 72.6665,40.96143 
				78.48486,44.84082 			"/>
		</g>
		<g>
			<path fill="#FFFFFF" d="M71.00391,63.60645c-0.30322-0.00586-1.17236-0.03027-1.94678-0.05273l-0.7417-0.02051
				c-0.42725-0.00977-0.91846-0.06152-1.48633-0.12305c-0.28125-0.03027-0.58252-0.0625-0.90527-0.09277
				c-0.16992-0.01855-0.32764-0.02148-0.46826-0.01465l-0.0459-1.12109c0.19141-0.00977,0.40479-0.00488,0.62549,0.01953
				c0.32129,0.0293,0.62793,0.0625,0.91455,0.09375c0.53174,0.05664,0.9917,0.10742,1.39453,0.11719l0.74414,0.02051
				c0.77197,0.02148,1.6377,0.0459,1.93994,0.05273L71.00391,63.60645z"/>
		</g>
		<g>
			<path fill="#FFFFFF" d="M71.00537,67.02539l-2.68604-0.06738c-0.42236-0.00977-0.90283-0.05957-1.45605-0.11816
				c-0.29053-0.03125-0.60254-0.06445-0.93799-0.09473c-0.17627-0.01855-0.33496-0.02441-0.47607-0.01953l-0.0332-1.12109
				c0.19141-0.00977,0.40234,0,0.62207,0.02441c0.32959,0.0293,0.64746,0.06348,0.94385,0.09473
				c0.51807,0.05566,0.96777,0.10352,1.3623,0.11328l2.68262,0.06738L71.00537,67.02539z"/>
		</g>
		<g>
			<path fill="#FFFFFF" d="M71.00781,70.45117c-0.21924-0.00293-0.73291-0.0166-1.29346-0.0332l-1.396-0.03711
				c-0.41699-0.00781-0.89502-0.05762-1.44482-0.11621c-0.29346-0.03125-0.6084-0.06543-0.94775-0.0957
				c-0.17139-0.0166-0.33203-0.02148-0.47314-0.01758l-0.04004-1.12109c0.19092-0.00781,0.40088-0.00098,0.62012,0.02148
				c0.33887,0.03027,0.66016,0.06445,0.95996,0.09668c0.5127,0.05469,0.95801,0.10352,1.34863,0.11133l1.4043,0.03711
				c0.5542,0.01562,1.06201,0.0293,1.27881,0.0332L71.00781,70.45117z"/>
		</g>
		<g>
			<path fill="#FFFFFF" d="M71.00537,73.87598c-0.38818-0.00684-1.70312-0.04199-2.56104-0.06445l-0.12793-0.00391
				c-0.41846-0.00977-0.896-0.06055-1.4458-0.11816c-0.29297-0.03125-0.60693-0.06543-0.94531-0.0957
				c-0.17432-0.01953-0.33496-0.02441-0.47266-0.01953l-0.04004-1.12109c0.19189-0.00879,0.40527,0,0.62549,0.02441
				c0.33252,0.03027,0.65283,0.06348,0.95117,0.0957c0.51562,0.05469,0.96289,0.10352,1.35547,0.11328l0.12939,0.00293
				c0.85498,0.02246,2.16553,0.05762,2.55273,0.06543L71.00537,73.87598z"/>
		</g>
		<g>
			<path fill="#FFFFFF" d="M54.12061,63.57715l-0.02441-1.12109c0.39648-0.00879,1.75-0.04492,2.60303-0.06738
				c0.49658-0.00977,0.96484-0.06152,1.5083-0.12012c0.27734-0.03027,0.57373-0.0625,0.89111-0.0918
				c0.19531-0.02051,0.39453-0.03223,0.57178-0.02441l-0.01367,1.12109c-0.14404-0.00293-0.29248,0.00391-0.44775,0.01953
				c-0.31738,0.03027-0.6084,0.06152-0.88135,0.09082c-0.5752,0.0625-1.07178,0.11621-1.521,0.12402
				C55.87451,63.5332,54.51758,63.56934,54.12061,63.57715z"/>
		</g>
		<g>
			<path fill="#FFFFFF" d="M54.12061,67.00195l-0.02441-1.12109l2.68701-0.06934c0.40283-0.01074,0.86279-0.06152,1.39551-0.11914
				c0.28564-0.03027,0.5918-0.06348,0.91992-0.09473c0.21143-0.0166,0.40967-0.02344,0.58887-0.01562l-0.04785,1.12109
				c-0.13818-0.00586-0.29102,0.00098-0.4458,0.0127c-0.31299,0.0293-0.61328,0.06152-0.89404,0.09277
				c-0.56836,0.06152-1.05908,0.11328-1.48975,0.12402L54.12061,67.00195z"/>
		</g>
		<g>
			<path fill="#FFFFFF" d="M54.11523,70.4209l-0.01367-1.12109c0.4082-0.00488,1.83545-0.0459,2.67871-0.07031
				c0.39648-0.00488,0.85498-0.05371,1.38623-0.11035c0.29004-0.03027,0.60107-0.06348,0.93457-0.09277
				c0.18604-0.02344,0.38623-0.0293,0.56934-0.02344l-0.01367,1.12109c-0.13721-0.00098-0.28613-0.00098-0.43848,0.01758
				c-0.34473,0.03125-0.64941,0.06348-0.93359,0.09375c-0.55908,0.05957-1.04199,0.11035-1.48145,0.11523
				C55.96338,70.375,54.52637,70.41602,54.11523,70.4209z"/>
		</g>
		<g>
			<path fill="#FFFFFF" d="M54.11621,73.85059l-0.01562-1.12109c0.38477-0.00586,1.67432-0.04199,2.52783-0.06543l0.15234-0.00391
				c0.41064-0.00977,0.87646-0.06152,1.4165-0.12012c0.28027-0.03027,0.58008-0.06348,0.90039-0.09375
				c0.19092-0.02148,0.38965-0.02539,0.56982-0.02148l-0.01367,1.12109c-0.1377,0.00098-0.28857-0.00098-0.44092,0.0166
				c-0.32422,0.03125-0.61865,0.0625-0.89404,0.09277c-0.57666,0.0625-1.07422,0.11621-1.50928,0.12598l-0.1499,0.00488
				C55.80078,73.80957,54.50342,73.8457,54.11621,73.85059z"/>
		</g>
		<g>
			<g>
				<rect x="47.93994" y="61.13574" fill="#FFFFFF" width="2.32324" height="2.55176"/>
			</g>
			<g>
				<rect x="47.93994" y="67.03711" fill="#FFFFFF" width="2.44824" height="2.55371"/>
			</g>
			<g>
				<rect x="47.93994" y="72.31738" fill="#FFFFFF" width="2.32324" height="2.54297"/>
			</g>
			<g>
				<rect x="74.68799" y="61.64062" fill="#FFFFFF" width="2.32422" height="2.5459"/>
			</g>
			<g>
				<rect x="74.68799" y="67.54004" fill="#FFFFFF" width="2.44775" height="2.55078"/>
			</g>
			<g>
				<rect x="74.68799" y="72.81641" fill="#FFFFFF" width="2.32422" height="2.54883"/>
			</g>
			<g>
				<g>
					<g>
						<path fill="#FFFFFF" d="M26.73877,53.99219c0.07861,0.44971,0.13672,0.93213,0.10742,1.39258
							c-0.12354,1.96094-1.2041,3.26074-3.27979,3.13037c-2.10352-0.13232-3.20117-1.47461-3.07471-3.52832
							c0.02686-0.40039,0.13916-0.92334,0.34131-1.35596l1.03369,0.15186c-0.29395,0.44482-0.38184,0.85547-0.4082,1.29004
							c-0.07812,1.24902,0.83936,2.09033,2.09961,2.16992c1.25049,0.07959,2.23682-0.62939,2.31836-1.91895
							c0.03125-0.47607-0.04053-1.04736-0.17139-1.34229L26.73877,53.99219z"/>
					</g>
				</g>
				<g>
					<g>
						<path fill="#FFFFFF" d="M21.93213,47.2876c0.51855-1.83203,2.06494-2.50195,3.85645-1.99316
							c1.78955,0.50537,2.78906,1.88867,2.26367,3.7334c-0.53174,1.87305-2.07422,2.50342-3.89014,1.98926
							C22.3457,50.49951,21.40283,49.14697,21.93213,47.2876z M27.12061,48.76318c0.34033-1.19531-0.61133-1.94629-1.67969-2.24854
							c-1.04443-0.29834-2.24805-0.12402-2.5791,1.04004c-0.3291,1.16113,0.60352,1.94189,1.64746,2.2373
							C25.57568,50.09668,26.78027,49.95996,27.12061,48.76318z"/>
					</g>
				</g>
				<g>
					<g>
						<path fill="#FFFFFF" d="M24.37744,40.92285l0.61816-1.15771c0.61035-1.15186,1.30225-2.54736,2.81348-1.74268
							c0.63721,0.33984,0.94189,1.04541,0.67188,1.77539l0.01416,0.01172c0.1792-0.28174,0.56592-0.29199,0.86475-0.27051
							l2.58057,0.27051l-0.63623,1.19727l-2.03906-0.25928c-0.48828-0.06152-0.7168-0.00732-0.95752,0.44385L28.125,41.53857
							l2.25537,1.20264l-0.57227,1.0752L24.37744,40.92285z M27.26709,41.0835l0.18896-0.35352
							c0.28271-0.52832,0.52783-1.17773-0.1499-1.53711c-0.6543-0.34912-1.02734,0.22266-1.31348,0.7583l-0.18799,0.35303
							L27.26709,41.0835z"/>
					</g>
				</g>
				<g>
					<g>
						<path fill="#FFFFFF" d="M28.53564,33.89258l0.95605-1.1499l5.01807,1.15625l0.01172-0.01318l-3.54199-2.93652l0.74219-0.89844
							l4.73779,3.9292l-0.94922,1.14355l-5.0249-1.15088l-0.00977,0.01367l3.5415,2.93945l-0.74463,0.89453L28.53564,33.89258z"/>
					</g>
				</g>
				<g>
					<g>
						<path fill="#FFFFFF" d="M34.70117,27.20752l2.77539-2.25928l0.61279,0.75146l-1.83545,1.49072l0.9585,1.17822l1.67969-1.36914
							l0.61279,0.75146l-1.68066,1.36914l1.0918,1.34082l1.84717-1.50439l0.61133,0.75195l-2.79053,2.27246L34.70117,27.20752z"/>
					</g>
				</g>
				<g>
					<g>
						<path fill="#FFFFFF" d="M40.73877,22.77002l1.06201-0.6001l2.54199,4.51758l2.05225-1.15527l0.47559,0.84668l-3.11621,1.75098
							L40.73877,22.77002z"/>
					</g>
				</g>
				<g>
					<g>
						<path fill="#FFFFFF" d="M46.98779,19.63574l1.14551-0.41504l1.7627,4.87158l2.21484-0.79883l0.33252,0.91064l-3.36182,1.2168
							L46.98779,19.63574z"/>
					</g>
				</g>
				<g>
					<g>
						<path fill="#FFFFFF" d="M56.79785,16.9624l1.21484-0.10156l0.29102,3.54395c0.08594,1.04248,0.47363,1.70361,1.40332,1.62598
							c0.9248-0.07568,1.19727-0.79053,1.10986-1.83252l-0.29443-3.54639l1.21484-0.09961l0.32471,3.91943
							c0.13721,1.64404-0.72607,2.39648-2.27783,2.52686c-1.54834,0.12744-2.52539-0.47314-2.66162-2.11621L56.79785,16.9624z"/>
					</g>
				</g>
				<g>
					<g>
						<path fill="#FFFFFF" d="M65.91504,16.65186l1.48242,0.20068l1.67627,4.87109l0.01904,0.00293l0.61328-4.56348l1.15625,0.15723
							l-0.82373,6.09717l-1.47266-0.19775l-1.68506-4.87109l-0.01758-0.00098L66.25,22.90527l-1.15576-0.15381L65.91504,16.65186z"
							/>
					</g>
				</g>
				<g>
					<g>
						<path fill="#FFFFFF" d="M74.63721,18.32275l1.16113,0.36426l-1.8418,5.87207l-1.16162-0.36523L74.63721,18.32275z"/>
					</g>
				</g>
				<g>
					<g>
						<path fill="#FFFFFF" d="M78.96484,19.7793l1.16504,0.59082l-0.79102,5.01318l0.01611,0.00781l3.5542-3.61621l1.07764,0.54248
							l-4.6001,4.57129l-1.33447-0.67383L78.96484,19.7793z"/>
					</g>
				</g>
				<g>
					<g>
						<path fill="#FFFFFF" d="M86.94287,24.31885l2.82178,2.20947l-0.59521,0.76172l-1.86328-1.45605l-0.93359,1.19531
							l1.70361,1.33398l-0.59619,0.76514l-1.70459-1.33496l-1.06543,1.3623l1.87744,1.46826l-0.5957,0.76318l-2.83594-2.21729
							L86.94287,24.31885z"/>
					</g>
				</g>
				<g>
					<g>
						<path fill="#FFFFFF" d="M92.60889,29.18896l0.86572,0.98486c0.86084,0.98193,1.91992,2.12207,0.63477,3.25244
							c-0.54346,0.47559-1.31006,0.51074-1.90039,0.00146l-0.01465,0.00928c0.2002,0.26611,0.0752,0.63135-0.0498,0.90088
							l-1.16797,2.32031l-0.89502-1.01904l0.9624-1.81738c0.22949-0.43311,0.26123-0.66602-0.0791-1.0498l-0.25586-0.29492
							l-1.92334,1.68359l-0.80371-0.91406L92.60889,29.18896z M91.43652,31.83594l0.26367,0.30176
							c0.39404,0.4502,0.91504,0.90869,1.49121,0.40137c0.55762-0.48682,0.15625-1.0376-0.24609-1.49463l-0.26465-0.30127
							L91.43652,31.83594z"/>
					</g>
				</g>
				<g>
					<g>
						<path fill="#FFFFFF" d="M98.35352,38.94629c-0.05225-0.41455-0.18408-0.83105-0.40137-1.19727
							c-0.2124-0.35938-0.64453-0.72705-1.22168-0.38867c-0.9209,0.54395,0.82275,2.60498-0.95312,3.65527
							c-1.16016,0.68652-2.1377,0.04053-2.76025-1.0127c-0.3374-0.57031-0.41211-0.86914-0.58984-1.45947l1.01465-0.47168
							c0.01611,0.47754,0.13184,0.96582,0.37207,1.37549c0.2373,0.39941,0.75391,0.80859,1.23193,0.52295
							c1.0127-0.59521-0.76221-2.63672,0.99219-3.67383c1.18311-0.7002,2.15186-0.04932,2.6958,0.87012
							c0.26416,0.44824,0.45215,0.90283,0.54883,1.35889L98.35352,38.94629z"/>
					</g>
				</g>
				<g>
					<g>
						<path fill="#FFFFFF" d="M101.0498,42.00879l0.4624,1.12842l-5.70068,2.32373l-0.45801-1.12598L101.0498,42.00879z"/>
					</g>
				</g>
				<g>
					<g>
						<path fill="#FFFFFF" d="M102.10938,48.10107l-0.41748-1.68896l0.94287-0.23047l1.12305,4.56104l-0.94189,0.23047
							l-0.41602-1.68945l-5.03369,1.23926l-0.29102-1.18311L102.10938,48.10107z"/>
					</g>
				</g>
				<g>
					<g>
						<path fill="#FFFFFF" d="M100.6333,56.0293l3.59131-2.41846l0.08057,1.42236l-2.50244,1.57471l2.66309,1.31689l0.06982,1.28711
							l-3.83447-1.96533l-2.43213,0.13428l-0.06641-1.21631L100.6333,56.0293z"/>
					</g>
				</g>
				<g>
					<g>
						<path fill="#FFFFFF" d="M27.69531,66.66797l0.94336,3.27441l-0.93213,0.27051l-0.60449-2.0957L25.646,68.53906
							l0.57373,1.99121l-0.93018,0.27051l-0.57422-1.99512l-2.59375,0.75l-0.34229-1.18262L27.69531,66.66797z"/>
					</g>
				</g>
				<g>
					<g>
						<path fill="#FFFFFF" d="M30.57861,74.21582c0.8501,1.72754,0.15576,3.27539-1.51709,4.09375
							c-1.66748,0.82227-3.33789,0.45703-4.19482-1.28711c-0.86963-1.76367-0.14453-3.27734,1.54834-4.10645
							C28.10889,72.08496,29.71729,72.46777,30.57861,74.21582z M25.73682,76.59473c0.5542,1.13086,1.76221,1.05566,2.75977,0.56348
							c0.97461-0.47559,1.74902-1.41797,1.20996-2.5127c-0.53516-1.09375-1.75293-1.05273-2.72754-0.57715
							C25.98047,74.55859,25.18213,75.46777,25.73682,76.59473z"/>
					</g>
				</g>
				<g>
					<g>
						<path fill="#FFFFFF" d="M33.1958,79.05957l0.76709,0.96191l-2.78027,2.20703
							c-0.82324,0.65137-1.15283,1.34277-0.56738,2.07812c0.5835,0.73926,1.32959,0.57324,2.15039-0.08203l2.78125-2.21094
							l0.76709,0.96484l-3.08008,2.44434c-1.28906,1.02539-2.3999,0.7207-3.38086-0.50781
							c-0.97754-1.2334-1.02539-2.38965,0.26416-3.41504L33.1958,79.05957z"/>
					</g>
				</g>
				<g>
					<g>
						<path fill="#FFFFFF" d="M38.24512,84.9502l1.17236,0.95508l-1.10645,5.04102l0.01367,0.00781l2.91309-3.55762l0.91309,0.74316
							l-3.89844,4.7627l-1.16309-0.9502l1.09766-5.05078l-0.01562-0.00781l-2.91113,3.55859l-0.91211-0.74316L38.24512,84.9502z"/>
					</g>
				</g>
				<g>
					<g>
						<path fill="#FFFFFF" d="M44.48584,89.65332l1.50244,0.75195c1.67725,0.8457,2.87891,2.15723,1.77979,4.3418
							c-1.09473,2.18164-2.86621,2.00098-4.54443,1.15723l-1.50049-0.75L44.48584,89.65332z M43.25732,94.83984l0.61328,0.30859
							c0.91846,0.45898,2.14893,0.21973,2.75195-0.97949c0.60059-1.19434,0.06104-2.32715-0.85889-2.78906l-0.61279-0.30957
							L43.25732,94.83984z"/>
					</g>
				</g>
				<g>
					<g>
						<path fill="#FFFFFF" d="M51.60254,92.81738l3.49805,0.93652l-0.25049,0.93457l-2.30908-0.61523l-0.38965,1.46387
							l2.11426,0.56348l-0.24951,0.93555l-2.11572-0.56348l-0.44385,1.6709l2.32715,0.62012l-0.24951,0.9375l-3.51611-0.9375
							L51.60254,92.81738z"/>
					</g>
				</g>
				<g>
					<g>
						<path fill="#FFFFFF" d="M57.80713,94.23535l1.67578,0.09668c1.87549,0.10449,3.49902,0.83301,3.35986,3.27051
							c-0.13965,2.43848-1.83398,2.97949-3.70996,2.875l-1.67432-0.0957L57.80713,94.23535z M58.73828,99.48438l0.68555,0.03809
							c1.02734,0.05762,2.06104-0.65234,2.13965-1.99219c0.07373-1.33594-0.87402-2.1582-1.89893-2.2168l-0.68262-0.03809
							L58.73828,99.48438z"/>
					</g>
				</g>
				<g>
					<g>
						<path fill="#FFFFFF" d="M69.0957,93.79102L70.45166,93.5l3.64844,5.50879l-1.3335,0.28906l-0.80957-1.27051l-2.43213,0.52637
							l-0.229,1.4873l-1.24414,0.26758L69.0957,93.79102z M70.01611,94.85742l-0.01758,0.00293l-0.33398,2.66699l1.75195-0.375
							L70.01611,94.85742z"/>
					</g>
				</g>
				<g>
					<g>
						<path fill="#FFFFFF" d="M75.47021,97.1582l1.15625-0.41797l0.42041,1.15918l-1.15479,0.41699L75.47021,97.1582z"/>
					</g>
				</g>
				<g>
					<g>
						<path fill="#FFFFFF" d="M77.03369,91.3291l1.47461-0.79883c1.6543-0.90039,3.4165-1.12988,4.58105,1.0166
							c1.16309,2.14941,0.00439,3.49707-1.64795,4.3916l-1.47559,0.79883L77.03369,91.3291z M80.58691,95.2998l0.60156-0.32324
							c0.90381-0.49414,1.40918-1.63867,0.77197-2.81836c-0.63818-1.18066-1.87598-1.37988-2.78076-0.88672l-0.60254,0.3252
							L80.58691,95.2998z"/>
					</g>
				</g>
				<g>
					<g>
						<path fill="#FFFFFF" d="M84.87256,92.46973l1.01172-0.70508l0.70312,1.01562l-1.00928,0.70312L84.87256,92.46973z"/>
					</g>
				</g>
				<g>
					<g>
						<path fill="#FFFFFF" d="M87.41064,84.05078l0.77344-0.76465l4.32275,4.38379l-0.875,0.86426l-3.3374-3.38184l-0.14502,1.32812
							l-1.00146-0.13867L87.41064,84.05078z"/>
					</g>
				</g>
				<g>
					<g>
						<path fill="#FFFFFF" d="M92.9209,82.29102c-0.58789,0.33008-1.23682,0.35352-1.75586-0.02734
							c-0.88428-0.65723-0.80762-1.63574-0.14502-2.5332c0.64355-0.86816,1.58301-1.38477,2.41113-0.77539
							c0.44824,0.33398,0.76416,0.99121,0.57959,1.69727l0.00781,0.00586c0.78467-0.4248,1.43115-0.40723,1.99707,0.01074
							c1.00146,0.73828,0.90967,1.78418,0.18701,2.76074c-0.71143,0.95801-1.7041,1.42969-2.70752,0.68164
							c-0.55518-0.40723-0.70703-1.00195-0.56104-1.80957L92.9209,82.29102z M93.21289,81.11133
							c0.10449-0.34863-0.00586-0.85449-0.31006-1.0791c-0.36816-0.27441-0.79688-0.22852-1.07324,0.14551
							c-0.26465,0.36133-0.3335,0.86523,0.06201,1.16016C92.31934,81.65039,92.83545,81.35449,93.21289,81.11133z
							 M95.46436,82.88184c0.2959-0.39453,0.27393-0.8877-0.13623-1.19238c-0.48828-0.36133-1.03223-0.11719-1.4707,0.19141
							c-0.08887,0.47852-0.06641,0.9209,0.35059,1.23242C94.62207,83.41797,95.17236,83.27734,95.46436,82.88184z"/>
					</g>
				</g>
				<g>
					<g>
						<path fill="#FFFFFF" d="M96.21338,73.33105c-0.271,0.22949-0.51416,0.47559-0.69971,0.84766
							c-0.47217,0.94629,0.24902,1.71289,1.05371,2.15723l0.02441-0.01172c-0.25049-0.44727-0.25293-0.87109-0.02295-1.33594
							c0.51758-1.03711,1.46289-1.27246,2.48047-0.7666c1.19238,0.59863,1.68896,1.57129,1.0708,2.8125
							c-0.76318,1.52637-2.20215,1.23242-3.49316,0.58496c-1.49512-0.74512-2.89453-2.04395-2.00635-3.81934
							c0.19678-0.39941,0.44971-0.74805,0.77051-1.05957L96.21338,73.33105z M97.94043,76.89941
							c0.51855,0.25879,1.08691,0.2666,1.35547-0.27637c0.25732-0.50781-0.13281-0.96973-0.62207-1.21289
							c-0.5376-0.26758-1.14209-0.29688-1.40723,0.23242C96.99951,76.17383,97.38672,76.62305,97.94043,76.89941z"/>
					</g>
				</g>
				<g>
					<g>
						<path fill="#FFFFFF" d="M98.26758,66.76953l-0.67236,2.26855l1.25049,0.40137
							c0.01318-0.14453,0.03369-0.33105,0.10254-0.55469c0.24512-0.82812,0.95312-1.78125,2.48145-1.32422
							c1.10645,0.32812,1.77197,1.36719,1.31885,2.88574c-0.13428,0.45605-0.36914,0.96191-0.57617,1.32422l-1.0498-0.3418
							c0.20459-0.25098,0.50244-0.60156,0.6543-1.11328c0.18311-0.61719,0.0874-1.34668-0.66455-1.56738
							c-0.76221-0.22656-1.22217,0.36816-1.42334,1.04199c-0.10889,0.36328-0.15967,0.72363-0.15332,1.10352l-3.15137-1.00293
							l1.00488-3.37988L98.26758,66.76953z"/>
					</g>
				</g>
			</g>
		</g>
	</g>
</g>
<g id="ILR_School">
	<g>
		<path fill="#FFFFFF" d="M130.92188,63.42188l1.95312,0.0625c1.28125,0.04199,2.11963,0.0625,2.51562,0.0625
			c0.354,0,1.84863-0.04102,4.48438-0.125L140,63.53125v0.78125l-0.125,0.10938c-0.71875,0.02148-1.27344,0.05273-1.66406,0.09375
			c-0.39062,0.04199-0.6748,0.12012-0.85156,0.23438c-0.17725,0.11523-0.29443,0.38281-0.35156,0.80469
			c-0.05762,0.42188-0.08594,1.00781-0.08594,1.75781l-0.03125,3.59375v7.23438l0.01562,3.04688
			c0.01025,1.17773,0.0415,1.9375,0.09375,2.28125c0.05176,0.34375,0.12744,0.57324,0.22656,0.6875
			c0.09863,0.11523,0.28906,0.21094,0.57031,0.28906s0.97363,0.13867,2.07812,0.17969L140,84.71875V85.5l-0.125,0.125
			c-0.05225,0-0.96875-0.03125-2.75-0.09375c-0.73975-0.02148-1.31787-0.03125-1.73438-0.03125
			c-0.32324,0-1.8125,0.04102-4.46875,0.125l-0.125-0.125v-0.78125l0.125-0.09375c0.96875-0.04102,1.61426-0.09375,1.9375-0.15625
			c0.32275-0.0625,0.53906-0.14258,0.64844-0.24219c0.10938-0.09863,0.19775-0.30957,0.26562-0.63281
			c0.06738-0.32227,0.10645-1.04102,0.11719-2.15625l0.01562-3.29688v-7.23438l-0.03125-3.04688
			c-0.01074-1.1875-0.03906-1.95312-0.08594-2.29688s-0.12012-0.57227-0.21875-0.6875
			c-0.09912-0.11426-0.28906-0.20801-0.57031-0.28125c-0.28125-0.07227-0.97412-0.12988-2.07812-0.17188l-0.125-0.10938v-0.78125
			L130.92188,63.42188z"/>
		<path fill="#FFFFFF" d="M140.55957,63.53125l0.125-0.10938c2.58301,0.08398,4.07275,0.125,4.46875,0.125
			c0.354,0,1.84863-0.04102,4.48438-0.125l0.125,0.10938v0.78125l-0.125,0.10938c-0.71875,0.02148-1.27344,0.05273-1.66406,0.09375
			c-0.39062,0.04199-0.6748,0.12012-0.85156,0.23438c-0.17725,0.11523-0.29443,0.38281-0.35156,0.80469
			c-0.05762,0.42188-0.08594,1.00781-0.08594,1.75781l-0.03125,3.59375v6.90625c0,1.72949,0.01025,2.9375,0.03125,3.625
			l0.07812,2.70312h3.1875c2.5415,0,4.12744-0.03125,4.75781-0.09375c0.62988-0.0625,1.23682-0.21289,1.82031-0.45312
			c0.11426-0.25977,0.27832-0.85938,0.49219-1.79688c0.21338-0.9375,0.3252-1.47852,0.33594-1.625l0.14062-0.125h0.76562
			l0.10938,0.125c-0.0835,0.41699-0.16943,1.22461-0.25781,2.42188c-0.08887,1.19824-0.13281,2.16699-0.13281,2.90625l-0.125,0.125
			c-1.97949-0.0625-4.57812-0.09375-7.79688-0.09375L145.49707,85.5c-1.04199,0-2.10449,0.04102-3.1875,0.125l-0.125-0.125v-0.51562
			l0.125-0.15625c0.64551-0.33301,1-0.53613,1.0625-0.60938c0.0625-0.07227,0.12744-0.74414,0.19531-2.01562
			c0.06738-1.27051,0.10156-2.80176,0.10156-4.59375v-6.70312l-0.03125-3.04688c-0.01074-1.1875-0.03906-1.95312-0.08594-2.29688
			s-0.12012-0.57227-0.21875-0.6875c-0.09912-0.11426-0.28906-0.20801-0.57031-0.28125
			c-0.28125-0.07227-0.97412-0.12988-2.07812-0.17188l-0.125-0.10938V63.53125z"/>
		<path fill="#FFFFFF" d="M159.38428,63.53125l0.125-0.10938c1.90625,0.08398,3.39062,0.125,4.45312,0.125
			c1.17725,0,2.76562-0.03613,4.76562-0.10938c0.73975-0.02051,1.27588-0.03125,1.60938-0.03125
			c2.63525,0,4.42188,0.47949,5.35938,1.4375c0.9375,0.95898,1.40625,2.09375,1.40625,3.40625c0,0.875-0.229,1.73438-0.6875,2.57812
			s-1.13525,1.56543-2.03125,2.16406c-0.896,0.59961-2.13037,1.0498-3.70312,1.35156
			c0.2915,0.40625,0.81787,1.10938,1.57812,2.10938l2.21875,2.9375c0.71875,0.96875,1.48975,1.99219,2.3125,3.07031
			s1.354,1.6875,1.59375,1.82812s0.44531,0.22656,0.61719,0.25781s0.44531,0.04688,0.82031,0.04688l0.125,0.125v0.73438
			l-0.14062,0.14062c-0.5-0.0625-1.09375-0.09375-1.78125-0.09375c-0.73975,0-1.54688,0.03125-2.42188,0.09375
			c-0.71875-0.875-1.84912-2.39062-3.39062-4.54688c-1.7915-2.5-3.625-4.81738-5.5-6.95312l0.15625-0.48438
			c0.5415,0.03125,0.96338,0.04688,1.26562,0.04688c1.80225,0,3.21338-0.43164,4.23438-1.29688
			c1.021-0.86426,1.53125-2.0625,1.53125-3.59375c0-1.375-0.4585-2.41406-1.375-3.11719s-2.15625-1.05469-3.71875-1.05469
			c-1.09375,0-2.125,0.15137-3.09375,0.45312c-0.15625,0.22949-0.23438,2.18262-0.23438,5.85938v7.23438l0.01562,3.04688
			c0.01025,1.17773,0.0415,1.9375,0.09375,2.28125s0.12744,0.57324,0.22656,0.6875c0.09912,0.11523,0.28906,0.21094,0.57031,0.28906
			s0.97412,0.13867,2.07812,0.17969l0.125,0.09375V85.5l-0.125,0.125c-0.05225,0-0.96875-0.03125-2.75-0.09375
			c-0.73975-0.02148-1.31787-0.03125-1.73438-0.03125c-0.32275,0-1.8125,0.04102-4.46875,0.125l-0.125-0.125v-0.78125l0.125-0.09375
			c0.96875-0.04102,1.61475-0.09375,1.9375-0.15625s0.53906-0.14258,0.64844-0.24219
			c0.10938-0.09863,0.19775-0.30957,0.26562-0.63281c0.06787-0.32227,0.10693-1.04102,0.11719-2.15625l0.01562-3.29688v-7.23438
			l-0.03125-3.04688c-0.01025-1.1875-0.03906-1.95312-0.08594-2.29688s-0.11963-0.57227-0.21875-0.6875
			c-0.09912-0.11426-0.28906-0.20801-0.57031-0.28125c-0.28125-0.07227-0.97412-0.12988-2.07812-0.17188l-0.125-0.10938V63.53125z"
			/>
		<path fill="#FFFFFF" d="M187.7373,80.125l0.125-0.125h0.76562l0.125,0.125c0.05176,1.33398,0.12207,2.14844,0.21094,2.44531
			c0.08838,0.29688,0.36963,0.60938,0.84375,0.9375c0.47363,0.32812,1.104,0.59668,1.89062,0.80469
			c0.78613,0.20898,1.58057,0.3125,2.38281,0.3125c1.104,0,2.09619-0.20312,2.97656-0.60938
			c0.87988-0.40625,1.56543-1.00195,2.05469-1.78906c0.48926-0.78613,0.73438-1.66895,0.73438-2.64844
			c0-0.6875-0.11719-1.28613-0.35156-1.79688c-0.23438-0.50977-0.5625-0.91895-0.98438-1.22656
			c-0.42188-0.30664-0.90381-0.53613-1.44531-0.6875c-0.54199-0.15039-1.34912-0.31445-2.42188-0.49219
			c-1.04199-0.16602-1.85693-0.31738-2.44531-0.45312c-0.58887-0.13477-1.1748-0.34375-1.75781-0.625
			c-0.5835-0.28125-1.07031-0.6377-1.46094-1.07031c-0.39062-0.43164-0.70312-0.96289-0.9375-1.59375
			c-0.23438-0.62988-0.35156-1.30469-0.35156-2.02344c0-1.94727,0.67676-3.54395,2.03125-4.78906
			c1.354-1.24414,3.17188-1.86719,5.45312-1.86719c0.90625,0,1.89307,0.1123,2.96094,0.33594
			c1.06738,0.22461,2.03906,0.55469,2.91406,0.99219l0.10938,0.1875c-0.22949,0.95898-0.37012,2.32324-0.42188,4.09375
			l-0.14062,0.125h-0.8125l-0.125-0.10938c-0.02051-1.25-0.05176-2.03613-0.09375-2.35938
			c-0.04199-0.32227-0.51562-0.72363-1.42188-1.20312c-0.90625-0.47852-1.89062-0.71875-2.95312-0.71875
			c-0.88574,0-1.71387,0.17773-2.48438,0.53125c-0.771,0.35449-1.35449,0.91211-1.75,1.67188
			c-0.396,0.76074-0.59375,1.53711-0.59375,2.32812c0,0.61523,0.11963,1.15918,0.35938,1.63281
			c0.23926,0.47461,0.54932,0.84961,0.92969,1.125c0.37988,0.27637,0.82275,0.48242,1.32812,0.61719
			c0.50488,0.13574,1.42969,0.30273,2.77344,0.5c1.84375,0.26074,3.18457,0.57617,4.02344,0.94531
			c0.83887,0.37012,1.51074,0.95605,2.01562,1.75781c0.50488,0.80273,0.75781,1.77148,0.75781,2.90625
			c0,2.21875-0.90332,4.06836-2.71094,5.54688c-1.80762,1.47949-3.99756,2.21875-6.57031,2.21875
			c-2.15625,0-4.04688-0.38574-5.67188-1.15625l-0.09375-0.20312C187.60693,84.0625,187.68506,82.53125,187.7373,80.125z"/>
		<path fill="#FFFFFF" d="M216.0625,83.82812l-0.625,1.04688c-1.34375,0.73926-2.84375,1.10938-4.5,1.10938
			c-2.29199,0-4.0625-0.68164-5.3125-2.04688c-1.25-1.36426-1.875-3.125-1.875-5.28125c0-0.97852,0.10645-1.85156,0.32031-2.61719
			c0.21289-0.76562,0.48438-1.39844,0.8125-1.89844s0.68945-0.89551,1.08594-1.1875
			c0.39551-0.29102,1.06445-0.69727,2.00781-1.21875c0.94238-0.52051,1.65332-0.86133,2.13281-1.02344
			c0.47852-0.16113,1.14062-0.24219,1.98438-0.24219c1.61426,0,2.9375,0.30762,3.96875,0.92188
			c-0.19824,1.17773-0.34961,2.49023-0.45312,3.9375l-0.14062,0.125h-0.64062l-0.14062-0.14062
			c-0.04199-0.875-0.09961-1.46289-0.17188-1.76562c-0.07324-0.30176-0.4873-0.625-1.24219-0.96875
			c-0.75586-0.34375-1.56055-0.51562-2.41406-0.51562c-0.85449,0-1.61523,0.17969-2.28125,0.53906
			c-0.66699,0.35938-1.16992,0.94824-1.50781,1.76562c-0.33887,0.81836-0.50781,1.79492-0.50781,2.92969
			c0,0.95898,0.13477,1.89355,0.40625,2.80469c0.27051,0.91211,0.62695,1.66699,1.07031,2.26562
			c0.44238,0.59961,1.02832,1.08105,1.75781,1.44531c0.72852,0.36523,1.54102,0.54688,2.4375,0.54688
			c0.5625,0,1.11133-0.07227,1.64844-0.21875c0.53613-0.14551,1.15332-0.38477,1.85156-0.71875L216.0625,83.82812z"/>
		<path fill="#FFFFFF" d="M221.21582,62.35938l0.29688,0.1875c-0.11426,1.19824-0.17188,3.59961-0.17188,7.20312v3.85938
			c0.875-0.71875,1.6875-1.43164,2.4375-2.14062c0.21875-0.19727,0.42676-0.34375,0.625-0.4375s0.51855-0.19238,0.96094-0.29688
			c0.44238-0.10352,0.89844-0.15625,1.36719-0.15625c0.79199,0,1.55957,0.16211,2.30469,0.48438
			c0.74512,0.32324,1.30762,0.70605,1.6875,1.14844c0.37988,0.44336,0.64355,0.9668,0.78906,1.57031
			c0.14551,0.60449,0.21875,1.34961,0.21875,2.23438v2.75c0,0.17773,0.02637,1.47461,0.07812,3.89062
			c0.03125,0.99023,0.14355,1.57812,0.33594,1.76562s0.83594,0.28125,1.92969,0.28125l0.125,0.125V85.5l-0.125,0.125
			c-1.32324-0.08398-2.21875-0.125-2.6875-0.125c-0.23926,0-1,0.04102-2.28125,0.125l-0.1875-0.17188
			c0.13574-1.35352,0.20312-3.11914,0.20312-5.29688v-2.04688c0-1.22852-0.02832-2.11426-0.08594-2.65625
			c-0.05762-0.54102-0.23145-1.0332-0.52344-1.47656c-0.29199-0.44238-0.67969-0.78613-1.16406-1.03125
			c-0.48438-0.24414-1.07031-0.36719-1.75781-0.36719c-0.70801,0-1.2998,0.09668-1.77344,0.28906
			c-0.47363,0.19336-0.95605,0.51855-1.44531,0.97656c-0.48926,0.45898-0.78418,0.8418-0.88281,1.14844
			c-0.09863,0.30762-0.14844,0.89844-0.14844,1.77344v2.78125c0,0.22949,0.02051,0.9668,0.0625,2.21094
			c0.04199,1.24512,0.08594,1.97168,0.13281,2.17969c0.04688,0.20898,0.11719,0.35938,0.21094,0.45312
			s0.20801,0.1543,0.34375,0.17969c0.13574,0.02637,0.69824,0.07031,1.6875,0.13281l0.14062,0.125v0.65625l-0.125,0.14062
			c-1.30176-0.08398-2.55762-0.125-3.76562-0.125c-1.19824,0-2.44824,0.04102-3.75,0.125l-0.14062-0.14062v-0.65625l0.14062-0.125
			c1.01074-0.0625,1.58105-0.10938,1.71094-0.14062s0.24512-0.0957,0.34375-0.19531c0.09863-0.09863,0.16699-0.25,0.20312-0.45312
			s0.07812-0.875,0.125-2.01562s0.07031-2.00195,0.07031-2.58594v-8.09375l-0.0625-3.3125
			c-0.03125-1.15625-0.06543-1.95801-0.10156-2.40625c-0.03613-0.44727-0.08594-0.71289-0.14844-0.79688
			c-0.0625-0.08301-0.17188-0.14551-0.32812-0.1875c-0.15625-0.04102-0.78613-0.0625-1.89062-0.0625l-0.14062-0.14062v-0.65625
			l0.125-0.14062C218.17383,63.28711,219.85156,62.90137,221.21582,62.35938z"/>
		<path fill="#FFFFFF" d="M234.79102,78.34375c0-1.23926,0.25488-2.43457,0.76562-3.58594
			c0.50977-1.15039,1.39844-2.14551,2.66406-2.98438c1.26562-0.83789,2.76758-1.25781,4.50781-1.25781
			c2.1875,0,3.96875,0.69043,5.34375,2.07031c1.375,1.38086,2.0625,3.1543,2.0625,5.32031
			c0,2.38574-0.78906,4.34961-2.36719,5.89062c-1.57812,1.54199-3.48242,2.3125-5.71094,2.3125
			c-1.45898,0-2.76074-0.39355-3.90625-1.17969c-1.14648-0.78613-1.99219-1.74707-2.53906-2.88281
			C235.06445,80.91211,234.79102,79.67773,234.79102,78.34375z M237.74414,77.26562c0,1.45898,0.1875,2.76367,0.5625,3.91406
			c0.375,1.15137,0.96875,2.07617,1.78125,2.77344C240.90039,84.65137,241.82715,85,242.86914,85
			c1.22852,0,2.24414-0.48633,3.04688-1.46094c0.80176-0.97363,1.20312-2.43945,1.20312-4.39844
			c0-2.21875-0.43555-4.03613-1.30469-5.45312c-0.87012-1.41602-2.12305-2.125-3.75781-2.125
			c-1.35449,0-2.41211,0.49023-3.17188,1.46875C238.12402,74.01074,237.74414,75.42188,237.74414,77.26562z"/>
		<path fill="#FFFFFF" d="M252.45898,78.34375c0-1.23926,0.25488-2.43457,0.76562-3.58594
			c0.50977-1.15039,1.39844-2.14551,2.66406-2.98438c1.26562-0.83789,2.76758-1.25781,4.50781-1.25781
			c2.1875,0,3.96875,0.69043,5.34375,2.07031c1.375,1.38086,2.0625,3.1543,2.0625,5.32031
			c0,2.38574-0.78906,4.34961-2.36719,5.89062c-1.57812,1.54199-3.48242,2.3125-5.71094,2.3125
			c-1.45898,0-2.76074-0.39355-3.90625-1.17969c-1.14648-0.78613-1.99219-1.74707-2.53906-2.88281
			C252.73242,80.91211,252.45898,79.67773,252.45898,78.34375z M255.41211,77.26562c0,1.45898,0.1875,2.76367,0.5625,3.91406
			c0.375,1.15137,0.96875,2.07617,1.78125,2.77344C258.56836,84.65137,259.49512,85,260.53711,85
			c1.22852,0,2.24414-0.48633,3.04688-1.46094c0.80176-0.97363,1.20312-2.43945,1.20312-4.39844
			c0-2.21875-0.43555-4.03613-1.30469-5.45312c-0.87012-1.41602-2.12305-2.125-3.75781-2.125
			c-1.35449,0-2.41211,0.49023-3.17188,1.46875C255.79199,74.01074,255.41211,75.42188,255.41211,77.26562z"/>
		<path fill="#FFFFFF" d="M273.90918,62.35938l0.29688,0.1875c-0.11426,1.19824-0.17188,3.59961-0.17188,7.20312v9.79688
			c0,0.22949,0.02051,0.9668,0.0625,2.21094c0.04199,1.24512,0.08594,1.97168,0.13281,2.17969
			c0.04688,0.20898,0.11719,0.35938,0.21094,0.45312s0.20801,0.1543,0.34375,0.17969
			c0.13574,0.02637,0.69824,0.07031,1.6875,0.13281l0.14062,0.125v0.65625l-0.125,0.14062
			c-1.30176-0.08398-2.55762-0.125-3.76562-0.125c-1.19824,0-2.44824,0.04102-3.75,0.125l-0.14062-0.14062v-0.65625l0.14062-0.125
			c1.01074-0.0625,1.58105-0.10938,1.71094-0.14062s0.24512-0.0957,0.34375-0.19531c0.09863-0.09863,0.16699-0.25,0.20312-0.45312
			s0.07812-0.875,0.125-2.01562s0.07031-2.00195,0.07031-2.58594v-8.09375l-0.0625-3.3125
			c-0.03125-1.15625-0.06543-1.95801-0.10156-2.40625c-0.03613-0.44727-0.08594-0.71289-0.14844-0.79688
			c-0.0625-0.08301-0.17188-0.14551-0.32812-0.1875c-0.15625-0.04102-0.78613-0.0625-1.89062-0.0625l-0.14062-0.14062v-0.65625
			l0.125-0.14062C270.86719,63.28711,272.54492,62.90137,273.90918,62.35938z"/>
	</g>
</g>
</svg>
