<?xml version="1.0" encoding="utf-8"?>
<!-- Generator: Adobe Illustrator 16.0.0, SVG Export Plug-In . SVG Version: 6.00 Build 0)  -->
<!DOCTYPE svg PUBLIC "-//W3C//DTD SVG 1.1//EN" "http://www.w3.org/Graphics/SVG/1.1/DTD/svg11.dtd">
<svg version="1.1" id="Layer_1" xmlns="http://www.w3.org/2000/svg" xmlns:xlink="http://www.w3.org/1999/xlink" x="0px" y="0px"
	 width="187px" height="75px" viewBox="0 0 187 75" enable-background="new 0 0 187 75" xml:space="preserve">
<g id="Cornell_seal">
	<g>
		<g>
			<path fill="#FFFFFF" d="M36.303,72.913c-19.574,0-35.499-15.927-35.499-35.501S16.729,1.913,36.303,1.913
				c19.575,0,35.501,15.925,35.501,35.499S55.878,72.913,36.303,72.913z M36.303,3.571c-18.66,0-33.841,15.181-33.841,33.841
				s15.181,33.841,33.841,33.841c18.661,0,33.843-15.181,33.843-33.841S54.964,3.571,36.303,3.571z"/>
		</g>
		<g>
			<path fill="#FFFFFF" d="M36.303,64.076c-14.702,0-26.663-11.962-26.663-26.664S21.602,10.75,36.303,10.75
				c14.703,0,26.665,11.96,26.665,26.662S51.006,64.076,36.303,64.076z M36.303,12.396c-13.793,0-25.015,11.222-25.015,25.016
				S22.51,62.43,36.303,62.43c13.794,0,25.017-11.224,25.017-25.018S50.098,12.396,36.303,12.396z"/>
		</g>
		<g>
			<path fill="#FFFFFF" d="M36.314,62.311l-0.33-0.141c-0.679-0.292-16.639-7.285-16.639-19.958l0.002-22.766l33.889-0.003
				l0.003,23.171c0,12.15-15.918,19.257-16.595,19.554L36.314,62.311z M21.005,21.104l-0.002,21.107
				c0,10.629,13.047,17.223,15.305,18.283c2.254-1.075,15.273-7.723,15.273-17.881l-0.003-21.514L21.005,21.104z"/>
		</g>
		<g>
			<path fill="#FFFFFF" d="M28.828,32.776l-0.404-0.236c-0.073-0.043-1.807-1.059-2.969-1.839c-0.982-0.655-1.486-1.353-1.54-2.127
				c-0.012-0.162-0.011-3.257-0.009-5.827l0.001-0.828h9.92l0.002,0.827c0.008,3.741,0.007,5.7-0.003,5.824
				c-0.022,0.791-0.501,1.49-1.462,2.132c-1.171,0.786-3.044,1.808-3.123,1.851L28.828,32.776z M25.563,23.577
				c-0.001,2.102-0.001,4.691,0.005,4.888c0.012,0.158,0.23,0.473,0.809,0.859c0.791,0.53,1.893,1.196,2.48,1.545
				c0.616-0.344,1.792-1.015,2.583-1.544c0.217-0.146,0.72-0.513,0.729-0.808l0.003-0.083c0.006-0.18,0.003-2.763-0.001-4.857
				H25.563z"/>
		</g>
		<g>
			<path fill="#FFFFFF" d="M44.154,32.736L43.75,32.5c-0.073-0.043-1.804-1.058-2.965-1.837c-0.982-0.657-1.487-1.354-1.541-2.127
				c-0.011-0.128-0.014-2.087-0.009-5.829l0.001-0.828h9.918l0.001,0.827c0.008,3.742,0.007,5.702-0.002,5.826
				c-0.018,0.783-0.496,1.484-1.461,2.131c-1.174,0.787-3.047,1.807-3.127,1.85L44.154,32.736z M40.892,23.537
				c-0.001,2.097-0.001,4.683,0.005,4.886c0.013,0.161,0.231,0.475,0.811,0.863c0.79,0.53,1.89,1.194,2.476,1.543
				c0.616-0.343,1.794-1.013,2.586-1.543c0.216-0.146,0.72-0.513,0.727-0.805l0.004-0.085c0.005-0.181,0.003-2.764-0.001-4.859
				H40.892z"/>
		</g>
		<g>
			<rect x="19.475" y="33.362" fill="#FFFFFF" width="33.168" height="1.641"/>
		</g>
		<g>
			<path fill="#FFFFFF" d="M36.26,53.551c-0.559,0-0.879-0.394-1.049-0.605c-0.188-0.231-0.281-0.298-0.584-0.303
				c-0.902,0-1.565,0.061-2.331,0.13c-0.75,0.068-1.6,0.146-2.809,0.172c-1.198,0.027-2.126-0.022-2.165-0.024l-0.783-0.045
				l0.002-15.534l0.811-0.019c0.249-0.006,0.535-0.006,0.872-0.005c0.477,0.001,1.062,0.001,1.798-0.017
				c0.563-0.013,1.222-0.083,1.984-0.164c0.447-0.048,0.928-0.099,1.446-0.146c1.068-0.12,2.04,0.078,2.081,0.086
				c0.296,0.069,0.547,0.165,0.757,0.271c0.206-0.104,0.452-0.198,0.746-0.268c0.06-0.012,1.031-0.212,2.119-0.087
				c0.501,0.044,0.984,0.096,1.434,0.144c0.759,0.08,1.416,0.15,1.974,0.163c0.736,0.019,1.323,0.019,1.8,0.017
				c0.338,0,0.623-0.001,0.873,0.005l0.81,0.019l0.002,15.534l-0.783,0.045c-0.039,0.001-0.967,0.052-2.165,0.024
				c-1.208-0.026-2.058-0.104-2.808-0.172c-0.78-0.072-1.452-0.13-2.378-0.13c-0.324,0-0.414,0.103-0.611,0.33
				C37.113,53.188,36.798,53.551,36.26,53.551z M34.626,50.983c0.017,0,0.035,0,0.052,0c0.817,0.002,1.303,0.357,1.595,0.658
				c0.307-0.304,0.8-0.656,1.636-0.658c1.02,0.013,1.746,0.065,2.531,0.137c0.759,0.069,1.544,0.141,2.697,0.167
				c0.476,0.011,0.908,0.009,1.251,0.003l-0.002-12.314c-0.1,0.003-0.208,0-0.318,0c-0.43,0-0.938-0.002-1.546-0.018
				c-0.626-0.015-1.314-0.088-2.111-0.172c-0.439-0.047-0.914-0.099-1.424-0.143c-0.837-0.098-1.588,0.055-1.596,0.058
				c-0.432,0.102-0.566,0.278-0.571,0.286l-0.466-0.273l-0.532,0.307c0,0.001,0,0.002,0,0.002c-0.004,0-0.182-0.217-0.651-0.326l0,0
				c-0.002,0.001-0.747-0.146-1.555-0.056c-0.528,0.047-0.999,0.099-1.437,0.145c-0.799,0.085-1.489,0.158-2.121,0.173
				c-0.753,0.019-1.351,0.018-1.84,0.018c-0.007,0-0.015,0-0.022,0L28.196,51.29c0.344,0.006,0.778,0.008,1.252-0.003
				c1.153-0.026,1.938-0.098,2.697-0.167C32.918,51.051,33.648,50.983,34.626,50.983z"/>
		</g>
		<g>
			<rect x="24.738" y="25.159" fill="#FFFFFF" width="8.2" height="1.38"/>
		</g>
		<g>
			<rect x="24.738" y="25.021" fill="#FFFFFF" width="8.2" height="1.657"/>
		</g>
		<g>
			<rect x="35.547" y="33.656" fill="#FFFFFF" width="1.38" height="27.891"/>
		</g>
		<g>
			<rect x="35.615" y="33.656" fill="#FFFFFF" width="1.243" height="27.891"/>
		</g>
		<g>
			<polygon fill="#FFFFFF" points="47.687,28.153 44.043,25.725 40.702,28.139 39.894,27.021 44.013,24.045 48.452,27.006 			"/>
		</g>
		<g>
			<polygon fill="#FFFFFF" points="47.725,28.269 44.162,25.895 40.9,28.252 39.929,26.907 44.124,23.875 48.644,26.89 			"/>
		</g>
		<g>
			<path fill="#FFFFFF" d="M42.832,41.471c-0.236-0.006-0.911-0.024-1.513-0.041l-0.576-0.017c-0.332-0.008-0.714-0.048-1.154-0.096
				c-0.219-0.023-0.453-0.049-0.704-0.072c-0.132-0.014-0.254-0.017-0.363-0.011l-0.036-0.871c0.148-0.008,0.314-0.005,0.486,0.015
				c0.25,0.023,0.488,0.048,0.71,0.073c0.413,0.043,0.771,0.084,1.083,0.091l0.578,0.016c0.6,0.018,1.272,0.036,1.507,0.042
				L42.832,41.471z"/>
		</g>
		<g>
			<path fill="#FFFFFF" d="M42.833,44.127l-2.087-0.053c-0.328-0.008-0.701-0.047-1.131-0.091c-0.226-0.025-0.468-0.052-0.729-0.074
				c-0.136-0.015-0.26-0.02-0.369-0.016l-0.026-0.871c0.148-0.008,0.312,0,0.483,0.019c0.256,0.024,0.503,0.05,0.733,0.074
				c0.403,0.043,0.752,0.08,1.059,0.089l2.084,0.052L42.833,44.127z"/>
		</g>
		<g>
			<path fill="#FFFFFF" d="M42.835,46.788c-0.171-0.002-0.57-0.013-1.005-0.025l-1.084-0.029c-0.324-0.006-0.696-0.044-1.123-0.091
				c-0.228-0.023-0.473-0.051-0.737-0.073c-0.133-0.013-0.258-0.017-0.367-0.014l-0.031-0.872c0.148-0.006,0.312,0,0.482,0.018
				c0.263,0.024,0.513,0.05,0.746,0.075c0.398,0.042,0.745,0.081,1.048,0.087l1.091,0.028c0.431,0.012,0.825,0.023,0.994,0.026
				L42.835,46.788z"/>
		</g>
		<g>
			<path fill="#FFFFFF" d="M42.833,49.45c-0.302-0.006-1.324-0.033-1.99-0.051l-0.099-0.003c-0.325-0.008-0.696-0.047-1.123-0.093
				c-0.228-0.023-0.472-0.05-0.735-0.074c-0.135-0.015-0.26-0.019-0.367-0.015l-0.031-0.871c0.149-0.007,0.315,0,0.486,0.02
				c0.258,0.023,0.507,0.049,0.739,0.074c0.401,0.043,0.748,0.08,1.053,0.087l0.101,0.003c0.665,0.018,1.682,0.045,1.983,0.052
				L42.833,49.45z"/>
		</g>
		<g>
			<path fill="#FFFFFF" d="M29.713,41.447l-0.019-0.871c0.308-0.007,1.36-0.034,2.022-0.052c0.386-0.008,0.75-0.048,1.172-0.094
				c0.216-0.023,0.446-0.049,0.692-0.072c0.152-0.015,0.307-0.024,0.444-0.019l-0.01,0.871c-0.112-0.002-0.228,0.003-0.348,0.016
				c-0.247,0.023-0.473,0.048-0.685,0.07c-0.447,0.049-0.833,0.091-1.182,0.097C31.076,41.413,30.022,41.441,29.713,41.447z"/>
		</g>
		<g>
			<path fill="#FFFFFF" d="M29.713,44.109l-0.019-0.872l2.088-0.054c0.313-0.009,0.67-0.047,1.084-0.093
				c0.222-0.022,0.459-0.05,0.714-0.074c0.165-0.012,0.319-0.017,0.458-0.011l-0.037,0.87c-0.108-0.005-0.227,0.001-0.346,0.01
				c-0.244,0.023-0.477,0.048-0.695,0.072c-0.442,0.048-0.823,0.089-1.158,0.097L29.713,44.109z"/>
		</g>
		<g>
			<path fill="#FFFFFF" d="M29.709,46.766l-0.011-0.872c0.318-0.004,1.427-0.035,2.082-0.054c0.308-0.005,0.664-0.042,1.077-0.087
				c0.225-0.022,0.467-0.049,0.727-0.072c0.144-0.018,0.3-0.021,0.442-0.018l-0.01,0.871c-0.107,0-0.223,0-0.341,0.014
				c-0.269,0.024-0.504,0.049-0.726,0.073c-0.434,0.045-0.81,0.085-1.151,0.089C31.145,46.729,30.029,46.762,29.709,46.766z"/>
		</g>
		<g>
			<path fill="#FFFFFF" d="M29.71,49.429l-0.012-0.87c0.299-0.004,1.301-0.033,1.964-0.051l0.119-0.003
				c0.319-0.008,0.681-0.049,1.1-0.093c0.218-0.024,0.451-0.05,0.699-0.073c0.149-0.017,0.303-0.02,0.443-0.017l-0.01,0.871
				c-0.107,0-0.224-0.001-0.343,0.013c-0.251,0.023-0.48,0.049-0.694,0.072c-0.448,0.049-0.835,0.089-1.173,0.098l-0.117,0.004
				C31.019,49.398,30.011,49.425,29.71,49.429z"/>
		</g>
		<g>
			<g>
				<rect x="24.911" y="39.551" fill="#FFFFFF" width="1.805" height="1.981"/>
			</g>
			<g>
				<rect x="24.911" y="44.136" fill="#FFFFFF" width="1.902" height="1.985"/>
			</g>
			<g>
				<rect x="24.911" y="48.238" fill="#FFFFFF" width="1.805" height="1.977"/>
			</g>
			<g>
				<rect x="45.694" y="39.942" fill="#FFFFFF" width="1.806" height="1.979"/>
			</g>
			<g>
				<rect x="45.694" y="44.526" fill="#FFFFFF" width="1.902" height="1.982"/>
			</g>
			<g>
				<rect x="45.694" y="48.627" fill="#FFFFFF" width="1.806" height="1.979"/>
			</g>
			<g>
				<g>
					<g>
						<path fill="#FFFFFF" d="M8.438,34c0.062,0.35,0.106,0.725,0.084,1.082c-0.096,1.524-0.936,2.533-2.549,2.433
							c-1.634-0.103-2.488-1.146-2.389-2.741c0.021-0.312,0.108-0.718,0.265-1.054l0.803,0.117
							c-0.229,0.347-0.297,0.665-0.317,1.003c-0.061,0.971,0.652,1.624,1.631,1.686c0.972,0.062,1.738-0.488,1.801-1.491
							c0.024-0.369-0.032-0.812-0.133-1.042L8.438,34z"/>
					</g>
				</g>
				<g>
					<g>
						<path fill="#FFFFFF" d="M4.703,28.791c0.403-1.424,1.604-1.944,2.997-1.549c1.39,0.393,2.167,1.468,1.759,2.901
							c-0.413,1.455-1.612,1.944-3.023,1.545C5.024,31.286,4.292,30.235,4.703,28.791z M8.734,29.938
							c0.264-0.929-0.475-1.512-1.305-1.747c-0.812-0.232-1.747-0.097-2.004,0.808c-0.255,0.902,0.469,1.509,1.28,1.738
							C7.534,30.974,8.47,30.867,8.734,29.938z"/>
					</g>
				</g>
				<g>
					<g>
						<path fill="#FFFFFF" d="M6.603,23.846l0.48-0.899c0.475-0.896,1.012-1.979,2.186-1.354c0.495,0.264,0.732,0.812,0.522,1.378
							l0.011,0.01c0.139-0.219,0.439-0.227,0.672-0.21l2.005,0.21l-0.495,0.931L10.4,23.709c-0.379-0.048-0.557-0.005-0.744,0.346
							l-0.142,0.269l1.753,0.935l-0.445,0.836L6.603,23.846z M8.848,23.97l0.146-0.274c0.22-0.41,0.411-0.915-0.116-1.193
							c-0.508-0.271-0.798,0.172-1.021,0.589l-0.146,0.274L8.848,23.97z"/>
					</g>
				</g>
				<g>
					<g>
						<path fill="#FFFFFF" d="M9.833,18.383l0.743-0.894l3.898,0.898l0.01-0.01l-2.752-2.282l0.577-0.697l3.682,3.053l-0.738,0.889
							l-3.904-0.895l-0.007,0.011l2.751,2.284l-0.578,0.695L9.833,18.383z"/>
					</g>
				</g>
				<g>
					<g>
						<path fill="#FFFFFF" d="M14.625,13.188l2.156-1.755l0.477,0.583l-1.427,1.159l0.745,0.915l1.305-1.063l0.476,0.583
							l-1.306,1.064l0.848,1.042l1.435-1.169l0.475,0.584l-2.168,1.766L14.625,13.188z"/>
					</g>
				</g>
				<g>
					<g>
						<path fill="#FFFFFF" d="M19.315,9.741l0.826-0.467l1.975,3.511l1.594-0.898l0.37,0.658l-2.421,1.36L19.315,9.741z"/>
					</g>
				</g>
				<g>
					<g>
						<path fill="#FFFFFF" d="M24.171,7.306l0.891-0.322l1.37,3.785l1.72-0.621l0.258,0.708l-2.612,0.945L24.171,7.306z"/>
					</g>
				</g>
				<g>
					<g>
						<path fill="#FFFFFF" d="M31.793,5.229l0.944-0.079l0.227,2.754c0.067,0.81,0.368,1.324,1.09,1.263
							c0.719-0.059,0.931-0.613,0.863-1.424l-0.229-2.755l0.944-0.077l0.252,3.045c0.107,1.277-0.564,1.862-1.77,1.964
							c-1.203,0.099-1.963-0.368-2.069-1.645L31.793,5.229z"/>
					</g>
				</g>
				<g>
					<g>
						<path fill="#FFFFFF" d="M38.878,4.987l1.151,0.156l1.303,3.784l0.014,0.002l0.477-3.545l0.898,0.122l-0.64,4.737l-1.145-0.153
							l-1.31-3.785l-0.014-0.001l-0.476,3.541L38.24,9.727L38.878,4.987z"/>
					</g>
				</g>
				<g>
					<g>
						<path fill="#FFFFFF" d="M45.655,6.285l0.902,0.283l-1.431,4.562l-0.903-0.283L45.655,6.285z"/>
					</g>
				</g>
				<g>
					<g>
						<path fill="#FFFFFF" d="M49.018,7.417l0.905,0.459l-0.615,3.896l0.012,0.007l2.762-2.81l0.837,0.421l-3.574,3.552
							l-1.037-0.523L49.018,7.417z"/>
					</g>
				</g>
				<g>
					<g>
						<path fill="#FFFFFF" d="M55.217,10.945l2.192,1.716l-0.463,0.592l-1.447-1.132l-0.726,0.93l1.324,1.036l-0.463,0.595
							l-1.325-1.038l-0.828,1.059l1.459,1.142l-0.463,0.593l-2.203-1.723L55.217,10.945z"/>
					</g>
				</g>
				<g>
					<g>
						<path fill="#FFFFFF" d="M59.619,14.729l0.672,0.766c0.668,0.763,1.492,1.648,0.493,2.526c-0.422,0.37-1.018,0.397-1.477,0.002
							l-0.011,0.007c0.156,0.206,0.059,0.49-0.039,0.699l-0.907,1.803l-0.696-0.791l0.748-1.413
							c0.179-0.335,0.203-0.517-0.061-0.814l-0.199-0.229l-1.495,1.308l-0.624-0.71L59.619,14.729z M58.708,16.785l0.205,0.234
							c0.306,0.35,0.711,0.706,1.159,0.312c0.433-0.378,0.121-0.807-0.191-1.161l-0.206-0.234L58.708,16.785z"/>
					</g>
				</g>
				<g>
					<g>
						<path fill="#FFFFFF" d="M64.082,22.31c-0.041-0.322-0.143-0.646-0.312-0.93c-0.165-0.279-0.501-0.565-0.949-0.302
							c-0.716,0.422,0.639,2.023-0.74,2.84c-0.901,0.533-1.661,0.031-2.145-0.787c-0.262-0.443-0.32-0.675-0.458-1.135l0.789-0.366
							c0.013,0.371,0.103,0.75,0.29,1.069c0.184,0.311,0.585,0.628,0.957,0.406c0.787-0.463-0.592-2.049,0.771-2.854
							c0.919-0.544,1.672-0.038,2.095,0.676c0.206,0.348,0.352,0.702,0.427,1.057L64.082,22.31z"/>
					</g>
				</g>
				<g>
					<g>
						<path fill="#FFFFFF" d="M66.178,24.689l0.359,0.877l-4.43,1.805l-0.355-0.875L66.178,24.689z"/>
					</g>
				</g>
				<g>
					<g>
						<path fill="#FFFFFF" d="M67,29.423l-0.324-1.312l0.733-0.179l0.873,3.544l-0.732,0.179l-0.323-1.312l-3.911,0.963l-0.226-0.92
							L67,29.423z"/>
					</g>
				</g>
				<g>
					<g>
						<path fill="#FFFFFF" d="M65.854,35.583l2.79-1.879l0.063,1.104l-1.944,1.225l2.068,1.022l0.055,0.999l-2.979-1.526
							l-1.89,0.104l-0.051-0.945L65.854,35.583z"/>
					</g>
				</g>
				<g>
					<g>
						<path fill="#FFFFFF" d="M9.181,43.85l0.733,2.544l-0.725,0.21l-0.47-1.629l-1.131,0.328l0.446,1.547l-0.723,0.21l-0.446-1.55
							L4.85,46.093l-0.266-0.919L9.181,43.85z"/>
					</g>
				</g>
				<g>
					<g>
						<path fill="#FFFFFF" d="M11.421,49.713c0.66,1.343,0.121,2.546-1.179,3.182c-1.295,0.638-2.594,0.354-3.26-1.001
							c-0.675-1.369-0.112-2.546,1.204-3.189C9.502,48.059,10.752,48.355,11.421,49.713z M7.659,51.562
							C8.089,52.44,9.028,52.383,9.803,52c0.757-0.37,1.359-1.103,0.94-1.953c-0.416-0.85-1.363-0.817-2.119-0.447
							C7.848,49.979,7.228,50.686,7.659,51.562z"/>
					</g>
				</g>
				<g>
					<g>
						<path fill="#FFFFFF" d="M13.455,53.478l0.595,0.746l-2.16,1.716c-0.64,0.505-0.896,1.043-0.441,1.614
							c0.453,0.575,1.033,0.445,1.67-0.063l2.161-1.718l0.596,0.75l-2.393,1.899c-1.001,0.795-1.865,0.56-2.627-0.396
							c-0.76-0.959-0.797-1.856,0.206-2.652L13.455,53.478z"/>
					</g>
				</g>
				<g>
					<g>
						<path fill="#FFFFFF" d="M17.378,58.054l0.911,0.742l-0.86,3.917l0.011,0.006l2.263-2.764l0.71,0.577l-3.029,3.701
							l-0.904-0.739l0.854-3.924l-0.012-0.007l-2.262,2.765l-0.708-0.577L17.378,58.054z"/>
					</g>
				</g>
				<g>
					<g>
						<path fill="#FFFFFF" d="M22.227,61.708l1.167,0.585c1.303,0.656,2.237,1.676,1.383,3.373
							c-0.851,1.694-2.228,1.556-3.532,0.899l-1.166-0.583L22.227,61.708z M21.272,65.739l0.477,0.239
							c0.714,0.355,1.669,0.17,2.138-0.762c0.467-0.928,0.048-1.808-0.667-2.167l-0.477-0.24L21.272,65.739z"/>
					</g>
				</g>
				<g>
					<g>
						<path fill="#FFFFFF" d="M27.757,64.167l2.718,0.728L30.28,65.62l-1.794-0.478l-0.303,1.137l1.643,0.438l-0.194,0.727
							l-1.644-0.438l-0.345,1.299l1.808,0.48l-0.193,0.729l-2.732-0.729L27.757,64.167z"/>
					</g>
				</g>
				<g>
					<g>
						<path fill="#FFFFFF" d="M32.578,65.269l1.302,0.075c1.457,0.081,2.719,0.647,2.61,2.54c-0.108,1.896-1.425,2.316-2.883,2.235
							l-1.301-0.074L32.578,65.269z M33.301,69.348l0.533,0.028c0.798,0.046,1.602-0.506,1.663-1.548
							c0.057-1.038-0.679-1.677-1.476-1.722l-0.53-0.03L33.301,69.348z"/>
					</g>
				</g>
				<g>
					<g>
						<path fill="#FFFFFF" d="M41.349,64.923l1.054-0.225l2.834,4.279l-1.036,0.224l-0.628-0.987l-1.89,0.41l-0.178,1.155
							l-0.967,0.208L41.349,64.923z M42.064,65.752l-0.013,0.002l-0.26,2.072l1.362-0.291L42.064,65.752z"/>
					</g>
				</g>
				<g>
					<g>
						<path fill="#FFFFFF" d="M46.302,67.54l0.898-0.325l0.327,0.9l-0.897,0.324L46.302,67.54z"/>
					</g>
				</g>
				<g>
					<g>
						<path fill="#FFFFFF" d="M47.517,63.011l1.146-0.621c1.286-0.7,2.655-0.877,3.56,0.79c0.903,1.67,0.003,2.717-1.281,3.412
							l-1.146,0.621L47.517,63.011z M50.278,66.096l0.468-0.251c0.702-0.384,1.095-1.272,0.6-2.19
							c-0.496-0.917-1.458-1.072-2.161-0.688l-0.468,0.252L50.278,66.096z"/>
					</g>
				</g>
				<g>
					<g>
						<path fill="#FFFFFF" d="M53.607,63.896l0.787-0.548l0.546,0.788l-0.785,0.547L53.607,63.896z"/>
					</g>
				</g>
				<g>
					<g>
						<path fill="#FFFFFF" d="M55.58,57.355l0.601-0.595l3.359,3.406l-0.68,0.672l-2.593-2.628l-0.112,1.032l-0.778-0.107
							L55.58,57.355z"/>
					</g>
				</g>
				<g>
					<g>
						<path fill="#FFFFFF" d="M59.861,55.988c-0.457,0.256-0.961,0.274-1.365-0.021c-0.687-0.512-0.627-1.271-0.112-1.969
							c0.5-0.675,1.23-1.076,1.874-0.602c0.348,0.259,0.594,0.77,0.45,1.318l0.006,0.005c0.61-0.33,1.112-0.316,1.552,0.009
							c0.778,0.573,0.707,1.386,0.146,2.144c-0.553,0.744-1.324,1.111-2.104,0.529c-0.432-0.315-0.549-0.778-0.436-1.405
							L59.861,55.988z M60.088,55.071c0.082-0.271-0.004-0.664-0.241-0.838c-0.286-0.213-0.619-0.178-0.833,0.111
							c-0.206,0.281-0.259,0.674,0.048,0.902C59.394,55.49,59.795,55.26,60.088,55.071z M61.837,56.447
							c0.23-0.307,0.214-0.689-0.105-0.928c-0.379-0.279-0.802-0.09-1.143,0.149c-0.069,0.372-0.051,0.716,0.272,0.957
							C61.184,56.864,61.61,56.754,61.837,56.447z"/>
					</g>
				</g>
				<g>
					<g>
						<path fill="#FFFFFF" d="M62.419,49.026c-0.21,0.178-0.399,0.369-0.543,0.658c-0.367,0.735,0.193,1.331,0.818,1.677l0.019-0.01
							c-0.195-0.348-0.197-0.677-0.018-1.038c0.402-0.807,1.137-0.988,1.928-0.596c0.926,0.466,1.312,1.221,0.832,2.186
							c-0.593,1.186-1.71,0.957-2.714,0.455c-1.162-0.58-2.249-1.588-1.559-2.968c0.153-0.311,0.35-0.582,0.599-0.823L62.419,49.026
							z M63.761,51.798c0.403,0.202,0.845,0.208,1.054-0.215c0.199-0.394-0.104-0.752-0.484-0.941
							c-0.418-0.208-0.887-0.231-1.093,0.18C63.031,51.235,63.331,51.583,63.761,51.798z"/>
					</g>
				</g>
				<g>
					<g>
						<path fill="#FFFFFF" d="M64.016,43.928l-0.522,1.762l0.971,0.312c0.011-0.112,0.027-0.258,0.081-0.431
							c0.19-0.644,0.74-1.384,1.927-1.028c0.86,0.255,1.377,1.062,1.025,2.241c-0.104,0.354-0.287,0.748-0.448,1.029l-0.816-0.267
							c0.159-0.194,0.391-0.467,0.508-0.863c0.143-0.48,0.068-1.047-0.516-1.218c-0.592-0.177-0.95,0.285-1.106,0.809
							c-0.084,0.283-0.124,0.562-0.119,0.857l-2.449-0.779l0.781-2.626L64.016,43.928z"/>
					</g>
				</g>
			</g>
		</g>
	</g>
</g>
<g enable-background="new    ">
	<path fill="#FFFFFF" d="M90.752,40.595v0.656c-1.453-0.048-2.409-0.072-2.866-0.072l-3.163,0.072v-0.656
		c0.802-0.014,1.292-0.05,1.469-0.107c0.177-0.058,0.299-0.139,0.367-0.241c0.082-0.136,0.133-0.468,0.153-0.994
		c0.009-0.143,0.026-1.112,0.052-2.909v-4.744c0-0.929-0.011-1.837-0.031-2.726c-0.021-0.648-0.07-1.033-0.148-1.152
		c-0.079-0.119-0.206-0.208-0.379-0.267c-0.175-0.058-0.668-0.094-1.482-0.107V26.69c1.303,0.048,2.311,0.072,3.02,0.072
		c0.683,0,1.686-0.024,3.01-0.072v0.656c-0.81,0.014-1.301,0.05-1.475,0.107c-0.173,0.059-0.294,0.139-0.361,0.241
		c-0.082,0.137-0.133,0.468-0.153,0.994c-0.009,0.136-0.026,1.106-0.052,2.909v4.744c0,0.929,0.011,1.834,0.031,2.715
		c0.021,0.649,0.07,1.035,0.148,1.158s0.205,0.214,0.379,0.271C89.445,40.545,89.938,40.581,90.752,40.595z"/>
	<path fill="#FFFFFF" d="M92.618,41.251v-0.533c0.42-0.198,0.687-0.355,0.802-0.472c0.068-0.062,0.115-0.14,0.143-0.235
		c0.061-0.191,0.102-0.601,0.122-1.229c0.034-0.936,0.052-1.492,0.052-1.67v-5.513c0-0.929-0.011-1.837-0.031-2.726
		c-0.021-0.648-0.07-1.033-0.148-1.152c-0.079-0.119-0.205-0.208-0.379-0.267c-0.176-0.058-0.669-0.094-1.482-0.107V26.69
		c1.668,0.048,2.7,0.072,3.097,0.072c0.438,0,1.419-0.024,2.942-0.072v0.656c-0.812,0.014-1.307,0.05-1.48,0.107
		c-0.176,0.059-0.297,0.139-0.365,0.241c-0.082,0.137-0.133,0.468-0.153,0.993c-0.009,0.137-0.026,1.107-0.052,2.91v6.885
		c0,0.718,0.018,1.302,0.052,1.752c0.779,0.049,1.552,0.072,2.317,0.072c1.928,0,3.277-0.123,4.051-0.369
		c0.088-0.205,0.167-0.441,0.235-0.707l0.41-1.703h0.687c-0.15,1.02-0.297,2.215-0.44,3.59c-0.28,0.055-0.503,0.089-0.667,0.102
		c-0.355,0.021-0.902,0.031-1.641,0.031l-6.07-0.072C93.961,41.179,93.295,41.203,92.618,41.251z"/>
	<path fill="#FFFFFF" d="M104.605,27.347V26.69c0.266,0.006,0.673,0.015,1.22,0.027l1.969,0.045c0.39,0,0.995-0.013,1.815-0.037
		c1.066-0.037,1.685-0.056,1.855-0.056c1.306,0,2.258,0.116,2.855,0.349s1.062,0.61,1.39,1.133c0.328,0.523,0.492,1.092,0.492,1.707
		c0,0.574-0.153,1.146-0.462,1.713c-0.307,0.567-0.753,1.039-1.338,1.415c-0.584,0.375-1.344,0.666-2.28,0.871
		c0.171,0.238,0.575,0.771,1.211,1.597l2.586,3.397c0.737,0.95,1.167,1.48,1.29,1.589c0.061,0.049,0.122,0.082,0.184,0.104
		c0.103,0.034,0.328,0.051,0.676,0.051v0.656c-0.517-0.048-0.969-0.072-1.355-0.072c-0.402,0-0.895,0.024-1.479,0.072
		c-0.445-0.512-1.193-1.512-2.242-3c-0.582-0.826-1.097-1.516-1.542-2.068c-0.72-0.915-1.405-1.744-2.057-2.488l0.103-0.309
		c0.355,0.021,0.625,0.031,0.811,0.031c1.244,0,2.188-0.294,2.83-0.882s0.963-1.364,0.963-2.327c0-0.842-0.276-1.51-0.83-2.005
		c-0.554-0.496-1.391-0.743-2.512-0.743c-0.705,0-1.395,0.105-2.072,0.317c-0.027,0.369-0.047,0.714-0.061,1.035
		c-0.008,0.096-0.031,1.089-0.072,2.981v4.549c0,0.929,0.018,1.834,0.051,2.715c0.014,0.649,0.061,1.035,0.139,1.158
		s0.205,0.214,0.382,0.271s0.667,0.094,1.47,0.107v0.656c-0.971-0.048-1.863-0.072-2.677-0.072c-0.656,0-1.761,0.024-3.312,0.072
		v-0.656c0.802-0.014,1.291-0.05,1.469-0.107c0.177-0.058,0.299-0.139,0.367-0.241c0.082-0.136,0.133-0.468,0.152-0.994
		c0.009-0.143,0.026-1.112,0.052-2.909v-4.744c0-0.929-0.011-1.837-0.03-2.726c-0.021-0.648-0.07-1.033-0.149-1.152
		s-0.205-0.208-0.379-0.267C105.912,27.396,105.418,27.36,104.605,27.347z"/>
	<path fill="#FFFFFF" d="M124.088,40.747c0.109-0.656,0.174-1.719,0.194-3.188h0.687c0.035,0.998,0.091,1.588,0.17,1.769
		c0.078,0.182,0.269,0.374,0.57,0.579c0.301,0.205,0.705,0.389,1.211,0.549c0.507,0.161,0.996,0.241,1.469,0.241
		c0.691,0,1.328-0.159,1.91-0.478s1.006-0.736,1.273-1.254c0.267-0.518,0.4-1.07,0.4-1.659c0-0.451-0.066-0.841-0.2-1.169
		c-0.133-0.328-0.337-0.593-0.609-0.794c-0.273-0.202-0.612-0.344-1.015-0.426c-0.253-0.041-0.759-0.11-1.518-0.209
		c-0.758-0.098-1.404-0.205-1.938-0.321c-0.711-0.218-1.234-0.474-1.57-0.768c-0.334-0.293-0.606-0.679-0.814-1.156
		c-0.209-0.479-0.313-0.993-0.313-1.546c0-0.806,0.21-1.564,0.631-2.278c0.42-0.713,1.042-1.268,1.866-1.663
		c0.823-0.396,1.717-0.594,2.682-0.594c0.58,0,1.215,0.077,1.901,0.231c0.688,0.154,1.328,0.378,1.923,0.673
		c-0.096,0.431-0.164,0.832-0.205,1.204s-0.072,0.921-0.092,1.645h-0.688c-0.021-1.053-0.051-1.627-0.092-1.723
		c-0.172-0.246-0.404-0.468-0.699-0.666c-0.705-0.396-1.441-0.596-2.208-0.596c-0.993,0-1.786,0.302-2.378,0.905
		c-0.592,0.603-0.889,1.385-0.889,2.346c0,0.581,0.106,1.03,0.318,1.349c0.213,0.317,0.592,0.572,1.139,0.764
		c0.377,0.13,0.992,0.252,1.846,0.366c0.855,0.115,1.623,0.237,2.307,0.367c0.643,0.191,1.117,0.419,1.426,0.682
		c0.307,0.264,0.561,0.609,0.758,1.037c0.199,0.427,0.298,0.928,0.298,1.503c0,1.361-0.563,2.548-1.692,3.561
		c-1.127,1.012-2.587,1.518-4.378,1.518C126.415,41.548,125.188,41.281,124.088,40.747z"/>
	<path fill="#FFFFFF" d="M143.344,40.082l-0.41,0.687c-0.471,0.254-0.938,0.438-1.398,0.555c-0.463,0.115-0.983,0.174-1.564,0.174
		c-1.436,0-2.578-0.433-3.43-1.299c-0.852-0.865-1.277-2.054-1.277-3.566c0-0.801,0.115-1.497,0.344-2.089s0.512-1.049,0.846-1.37
		c0.227-0.226,0.654-0.519,1.287-0.878c0.633-0.358,1.075-0.59,1.328-0.692c0.465-0.198,1.021-0.298,1.672-0.298
		c0.615,0,1.168,0.065,1.66,0.194c0.314,0.082,0.629,0.22,0.943,0.41c-0.078,0.527-0.135,0.925-0.168,1.195
		c-0.033,0.27-0.076,0.761-0.129,1.471h-0.584c-0.041-0.662-0.082-1.076-0.123-1.24c-0.028-0.103-0.09-0.195-0.186-0.277
		c-0.246-0.19-0.563-0.356-0.95-0.497c-0.388-0.14-0.81-0.21-1.269-0.21c-0.576,0-1.074,0.118-1.496,0.354
		c-0.42,0.236-0.748,0.61-0.98,1.124s-0.35,1.149-0.35,1.909c0,0.932,0.164,1.773,0.492,2.526s0.775,1.302,1.338,1.647
		c0.564,0.346,1.195,0.519,1.893,0.519c0.349,0,0.688-0.043,1.02-0.128c0.332-0.086,0.758-0.248,1.277-0.487L143.344,40.082z"/>
	<path fill="#FFFFFF" d="M143.898,41.251v-0.584l0.963-0.011c0.15-0.007,0.266-0.032,0.344-0.077
		c0.078-0.044,0.139-0.101,0.18-0.169c0.075-0.137,0.119-0.38,0.133-0.728c0.008-0.089,0.031-1.07,0.072-2.943v-5.301
		c0-1.142-0.018-2.321-0.051-3.538c-0.027-0.82-0.066-1.278-0.113-1.374c-0.035-0.068-0.09-0.116-0.166-0.144
		c-0.104-0.048-0.577-0.071-1.424-0.071v-0.605c1.545-0.191,2.619-0.431,3.221-0.718c0.088-0.041,0.156-0.062,0.205-0.062
		c0.047,0,0.085,0.016,0.112,0.046c0.027,0.031,0.041,0.074,0.041,0.128c0,0.049-0.007,0.117-0.019,0.205l-0.01,0.339
		c-0.031,1.224-0.049,2.267-0.056,3.128l-0.019,1.6v2.994c0.096-0.075,0.365-0.309,0.809-0.697c0.443-0.391,0.707-0.622,0.789-0.697
		c0.129-0.123,0.231-0.205,0.307-0.246c0.13-0.068,0.324-0.137,0.584-0.205c0.354-0.096,0.699-0.145,1.033-0.145
		c0.629,0,1.225,0.149,1.787,0.446c0.562,0.298,0.953,0.672,1.172,1.123s0.328,1.118,0.328,1.999v1.805l0.025,1.416
		c0.018,0.881,0.025,1.377,0.025,1.486c0.014,0.328,0.056,0.567,0.125,0.718c0.027,0.068,0.068,0.125,0.123,0.169
		c0.055,0.045,0.138,0.077,0.248,0.098c0.041,0.007,0.398,0.018,1.073,0.031v0.584c-0.779-0.034-1.347-0.051-1.702-0.051
		c-0.301,0-0.92,0.017-1.855,0.051c0.096-1.012,0.143-1.996,0.143-2.953v-2.543c0-0.793-0.058-1.363-0.174-1.713
		c-0.116-0.348-0.354-0.661-0.713-0.938c-0.358-0.277-0.836-0.416-1.43-0.416c-0.377,0-0.711,0.055-1.006,0.163
		c-0.293,0.108-0.563,0.272-0.81,0.491s-0.454,0.454-0.626,0.708c-0.082,0.123-0.137,0.271-0.164,0.446
		c-0.027,0.174-0.041,0.524-0.041,1.051v1.2c0.029,1.771,0.046,2.729,0.052,2.872c0.014,0.342,0.056,0.592,0.124,0.749
		c0.027,0.068,0.068,0.125,0.123,0.169c0.056,0.045,0.139,0.077,0.248,0.098c0.049,0.007,0.43,0.018,1.146,0.031v0.584
		c-1.217-0.048-2.058-0.072-2.522-0.072C146.13,41.179,145.252,41.203,143.898,41.251z"/>
	<path fill="#FFFFFF" d="M156.685,36.529c0-1.533,0.487-2.783,1.461-3.752c0.975-0.968,2.224-1.452,3.748-1.452
		c1.436,0,2.604,0.451,3.507,1.354s1.354,2.07,1.354,3.5c0,1-0.232,1.913-0.697,2.741s-1.121,1.477-1.969,1.945
		c-0.848,0.468-1.781,0.703-2.799,0.703c-0.793,0-1.465-0.134-2.016-0.4c-0.551-0.268-0.996-0.603-1.338-1.006
		c-0.342-0.404-0.602-0.818-0.779-1.242C156.842,38.175,156.685,37.378,156.685,36.529z M158.623,35.77
		c0,0.842,0.14,1.697,0.42,2.566s0.686,1.504,1.215,1.904s1.105,0.601,1.729,0.601c0.793,0,1.455-0.314,1.988-0.944
		s0.801-1.599,0.801-2.905c0-1.088-0.159-2.027-0.478-2.818c-0.317-0.79-0.723-1.348-1.215-1.673s-1.036-0.487-1.63-0.487
		c-0.842,0-1.523,0.304-2.046,0.913C158.884,33.535,158.623,34.483,158.623,35.77z"/>
	<path fill="#FFFFFF" d="M168.148,36.529c0-1.533,0.487-2.783,1.461-3.752c0.975-0.968,2.224-1.452,3.748-1.452
		c1.436,0,2.604,0.451,3.507,1.354s1.354,2.07,1.354,3.5c0,1-0.232,1.913-0.697,2.741s-1.121,1.477-1.969,1.945
		c-0.848,0.468-1.78,0.703-2.8,0.703c-0.793,0-1.465-0.134-2.015-0.4c-0.55-0.268-0.996-0.603-1.338-1.006
		c-0.342-0.404-0.602-0.818-0.779-1.242C168.306,38.175,168.148,37.378,168.148,36.529z M170.086,35.77
		c0,0.842,0.141,1.697,0.421,2.566s0.685,1.504,1.215,1.904s1.106,0.601,1.728,0.601c0.793,0,1.457-0.314,1.99-0.944
		s0.799-1.599,0.799-2.905c0-1.088-0.158-2.027-0.477-2.818c-0.317-0.79-0.723-1.348-1.215-1.673s-1.035-0.487-1.631-0.487
		c-0.84,0-1.522,0.304-2.045,0.913C170.348,33.535,170.086,34.483,170.086,35.77z"/>
	<path fill="#FFFFFF" d="M179.438,41.251v-0.584l0.965-0.011c0.15-0.007,0.264-0.032,0.343-0.077
		c0.079-0.044,0.139-0.101,0.18-0.169c0.075-0.137,0.12-0.379,0.134-0.728c0.006-0.089,0.03-1.068,0.071-2.94V32.49
		c0-1.141-0.017-2.319-0.052-3.535c-0.027-0.819-0.064-1.277-0.113-1.373c-0.034-0.068-0.089-0.116-0.164-0.144
		c-0.104-0.047-0.578-0.071-1.424-0.071v-0.604c1.545-0.191,2.617-0.432,3.219-0.719c0.09-0.041,0.158-0.061,0.205-0.061
		c0.049,0,0.086,0.015,0.113,0.046c0.027,0.03,0.041,0.073,0.041,0.128c0,0.048-0.007,0.116-0.021,0.205l-0.011,0.338
		c-0.033,1.223-0.055,2.265-0.061,3.125l-0.021,1.599v5.318c0.029,1.776,0.046,2.735,0.052,2.879
		c0.007,0.342,0.048,0.591,0.124,0.748c0.027,0.062,0.068,0.114,0.123,0.159c0.056,0.044,0.139,0.08,0.248,0.107
		c0.049,0.007,0.43,0.018,1.146,0.031v0.584c-0.93-0.048-1.747-0.072-2.45-0.072C181.414,41.179,180.531,41.203,179.438,41.251z"/>
</g>
</svg>
